<?xml version="1.0" encoding="UTF-8"?> <svg xmlns="http://www.w3.org/2000/svg" xmlns:xlink="http://www.w3.org/1999/xlink" version="1.1" id="Layer_1" x="0px" y="0px" viewBox="0 0 600 258.3" style="enable-background:new 0 0 600 258.3;" xml:space="preserve"> <style type="text/css"> .st0{fill:#016AF1;} </style> <g> <path class="st0" d="M234.4,86.2l-19.7-32.9l-0.3,0.4C208,64.6,201.5,75.4,195,86.2H234.4L234.4,86.2z M169.1,119.1h-25.3 c-0.5-0.1-1,0.2-1.2,0.7c-4.6,7.6-9.2,15.2-13.8,22.8l-9.8,16.5c-0.1,0.2-0.2,0.4-0.4,0.7h25.5c0.4,0,0.7-0.2,0.9-0.6l23.7-39.4 C168.9,119.5,169,119.3,169.1,119.1 M224.3,27.2h-25.6c-0.3-0.1-0.6,0.1-0.8,0.4c-0.1,0.1-0.1,0.2-0.2,0.3l-19.2,32l-15.3,25.5 c-0.1,0.2-0.3,0.5-0.4,0.8h26.1L224.3,27.2 M281.9,102.7c-12.5,20.8-24.9,41.5-37.4,62.2h-38.2l27.5-45.8h-58.1 c-0.2-0.1-0.5,0.1-0.6,0.3c-0.1,0.1-0.1,0.2-0.2,0.3c-8.9,14.8-17.8,29.7-26.6,44.5c-0.2,0.5-0.8,0.8-1.4,0.8h-37.4 c0.2-0.3,0.2-0.5,0.4-0.7c10-16.7,20-33.3,30-50c0.2-0.4,0.7-0.6,1.2-0.6h102c-9.2,15.3-18.3,30.5-27.5,45.8h26.1l0.4-0.6 c11.1-18.5,22.3-37.1,33.4-55.6c0.5-0.9,0.5-0.6,0-1.5c-14.8-24.7-29.6-49.4-44.5-74.1l-0.4-0.7c-4.3,7.1-8.5,14.1-12.7,21.2 l25.8,43c-0.6,0.1-88.6,0.2-89.9,0c0.1-0.2,0.2-0.4,0.3-0.6c2.8-4.6,5.5-9.3,8.4-13.9l32.6-54.1c0.1-0.1,0.2-0.3,0.2-0.4 c0.1-0.2,0.3-0.3,0.5-0.3h37.1c0.5,0,0.9,0.2,1.2,0.7c15.9,26.5,31.8,53,47.7,79.5L281.9,102.7"></path> <path class="st0" d="M307.8,89.2h-0.1l-5.2,15.4H313C311.2,99.4,309.5,94.3,307.8,89.2 M315.1,110.7h-14.8 c-0.8,2.3-1.6,4.7-2.4,7.1h-6.7c0-0.5,12.4-35.9,13-37.1h7.4l13,37c-2.4,0.2-4.7,0.2-7,0.1C316.7,115.5,315.9,113.1,315.1,110.7"></path> <path class="st0" d="M359.3,104.4c0,0.5,0,1.2,0.1,1.8c0.1,1.3,0.5,2.6,1,3.8c1.5,2.8,5,3.8,7.7,2.2c0.5-0.2,0.9-0.6,1.3-1 c0.9-1,1.5-2.1,1.8-3.4c0.5-2.2,0.6-4.4,0.2-6.6c-0.2-1.1-0.5-2.2-1-3.1c-1-1.8-2.8-2.8-4.8-2.8c-2.3-0.2-4.5,1.2-5.3,3.4 c-0.1,0.3-0.2,0.7-0.4,1C359.5,101.2,359.3,102.8,359.3,104.4 M359.6,116v12c-2.2,0.1-4.4,0.1-6.5,0V90.5h5.6 c0.1,0.9,0.3,1.8,0.4,2.8c0.1,0,0.2-0.1,0.2-0.2c1.3-1.7,3.2-2.8,5.3-3.1c3.5-0.7,7,0.3,9.5,2.8c1.4,1.4,2.5,3.1,3.1,5 c1.4,4.2,1.4,8.7-0.1,12.9c-0.5,1.5-1.4,2.9-2.4,4.1c-1.9,2.2-4.5,3.4-7.4,3.5c-1.2,0.1-2.4,0-3.5-0.3c-1.6-0.3-3.1-1.1-4.3-2.1"></path> <path class="st0" d="M343.9,104.2v-1.7c0-1.5-0.4-2.9-1.1-4.2c-0.9-1.8-2.8-2.9-4.8-2.8c-2.3-0.2-4.5,1.1-5.4,3.3 c-0.2,0.5-0.4,1-0.5,1.6c-0.5,2.3-0.6,4.6-0.3,6.9c0.2,1.2,0.6,2.4,1.2,3.4c0.6,1,1.6,1.8,2.8,2.1c2.8,1,5.9-0.4,7.1-3.1 c0.2-0.5,0.4-1,0.5-1.6c0.3-1.2,0.5-2.6,0.4-3.9 M332,115.9v12c-2.1,0.2-4.3,0.2-6.5,0.1c-0.1-0.5-0.2-35.9-0.1-37.6 c1.9-0.1,3.7-0.1,5.6,0c0.1,0.9,0.3,1.8,0.4,2.7l0.2-0.1c1.3-1.7,3.2-2.8,5.4-3.1c3.1-0.6,6.3,0.1,8.7,2.1c2,1.6,3.5,3.9,4.1,6.4 c1.2,4.1,1,8.4-0.4,12.4c-0.7,1.8-1.7,3.4-3.1,4.7c-1.8,1.7-4.1,2.7-6.6,2.8c-1.5,0.1-3-0.1-4.4-0.5c-1.2-0.3-2.3-1-3.2-1.9 L332,115.9"></path> <path class="st0" d="M386.1,101.4h11.8c0-0.6-0.1-1.2-0.2-1.8c-0.3-2.2-1.9-3.9-4-4.4c-0.9-0.2-1.8-0.2-2.7-0.1 C388,95.8,385.9,98.5,386.1,101.4 M404.4,106.3h-18.2c-0.1,0.8,0,1.6,0.2,2.3c0.5,2.3,2.2,4,4.5,4.6c1.2,0.3,2.5,0.2,3.7-0.2 c1.2-0.4,2.1-1.3,2.6-2.5c0.1-0.2,0.2-0.5,0.3-0.8h6.3c-0.1,0.5-0.2,0.9-0.3,1.3c-1.1,3.8-4.4,6.6-8.3,7.2 c-2.5,0.6-5.2,0.4-7.6-0.6c-3.4-1.4-6-4.2-7.1-7.7c-0.9-2.5-1.1-5.1-0.9-7.7c0.1-1.9,0.6-3.7,1.4-5.4c1.8-4.3,6.1-7.1,10.8-7.1 c1.9-0.1,3.8,0.3,5.6,1c3.1,1.4,5.4,4,6.4,7.2c0.5,1.5,0.8,3.1,0.8,4.7L404.4,106.3"></path> <path class="st0" d="M464.2,101.4H476v-0.6c0-0.4-0.1-0.7-0.1-1.1c-0.2-2.6-2.3-4.6-4.9-4.7c-2.8-0.4-5.4,1.3-6.3,3.9 c-0.3,0.7-0.4,1.5-0.3,2.3 M482.6,106.2h-18.3c-0.1,0.8,0,1.6,0.2,2.3c0.5,2.2,2.2,4,4.5,4.5c1.2,0.3,2.5,0.2,3.7-0.2 c1.2-0.4,2.1-1.3,2.6-2.5c0.1-0.2,0.2-0.5,0.3-0.7h6.3c0,0.3-0.1,0.6-0.1,0.8c-1,3.8-4,6.8-7.8,7.6c-2.1,0.6-4.4,0.6-6.6,0.1 c-3.8-0.9-6.9-3.5-8.4-7c-0.8-1.8-1.3-3.8-1.4-5.8c-0.2-2.7,0.2-5.3,1.2-7.8c1.3-3.7,4.4-6.4,8.2-7.3c2.4-0.6,5-0.5,7.4,0.3 c3.5,1.1,6.2,3.8,7.3,7.3c0.8,2.2,1.1,4.5,0.9,6.9c0,0.5,0,1-0.1,1.6"></path> <path class="st0" d="M434.8,117.8v-3.7c-0.1-0.7,0-1.3,0.1-2c0.3-0.6,0.8-1.1,1.2-1.6c4.2-4.7,8.4-9.3,12.5-14 c0.1-0.2,0.3-0.3,0.4-0.5c0,0,0-0.1,0-0.1h-14v-5.3c0.4-0.1,20.8-0.2,21.9,0V96c0,0.4-0.1,0.8-0.4,1.1l-13,14.5l-0.8,0.9H457 c0.1,1.8,0.1,3.6,0,5.4L434.8,117.8L434.8,117.8z"></path> <path class="st0" d="M422.5,117.6c-0.9,0.2-1.6,0.3-2.4,0.4c-1.5,0.2-3,0.3-4.5,0.2c-0.6-0.1-1.3-0.2-1.9-0.3 c-2.6-0.7-4.6-2.9-4.9-5.6c-0.2-0.9-0.2-1.8-0.2-2.8V95.9h-4.9v-5.4h4.9v-6.9l6.6-1.6v8.5h6.7c0.2,1.8,0.2,3.6,0,5.4h-6.7 c0,0.2,0,0.4,0,0.6v12.5c0,0.3,0,0.6,0,0.9c0.1,1.1,1,2.1,2.1,2.1c0.6,0.1,1.3,0.1,1.9,0c0.9,0,1.7-0.1,2.5-0.2h0.7v5.5"></path> <path class="st0" d="M431.6,90.6v27.2h-6.5c-0.1-0.4-0.2-26,0-27.2H431.6z"></path> <path class="st0" d="M428.2,88.2c-2.3,0-4.1-1.9-4.1-4.2c0-2.3,1.9-4.1,4.1-4.1c2.3,0,4.1,1.8,4.1,4.1 C432.4,86.4,430.5,88.2,428.2,88.2"></path> <path class="st0" d="M481,86.8c0-2.7,2.1-4.8,4.8-4.8s4.8,2.2,4.8,4.8s-2.1,4.8-4.8,4.8l0,0c-2.6,0.1-4.8-2-4.8-4.6V86.8z M481.7,86.8c-0.1,2.2,1.5,4.2,3.8,4.3s4.1-1.6,4.3-3.8c0-0.2,0-0.3,0-0.5c-0.1-2.2-2-3.9-4.3-3.8 C483.5,83.2,481.8,84.8,481.7,86.8L481.7,86.8z M485.6,87.4h-0.9v2.2h-0.8v-5.5h2.2c0.9-0.1,1.8,0.6,1.8,1.6v0.1 c0,0.8-0.6,1.5-1.4,1.6l1.5,2.2h-1L485.6,87.4L485.6,87.4z M484.7,84.8v2h1.4c0.5,0,1-0.4,1-0.9v-0.1c0-0.5-0.4-1-0.9-1L484.7,84.8 L484.7,84.8z"></path> </g> <g> <path class="st0" d="M337.8,207.1c0-1.2-0.4-2.2-1.1-2.9c-0.8-0.7-1.8-1.1-3.1-1.1h-4.7v8h4.9c1.3,0,2.4-0.3,3.1-1 C337.4,209.4,337.8,208.4,337.8,207.1L337.8,207.1z"></path> <path class="st0" d="M276.1,204c-1-0.7-2.2-1-3.6-1c-1.4,0-2.6,0.3-3.7,1c-1,0.7-1.8,1.6-2.4,2.9c-0.6,1.3-0.8,2.8-0.8,4.5v0 c0,1.7,0.3,3.2,0.8,4.5c0.6,1.3,1.4,2.2,2.4,2.9c1,0.7,2.3,1,3.7,1c0.7,0,1.4-0.1,2-0.3l-2.8-3.9h3.6l1.7,2.4 c0.6-0.6,1.1-1.3,1.5-2.2c0.6-1.3,0.8-2.7,0.8-4.5v0c0-1.7-0.3-3.2-0.8-4.5C277.9,205.6,277.1,204.7,276.1,204z"></path> <path class="st0" d="M380.2,204.2c-1.1-0.6-2.4-0.9-4-0.9h-4.1v16.3h4.1c1.6,0,2.9-0.3,4-0.9c1.1-0.6,1.9-1.5,2.5-2.8 c0.6-1.2,0.8-2.7,0.8-4.4v0c0-1.7-0.3-3.2-0.9-4.4C382.1,205.7,381.3,204.8,380.2,204.2z"></path> <path class="st0" d="M43,184.6v51h514v-51H43z M229.2,222.5l-2-6h-8.6l-2,6h-3.6l8.1-22.3h1.9h0.9h0.9l8.1,22.3H229.2z M256.5,215.5c-0.2,1.5-0.8,2.8-1.6,3.9c-0.8,1.1-1.9,2-3.2,2.6c-1.3,0.6-2.8,0.9-4.4,0.9c-2.1,0-3.9-0.5-5.5-1.4 c-1.5-0.9-2.7-2.3-3.6-4c-0.8-1.7-1.3-3.8-1.3-6.1v0c0-2.4,0.4-4.4,1.3-6.1c0.8-1.7,2-3,3.6-4c1.5-0.9,3.4-1.4,5.5-1.4 c1.6,0,3.1,0.3,4.4,0.9c1.3,0.6,2.4,1.5,3.3,2.6c0.9,1.1,1.4,2.4,1.6,3.9l0,0.2h-3.4l-0.1-0.3c-0.2-0.9-0.6-1.6-1.1-2.3 s-1.2-1.1-2-1.4c-0.8-0.3-1.7-0.5-2.7-0.5c-1.4,0-2.6,0.3-3.6,1c-1,0.7-1.8,1.7-2.4,2.9c-0.6,1.3-0.8,2.7-0.8,4.5v0 c0,1.7,0.3,3.2,0.8,4.5c0.6,1.3,1.3,2.2,2.4,2.9c1,0.7,2.2,1,3.6,1c1,0,1.9-0.2,2.6-0.5c0.8-0.3,1.4-0.8,2-1.5 c0.5-0.6,1-1.4,1.2-2.4l0-0.2h3.4L256.5,215.5z M282.8,211.4c0,2.4-0.4,4.4-1.3,6.1c-0.7,1.3-1.5,2.4-2.6,3.3l2.9,4.1h-3.6 l-1.9-2.7c-1.2,0.4-2.5,0.7-3.9,0.7c-2.1,0-4-0.5-5.6-1.4c-1.6-0.9-2.8-2.3-3.6-4c-0.8-1.7-1.3-3.8-1.3-6.1v0 c0-2.4,0.4-4.4,1.3-6.1c0.8-1.7,2.1-3,3.6-4c1.6-0.9,3.4-1.4,5.6-1.4c2.1,0,4,0.5,5.5,1.4c1.6,0.9,2.8,2.3,3.6,4 S282.8,209,282.8,211.4L282.8,211.4z M307.3,214.7c0,1.6-0.4,3.1-1.1,4.3c-0.7,1.2-1.8,2.2-3.1,2.9c-1.3,0.7-3,1-4.8,1 c-1.9,0-3.5-0.3-4.8-1c-1.3-0.7-2.4-1.6-3.1-2.9c-0.7-1.2-1.1-2.7-1.1-4.3v-14.4h3.5v14.2c0,1.6,0.5,2.9,1.5,3.9 c1,1,2.3,1.5,4.1,1.5c1.8,0,3.1-0.5,4.1-1.5c1-1,1.4-2.3,1.4-3.9v-14.2h3.5V214.7z M318,222.5h-3.5v-22.3h3.5V222.5z M338,222.5 l-4.5-8.5c0,0-0.1,0-0.1,0s-0.1,0-0.1,0h-4.5v8.5h-3.5v-22.3h8.7c1.5,0,2.8,0.3,3.9,0.8c1.1,0.6,2,1.3,2.6,2.4 c0.6,1,0.9,2.2,0.9,3.6v0c0,1.5-0.4,2.8-1.1,4c-0.8,1.1-1.8,1.9-3.2,2.4l5,9.1H338z M362,203.2h-10.7v6.5h10.1v2.9h-10.1v6.9H362v3 h-14.1v-22.3H362V203.2z M387.1,211.3c0,2.3-0.4,4.4-1.2,6c-0.8,1.7-2,2.9-3.6,3.8c-1.6,0.9-3.5,1.3-5.7,1.3h-7.8v-22.3h7.8 c2.2,0,4.1,0.4,5.7,1.3c1.6,0.9,2.8,2.1,3.6,3.8S387.1,209,387.1,211.3L387.1,211.3z"></path> <polygon class="st0" points="222.9,203.9 219.5,213.7 226.2,213.7 222.9,203.9 "></polygon> </g> </svg> 