<?xml version="1.0" encoding="UTF-8"?> <svg xmlns="http://www.w3.org/2000/svg" xmlns:xlink="http://www.w3.org/1999/xlink" version="1.1" id="Layer_1" x="0px" y="0px" viewBox="0 0 437.5 325" style="enable-background:new 0 0 437.5 325;" xml:space="preserve"> <style type="text/css"> .st0{fill:#016AF1;} </style> <g> <g> <path class="st0" d="M34.1,89.1h24.8l33.2,63.6H71.9l-6-11.4H26.7l-5.8,11.4H0L34.1,89.1z M59.4,128.1l-13.1-25.4l-12.9,25.4H59.4 z"></path> <path class="st0" d="M95.1,89.1h52.3c10.7,0,15.5,1,18.9,4c3.5,3,5.2,8.4,5.2,17c0,11.8-2.7,16.5-10.5,18.3 c7.5,1.3,9.8,4.7,9.6,14.3v10H152v-7.9c-0.1-6.9-1.9-8.3-10.2-8.1h-28.3v16H95.1L95.1,89.1L95.1,89.1z M142.3,121.1 c8.9,0,10.6-1.1,10.6-7.4c0-4.1-0.4-5.8-1.5-7.1c-1.4-1.5-2.9-1.8-8.5-1.8h-29.5v16.4L142.3,121.1L142.3,121.1z"></path> <path class="st0" d="M248.2,89.1v14.4h-49v11h46.2V127h-46.2v11.2h49.7v14.4H181V89.1L248.2,89.1L248.2,89.1z"></path> <path class="st0" d="M257,89.1h29.4l36.8,48.4l-0.5-48.4h17.5v63.6h-29.6l-36.2-47.9l0.5,47.9h-17.7L257,89.1L257,89.1z"></path> <path class="st0" d="M379.5,89.1h24.8l33.2,63.6h-20.2l-6-11.4h-39.1l-5.8,11.4h-20.9L379.5,89.1z M404.8,128.1l-13.1-25.4 l-12.9,25.4H404.8z"></path> </g> <path class="st0" d="M363.2,306.4V169.7h-18.6v136.6h-27.7h-44H159h-9.6H92.9V169.7H74.3v136.6l0,0v14.5c0,2.3,1.9,4.2,4.2,4.2h71 h9.6h113.8h44H359c2.3,0,4.2-1.9,4.2-4.2V306.4L363.2,306.4z"></path> <path class="st0" d="M274.1,0v18.7H92.9V72H74.3V4.2c0-2.3,1.9-4.2,4.2-4.2H274.1z"></path> <g> <path class="st0" d="M174.5,183.9c0,3.3-0.1,4.4-0.6,5.4c-0.9,1.9-2.7,2.8-6.2,3.1c-1.4,0.1-4.1,0.2-8.5,0.2 c-6.4,0-8.5-0.3-10.3-1.5c-2.2-1.4-2.9-3.8-2.9-10.4c0-5.9,0.7-8,3-9.4c2-1.2,4.2-1.5,10.4-1.5c8.4,0,10.2,0.2,12.1,1.1 c1.8,0.9,2.6,2.9,2.6,6.2v0.7h-6.5c-0.1-2.5-0.6-2.6-6.6-2.6c-5.6,0-6.6,0.1-7.4,0.9c-0.8,0.7-1,1.6-1,5.3c0,5.4,0.5,5.8,7,5.8 c5.1,0,5.8,0,6.8-0.4c1-0.4,1.3-1.1,1.3-2.7L174.5,183.9L174.5,183.9z"></path> <path class="st0" d="M187.2,169.9h6.8v16.9h15.4v5.5h-22.2L187.2,169.9L187.2,169.9z"></path> <path class="st0" d="M227.7,169.9v9.7v1.3c0,2.5,0,2.5,0.1,3.1c0.3,2.5,1.4,3,6.5,3c5.1,0,6.5-0.1,7.4-0.8c0.7-0.5,1-1.5,1-3.2 c0-0.5,0-0.5,0-3v-10.3h6.8v11.8c0.1,5.5-0.4,7.2-2.4,9c-1.6,1.2-3.6,1.8-6.5,1.8c-1,0-1.6,0-3,0l-2.5,0c-6.3,0-7.6-0.1-9.2-0.5 c-4.1-1.2-5.1-3.4-5-10v-12.1L227.7,169.9L227.7,169.9z"></path> <path class="st0" d="M262.7,169.9h20.2c2.6,0,4,0.2,5.2,0.8c1.8,0.9,2.5,2.5,2.5,5.3c0,2.9-1,4.4-3.1,4.8c3,0.6,4,1.9,4,5.1 c0,2.8-0.8,4.6-2.6,5.5c-1,0.5-2.5,0.8-5.1,0.8h-21.2V169.9z M280.8,178.8c1.3,0,1.8-0.1,2.2-0.3c0.5-0.3,0.9-0.9,0.9-1.7 c0-0.9-0.4-1.6-1.2-1.9c-0.4-0.1-0.8-0.2-2.1-0.2h-11.3v4L280.8,178.8L280.8,178.8z M281.5,187.3c1.4,0,1.6,0,2.1-0.2 c0.7-0.2,1.1-0.9,1.1-1.9c0-1-0.4-1.6-1.1-1.9c-0.4-0.1-0.7-0.2-2.2-0.2h-12v4.1L281.5,187.3L281.5,187.3z"></path> </g> <path class="st0" d="M344.6,18.7V72h19.5V4.2c0-2.3-1.9-4.2-4.2-4.2h-68.7v18.7L344.6,18.7L344.6,18.7z"></path> </g> </svg> 