<?xml version="1.0" encoding="UTF-8"?> <svg xmlns="http://www.w3.org/2000/svg" id="Layer_1" version="1.1" viewBox="0 0 600 258.3"><defs><style> .st0 { fill: #016af1; } </style></defs><g><path class="st0" d="M337.8,207.1c0-1.2-.4-2.2-1.1-2.9-.8-.7-1.8-1.1-3.1-1.1h-4.7v8h4.9c1.3,0,2.4-.3,3.1-1,.5-.7.9-1.7.9-3h0Z"></path><path class="st0" d="M276.1,204c-1-.7-2.2-1-3.6-1s-2.6.3-3.7,1c-1,.7-1.8,1.6-2.4,2.9-.6,1.3-.8,2.8-.8,4.5h0c0,1.7.3,3.2.8,4.5.6,1.3,1.4,2.2,2.4,2.9s2.3,1,3.7,1,1.4-.1,2-.3l-2.8-3.9h3.6l1.7,2.4c.6-.6,1.1-1.3,1.5-2.2.6-1.3.8-2.7.8-4.5h0c0-1.7-.3-3.2-.8-4.5-.6-1.2-1.4-2.1-2.4-2.8Z"></path><path class="st0" d="M380.2,204.2c-1.1-.6-2.4-.9-4-.9h-4.1v16.3h4.1c1.6,0,2.9-.3,4-.9,1.1-.6,1.9-1.5,2.5-2.8.6-1.2.8-2.7.8-4.4h0c0-1.7-.3-3.2-.9-4.4-.5-1.4-1.3-2.3-2.4-2.9Z"></path><path class="st0" d="M43,184.6v51h514v-51H43ZM229.2,222.5l-2-6h-8.6l-2,6h-3.6l8.1-22.3h3.7l8.1,22.3h-3.7ZM256.5,215.5c-.2,1.5-.8,2.8-1.6,3.9-.8,1.1-1.9,2-3.2,2.6s-2.8.9-4.4.9-3.9-.5-5.5-1.4c-1.5-.9-2.7-2.3-3.6-4-.8-1.7-1.3-3.8-1.3-6.1h0c0-2.4.4-4.4,1.3-6.1.8-1.7,2-3,3.6-4,1.5-.9,3.4-1.4,5.5-1.4s3.1.3,4.4.9c1.3.6,2.4,1.5,3.3,2.6.9,1.1,1.4,2.4,1.6,3.9v.2h-3.4v-.3c-.3-.9-.7-1.6-1.2-2.3s-1.2-1.1-2-1.4c-.8-.3-1.7-.5-2.7-.5s-2.6.3-3.6,1-1.8,1.7-2.4,2.9c-.6,1.3-.8,2.7-.8,4.5h0c0,1.7.3,3.2.8,4.5.6,1.3,1.3,2.2,2.4,2.9,1,.7,2.2,1,3.6,1s1.9-.2,2.6-.5c.8-.3,1.4-.8,2-1.5.5-.6,1-1.4,1.2-2.4v-.2h3.4v.3ZM282.8,211.4c0,2.4-.4,4.4-1.3,6.1-.7,1.3-1.5,2.4-2.6,3.3l2.9,4.1h-3.6l-1.9-2.7c-1.2.4-2.5.7-3.9.7-2.1,0-4-.5-5.6-1.4s-2.8-2.3-3.6-4c-.8-1.7-1.3-3.8-1.3-6.1h0c0-2.4.4-4.4,1.3-6.1.8-1.7,2.1-3,3.6-4,1.6-.9,3.4-1.4,5.6-1.4s4,.5,5.5,1.4c1.6.9,2.8,2.3,3.6,4s1.3,3.7,1.3,6.1h0ZM307.3,214.7c0,1.6-.4,3.1-1.1,4.3s-1.8,2.2-3.1,2.9c-1.3.7-3,1-4.8,1s-3.5-.3-4.8-1-2.4-1.6-3.1-2.9c-.7-1.2-1.1-2.7-1.1-4.3v-14.4h3.5v14.2c0,1.6.5,2.9,1.5,3.9s2.3,1.5,4.1,1.5,3.1-.5,4.1-1.5,1.4-2.3,1.4-3.9v-14.2h3.5v14.4h-.1ZM318,222.5h-3.5v-22.3h3.5v22.3ZM338,222.5l-4.5-8.5h-4.7v8.5h-3.5v-22.3h8.7c1.5,0,2.8.3,3.9.8,1.1.6,2,1.3,2.6,2.4.6,1,.9,2.2.9,3.6h0c0,1.5-.4,2.8-1.1,4-.8,1.1-1.8,1.9-3.2,2.4l5,9.1h-4.1ZM362,203.2h-10.7v6.5h10.1v2.9h-10.1v6.9h10.7v3h-14.1v-22.3h14.1v3ZM387.1,211.3c0,2.3-.4,4.4-1.2,6-.8,1.7-2,2.9-3.6,3.8-1.6.9-3.5,1.3-5.7,1.3h-7.8v-22.3h7.8c2.2,0,4.1.4,5.7,1.3,1.6.9,2.8,2.1,3.6,3.8s1.2,3.8,1.2,6.1h0Z"></path><polygon class="st0" points="222.9 203.9 219.5 213.7 226.2 213.7 222.9 203.9"></polygon></g><path class="st0" d="M359,60.5h26.1c2.6,18.4,5.1,36.8,7.7,55.2h.6c3.6-18.4,7.1-36.7,10.7-55.1h17.4c-5.1,26.9-10.3,53.5-15.5,80.4h-25.4c-2.7-19-5.4-38.1-8-57.1h-.5c-3.7,19.1-7.4,38.1-11.1,57.2h-17.4c5.2-27,10.4-53.7,15.5-80.5Z"></path><path class="st0" d="M264.1,141h-19.4l-16.2-28.6h-8.8l-5.5,28.7h-18.3c5.1-27,10.3-53.7,15.5-80.5.9,0,1.5-.1,2.2-.1h41.6c2.6-.1,5,1,6.6,3.1,2.2,2.9,4.6,5.7,6.9,8.5,1.4,1.6,2,3.8,1.6,5.9-1.3,6.8-2.5,13.5-3.9,20.3-.4,1.9-1.4,3.5-2.9,4.7-2.6,2.3-5.3,4.6-8,6.8-1.8,1.5-4,2.3-6.3,2.4-.6,0-1.2.1-1.8.3l16.5,28.6ZM223.2,94.4c.9,0,1.6.2,2.2.2h18.6c2.8.2,5.4-1.8,5.7-4.7.5-2.3.8-4.7,1.4-7,.7-1.9-.1-4-1.8-5h-22.9c-1.1,5.5-2.1,10.9-3.2,16.4Z"></path><path class="st0" d="M330.7,123.7l-3.2,17.3h-54.3c-.1,0-.2-.1-.3-.2,0,0,0-.2,0-.2,0-.4,0-.9.1-1.3,5.1-26.2,10.1-52.4,15.2-78.7h54.8l-3.3,17.2h-36.3l-2.7,13.6c.9.9,1.9.6,2.8.6h33.4l-3.3,17.3c-2.3.2-4.7.2-7,.2h-29.4c-.9,4.7-1.8,9.3-2.8,14.2,3.2,0,6.2,0,9.1,0h27.2Z"></path><path class="st0" d="M457.4,60.5h28.3c3.1,26.8,6.2,53.5,9.2,80.2-1.8.5-12.8.7-17.8.3-1.1-5.6-1.2-11.6-2.1-17.2-1.8-.5-25.7-.7-29.7-.2-1.4,2.9-2.9,5.9-4.3,8.8l-4.2,8.7h-19.7l40.3-80.5ZM470.2,73.7h-.5c-5.3,10.8-10.5,21.6-15.9,32.8,6.8,0,13.2.2,19.7,0-1.1-11.2-2.2-22-3.3-32.8Z"></path><path class="st0" d="M187.4,141h-18l-2-17.5h-29.7c-2.8,5.8-5.7,11.7-8.6,17.6h-19.2c.3-1.7,25.3-52,27.2-54.9h18.7c-3.3,6.8-6.5,13.3-9.8,20.2h19.7c-1.5-15.2-3-30.4-4.5-45.4,1.7-.6,13.3-.7,16.9-.2,3,26.7,6.1,53.4,9.2,80.3Z"></path><path class="st0" d="M149.8,60.6c-3,5.9-5.8,11.6-8.6,17.1h-23.8l8.6-17.1h23.7Z"></path></svg> 