<?xml version="1.0" encoding="UTF-8"?> <svg xmlns="http://www.w3.org/2000/svg" id="Layer_1" version="1.1" viewBox="0 0 322 106.4"><defs><style> .st0 { fill: #016af1; } </style></defs><path class="st0" d="M33.3,26.7l5.6,44.2v8.7h-11.2l-.8-11.4h-5.5l-1,11.4h-10.5v-8.7l5.6-44.2h17.7ZM22.2,57.9h3.9l-1.3-18.4h-1l-1.6,18.4Z"></path><path class="st0" d="M44.8,79.6v-42.6h-6.6v-10.3h24.8v10.3h-6.7v42.6h-11.6Z"></path><path class="st0" d="M66.1,79.6V26.7h11.6v20.6h4.3v-20.6h11.6v52.9h-11.6v-22h-4.3v22h-11.6Z"></path><path class="st0" d="M98.1,79.6V26.7h11.6v42.6h9.4v10.3h-21Z"></path><path class="st0" d="M122.8,79.6V26.7h21.7v10.3h-10.1v10.5h9.6v10.1h-9.6v11.7h10.2v10.3h-21.8Z"></path><path class="st0" d="M154.2,79.6v-42.6h-6.6v-10.3h24.8v10.3h-6.6v42.6h-11.6Z"></path><path class="st0" d="M176,79.6V26.7h21.7v10.3h-10.1v10.5h9.6v10.1h-9.6v11.7h10.2v10.3h-21.8Z"></path><path class="st0" d="M201.6,74.3v-13.4h10.8v7.8c.2.7,1.1,1.4,2.2,1.4s2-.7,2.3-1.4v-8.1c-.3-1.1-1.3-1.6-4.6-2.9-7.3-2.6-9.5-5.1-10.7-8v-17.6c1.4-2.3,5.3-6.3,13-6.3s11.8,4,13.1,6.3v12.7h-10.9v-7c-.2-.7-1-1.4-2.3-1.4s-2,.7-2.2,1.4v6.9c.2,1,1.6,1.6,4.5,2.9,7.3,3,9.5,5.1,10.8,8.2v18.7c-1.5,2.5-5.5,6.3-13.1,6.3s-11.6-3.8-13-6.3Z"></path><path class="st0" d="M234.5,65v-5.4c.5-.8,1.7-2,4.1-2s3.6,1.2,4.1,2v5.4c-.5.8-1.7,2-4.1,2s-3.6-1.2-4.1-2Z"></path><path class="st0" d="M244.4,62v-29.8c.5-1.3,3.4-5.4,10.2-5.4s9.7,4.1,10.2,5.4v29.8c-.4,1.3-3.4,5.4-10.2,5.4s-9.8-4.1-10.2-5.4ZM256.2,58.5v-22.8c-.2-.6-.7-1.1-1.6-1.1s-1.5.5-1.6,1.1v22.8c.1.5.7,1,1.6,1s1.4-.5,1.6-1Z"></path><path class="st0" d="M268.6,66.7V27.5h11.9c2.9,0,6.6,1.6,8.1,4.6v14.5c-.5,1.2-1.5,2.2-2.7,3l2.9,10.6v6.4h-7.5l-3.2-15.2h-.8v15.2h-8.6ZM277.2,44h1.6c1,0,1.4-.5,1.6-1v-7.1c-.2-.6-.7-1-1.6-1h-1.7v9.1Z"></path><path class="st0" d="M292.2,62v-29.8c.6-1.5,3.5-5.4,10.2-5.4s8.6,2.8,9.7,4.5v10.6h-8.1v-6.2c-.2-.6-.7-1.1-1.6-1.1s-1.5.6-1.6,1.1v22.8c.1.4.6,1.1,1.6,1.1s1.5-.7,1.6-1.1v-7.3h-1.6v-7h9.8v18.7c-1.1,1.7-4,4.5-9.7,4.5s-9.6-4-10.2-5.4Z"></path><path class="st0" d="M312.1,71h-77.6v8.6h77.6v-8.6Z"></path></svg> 