<?xml version="1.0" encoding="UTF-8"?> <svg xmlns="http://www.w3.org/2000/svg" xmlns:xlink="http://www.w3.org/1999/xlink" version="1.1" id="Layer_1" x="0px" y="0px" viewBox="0 0 174 35" style="enable-background:new 0 0 174 35;" xml:space="preserve"> <style type="text/css"> .st0{fill:#016AF1;} </style> <path class="st0" d="M54.1,22.6c-1,0-1.9-0.4-2.7-1.2c-0.4-0.4-0.7-0.8-0.8-1.4c-0.2-0.5-0.3-1.1-0.3-1.6c0-0.5,0.1-1.1,0.3-1.6 c0.2-0.5,0.5-1,0.8-1.3c0.7-0.8,1.7-1.2,2.7-1.1c0.5,0,1,0.1,1.5,0.3c0.5,0.2,0.9,0.6,1.2,1l2-1.8c-1.2-1.5-2.8-2.3-4.7-2.3 c-1.7,0-3.3,0.6-4.5,1.9c-1.2,1.3-1.8,2.9-1.8,5c0,2,0.6,3.7,1.9,5c1.2,1.3,2.8,2,4.5,1.9c2,0,3.6-0.8,4.7-2.3l-2.1-1.8 c-0.3,0.4-0.7,0.8-1.2,1C55.1,22.5,54.6,22.6,54.1,22.6z"></path> <path class="st0" d="M70,19.3c0,2.4-1.4,3.4-3.1,3.4c-1.5,0-2.5-1.1-2.5-3.2v-7.1h-2.7v7.4c0,3.6,1.7,5.5,4.7,5.5 c1.4,0,3-0.8,3.6-2.1v1.8h2.7V12.5H70V19.3z"></path> <path class="st0" d="M79.1,15v-3.1h-2.7v13.5h2.7v-4.9c0-3.8,1.1-6.1,3.3-6.1c0.6,0,1.3,0.1,1.8,0.5l0.5-2.8 c-0.5-0.3-1.2-0.5-2.2-0.5C80.8,11.6,79.7,12.7,79.1,15z"></path> <path class="st0" d="M96.6,13.7c-0.9-1.4-2.7-2.2-4.4-2.2c-0.9,0-1.7,0.2-2.5,0.5c-0.8,0.3-1.5,0.8-2.2,1.4c-1.3,1.3-1.9,2.9-1.9,5 c0,2,0.6,3.7,1.9,5c0.6,0.6,1.3,1.1,2.2,1.4c0.8,0.3,1.7,0.5,2.5,0.5c1.7,0,3.6-0.8,4.4-2.2v1.9h2.9V11.9h-2.9V13.7z M92.6,22.6 c-0.5,0-1.1-0.1-1.6-0.3c-0.5-0.2-0.9-0.5-1.3-0.9C89.3,21,89,20.5,88.8,20c-0.2-0.5-0.3-1-0.3-1.6c0-0.5,0.1-1.1,0.3-1.6 c0.2-0.5,0.5-1,0.9-1.3c0.4-0.4,0.8-0.7,1.3-0.9c0.5-0.2,1-0.3,1.5-0.3c1,0,2,0.4,2.8,1.1c0.4,0.4,0.7,0.8,0.9,1.3 c0.2,0.5,0.3,1.1,0.3,1.6C96.6,20.9,94.8,22.6,92.6,22.6z"></path> <path class="st0" d="M108.1,17.5l-2-0.5c-0.9-0.3-1.4-0.6-1.6-1c-0.1-0.2-0.1-0.4-0.1-0.6c0-0.2,0.1-0.4,0.2-0.6 c0.3-0.5,1.1-0.7,1.8-0.7c1,0,1.8,0.5,1.9,1.4h2.7c-0.1-2.6-2.2-3.9-4.7-3.9c-1.1,0-2.3,0.3-3.2,1c-0.4,0.3-0.8,0.6-1,1.1 c-0.3,0.4-0.4,0.9-0.5,1.4c-0.2,2.2,0.9,3.6,3.6,4.3l1.8,0.4c1.2,0.3,1.8,0.8,1.8,1.6c0,1-1,1.6-2.3,1.6c-1.5,0-2.4-0.7-2.6-1.9 h-2.6c0,0.6,0.1,1.2,0.4,1.8c0.3,0.6,0.7,1,1.1,1.4c1,0.8,2.2,1.2,3.5,1.2c3,0,5.2-1.5,5.2-4C111.5,19.4,110.3,18.1,108.1,17.5z"></path> <path class="st0" d="M117.9,7.9h-3v4.8h-2.4V15h2.4v10.4h3V15h2.9v-2.3h-2.9V7.9z"></path> <path class="st0" d="M128.1,11.6c-0.8,0-1.7,0.1-2.5,0.5c-0.8,0.3-1.5,0.8-2.1,1.4c-1.2,1.3-1.9,2.9-1.9,5s0.6,3.7,1.9,5 c1.2,1.2,2.9,1.9,4.6,1.9s3.3-0.7,4.6-1.9c1.3-1.3,1.9-3,1.9-5c0-2-0.6-3.7-1.9-5c-0.6-0.6-1.3-1.1-2.1-1.5 C129.8,11.7,129,11.5,128.1,11.6z M130.8,21.4c-0.7,0.7-1.7,1.1-2.7,1.1c-1,0-1.9-0.4-2.7-1.1c-0.4-0.4-0.6-0.9-0.8-1.4 c-0.2-0.5-0.3-1.1-0.3-1.6c0-0.5,0.1-1.1,0.3-1.6c0.2-0.5,0.5-1,0.8-1.3c0.4-0.4,0.8-0.6,1.2-0.8c0.5-0.2,0.9-0.3,1.4-0.3 c2.1,0,3.8,1.6,3.8,4c0,0.6-0.1,1.1-0.3,1.6C131.4,20.6,131.1,21,130.8,21.4z"></path> <path class="st0" d="M140.1,15v-3.1h-2.7v13.5h2.7v-4.9c0-3.8,1.1-6.2,3.3-6.2c0.6,0,1.3,0.1,1.8,0.5l0.5-2.8 c-0.5-0.3-1.2-0.5-2.2-0.5C141.8,11.6,140.7,12.7,140.1,15z"></path> <path class="st0" d="M157.5,12.5L154,21l-3.5-8.5h-3l5,11.8l-2.7,6.6h2.9l7.8-18.5H157.5z"></path> <path class="st0" d="M27.4,3.2c-2.7,0-5.4,0.8-7.7,2.4c-2.3,1.6-4.1,3.8-5.1,6.4c-1,2.6-1.3,5.5-0.8,8.3c0.5,2.8,1.9,5.3,3.8,7.3 c1.9,2,4.4,3.4,7.1,3.9c2.7,0.6,5.5,0.3,8-0.8c2.5-1.1,4.7-2.9,6.2-5.3c1.5-2.4,2.3-5.1,2.3-8c0-3.8-1.5-7.4-4.1-10.1 C34.6,4.8,31.1,3.2,27.4,3.2z M34.2,21.2c-0.8,1.6-2.1,2.9-3.7,3.6c-1.6,0.7-3.3,0.9-5,0.5s-3.2-1.4-4.2-2.8 c-1.1-1.4-1.7-3.1-1.7-4.9c0-1.8,0.6-3.5,1.7-4.9c1.1-1.4,2.6-2.4,4.2-2.8c1.7-0.4,3.5-0.2,5,0.5s2.9,2,3.7,3.6 c0.2,0.4,0.2,0.9,0.1,1.3c-0.1,0.4-0.4,0.8-0.8,1c-0.3,0.2-0.5,0.2-0.8,0.2c-0.3,0-0.6-0.1-0.8-0.2l-2.2-1.3L26.5,13 c-0.1-0.1-0.3-0.1-0.4-0.1c-0.2,0-0.3,0-0.4,0.1c-0.1,0.1-0.2,0.2-0.3,0.3c-0.1,0.1-0.1,0.3-0.1,0.5v7.5c0,0.2,0,0.3,0.1,0.5 c0.1,0.1,0.2,0.3,0.3,0.3c0.1,0.1,0.3,0.1,0.4,0.1c0.2,0,0.3,0,0.4-0.1l3.2-1.9l2.2-1.3c0.3-0.2,0.7-0.3,1-0.2c0.4,0,0.7,0.2,1,0.5 s0.4,0.6,0.5,1C34.5,20.5,34.4,20.9,34.2,21.2z"></path> </svg> 