<?xml version="1.0" encoding="UTF-8"?> <svg xmlns="http://www.w3.org/2000/svg" id="Layer_1" viewBox="0 0 514 213.47"><path d="M294.8,184.97c0-1.2-.4-2.2-1.1-2.9-.8-.7-1.8-1.1-3.1-1.1h-4.7v8h4.9c1.3,0,2.4-.3,3.1-1,.5-.7.9-1.7.9-3h0Z" style="fill:#016af1; stroke-width:0px;"></path><path d="M233.1,181.87c-1-.7-2.2-1-3.6-1s-2.6.3-3.7,1c-1,.7-1.8,1.6-2.4,2.9-.6,1.3-.8,2.8-.8,4.5h0c0,1.7.3,3.2.8,4.5.6,1.3,1.4,2.2,2.4,2.9s2.3,1,3.7,1c.7,0,1.4-.1,2-.3l-2.8-3.9h3.6l1.7,2.4c.6-.6,1.1-1.3,1.5-2.2.6-1.3.8-2.7.8-4.5h0c0-1.7-.3-3.2-.8-4.5-.6-1.2-1.4-2.1-2.4-2.8Z" style="fill:#016af1; stroke-width:0px;"></path><path d="M337.2,182.07c-1.1-.6-2.4-.9-4-.9h-4.1v16.3h4.1c1.6,0,2.9-.3,4-.9,1.1-.6,1.9-1.5,2.5-2.8.6-1.2.8-2.7.8-4.4h0c0-1.7-.3-3.2-.9-4.4-.5-1.4-1.3-2.3-2.4-2.9Z" style="fill:#016af1; stroke-width:0px;"></path><path d="M0,162.47v51h514v-51H0ZM186.2,200.37l-2-6h-8.6l-2,6h-3.6l8.1-22.3h3.7l8.1,22.3h-3.7ZM213.5,193.37c-.2,1.5-.8,2.8-1.6,3.9-.8,1.1-1.9,2-3.2,2.6s-2.8.9-4.4.9c-2.1,0-3.9-.5-5.5-1.4-1.5-.9-2.7-2.3-3.6-4-.8-1.7-1.3-3.8-1.3-6.1h0c0-2.4.4-4.4,1.3-6.1.8-1.7,2-3,3.6-4,1.5-.9,3.4-1.4,5.5-1.4,1.6,0,3.1.3,4.4.9,1.3.6,2.4,1.5,3.3,2.6.9,1.1,1.4,2.4,1.6,3.9v.2h-3.4l-.1-.3c-.2-.9-.6-1.6-1.1-2.3s-1.2-1.1-2-1.4c-.8-.3-1.7-.5-2.7-.5-1.4,0-2.6.3-3.6,1s-1.8,1.7-2.4,2.9c-.6,1.3-.8,2.7-.8,4.5h0c0,1.7.3,3.2.8,4.5.6,1.3,1.3,2.2,2.4,2.9,1,.7,2.2,1,3.6,1,1,0,1.9-.2,2.6-.5.8-.3,1.4-.8,2-1.5.5-.6,1-1.4,1.2-2.4v-.2h3.4v.3ZM239.8,189.27c0,2.4-.4,4.4-1.3,6.1-.7,1.3-1.5,2.4-2.6,3.3l2.9,4.1h-3.6l-1.9-2.7c-1.2.4-2.5.7-3.9.7-2.1,0-4-.5-5.6-1.4s-2.8-2.3-3.6-4c-.8-1.7-1.3-3.8-1.3-6.1h0c0-2.4.4-4.4,1.3-6.1.8-1.7,2.1-3,3.6-4,1.6-.9,3.4-1.4,5.6-1.4s4,.5,5.5,1.4c1.6.9,2.8,2.3,3.6,4s1.3,3.7,1.3,6.1h0ZM264.3,192.57c0,1.6-.4,3.1-1.1,4.3s-1.8,2.2-3.1,2.9c-1.3.7-3,1-4.8,1-1.9,0-3.5-.3-4.8-1s-2.4-1.6-3.1-2.9c-.7-1.2-1.1-2.7-1.1-4.3v-14.4h3.5v14.2c0,1.6.5,2.9,1.5,3.9s2.3,1.5,4.1,1.5,3.1-.5,4.1-1.5,1.4-2.3,1.4-3.9v-14.2h3.5v14.4h-.1ZM275,200.37h-3.5v-22.3h3.5v22.3ZM295,200.37l-4.5-8.5h-4.7v8.5h-3.5v-22.3h8.7c1.5,0,2.8.3,3.9.8,1.1.6,2,1.3,2.6,2.4.6,1,.9,2.2.9,3.6h0c0,1.5-.4,2.8-1.1,4-.8,1.1-1.8,1.9-3.2,2.4l5,9.1h-4.1ZM319,181.07h-10.7v6.5h10.1v2.9h-10.1v6.9h10.7v3h-14.1v-22.3h14.1v3ZM344.1,189.17c0,2.3-.4,4.4-1.2,6-.8,1.7-2,2.9-3.6,3.8-1.6.9-3.5,1.3-5.7,1.3h-7.8v-22.3h7.8c2.2,0,4.1.4,5.7,1.3,1.6.9,2.8,2.1,3.6,3.8s1.2,3.8,1.2,6.1h0Z" style="fill:#016af1; stroke-width:0px;"></path><polygon points="179.9 181.77 176.5 191.57 183.2 191.57 179.9 181.77" style="fill:#016af1; stroke-width:0px;"></polygon><path d="M137.93,67.74c.09-.33.15-.67.2-1.02.35-6.06,1.51-12.04,3.47-17.78,2.97-9.02,7.74-17.34,14.01-24.46,7.38-8.47,16.65-15.07,27.06-19.27,5.2-2.12,10.63-3.61,16.18-4.43,4.87-.73,9.8-.95,14.72-.66,4.23.25,8.44.87,12.57,1.83,24.1,5.74,43.52,23.53,51.34,47.04,6.62,19.92,4.08,41.74-6.94,59.61-8.53,13.93-21.59,24.51-36.99,29.95-3.87,1.43-7.87,2.47-11.94,3.1-2.15.32-4.32.53-6.49.8-.26.05-.52.11-.77.2h-9.53c-1.16-.15-2.43-.32-3.64-.45-5.16-.58-10.24-1.74-15.13-3.47-20.45-7.08-36.6-23.04-43.93-43.41-2.28-6.23-3.62-12.76-3.99-19.38-.04-.35-.11-.69-.2-1.03v-7.17ZM196.49,89.01l-.28.08c-.53-.46-1.02-.98-1.58-1.39-1.33-.87-2.86-1.38-4.45-1.47-3.56-.56-7.14.92-9.25,3.85-2.48,3.3-3.36,7.54-2.4,11.56.82,4.63,4.58,8.18,9.25,8.73,3.07.55,6.2-.48,8.35-2.74.21-.22.44-.42.88-.81v3.12h5.49c.27,0,.53,0,.79-.06.28-1.27.22-35.25,0-36.12h-6.74l-.05,15.24ZM220.28,110.49c4.73,0,7.87-.88,10.4-3.23,2.68-2.39,4.08-5.9,3.79-9.48-.02-4.62-2.83-8.76-7.12-10.47-3.34-1.47-7.11-1.62-10.55-.43-2.33.71-4.38,2.14-5.84,4.09-1.71,2.34-2.53,5.21-2.31,8.09.08,2.67,1.1,5.24,2.89,7.23,2.2,2.56,5.37,4.08,8.74,4.2ZM241.39,92.39c0,.58.08,1.04.08,1.5v10.4c0,3.47,2.51,5.35,5.36,5.86,1.53.22,3.08.29,4.62.23.9-.06,1.8-.2,2.68-.4.37-.06.67-.23.67-.69v-5.09c-.66.14-1.16.29-1.72.35-.55.03-1.11.03-1.66,0-1.51.06-2.79-1.11-2.85-2.62,0-.03,0-.06,0-.1,0-2.97-.09-5.93-.13-8.9.04-.22.1-.44.18-.65h6.1v-5.53c-.25-.04-.51-.07-.76-.08h-4.28c-1.16,0-1.25,0-1.26-1.29v-4.51c-.01-.35-.05-.7-.1-1.04h-6.79c0,.46-.08.84-.08,1.23v4.62c0,.88-.1.95-.96.98h-3.62v5.56l4.51.16ZM263.3,110.25c2.36.01,4.28-1.89,4.29-4.24,0-.02,0-.03,0-.05,0-2.39-1.94-4.34-4.34-4.34s-4.34,1.94-4.34,4.34h0c0,2.38,1.94,4.3,4.31,4.29.02,0,.05,0,.07,0Z" style="fill:#016af1; stroke-width:0px;"></path><path d="M376.07,110.54c-.11.03-.23.06-.35.07h-12.62c-.12-.02-.23-.06-.34-.12-.66-1.64-1.35-3.35-2.03-5.08l-1.32-3.31c-.45-1.16-.15-1.16-1.71-1.16h-17.87c-1.16,3.23-2.4,6.36-3.61,9.56h-12.99c6.94-16.43,13.79-32.77,20.68-49.17h11.64c.62,1.48,1.28,2.99,1.92,4.51,5.46,13.1,10.93,26.2,16.39,39.31.72,1.71,1.47,3.4,2.21,5.09v.29ZM355.66,91.34c-2.06-5.65-4.05-11.12-6.13-16.82-2.13,5.78-4.17,11.25-6.24,16.82h12.37Z" style="fill:#016af1; stroke-width:0px;"></path><path d="M320.12,100.29v10.27h-30.99v-49.16h11.88v38.82c1.66.08,3.24,0,4.81,0h14.3v.07Z" style="fill:#016af1; stroke-width:0px;"></path><path d="M185.25,98.42c-.32-2.46,1.09-4.81,3.4-5.7,2.55-.8,5.69-.55,7.31,1.84,1.46,2.33,1.46,5.3,0,7.63-.96,1.3-2.46,2.09-4.07,2.16-2.34.4-4.68-.7-5.86-2.75-.59-.95-.86-2.06-.77-3.18Z" style="fill:#016af1; stroke-width:0px;"></path><path d="M221.64,92.39c4.15-.27,5.94,3.06,5.9,5.92,0,3.58-2.05,6.08-5.95,6.08s-5.92-2.67-5.87-6.13c.06-3.73,2.18-5.88,5.93-5.87Z" style="fill:#016af1; stroke-width:0px;"></path></svg> 