<?xml version="1.0" encoding="UTF-8"?> <svg xmlns="http://www.w3.org/2000/svg" id="Layer_1" viewBox="0 0 600 299.71"><defs><style>.cls-1{fill:#016af1;}</style></defs><g><path class="cls-1" d="M298.66,255.3c.88-.65,1.32-1.58,1.32-2.8v-.03c0-1.11-.37-1.97-1.11-2.55-.74-.59-1.79-.88-3.16-.88h-5.09v7.23h4.22c1.67,0,2.94-.32,3.82-.97Z"></path><path class="cls-1" d="M43,230.91v51H557v-51H43Zm212.91,22.87c0,1.43-.31,2.69-.93,3.78-.62,1.09-1.47,1.95-2.55,2.56-1.08,.62-2.33,.92-3.75,.92h-5.22v8.05h-2.81v-22.55h8.03c1.42,0,2.67,.3,3.75,.91,1.08,.6,1.93,1.45,2.55,2.53,.62,1.08,.93,2.34,.93,3.77v.03Zm24.33,7.41c0,1.64-.36,3.08-1.07,4.32-.71,1.25-1.74,2.22-3.07,2.91-1.33,.7-2.93,1.05-4.8,1.05s-3.47-.35-4.8-1.05c-1.34-.7-2.37-1.67-3.09-2.91-.72-1.24-1.08-2.68-1.08-4.32v-14.64h2.81v14.45c0,1.73,.54,3.14,1.62,4.23s2.59,1.64,4.54,1.64,3.47-.55,4.53-1.64,1.59-2.5,1.59-4.23v-14.45h2.81v14.64Zm23.73,1.58c0,1.32-.3,2.46-.91,3.4-.61,.94-1.48,1.67-2.62,2.17-1.14,.51-2.51,.76-4.11,.76h-8.52v-22.55h8.55c1.29,0,2.42,.23,3.39,.7s1.72,1.12,2.27,1.97c.54,.84,.81,1.83,.81,2.95v.03c0,.78-.18,1.53-.53,2.23s-.84,1.3-1.45,1.79c-.61,.48-1.31,.78-2.09,.9v.06c1.08,.12,2.02,.44,2.8,.94s1.38,1.14,1.8,1.93c.42,.79,.62,1.68,.62,2.68v.03Zm20.08,6.33h-13.69v-22.55h2.81v20.02h10.88v2.53Zm9.11,0h-2.81v-22.55h2.81v22.55Zm10.5-6.51c.61,1.36,1.47,2.41,2.59,3.16,1.11,.75,2.42,1.12,3.91,1.12,1.05,0,1.99-.17,2.82-.52s1.54-.85,2.13-1.52,1.05-1.5,1.38-2.49l.05-.14h2.84l-.03,.16c-.28,1.44-.85,2.69-1.7,3.76-.85,1.07-1.92,1.89-3.2,2.48s-2.71,.88-4.28,.88c-2.08,0-3.9-.48-5.45-1.44-1.55-.96-2.74-2.31-3.59-4.05-.84-1.74-1.27-3.8-1.27-6.16v-.02c0-2.36,.42-4.42,1.27-6.16,.84-1.74,2.04-3.09,3.58-4.04,1.54-.95,3.36-1.43,5.45-1.43,1.56,0,2.98,.3,4.27,.89s2.35,1.42,3.21,2.48,1.43,2.31,1.71,3.73l.03,.16h-2.84l-.11-.34c-.29-.92-.73-1.7-1.3-2.34s-1.28-1.13-2.12-1.48c-.83-.34-1.78-.52-2.84-.52-1.5,0-2.8,.37-3.91,1.12-1.11,.75-1.97,1.79-2.58,3.14-.61,1.35-.91,2.94-.91,4.77v.02c0,1.82,.3,3.41,.91,4.77Z"></path><path class="cls-1" d="M298.64,259.12c-.81-.29-1.81-.44-3.01-.44h-5.02v7.92h5.28c1.69,0,2.97-.34,3.85-1.01,.88-.67,1.32-1.65,1.32-2.95v-.03c0-.88-.2-1.6-.61-2.19-.41-.58-1.01-1.02-1.82-1.31Z"></path><path class="cls-1" d="M247.95,249.05h-4.5v9.5h4.5c1.61,0,2.86-.42,3.75-1.26,.89-.84,1.33-2,1.33-3.48v-.03c0-1.49-.44-2.65-1.33-3.48-.89-.83-2.14-1.25-3.75-1.25Z"></path></g><g><g><path class="cls-1" d="M168.42,47.01s.21,.5,.53,1.36c-.09-.49-.18-.97-.3-1.46-.08,.03-.15,.06-.23,.09"></path><path class="cls-1" d="M168.42,47.01s.21,.5,.53,1.36c-.09-.49-.18-.97-.3-1.46-.08,.03-.15,.06-.23,.09"></path><path class="cls-1" d="M168.42,47.01s.21,.5,.53,1.36c-.09-.49-.18-.97-.3-1.46-.08,.03-.15,.06-.23,.09"></path></g><g><path class="cls-1" d="M434.32,94.75h-57.69c1.22,.43,2.33,1.11,3.24,2.01,.91,.89,1.67,1.91,2.26,3.02,.6,1.13,1.06,2.33,1.36,3.57,.22,.91,.37,1.83,.43,2.77v31.8c-.23,2.25-.97,4.42-2.17,6.36-.62,1.01-1.37,1.95-2.23,2.79-.85,.83-1.83,1.53-2.89,2.08h34.21c-1.34-.31-2.59-.94-3.62-1.83-.96-.84-1.76-1.84-2.37-2.96-.62-1.14-1.05-2.37-1.29-3.64-.26-1.3-.39-2.62-.39-3.94v-12.23c1.95,0,3.79,.06,5.5,.17,1.6,.09,3.16,.44,4.63,1.06,1.4,.61,2.62,1.54,3.55,2.72,1.14,1.54,1.91,3.3,2.27,5.17v-24.88c-.72,1.74-1.69,3.37-2.86,4.86-.89,1.09-2.02,1.98-3.31,2.58-1.33,.59-2.76,.94-4.21,1.02-1.58,.11-3.44,.17-5.58,.17v-14.95l10.45,.06c1.62,0,3.31,.07,5.05,.2,1.72,.13,3.42,.41,5.09,.82,1.64,.41,3.23,1,4.74,1.76,1.5,.77,2.84,1.8,3.94,3.06,.41,.46,.78,.95,1.12,1.46,.34,.51,.6,1.08,.76,1.67v-16.72Z"></path><path class="cls-1" d="M439.82,94.75v20.6c.3-2.15,1.19-4.19,2.58-5.88,1.33-1.6,2.98-2.91,4.84-3.87,1.92-.99,3.99-1.67,6.13-2.01,2.15-.36,4.34-.45,6.51-.27v35.29c-.09,.9-.28,1.78-.56,2.64-.4,1.24-1.02,2.42-1.81,3.47-.79,1.04-1.74,1.96-2.82,2.72-1.11,.78-2.35,1.35-3.66,1.7h36.58c-1.46-.24-2.84-.81-4.04-1.67-1.15-.83-2.15-1.85-2.93-3.02-.79-1.18-1.39-2.48-1.78-3.84-.39-1.36-.59-2.77-.59-4.18v-33.11h1.81c1.52,.03,3.03,.18,4.53,.44,1.92,.32,3.79,.86,5.58,1.63,1.92,.84,3.65,2.06,5.08,3.57,1.61,1.73,2.67,3.88,3.07,6.19v-20.4h-58.52Z"></path><path class="cls-1" d="M342.21,146.35c-.88,.79-1.88,1.44-2.96,1.94-.98,.43-1.6,.71-1.88,.85h39.37c-.65-.13-1.27-.36-1.85-.68-.56-.31-1.11-.65-1.64-1.02-1.4-.96-2.66-2.09-3.76-3.37-1.04-1.22-1.95-2.54-2.72-3.94-.82-1.49-1.53-3.04-2.12-4.62l-2.86-8.29-3.86-11.19-7.46-21.28h-32.68c1.03,.25,2.03,.63,2.96,1.13,.83,.48,1.6,1.08,2.26,1.76,.78,.81,1.33,1.81,1.6,2.89,.23,.98,.23,2.01,0,2.99-.22,1-.52,1.97-.9,2.92-.93,2.36-1.64,4.23-2.13,5.61-.15,.42-.3,.81-.47,1.19l-5.9,14.89c-.32,.86-.81,2.13-1.46,3.81-.65,1.68-1.38,3.42-2.19,5.24-.81,1.81-1.67,3.51-2.58,5.1-.66,1.26-1.51,2.41-2.54,3.4-.78,.63-1.6,1.22-2.44,1.77-.83,.54-1.5,.95-1.98,1.22-.28,.14-.54,.3-.8,.48h29.4c-2.09-.43-3.95-1.56-5.26-3.2-1.26-1.68-1.95-3.7-1.98-5.78,.03-.64,.14-1.28,.32-1.9,.21-.82,.46-1.64,.77-2.48,.3-.84,.61-1.64,.94-2.41,.32-.77,.56-1.36,.69-1.77h16.51c.14,.37,.32,.87,.56,1.53,.23,.66,.47,1.33,.73,2.01,.25,.68,.49,1.34,.7,1.97,.21,.63,.36,1.11,.45,1.42,.44,1.53,.32,3.17-.35,4.62-.6,1.21-1.44,2.3-2.47,3.2m-14.32-21.21l5.85-17.67,6.13,17.67h-11.98Z"></path><path class="cls-1" d="M283.55,122.02c1.42-.64,2.73-1.48,3.88-2.51l.36-.35c.54-.52,1.04-1.07,1.5-1.66,.06-.08,.13-.15,.19-.23,2.32-2.74,3.44-6.26,3.11-9.8h0c-.09-1.55-.5-3.06-1.2-4.45-.42-.85-.93-1.65-1.5-2.41-.93-1.27-2.15-2.32-3.55-3.06-1.45-.77-3-1.37-4.6-1.77-1.63-.41-3.3-.68-4.98-.81-1.7-.14-3.27-.21-4.7-.2h-38.32c1.3,.32,2.52,.88,3.59,1.67,1.04,.87,1.89,1.95,2.47,3.16,.83,1.77,1.23,3.7,1.19,5.64,.05,1.18,.07,2.38,.07,3.61v27.87c0,1.23-.16,2.45-.45,3.64-.3,1.24-.74,2.43-1.32,3.57-.58,1.13-1.33,2.16-2.23,3.06-.91,.91-1.98,1.65-3.17,2.18h33.1c-.73-.26-1.44-.55-2.13-.89-.82-.4-1.56-.92-2.19-1.56-.77-.79-1.4-1.72-1.85-2.72-.6-1.41-.97-2.9-1.08-4.42-.24-2.49-.33-4.98-.28-7.48,.05-2.54,.07-5.03,.07-7.48h2.23c1.03,0,2.02,0,2.98-.01,8.73,19.89,11.76,24.55,20.45,24.55h19.12c-6.54,0-14.91-14.95-20.74-27.12m-25.23-4.83v-14.41c1.72,0,3.42-.03,5.12-.1,1.54-.08,3.08,.08,4.56,.48,1.3,.36,2.45,1.12,3.28,2.18,.95,1.47,1.39,3.2,1.25,4.93,.13,1.63-.35,3.25-1.36,4.55-.91,1-2.11,1.7-3.45,2.01-1.5,.35-3.05,.5-4.6,.44-1.67-.05-3.28-.07-4.81-.07"></path></g><path class="cls-1" d="M244.59,31.57c-5,2.23-8.32,6.98-8.62,12.33h-.01c-4.07-2.8-9.31-3.42-13.94-1.63,.19,.6,.41,1.19,.68,1.76,1.75,3.76,5.07,6.6,9.11,7.8-2.22,3.36-5.14,6.22-8.58,8.39-1.5,.94-3.21,1.49-4.98,1.61-4.57,.53-9.01-1.72-11.2-5.67-2.79,4.87-8.9,6.92-14.17,4.74-.68-.38-1.34-.79-1.98-1.23-5.46-3.71-9.44-9.14-11.26-15.38,.08,0,.16-.01,.25-.02,4.59-.5,8.67-3.07,11.03-6.94,.25-.41,.49-.84,.69-1.27-3.73-2.7-8.54-3.52-12.98-2.23-.45,.13-.9,.29-1.34,.46,.15-5.05-3.73-12.65-8.5-15.41-.61-.34-1.23-.64-1.88-.92l-.42-.17-.29,.36c-.37,.47-.72,.97-1.03,1.49-2.81,4.66-2.03,13.04,.59,17.4-.47,.05-.94,.13-1.4,.23-4.03,.85-7.5,3.31-9.59,6.77-.25,.42-.48,.84-.68,1.28,.4,.28,.81,.55,1.24,.79,3.98,2.29,8.82,2.62,13.09,.89,.08-.03,.16-.06,.23-.09,1.37,5.81,.8,11.89-1.61,17.37,0-.02-.01-.05-.02-.08-.04,.14-.09,.28-.13,.42-.16,.35-.33,.7-.51,1.05-.43,.84-.9,1.67-1.41,2.46-3.58,4.39-9.97,5.43-14.82,2.42-.02,4.49-2.84,8.52-7.12,10.16-1,.38-2.05,.62-3.12,.71-4.64-.08-9.19-1.24-13.27-3.39,2.95-2.95,4.46-7.01,4.13-11.12-.05-.64-.15-1.81-.27-2.41-5.09,.62-9.3,5.05-11.42,7.43h-.01c-2.81-2.38-7.98-6.63-13.64-6.21-1.3,.2-2.58,.57-3.78,1.1,6.32,4.63,12.34,9.63,18.02,14.99,3.99,3.73,7.82,7.71,11.48,11.78,5.08,5.67,13.77,17.13,13.78,17.13,2.26,2.05,5.27,3.15,8.35,3.06,.39-.06,.69-.37,.71-.76,.04-.3-.49-.48-.77-.6-2.1-.73-3.67-2.44-4.21-4.55-1.63-5,13.69-14.02,36.08-19.57,22.4-5.54,40.39-4.87,41.43,.29,.57,2.1,.03,4.34-1.44,5.97-.18,.23-.56,.64-.37,.89,.21,.33,.62,.47,1,.34,2.75-1.37,4.84-3.74,5.82-6.59,0,0,2.41-14.2,4.06-21.56,1.19-5.29,2.61-10.51,4.27-15.66,2.36-7.33,5.18-14.5,8.45-21.49-1.28,.19-2.53,.54-3.72,1.05"></path><path class="cls-1" d="M165.47,99.41c12.09-5.04,24.83-8.47,37.87-10.18,0,0,25.43,2.44,25.43,31.56s-21.23,45.75-50.13,45.75-44.13-12.43-44.13-25.67,9.75-15.35,14.29-15.35,12.74,4,12.74,14.37c0,0-8.16-1.96-8.16,4.94s9.65,11.19,22.89,11.19,31.92-5.66,31.92-30.87c0-26.9-12.76-28.1-21.63-28.1v46.14c.15,2.36,2.22,4.17,4.64,4.06,0,0-4.66,3.84-16.21,3.84s-14.83-3.62-14.83-3.62c0,0,5.46,.02,5.46-4.68s-.15-43.38-.15-43.38"></path><path class="cls-1" d="M485.52,195.84c-.36-1.03-.82-2.03-1.37-2.98-.95-1.63-2.26-3.03-3.83-4.09h0c-.19-.14-.38-.28-.57-.41l-.04-.02c-.86-.58-1.75-1.12-2.67-1.6-6.56-3.41-13.3-3.43-18.71-4.66-.86-.19-1.7-.44-2.53-.73-.3-.12-.6-.23-.9-.37-1.15-.5-2.21-1.15-3.17-1.94-.85-.71-1.45-1.66-1.74-2.72-.3-.86-.2-1.8,.28-2.58,.71-1.06,1.65-1.95,2.75-2.62,1.17-.72,2.46-1.26,3.8-1.6,1.44-.37,2.93-.54,4.42-.51,1.54,.02,3.08,.24,4.57,.65,1.7,.41,3.37,.96,4.98,1.63,1.16,.5,2.25,1.14,3.24,1.9,.49,.38,.95,.79,1.39,1.23,.47,.45,.95,.93,1.46,1.43,.51,.5,1.08,1.05,1.71,1.67,.63,.61,1.4,1.35,2.33,2.21v-19.92s-1.56,3.81-7.77,3.81c-1.74-.05-3.47-.18-5.19-.41-1.77-.27-3.55-.55-5.37-.85-2-.31-4.03-.43-6.06-.37-2.79,0-5.57,.36-8.26,1.09-2.56,.67-4.98,1.79-7.14,3.3-4.5,3.1-7.09,8.2-6.9,13.56-.12,2.39,.45,4.77,1.64,6.86,.86,1.4,1.93,2.66,3.17,3.76h.02s.08,.08,.12,.12c.14,.11,.28,.23,.42,.34,.22,.18,.44,.35,.66,.52,4.51,3.38,10.89,5.02,18.26,6.66,.14,.03,.27,.06,.41,.09h.05c.76,.18,1.51,.36,2.27,.58,1.4,.38,2.76,.9,4.04,1.56,1.04,.52,1.97,1.23,2.72,2.11,.63,.72,.84,1.71,.55,2.62-.34,1.56-1.36,2.9-2.78,3.67-1.46,.74-3.06,1.16-4.7,1.22-1.79,.09-3.58-.05-5.33-.41-1.58-.3-3.14-.71-4.67-1.23-3.01-1.08-5.89-2.5-8.57-4.21-1.78-1.19-3.47-2.51-5.05-3.94-1.68-1.54-3.17-3.28-4.43-5.17v23.75c2.63-1.49,5.58-2.35,8.62-2.53,0,0,.02,.02,.03,.02,.98-.16,1.97-.25,2.96-.27,1.52-.02,3.03,.09,4.53,.34,1.52,.25,3.02,.58,4.5,.99,1.59,.4,3.21,.7,4.84,.88,1.63,.18,3.27,.27,4.91,.27,2.78,0,5.55-.31,8.25-.92,2.66-.57,5.18-1.6,7.46-3.06,2.21-1.43,4.06-3.34,5.4-5.57,1.46-2.58,2.17-5.51,2.02-8.46-.19-1.6-.54-3.17-1.05-4.69"></path><path class="cls-1" d="M356.76,174.49c0-.86,.05-1.79,.14-2.79,.09-.99,.28-1.97,.56-2.92,.27-.93,.65-1.82,1.15-2.65,.49-.82,1.14-1.53,1.92-2.11,.81-.61,1.77-1.01,2.79-1.15h-25.57c1.41,.07,2.76,.57,3.86,1.43,1.01,.83,1.82,1.86,2.37,3.02,.59,1.24,.99,2.56,1.19,3.91,.2,1.31,.31,2.62,.32,3.94v24.34l-23.97-36.64h-28.98c1.4,.02,2.75,.51,3.83,1.39,.98,.85,1.74,1.91,2.23,3.09,.52,1.26,.88,2.59,1.05,3.94,.18,1.29,.27,2.58,.28,3.88,0,.54,0,1.35,.03,2.41v25.77c-.01,1.14-.04,2.29-.1,3.43-.05,.86-.12,1.75-.21,2.65-.09,.89-.28,1.77-.56,2.62-.28,.83-.67,1.62-1.18,2.35-.53,.74-1.22,1.37-2.02,1.83-.2,.12-.41,.22-.63,.31-.28,.11-.57,.21-.87,.3-.3,.09-.57,.18-.8,.27-.13,.06-.27,.11-.42,.13h25.01c-.69-.36-1.28-.69-1.77-.98-.51-.31-1-.65-1.46-1.02-.44-.34-.85-.72-1.22-1.12-1.08-1.3-1.8-2.84-2.09-4.49-.32-1.64-.48-3.3-.49-4.96v-23.95l23.58,36.52h28.6c-1.01-.15-1.97-.54-2.79-1.15-.77-.58-1.42-1.29-1.92-2.11-.5-.83-.88-1.72-1.15-2.65-.28-.96-.47-1.94-.56-2.93-.09-1-.14-1.93-.14-2.79v-31.14h0Z"></path><path class="cls-1" d="M280.36,195.63v-21.56c.04-.97,.15-1.94,.32-2.9,.21-1.22,.61-2.4,1.18-3.5,.57-1.08,1.35-2.04,2.3-2.82,1.09-.88,2.35-1.55,3.7-1.97h-33.31c1.37,.36,2.63,1.03,3.69,1.94,1.09,1.06,1.95,2.32,2.54,3.71,.86,2.12,1.25,4.39,1.15,6.66v28.54c0,.91-.02,2-.07,3.27,.03,1.8-.37,3.58-1.19,5.2-.62,1.18-1.46,2.24-2.47,3.13-.17,.14-.36,.27-.55,.41-8.17-3.25-16.67-11.25-22.97-20.85-3.71-5.65-7.9-13.14-11.39-19.67,3.28-4,6.42-7.73,8.95-10.57,4.96-4.68,11.18-7.89,17.93-9.25h-27.19s2.49,3.49-1.1,7.73l-18.02,21.26v-17.45c-.19,.08-.39,.17-.58,.25-.78,.31-1.58,.6-2.4,.88-2.49,.84-5.03,1.52-7.61,2.02-.88,.18-1.8,.34-2.73,.48-1.94,.35-3.89,.59-5.86,.72v31.84l-.12,2.45c-.06,.65-.14,1.31-.24,1.99-.23,1.5-.66,2.96-1.28,4.35-.59,1.33-1.46,2.52-2.55,3.5-1.19,1.03-2.68,1.68-4.26,1.87h34.88c-1.43-.28-2.72-1.02-3.67-2.1-1-1.16-1.76-2.49-2.23-3.93-.56-1.64-.93-3.33-1.12-5.05-.21-1.84-.33-3.64-.36-5.4,0-.33,0-.65,0-.98,1.39-1.78,3.54-4.55,6.1-7.8,1.38,2.26,2.84,4.61,4.36,6.95,7.21,11.13,12.96,18.34,22.1,18.34s51.4-.02,51.4-.02c-1.36-.53-2.61-1.3-3.69-2.28-1.07-1.09-1.93-2.35-2.54-3.74-.72-1.66-1.11-3.45-1.13-5.26v-10.35h0Z"></path><path class="cls-1" d="M402.06,190.26c.88,.84,1.51,1.9,1.82,3.06,.33,1.28,.46,2.59,.4,3.91-.05,1.43-.05,2.87,0,4.32,0,.73,.02,1.58,.07,2.55,.05,.94-.08,1.89-.39,2.79-.34,.92-.98,1.7-1.82,2.24-1.25,.7-2.68,1.02-4.11,.92-1.82,.08-3.63-.39-5.16-1.36-1.3-.9-2.37-2.09-3.12-3.46-.76-1.4-1.3-2.89-1.61-4.44v.03c-1.68-7.01-1.74-14.29-.17-21.32,.34-1.55,.93-3.05,1.74-4.42,.79-1.32,1.87-2.46,3.16-3.33,1.45-.93,3.14-1.43,4.87-1.46,.88-.04,1.75,.02,2.62,.17,.92,.16,1.79,.33,2.62,.51,4.14,.87,8.09,2.44,11.66,4.66,4.02,2.57,7.28,5.18,8.69,8.94v-24.66c-.77,2.3-2.51,4.17-4.79,5.14-.69,.23-1.4,.4-2.12,.52-.16,.02-.34,.04-.51,.05-.11,0-.22,0-.33,.01-1.38,0-2.75-.12-4.11-.33-1.48-.21-2.94-.55-4.36-1.02-1.45-.48-2.84-.87-4.14-1.19-1.31-.32-2.65-.55-4-.68-1.38-.14-2.76-.2-4.15-.2-2.81-.01-5.62,.3-8.36,.91-2.61,.59-5.13,1.53-7.48,2.79-2.32,1.24-4.42,2.82-6.25,4.69-1.47,1.51-2.73,3.2-3.75,5.03l-.03,.06c-3.17,7.28-4.06,15.32-2.56,23.1,.38,1.56,.9,3.1,1.54,4.58,.32,.75,.68,1.48,1.06,2.18,1.45,2.69,3.42,5.08,5.81,7.04,2.43,1.94,5.21,3.41,8.21,4.32,3.4,1.01,6.95,1.46,10.5,1.32,1.61-.05,3.2-.28,4.76-.68,1.62-.41,3.26-.87,4.91-1.36,1.65-.5,3.31-.97,4.98-1.43,1.6-.44,3.25-.7,4.91-.78,1.59-.07,3.19,.12,4.72,.55,1.65,.49,3.17,1.33,4.43,2.48v-16.45c0-1.21,.1-2.41,.29-3.6,.18-1.23,.52-2.43,1.01-3.57,.48-1.1,1.17-2.11,2.04-2.96,.91-.89,2.04-1.54,3.27-1.9h-31.11c1.59,.15,3.1,.76,4.32,1.77"></path></g></svg> 