<?xml version="1.0" encoding="UTF-8"?> <svg xmlns="http://www.w3.org/2000/svg" id="Layer_1" version="1.1" viewBox="0 0 322 106.4"><defs><style> .st0 { fill: #016af1; } </style></defs><path class="st0" d="M109.4,72.3c-8.6,0-13.7-5.6-13.7-14.3s4.9-14.3,13.2-14.3,13.3,5.6,13.3,13.4-.2,2.3-.3,2.9h-20.6c.7,4.4,3.5,7.4,8.1,7.4s5.5-1.9,6.9-4.4h5.8c-1.8,5.6-6.1,9.3-12.7,9.3ZM116.5,55.8c0-2.9-2.6-7.2-7.6-7.2s-7,2.9-7.6,7.2h15.2Z"></path><path class="st0" d="M152.4,44.4l-11.6,27.3h-5.5l-11.5-27.3h6l8.4,21.1,8.3-21.1h5.9Z"></path><path class="st0" d="M167.5,72.3c-8.6,0-13.7-5.6-13.7-14.3s4.9-14.3,13.2-14.3,13.3,5.6,13.3,13.4-.2,2.3-.3,2.9h-20.6c.7,4.4,3.5,7.4,8.1,7.4s5.5-1.9,6.9-4.4h5.8c-1.8,5.6-6.1,9.3-12.7,9.3ZM174.7,55.8c0-2.9-2.6-7.2-7.6-7.2s-7,2.9-7.6,7.2h15.2Z"></path><path class="st0" d="M190.7,44.4v3.3c1.9-2.4,4.7-3.9,8.2-3.9,6.1,0,11.5,4.6,11.5,12.2v15.7h-5.3v-14.3c0-5.9-2.8-8.8-7.1-8.8s-7.2,2.9-7.2,8.8v14.3h-5.3v-27.3h5.3Z"></path><path class="st0" d="M216,86.9v-42.5h5.3v3.6c1.9-2.7,4.9-4.2,8.6-4.2,7.3,0,13.3,5.6,13.3,14.3s-5.9,14.3-13.3,14.3-6.7-1.5-8.6-4.1v18.7h-5.3ZM229.4,67.4c5.3,0,8.4-3.9,8.4-9.4s-3.2-9.4-8.4-9.4-8.4,4-8.4,9.4,3.2,9.4,8.4,9.4Z"></path><path class="st0" d="M253.5,29.2v42.5h-5.3V29.2h5.3Z"></path><path class="st0" d="M285.6,44.4v27.3h-5.3v-3.5c-2,2.6-4.9,4.1-8.7,4.1-7.3,0-13.2-5.6-13.2-14.3s5.9-14.3,13.2-14.3,6.7,1.5,8.7,4.1v-3.5h5.3ZM272.2,67.4c5.3,0,8.4-4,8.4-9.4s-3.2-9.4-8.4-9.4-8.4,3.9-8.4,9.4,3.2,9.4,8.4,9.4Z"></path><path class="st0" d="M301.7,72.2c-5.7-.4-10.5-5-10.5-12.1v-15.7h5.3v14.3c0,5.9,2.8,8.8,7.1,8.8s7.2-2.9,7.2-8.8v-14.3h5.3v31.6c0,8.6-3,11.5-8.3,11.5s-8.6-2.3-8.6-7.6.8-5.6,2.4-7.6h0ZM307.7,82.6c2.1,0,3.2-1.6,3.2-6.6v-7.5c-3.2,3.3-6.4,6.2-6.4,10.5s1.3,3.5,3.2,3.5h0Z"></path><path class="st0" d="M19.1,25.3l24.2-12c1.3-.6,2.8-.6,4.1,0l18.5,9c3.8,1.8,6.1,5.6,6.1,9.8v17.5c0,1.7-1,3.3-2.5,4.1l-23.9,11.9v-26.6l-26.5-13.7Z"></path><path class="st0" d="M72.1,78.9l-24.1,12.1c-1.3.6-2.8.6-4.1,0l-32.1-15.5c-3.8-1.8-6.1-5.6-6.1-9.8v-17.5c0-1.7,1-3.3,2.5-4.1l23.9-12v25.7c0,.6.4,1.2.9,1.5l38.9,19.6h0Z"></path></svg> 