<?xml version="1.0" encoding="UTF-8"?> <svg xmlns="http://www.w3.org/2000/svg" id="Layer_1" version="1.1" viewBox="0 0 322 106.4"><defs><style> .st0 { fill: #016af1; fill-rule: evenodd; } </style></defs><path class="st0" d="M81.9,53.6l-11.2-11.3-.9-1h0s-24.1-24.5-24.1-24.5L9.9,53.2l14.9,15,21.2,21.3,35.8-36h0ZM45.7,25.2l17.4,17.7-6.3,6.4-10.9-11.1-.9.9h0s-20.3,20.7-20.3,20.7l-6.5-6.6,27.5-28ZM52.7,53.6l-6.6,6.7-6.7-6.9,6.6-6.7,6.7,6.9ZM35.2,57.7l10.9,11.1.9-.9h0s20.2-20.7,20.2-20.7l6.3,6.4-27.5,27.7-17.1-17.2,6.2-6.3h0ZM102.5,41.9c0-.4.3-.7.7-.7h14.6c.4,0,.7.3.7.7v2.9c0,.4-.3.7-.7.7h-10.6v6.7h8.8c.4,0,.7.3.7.7v2.9c0,.4-.3.7-.7.7h-8.8v9.1c0,.4-.3.7-.7.7h-3.3c-.4,0-.7-.3-.7-.7v-23.7h0ZM143.4,41.2c-.4,0-.7.3-.7.7v23.7c0,.4.3.7.7.7h3.3c.4,0,.7-.3.7-.7v-23.7c0-.4-.3-.7-.7-.7h-3.3ZM177.3,45.5h-5.5c-.4,0-.7-.3-.7-.7v-2.9c0-.4.3-.7.7-.7h15.6c.4,0,.7.3.7.7v2.9c0,.4-.3.7-.7.7h-5.5v20.1c0,.4-.3.7-.7.7h-3.3c-.4,0-.7-.3-.7-.7v-20.1ZM212.6,41.2c-.4,0-.7.3-.7.7v23.7c0,.4.3.7.7.7h13.1c.4,0,.7-.3.7-.7v-2.9c0-.4-.3-.7-.7-.7h-9.1v-20.1c0-.4-.3-.7-.7-.7h-3.3ZM247.9,65.3l11.1-24.1c.1-.2.3-.4.6-.4h.4c.4,0,.5.2.6.4l11,24.1c.2.5,0,.9-.6.9h-3.1c-.5,0-.8-.2-1-.7l-1.8-3.9h-10.7l-1.8,3.9c-.1.4-.5.7-1,.7h-3.1c-.5,0-.8-.5-.6-.9h0ZM263.4,57.7l-3.6-7.9h-.1l-3.5,7.9h7.2ZM295.6,41.2c-.4,0-.7.3-.7.7h0v23.7c0,.4.3.7.7.7h8.7c4.4,0,7.8-2.9,7.8-6.9s-2.8-5.2-4.7-5.8c1.7-.8,3.9-2.9,3.9-5.7s-3.3-6.6-7.5-6.6h-8.2ZM306.5,48.5c0,1.8-1.3,3.2-3.1,3.2h0s-3.8,0-3.8,0v-6.3h3.8c1.8,0,3.1,1.3,3.1,3ZM307.1,58.8c0,1.9-1.4,3.3-3.2,3.3h0s-4.3,0-4.3,0v-6.4h3.9c1.9,0,3.6,1.3,3.6,3.1Z"></path></svg> 