<?xml version="1.0" encoding="UTF-8"?> <svg xmlns="http://www.w3.org/2000/svg" id="Layer_1" version="1.1" viewBox="0 0 600 258.3"><defs><style> .st0 { fill: #016af1; } </style></defs><g id="g8"><g id="g10"><path id="path12" class="st0" d="M172.1,46l-18.4,141.9h16.9l18.4-141.9h-16.9ZM103.2,65.7l-3.1,24.5h-34.4l-1.7,12.9h34.4l-11.4,87.6c-.7,5.7-4.1,8.8-9.8,8.8h-32.6l-1.7,12.7h35.2c19,0,24.3-9.8,25.6-19.7l11.6-89.5h35.2l1.7-12.9h-35.2l2.8-22.6c.7-5.7,4.1-8.8,9.8-8.8h32l1.7-12.7h-34.4c-18.4,0-24.3,9.8-25.6,19.7M400.7,78.2h16.9l2-17.3h-16.9l-2,17.3ZM415.8,90.2h-16.9l-12.3,97.8h16.9l12.3-97.8ZM309,134.6h-.9l11.4-88.6h-16.9l-18.4,141.9h16.9l4.1-31.1,21-16.2,32.2,47.3h19.7l-39-57.3,51.9-40.5h-24.3l-57.6,44.4ZM241.6,165.3l-32-75.1h-18.4l43.1,97.2-1.5,3.9c-1.5,3.9-2.8,8.3-10.7,8.3h-25.6l-1.7,12.7h32.8c13.8,0,15.8-7.2,19.7-15.6l41.4-106.4h-17.9l-28.4,75.1h-.9ZM557,175.3h-29.1c-6.6,0-9.2-3.1-8.5-8.8l8.3-63.3h25.8l1.5-12.9h-25.6l3.9-29.3h-17.1l-3.7,29.3h-18.8l-1.5,12.9h18.6l-8.5,65.2c-1.3,9.9.9,19.7,19.5,19.7h33.3l1.8-12.7ZM487.8,175.3h-29.1c-6.6,0-9.2-3.1-8.5-8.8l8.3-63.3h25.8l1.5-12.9h-25.6l3.9-29.3h-17.1l-3.7,29.3h-18.8l-1.5,12.9h18.6l-8.5,65.2c-1.3,9.9.9,19.7,19.5,19.7h33.3l1.8-12.7"></path></g></g></svg> 