<?xml version="1.0" encoding="UTF-8"?> <svg xmlns="http://www.w3.org/2000/svg" id="Layer_1" version="1.1" viewBox="0 0 600 400"><defs><style> .st0 { fill: #016af1; } </style></defs><g><path class="st0" d="M378.3,96.5c-1.4,2.5-2.8,4.8-4.1,7.2-6.4,11.1-12.9,22.2-19.2,33.4-.9,1.5-1.8,1.9-3.3,1.9h-47.8c7.9,14.8,16.4,28.4,24.3,42.8-.8.1-1.4.2-2,.2-14.8.1-29.7.2-44.4.2s-2.1-.4-2.8-1.6c-5.7-10-11.6-20-17.4-30.1-9.9-17.1-19.8-34.2-29.7-51.3-.5-.8-.9-1.6-1.4-2.7,49.2,0,98.3,0,147.8,0Z"></path><path class="st0" d="M200.9,35.5h198.1c-2.3,4-4.4,7.9-6.6,11.8-5.4,9.2-11,18.4-16.2,27.7-1.2,2.1-2.5,2.9-4.9,2.9-47.8,0-95.5,0-143.3,0-2.2,0-3.2-.8-4.2-2.5-7.1-12.4-14.4-24.8-21.5-37.2-.4-.7-.8-1.5-1.4-2.7Z"></path><path class="st0" d="M345.7,291.7c-5.5,0-11,0-16.6-.1-.5,0-1-.6-1.4-1-7.4-8.5-14.8-17-22.2-25.5-.4-.5-1.1-1-1.7-1-4.7-.1-9.6-.1-14.6-.1v27.5h-14.8v-81.1c.8-.1,1.5-.2,2.2-.2,12.9.1,25.7,0,38.6.3,9.1.2,16.5,4,22.2,11.3,8.2,10.6,7.1,33.7-12.6,39.8-1,.3-2,.7-3.6,1.2,8.4,9.6,16.5,18.7,24.7,28,0,.4-.1.7-.2.9ZM289.1,250.6c9.2,0,17.9.5,26.6-.2,7.3-.5,11.5-6.1,11.3-13.4-.2-6.8-4.8-12-12-12.4-7.1-.4-19-.2-26.1-.3h0c.2,7.2.2,19,.2,26.3Z"></path><path class="st0" d="M443.8,257.9v19.1h45.7v14.6h-60.4v-80.9h60.3v14h-45.6v19.3h43.8v13.9h-43.8Z"></path><path class="st0" d="M220.2,293.5c-8.5.1-16.3-1.9-23.5-6.4-9.2-5.9-14.9-14.4-16.8-25-2.8-15.8-.4-30.4,11.6-42.2,6-5.9,13.3-9.3,21.6-10.5,12-1.6,23.1.2,32.9,7.7,9.2,7.1,14.2,16.6,15.5,28.1,1.2,9.9-.2,19.3-5,28.1-6.2,11.4-16,17.9-28.9,19.6-2.3.4-4.8.4-7.4.6ZM193.6,249.5c.2,18.3,9.4,28.9,24.5,30.2,14.8,1.2,25.7-6.8,28.5-21.4.6-3.4.9-7.1.5-10.5-1.6-21.7-24.6-33.1-42.2-20.9-8.3,5.9-11.1,14.7-11.3,22.6Z"></path><path class="st0" d="M168.4,210.6v13.9h-43.2v23.3h40.9v13.4h-40.9v30.4h-14.6v-81.1c19.1.1,38.3.1,57.8.1Z"></path><path class="st0" d="M378.3,223.8h-26v-13h66.4v13h-25.6v67.9h-14.8v-67.9Z"></path><path class="st0" d="M446,186c4.3,0,7.5,3.3,7.5,7.6s-3.3,7.6-7.8,7.6-7.6-3.5-7.6-7.6c.1-4.3,3.5-7.6,7.9-7.6Z"></path><path class="st0" d="M475.2,186.1c4.5,0,7.4,3,7.5,7.5,0,4.4-3.1,7.6-7.5,7.6s-7.8-3.3-7.8-7.6c-.1-4.2,3.4-7.6,7.8-7.5Z"></path></g><g><path class="st0" d="M338.3,336c0-1.2-.4-2.2-1.1-2.9-.8-.7-1.8-1.1-3.1-1.1h-4.7v8h4.9c1.3,0,2.4-.3,3.1-1,.5-.7.9-1.7.9-3h0Z"></path><path class="st0" d="M276.6,332.9c-1-.7-2.2-1-3.6-1s-2.6.3-3.7,1c-1,.7-1.8,1.6-2.4,2.9-.6,1.3-.8,2.8-.8,4.5h0c0,1.7.3,3.2.8,4.5.6,1.3,1.4,2.2,2.4,2.9s2.3,1,3.7,1,1.4-.1,2-.3l-2.8-3.9h3.6l1.7,2.4c.6-.6,1.1-1.3,1.5-2.2.6-1.3.8-2.7.8-4.5h0c0-1.7-.3-3.2-.8-4.5-.6-1.2-1.4-2.1-2.4-2.8h0Z"></path><path class="st0" d="M380.7,333.1c-1.1-.6-2.4-.9-4-.9h-4.1v16.3h4.1c1.6,0,2.9-.3,4-.9,1.1-.6,1.9-1.5,2.5-2.8.6-1.2.8-2.7.8-4.4h0c0-1.7-.3-3.2-.9-4.4-.5-1.4-1.3-2.3-2.4-2.9h0Z"></path><path class="st0" d="M43.5,313.5v51h514v-51H43.5ZM229.7,351.4l-2-6h-8.6l-2,6h-3.6l8.1-22.3h3.7l8.1,22.3h-3.7ZM257,344.4c-.2,1.5-.8,2.8-1.6,3.9-.8,1.1-1.9,2-3.2,2.6s-2.8.9-4.4.9-3.9-.5-5.5-1.4c-1.5-.9-2.7-2.3-3.6-4-.8-1.7-1.3-3.8-1.3-6.1h0c0-2.4.4-4.4,1.3-6.1.8-1.7,2-3,3.6-4,1.5-.9,3.4-1.4,5.5-1.4s3.1.3,4.4.9c1.3.6,2.4,1.5,3.3,2.6.9,1.1,1.4,2.4,1.6,3.9v.2h-3.4v-.3c-.3-.9-.7-1.6-1.2-2.3s-1.2-1.1-2-1.4c-.8-.3-1.7-.5-2.7-.5s-2.6.3-3.6,1-1.8,1.7-2.4,2.9c-.6,1.3-.8,2.7-.8,4.5h0c0,1.7.3,3.2.8,4.5.6,1.3,1.3,2.2,2.4,2.9,1,.7,2.2,1,3.6,1s1.9-.2,2.6-.5c.8-.3,1.4-.8,2-1.5.5-.6,1-1.4,1.2-2.4v-.2h3.4v.3h0ZM283.3,340.3c0,2.4-.4,4.4-1.3,6.1-.7,1.3-1.5,2.4-2.6,3.3l2.9,4.1h-3.6l-1.9-2.7c-1.2.4-2.5.7-3.9.7-2.1,0-4-.5-5.6-1.4s-2.8-2.3-3.6-4c-.8-1.7-1.3-3.8-1.3-6.1h0c0-2.4.4-4.4,1.3-6.1.8-1.7,2.1-3,3.6-4,1.6-.9,3.4-1.4,5.6-1.4s4,.5,5.5,1.4c1.6.9,2.8,2.3,3.6,4s1.3,3.7,1.3,6.1h0ZM307.8,343.6c0,1.6-.4,3.1-1.1,4.3s-1.8,2.2-3.1,2.9c-1.3.7-3,1-4.8,1s-3.5-.3-4.8-1-2.4-1.6-3.1-2.9c-.7-1.2-1.1-2.7-1.1-4.3v-14.4h3.5v14.2c0,1.6.5,2.9,1.5,3.9s2.3,1.5,4.1,1.5,3.1-.5,4.1-1.5,1.4-2.3,1.4-3.9v-14.2h3.5v14.4h-.1ZM318.5,351.4h-3.5v-22.3h3.5v22.3ZM338.5,351.4l-4.5-8.5h-4.7v8.5h-3.5v-22.3h8.7c1.5,0,2.8.3,3.9.8,1.1.6,2,1.3,2.6,2.4.6,1,.9,2.2.9,3.6h0c0,1.5-.4,2.8-1.1,4-.8,1.1-1.8,1.9-3.2,2.4l5,9.1h-4.1,0ZM362.5,332.1h-10.7v6.5h10.1v2.9h-10.1v6.9h10.7v3h-14.1v-22.3h14.1v3h0ZM387.6,340.2c0,2.3-.4,4.4-1.2,6-.8,1.7-2,2.9-3.6,3.8-1.6.9-3.5,1.3-5.7,1.3h-7.8v-22.3h7.8c2.2,0,4.1.4,5.7,1.3,1.6.9,2.8,2.1,3.6,3.8s1.2,3.8,1.2,6.1h0Z"></path><polygon class="st0" points="223.4 332.8 220 342.6 226.7 342.6 223.4 332.8"></polygon></g></svg> 