<?xml version="1.0" encoding="UTF-8"?> <svg xmlns="http://www.w3.org/2000/svg" xmlns:xlink="http://www.w3.org/1999/xlink" version="1.1" id="Layer_1" x="0px" y="0px" viewBox="0 0 600 179" style="enable-background:new 0 0 600 179;" xml:space="preserve"> <style type="text/css"> .st0{fill:#016AF1;} </style> <path class="st0" d="M255.9,101.2c16.8,1.1,19.8,2.3,15.7,18.5l-5.7,23.8c-5.7,5.5-18.5,14.2-36.9,14.2c-27.1,0-39.3-17.6-39.3-43.3 c0-16.3,4-38.2,13.6-56.7c20.8,12.7,42.5,24.9,67.1,24.9c23.5,0,40.1-13.2,40.1-34c0-19.9-19.9-36.5-54-36.5 c-26.6,0-48.6,10.8-64.1,27.6C174.1,29.1,155,20.1,134,20.1c-26.6,0-51.4,17.4-51.4,44.6c0,23.1,17.2,34,36.7,34 c19.4,0,32.3-14,32.3-25.3c0-7-4.9-11.9-11.5-11.9c-8.5,0-12.3,6.6-14.2,14.7c-1.5,5.7-4.9,9.1-11.9,9.1c-10,0-20.6-5.7-20.6-21.4 c0-17.8,14.2-34.4,40.6-34.4c18.3,0,35,8,52,18c-11.9,16.2-18.5,36.3-18.5,57.1c0,38.2,25.9,62.4,60.7,62.4c19.1,0,34.4-7.6,44-14.8 l4.7,11.6h5.3l10.8-44.2c4-16.2,7.9-17.4,24.4-18.5l1.3-5.3h-61.5L255.9,101.2z M256.9,21.1c25.7,0,42.5,12.7,42.5,28.2 c0,12.1-8.7,23.5-27.8,23.5c-22.5,0-42.7-11.5-63.3-23.8C219.1,33,234.8,21.1,256.9,21.1z"></path> <path class="st0" d="M358.6,18.6c-7.6,0-12.7,5.9-12.7,12.3s4.4,11.6,11.9,11.6c7.9,0,13-5.9,13-12.3 C370.6,23.9,365.9,18.6,358.6,18.6z M348.6,163.8l1.3-5.3c-11.2-1.1-13.2-3.4-11.2-11.1l20.4-82.6h-6.8l-30.6,16.6l-1.1,4.3h7.6 c4.7,0,6,1.9,4.9,7l-13.6,54.8c-1.9,7.6-5.1,10-17,11.1l-1.3,5.3H348.6z"></path> <path class="st0" d="M409.8,104.6c-11.6-3.6-21.9-7.2-21.9-16.3c0-8.5,6.6-15.3,20.6-15.3c14.4,0,27.4,7.2,33.5,26.3l5.3-0.7 l-2.8-30.6h-5.3l-3.2,5.7c-6.4-5.1-15.1-8.9-27.8-8.9c-23,0-38.6,12.3-38.6,29.9c0,16.3,13.4,21.4,33.1,27.4 c12.5,3.6,23.8,7.5,23.8,18.3c0,13.2-11.6,18.3-24.2,18.3c-16.6,0-32.5-8.5-40.6-31.4l-5.1,0.8l3.6,35.7h5.3l3.9-7.5 c7.6,5.7,19.1,10.6,32.7,10.6c23.1,0,42.1-11.6,42.1-32.9C444.2,115.6,426.6,109.9,409.8,104.6z"></path> <path class="st0" d="M496.2,153.8c-4.9,1.7-9.4,2.5-13.8,2.5c-8.7,0-11.1-4.9-8.5-14.8L490,76.7h25.3l2.1-8.7h-25.3l7.9-31.4h-6.8 c-7.9,18.3-17,29.7-35.3,35.7l-1.1,4.4h14.2l-15.9,63.9c-5.1,20,4.3,25.6,18.7,25.6c6.2,0,14.8-1.7,20.2-4L496.2,153.8z"></path> <path class="st0" d="M395.8,18.4v4.1h7.1v19.8h4.8V22.4h7.1v-4.1L395.8,18.4L395.8,18.4z"></path> <path class="st0" d="M417.9,18.4v23.9h4.8V32.1h10.2v10.3h4.8V18.4h-4.8V28h-10.2v-9.6H417.9z"></path> <path class="st0" d="M442.9,18.4v23.9h16.6v-4.1h-11.8v-6.2h10.1v-3.9h-10.1v-5.8h11.5v-4L442.9,18.4L442.9,18.4z"></path> </svg> 