<?xml version="1.0" encoding="UTF-8"?> <svg xmlns="http://www.w3.org/2000/svg" xmlns:xlink="http://www.w3.org/1999/xlink" version="1.1" id="Layer_1" x="0px" y="0px" viewBox="0 0 600 114" style="enable-background:new 0 0 600 114;" xml:space="preserve"> <style type="text/css"> .st0{fill:#016AF1;} </style> <g> <path class="st0" d="M297.9,56.2c0-13.2,0-26.5,0-39.7c0-1.3,0-1.3,1.3-1.3c14.4,0,28.8-0.1,43.2,0c7.1,0.1,14.1,1,20.6,4 c8.6,4,13.8,10.8,16.4,19.7c1.1,3.7,1.8,7.5,1.8,11.3c0.1,4.3,0.2,8.5-0.1,12.7c-0.4,6.8-2,13.4-5.7,19.3 c-4.2,6.8-10.3,10.7-17.8,12.9c-5,1.5-10.2,2.1-15.4,2.1c-14.5,0-28.8,0-43.3,0c-1,0-1.2-0.3-1.2-1.3 C297.9,82.8,297.9,69.5,297.9,56.2z M318.9,56.3c0,7.8,0,15.6,0,23.3c0,1.3,0,1.3,1.3,1.3c3.7,0,7.5,0,11.2,0 c4.2-0.1,8.4,0.1,12.6-0.2c8.1-0.6,13.6-5.2,15.4-13.2c0.6-2.6,0.9-5.3,1.1-8c0.4-5.1,0.1-10.3-1.2-15.3c-1.2-4.6-3.7-8.3-8.1-10.4 c-3.5-1.8-7.2-2.2-10.9-2.3c-6.6-0.1-13.1,0-19.7,0c-1.6,0-1.6,0-1.6,1.6C318.9,40.8,318.9,48.5,318.9,56.3z"></path> <path class="st0" d="M479.2,97.2c-0.4,0-0.7,0.1-1,0.1c-6.3,0-12.6,0-18.9,0c-0.9,0-1.3-0.3-1.6-1.1c-1.7-4-3.5-8-5.1-12 c-0.3-0.7-0.7-1-1.4-1c-13.5,0-27,0-40.5,0c-0.7,0-1.1,0.2-1.4,1c-1.7,4.1-3.5,8.1-5.2,12.3c-0.3,0.7-0.6,0.9-1.3,0.9 c-7.5,0-14.9,0-22.4,0c-0.3,0-0.6-0.1-1-0.1c0.9-1.8,1.7-3.5,2.5-5.2c10.1-21.2,20.3-42.4,30.4-63.6c2-4.1,4-8.1,5.9-12.3 c0.4-0.7,0.7-1,1.5-1c4.4,0.1,8.8-0.1,13.2,0c6.9,0.1,12,3.3,14.8,9.7c6.8,15.3,13.4,30.8,20.2,46.1c3.7,8.4,7.4,17,11.2,25.4 C479,96.6,479,96.9,479.2,97.2z M445.3,67.3c-4.8-11.3-9.6-22.4-14.3-33.5c-0.1,0-0.2,0-0.4,0c-4.8,11.2-9.5,22.2-14.3,33.5 C426,67.3,435.5,67.3,445.3,67.3z"></path> <path class="st0" d="M122.9,51c1.3,1.4,2.3,2.6,3.4,3.6c6.9,6.9,13.8,13.7,20.6,20.6c1,1,1,1,2,0c6.5-6.5,13.1-13.1,19.7-19.6 c11.2-11.2,22.5-22.4,33.8-33.6c2.7-2.7,6.7-2.9,9.4-0.1c7,6.9,14,13.8,20.8,20.8c4.7,4.8,4.7,12.7,0.2,17.7 c-0.1,0.1-0.2,0.2-0.4,0.4c-0.4-0.3-0.7-0.6-1-0.9c-7.6-7.7-15.4-15.5-23.3-23.3c-1-1-1-1-1.9,0c-12,12-24.1,24.1-36.2,36.1 c-5.7,5.7-11.5,11.3-17.1,17c-2.6,2.7-7.2,2.8-9.8,0.1c-5.6-5.7-11.3-11.3-17-17c-1.5-1.5-3-2.9-4.3-4.5 c-3.7-4.8-3.4-11.7,0.4-16.4C122.4,51.8,122.5,51.5,122.9,51z"></path> <path class="st0" d="M258.2,97.3c0-0.4-0.1-0.7-0.1-0.9c0-21.7,0.1-43.4,0-65.1c-0.1-8.1,5.6-14.6,12.8-15.7 c2.5-0.4,5.1-0.3,7.6-0.3c0.2,0,0.4,0.4,0.6,0.6c0.1,0.2,0,0.4,0,0.7c0,26.5,0,52.9,0,79.4c0,1.3,0,1.3-1.4,1.3 c-6.1,0-12.3,0-18.4,0C259,97.3,258.7,97.3,258.2,97.3z"></path> <path class="st0" d="M123.1,15c1.8,1.8,3.2,3.5,4.8,5c6.5,6.5,13,12.8,19.5,19.2c0.6,0.6,1,0.6,1.5,0c7.9-7.8,15.8-15.5,23.7-23.3 c0.7-0.7,1-0.5,1.6,0.1c4.3,4.6,4.3,12.4-0.2,17c-7,7.1-14.1,14.2-21.2,21.1c-2.6,2.6-6.6,2.5-9.2-0.1 c-6.8-6.8-13.7-13.7-20.6-20.6c-4.8-4.8-5.1-12.3-0.7-17.3C122.4,16,122.6,15.6,123.1,15z"></path> <path class="st0" d="M232.2,97.8c-1.8-2-3.5-3.9-5.4-5.7c-6.2-6.2-12.6-12.3-18.9-18.6c-0.7-0.7-1-0.5-1.6,0.1 c-7.6,7.5-15.1,15-22.7,22.5c-0.4,0.4-0.8,1-1.2,1.5c-2.1-2-3.4-4.1-3.9-6.6c-0.9-4.6,0.3-8.7,3.6-12c6.7-6.8,13.4-13.4,20.1-20.2 c2.7-2.8,7.2-2.8,9.9,0c6.8,6.9,13.7,13.7,20.5,20.5c4.7,4.7,5.1,11.8,1,17C233.3,96.7,233,97.1,232.2,97.8z"></path> </g> </svg> 