<?xml version="1.0" encoding="UTF-8"?> <svg xmlns="http://www.w3.org/2000/svg" xmlns:xlink="http://www.w3.org/1999/xlink" version="1.1" id="Layer_1" x="0px" y="0px" viewBox="0 0 600 258.3" style="enable-background:new 0 0 600 258.3;" xml:space="preserve"> <style type="text/css"> .st0{fill:#016AF1;} </style> <g> <polygon class="st0" points="190.7,128.3 179.6,114.8 174.5,121.1 174.5,128.3 168.1,128.3 168.1,79.1 174.3,79.1 174.3,111.7 189.8,91.6 197.3,91.6 183.3,110.1 198.5,128.3 "></polygon> <path class="st0" d="M335.4,128.3v-22.4c0-2.6-0.7-4.8-2.2-6.6c-1.5-1.8-3.3-2.7-5.7-2.7s-4.5,0.8-6.3,2.4 c-1.8,1.6-2.6,3.5-2.6,5.9v23.4h-6.2v-23.4c0-2.3-0.9-4.3-2.6-5.9c-1.8-1.6-3.9-2.4-6.3-2.4s-4.3,0.9-5.7,2.7 c-1.5,1.8-2.2,4-2.2,6.7v22.4h-6.2v-21.8c0-4.6,1.3-8.3,4-11.1c2.5-2.6,5.7-4.1,9.7-4.5c0.4,0,0.8-0.1,1.2-0.1 c4.2,0,7.7,1.8,10.5,5.3l0.6,0.8l0.6-0.8c2.8-3.5,6.3-5.3,10.5-5.3c0.4,0,0.8,0,1.2,0.1c4,0.3,7.3,1.8,9.8,4.5 c2.7,2.8,4,6.6,4,11.1v21.8C341.5,128.3,335.4,128.3,335.4,128.3L335.4,128.3z"></path> <path class="st0" d="M367.5,129.1c-0.2,0-0.5,0-0.7,0c-5.1-0.1-9.5-2.1-13-5.8c-3.5-3.7-5.3-8.2-5.3-13.3s1.9-10,5.7-13.8 c3.6-3.7,8-5.5,13-5.5c0.2,0,0.5,0,0.7,0c5.1,0.2,9.5,2.1,13,5.9s5.3,8.2,5.3,13.3s-1.9,9.8-5.8,13.7 C376.8,127.3,372.4,129.1,367.5,129.1L367.5,129.1z M367.4,96.6c-3.6,0-6.5,1.2-9,3.8c-2.6,2.6-3.8,5.6-3.9,9.3 c-0.1,3.6,1.1,6.7,3.5,9.4s5.3,4.1,8.8,4.2c0.3,0,0.5,0,0.8,0c3.4,0,6.3-1.3,8.8-3.9c2.7-2.8,3.9-6,3.8-9.8 c-0.1-3.6-1.4-6.6-3.8-9.2c-2.5-2.6-5.3-3.8-8.8-3.8L367.4,96.6L367.4,96.6z"></path> <path class="st0" d="M406.4,129.1c-9,0-13.6-3.9-13.6-11.6V79.2h6v12.4h8.2v5.7h-8.2v19.4c0,4.9,2.5,7.3,7.6,7.3h0.6v5.2H406.4 L406.4,129.1z"></path> <path class="st0" d="M415.7,128.3V91.6h6v36.7L415.7,128.3L415.7,128.3z M415.7,85.3v-6.1h6v6.1H415.7z"></path> <path class="st0" d="M447.7,129.1c-0.2,0-0.5,0-0.7,0c-5.1-0.1-9.5-2.1-13-5.8c-3.5-3.7-5.3-8.2-5.3-13.3s1.9-10,5.7-13.8 c3.6-3.7,8-5.5,13-5.5c0.2,0,0.5,0,0.7,0c5.1,0.2,9.5,2.1,13,5.9c3.5,3.7,5.3,8.2,5.3,13.3s-1.9,9.8-5.8,13.7 C457,127.3,452.7,129.1,447.7,129.1L447.7,129.1z M447.6,96.6c-3.6,0-6.5,1.2-9,3.8c-2.6,2.6-3.8,5.6-3.9,9.3 c-0.1,3.6,1.1,6.7,3.5,9.4c2.4,2.7,5.3,4.1,8.8,4.2c0.3,0,0.5,0,0.8,0c3.4,0,6.3-1.3,8.8-3.9c2.7-2.8,3.9-6,3.8-9.8 c-0.1-3.6-1.4-6.6-3.8-9.2c-2.5-2.6-5.3-3.8-8.8-3.8C447.8,96.6,447.6,96.6,447.6,96.6L447.6,96.6z"></path> <path class="st0" d="M499.6,128.3V107c0-2.8-1-5.2-3.1-7.3c-2.1-2.1-4.5-3.1-7.2-3.1s-5.2,1-7.3,3.1s-3.1,4.4-3.1,7.3v21.3h-6 v-20.8c0-4.8,1.6-8.8,4.7-11.9c3.1-3.2,7-4.8,11.7-4.8s8.5,1.6,11.6,4.8c3.1,3.2,4.7,7.2,4.7,11.9v20.8H499.6L499.6,128.3z"></path> <path class="st0" d="M220.2,129.1c-2,0-4-0.3-6.1-1c-5.1-1.6-8.9-4.7-11.3-9.3c-2.6-4.8-3-10-1.2-15.3c1.7-4.9,4.8-8.6,9.2-10.8 c0.3-0.2,0.7-0.3,1-0.5c2.4-1,4.9-1.5,7.4-1.5c2.2,0,4.5,0.4,6.7,1.2c4.7,1.7,8.2,4.7,10.2,8.7l1.4,2.8l-28.4,14.3l0.6,0.8 c1.7,2.1,3.9,3.5,6.7,4.2c1.1,0.3,2.3,0.4,3.4,0.4c2,0,4-0.5,5.9-1.5l0.2-0.1c3.7-1.9,5.9-4.7,6.6-8.3l5.7,1.4 c-0.4,1.5-0.9,3-1.6,4.3c-1.9,3.5-4.6,6.2-8.1,8.1l-0.3,0.2C225.7,128.4,223,129.1,220.2,129.1L220.2,129.1z M219.8,96.5 c-2,0-3.9,0.5-5.9,1.4l-0.2,0.1c-2.9,1.4-4.9,3.5-6.1,6.3c-1,2.3-1.4,4.7-1,7.2l0.2,1.1l22.9-11.6l-0.8-0.8 c-1.8-1.8-3.8-2.9-6.2-3.5C221.7,96.7,220.7,96.5,219.8,96.5z"></path> <path class="st0" d="M264.4,129.1c-2,0-4-0.3-6.1-1c-5.1-1.6-8.9-4.7-11.3-9.3c-2.6-4.8-3-10-1.2-15.3c1.7-4.9,4.8-8.6,9.2-10.8 c0.3-0.2,0.7-0.3,1-0.5c2.4-1,4.8-1.5,7.3-1.5c2.2,0,4.5,0.4,6.7,1.2c4.7,1.7,8.2,4.7,10.2,8.7l1.4,2.8l-28.4,14.3l0.6,0.8 c1.7,2.1,3.9,3.5,6.7,4.2c1.1,0.3,2.3,0.4,3.4,0.4c2,0,4-0.5,6-1.5l0.2-0.1c3.7-1.9,5.9-4.7,6.6-8.3l5.7,1.4 c-0.4,1.5-0.9,3-1.6,4.3c-1.9,3.5-4.6,6.2-8.1,8.1l-0.3,0.1C269.8,128.4,267.1,129.1,264.4,129.1L264.4,129.1z M263.9,96.5 c-2,0-3.9,0.5-5.9,1.4l-0.2,0.1c-2.9,1.4-4.9,3.5-6.1,6.3c-1,2.3-1.4,4.7-1,7.2l0.2,1.1l22.9-11.6l-0.8-0.8 c-1.8-1.8-3.8-2.9-6.2-3.5C265.8,96.7,264.8,96.5,263.9,96.5L263.9,96.5z"></path> <path class="st0" d="M124.3,99.8c-2.8,3-9.7,9-10,9.3c-19.8,17-7.5,35.8-3.8,38.6c0,0,6.5-6.6,14.3-14.8 C127.3,128.4,133,115.2,124.3,99.8L124.3,99.8z"></path> <path class="st0" d="M139.6,79c-14.4-12.3-45.1-39.8-45.1-39.8l31.3,56c0,0,10.5,20.3-0.3,37.1c10.4-10.8,22.9-24,25.8-27.9 C156.3,97.5,151.4,89.1,139.6,79z"></path> </g> <g> <path class="st0" d="M337.8,190.6c0-1.2-0.4-2.2-1.1-2.9c-0.8-0.7-1.8-1.1-3.1-1.1h-4.7v8h4.9c1.3,0,2.4-0.3,3.1-1 C337.4,192.8,337.8,191.9,337.8,190.6L337.8,190.6z"></path> <path class="st0" d="M276.1,187.4c-1-0.7-2.2-1-3.6-1c-1.4,0-2.6,0.3-3.7,1c-1,0.7-1.8,1.6-2.4,2.9c-0.6,1.3-0.8,2.8-0.8,4.5v0 c0,1.7,0.3,3.2,0.8,4.5c0.6,1.3,1.4,2.2,2.4,2.9c1,0.7,2.3,1,3.7,1c0.7,0,1.4-0.1,2-0.3l-2.8-3.9h3.6l1.7,2.4 c0.6-0.6,1.1-1.3,1.5-2.2c0.6-1.3,0.8-2.7,0.8-4.5v0c0-1.7-0.3-3.2-0.8-4.5C277.9,189.1,277.1,188.1,276.1,187.4z"></path> <path class="st0" d="M380.2,187.6c-1.1-0.6-2.4-0.9-4-0.9h-4.1V203h4.1c1.6,0,2.9-0.3,4-0.9c1.1-0.6,1.9-1.5,2.5-2.8 c0.6-1.2,0.8-2.7,0.8-4.4v0c0-1.7-0.3-3.2-0.9-4.4C382.1,189.2,381.3,188.3,380.2,187.6z"></path> <path class="st0" d="M43,168v51h514v-51H43z M229.2,206l-2-6h-8.6l-2,6h-3.6l8.1-22.3h1.9h0.9h0.9l8.1,22.3H229.2z M256.5,198.9 c-0.2,1.5-0.8,2.8-1.6,3.9c-0.8,1.1-1.9,2-3.2,2.6c-1.3,0.6-2.8,0.9-4.4,0.9c-2.1,0-3.9-0.5-5.5-1.4c-1.5-0.9-2.7-2.3-3.6-4 c-0.8-1.7-1.3-3.8-1.3-6.1v0c0-2.4,0.4-4.4,1.3-6.1c0.8-1.7,2-3,3.6-4c1.5-0.9,3.4-1.4,5.5-1.4c1.6,0,3.1,0.3,4.4,0.9 c1.3,0.6,2.4,1.5,3.3,2.6c0.9,1.1,1.4,2.4,1.6,3.9l0,0.2h-3.4l-0.1-0.3c-0.2-0.9-0.6-1.6-1.1-2.3s-1.2-1.1-2-1.4 c-0.8-0.3-1.7-0.5-2.7-0.5c-1.4,0-2.6,0.3-3.6,1c-1,0.7-1.8,1.7-2.4,2.9c-0.6,1.3-0.8,2.7-0.8,4.5v0c0,1.7,0.3,3.2,0.8,4.5 c0.6,1.3,1.3,2.2,2.4,2.9c1,0.7,2.2,1,3.6,1c1,0,1.9-0.2,2.6-0.5c0.8-0.3,1.4-0.8,2-1.5c0.5-0.6,1-1.4,1.2-2.4l0-0.2h3.4 L256.5,198.9z M282.8,194.8c0,2.4-0.4,4.4-1.3,6.1c-0.7,1.3-1.5,2.4-2.6,3.3l2.9,4.1h-3.6l-1.9-2.7c-1.2,0.4-2.5,0.7-3.9,0.7 c-2.1,0-4-0.5-5.6-1.4c-1.6-0.9-2.8-2.3-3.6-4c-0.8-1.7-1.3-3.8-1.3-6.1v0c0-2.4,0.4-4.4,1.3-6.1c0.8-1.7,2.1-3,3.6-4 c1.6-0.9,3.4-1.4,5.6-1.4c2.1,0,4,0.5,5.5,1.4c1.6,0.9,2.8,2.3,3.6,4S282.8,192.5,282.8,194.8L282.8,194.8z M307.3,198.1 c0,1.6-0.4,3.1-1.1,4.3c-0.7,1.2-1.8,2.2-3.1,2.9c-1.3,0.7-3,1-4.8,1c-1.9,0-3.5-0.3-4.8-1c-1.3-0.7-2.4-1.6-3.1-2.9 c-0.7-1.2-1.1-2.7-1.1-4.3v-14.4h3.5v14.2c0,1.6,0.5,2.9,1.5,3.9c1,1,2.3,1.5,4.1,1.5c1.8,0,3.1-0.5,4.1-1.5c1-1,1.4-2.3,1.4-3.9 v-14.2h3.5V198.1z M318,206h-3.5v-22.3h3.5V206z M338,206l-4.5-8.5c0,0-0.1,0-0.1,0s-0.1,0-0.1,0h-4.5v8.5h-3.5v-22.3h8.7 c1.5,0,2.8,0.3,3.9,0.8c1.1,0.6,2,1.3,2.6,2.4c0.6,1,0.9,2.2,0.9,3.6v0c0,1.5-0.4,2.8-1.1,4c-0.8,1.1-1.8,1.9-3.2,2.4l5,9.1H338z M362,186.7h-10.7v6.5h10.1v2.9h-10.1v6.9H362v3h-14.1v-22.3H362V186.7z M387.1,194.8c0,2.3-0.4,4.4-1.2,6c-0.8,1.7-2,2.9-3.6,3.8 c-1.6,0.9-3.5,1.3-5.7,1.3h-7.8v-22.3h7.8c2.2,0,4.1,0.4,5.7,1.3c1.6,0.9,2.8,2.1,3.6,3.8S387.1,192.4,387.1,194.8L387.1,194.8z"></path> <polygon class="st0" points="222.9,187.4 219.5,197.2 226.2,197.2 222.9,187.4 "></polygon> </g> </svg> 