<?xml version="1.0" encoding="UTF-8"?> <svg xmlns="http://www.w3.org/2000/svg" xmlns:xlink="http://www.w3.org/1999/xlink" version="1.1" id="Layer_1" x="0px" y="0px" viewBox="0 0 600 174.6" style="enable-background:new 0 0 600 174.6;" xml:space="preserve"> <style type="text/css"> .st0{fill:#016AF1;} .st1{fill:none;} </style> <g> <path class="st0" d="M485.7,29.5h-24.3v49.9h-9.7V76c0-14.1,0-28.1,0-42.2c0-2.8-1.4-4.2-4.1-4.2c-6.1,0-12.3,0-18.6,0v-8.7h56.7 L485.7,29.5L485.7,29.5z"></path> <path class="st0" d="M237.9,21h11V24c0,15.5,0,31,0,46.5c0,5.4-1.5,8-5,9.2c-4.9,1.7-10.1,0.2-12.9-4c-3.7-5.7-7.3-11.4-10.9-17.2 c-4.4-7-8.9-14.1-13.3-21.1c-0.6-0.9-1.3-1.8-1.9-2.7c-0.3,0-0.6,0-0.9,0c-0.2,1.2-0.5,2.3-0.6,3.4c0,12.3,0,24.7,0,37 c0,1.2,0,2.4,0,4.2c-3.2,0-6.2,0.1-9.2-0.1c-0.5,0-1.4-1.6-1.4-2.4c-0.1-6.3-0.1-12.5-0.1-18.8c0-9.5,0-18.9,0-28.4 c0-5.6,1.4-8,5.4-9.2c5-1.6,10.2,0,12.8,4.1c8.1,12.7,16.2,25.5,24.2,38.2c0.6,0.9,1.2,1.8,1.9,2.7c0.3-0.1,0.6-0.1,0.9-0.2 L237.9,21L237.9,21z"></path> <path class="st0" d="M318.4,21h10.7c0,1.2,0,2.3,0,3.4c0,11.3,0,22.6,0,33.9c0,8.9,4,12.9,12.9,13.3c0.5,0,1,0,1.5,0 c10.5,0,14.4-3.8,14.5-14.2c0.1-10.8,0-21.6,0-32.3c0-1.2,0-2.4,0-3.9h10.8c0,1.1,0.1,2.2,0.1,3.3c0,11.5,0,23,0,34.5 c0,12.9-6.8,20.4-19.7,21.1c-5.4,0.3-10.9,0.2-16.2-0.8c-9-1.6-14.7-8.2-14.9-17.1c-0.3-13.3-0.1-26.7-0.1-40 C318.1,21.8,318.3,21.5,318.4,21L318.4,21z"></path> <path class="st0" d="M423.4,20.9v8.7c-1.3,0-2.5,0-3.6,0c-7,0.1-14,0.1-20.9,0.5c-5.8,0.3-9.5,3.8-11,9.3c-1.9,7.1-2,14.2-0.4,21.4 c1.5,6.8,5.8,9.9,13.9,10.1c6.5,0.2,12.9,0.1,19.4,0.1c1.1,0,2.2,0,3.6,0v8.8c-1.7,0-3.2,0-4.7,0c-7.3,0-14.6,0.1-21.9-0.1 c-12.8-0.3-20.4-6.6-21.9-19.2c-0.9-7.3-0.6-15,0.5-22.4c1.5-10.3,9.2-16.4,20.1-17c7.4-0.4,14.8-0.1,22.2-0.1 C420.2,20.8,421.6,20.8,423.4,20.9L423.4,20.9z"></path> <path class="st0" d="M166.4,21.6c-8.1,7.7-16.2,15.4-24.3,23.1c-4.1,3.9-4.1,6.1,0.1,9.9c8.3,7.5,16.7,14.9,25,22.4 c0.7,0.7,1.4,1.4,2.8,2.6c-4.9,0-9,0.1-13.2-0.1c-0.8,0-1.6-0.8-2.2-1.4c-7.4-6.9-14.9-13.8-22.2-20.8c-5.2-4.9-5.2-10.2-0.2-15.2 c6.6-6.5,13.1-13,19.7-19.4c1-0.9,2.6-1.5,4-1.6c3.4-0.2,6.9-0.1,10.3-0.1C166.3,21.1,166.3,21.3,166.4,21.6L166.4,21.6z"></path> <path class="st0" d="M114.3,79.7V21h10.9c0,1.1,0,2.2,0,3.3c0,17.4-0.1,34.7,0.1,52.1c0,2.7-0.8,3.4-3.3,3.2 C119.4,79.5,117,79.6,114.3,79.7L114.3,79.7z"></path> <path class="st0" d="M173.4,79.4V21.1h10.6v58.3C184.1,79.4,173.4,79.4,173.4,79.4z"></path> <g> <path class="st1" d="M286.7,29.9c-4.6-0.5-9.2-0.3-13.8-0.3c-3.6,0-4.6,1-4.6,4.6c0,5.3,0,10.7,0,16c0,5.7,0,11.3,0,16.9 c0,2.5,1,3.8,3.7,3.8c5.1-0.1,10.3,0.1,15.4-0.1c6.5-0.3,10.7-3.4,11.7-9.7c0.9-5.9,1.4-12.1,0.9-18 C299.3,34.7,295.1,30.8,286.7,29.9L286.7,29.9z"></path> <path class="st0" d="M311.1,39.8C309.2,27.7,301,21,288.7,20.9c-7.4,0-14.8,0-22.2,0c-6.4,0-9.2,2.9-9.3,9.2c0,6.9,0,13.8,0,20.6 c0,7,0,14,0,21c0,5.4,2.2,7.8,7.6,7.9c9,0.2,18.1,0.2,27.1,0c9.5-0.3,15.7-5.5,18.1-14.7C312.2,56.6,312.4,48.1,311.1,39.8 L311.1,39.8z M299,61.1c-1,6.3-5.2,9.4-11.7,9.7c-5.1,0.2-10.2,0.1-15.4,0.1c-2.6,0-3.7-1.3-3.7-3.8c0-5.7,0-11.3,0-16.9 c0-5.3,0-10.7,0-16c0-3.6,1-4.6,4.6-4.5c4.6,0,9.3-0.2,13.8,0.3c8.4,0.9,12.6,4.8,13.2,13.1C300.4,49,299.9,55.2,299,61.1 L299,61.1z"></path> </g> </g> <g> <path class="st0" d="M337.9,126.1c0-1.2-0.4-2.2-1.1-2.9c-0.8-0.7-1.8-1.1-3.1-1.1h-4.7v8h4.9c1.3,0,2.4-0.3,3.1-1 C337.5,128.4,337.9,127.4,337.9,126.1L337.9,126.1z"></path> <path class="st0" d="M276.2,123c-1-0.7-2.2-1-3.6-1c-1.4,0-2.6,0.3-3.7,1c-1,0.7-1.8,1.6-2.4,2.9c-0.6,1.3-0.8,2.8-0.8,4.5v0 c0,1.7,0.3,3.2,0.8,4.5c0.6,1.3,1.4,2.2,2.4,2.9c1,0.7,2.3,1,3.7,1c0.7,0,1.4-0.1,2-0.3l-2.8-3.9h3.6l1.7,2.4 c0.6-0.6,1.1-1.3,1.5-2.2c0.6-1.3,0.8-2.7,0.8-4.5v0c0-1.7-0.3-3.2-0.8-4.5C278,124.6,277.2,123.6,276.2,123z"></path> <path class="st0" d="M380.3,123.2c-1.1-0.6-2.4-0.9-4-0.9h-4.1v16.3h4.1c1.6,0,2.9-0.3,4-0.9c1.1-0.6,1.9-1.5,2.5-2.8 c0.6-1.2,0.8-2.7,0.8-4.4v0c0-1.7-0.3-3.2-0.9-4.4C382.2,124.7,381.4,123.8,380.3,123.2z"></path> <path class="st0" d="M43.1,103.5v51h514v-51H43.1z M229.3,141.5l-2-6h-8.6l-2,6H213l8.1-22.3h1.9h0.9h0.9l8.1,22.3H229.3z M256.6,134.4c-0.2,1.5-0.8,2.8-1.6,3.9c-0.8,1.1-1.9,2-3.2,2.6c-1.3,0.6-2.8,0.9-4.4,0.9c-2.1,0-3.9-0.5-5.5-1.4 c-1.5-0.9-2.7-2.3-3.6-4c-0.8-1.7-1.3-3.8-1.3-6.1v0c0-2.4,0.4-4.4,1.3-6.1c0.8-1.7,2-3,3.6-4c1.5-0.9,3.4-1.4,5.5-1.4 c1.6,0,3.1,0.3,4.4,0.9c1.3,0.6,2.4,1.5,3.3,2.6c0.9,1.1,1.4,2.4,1.6,3.9l0,0.2h-3.4l-0.1-0.3c-0.2-0.9-0.6-1.6-1.1-2.3 s-1.2-1.1-2-1.4c-0.8-0.3-1.7-0.5-2.7-0.5c-1.4,0-2.6,0.3-3.6,1c-1,0.7-1.8,1.7-2.4,2.9c-0.6,1.3-0.8,2.7-0.8,4.5v0 c0,1.7,0.3,3.2,0.8,4.5c0.6,1.3,1.3,2.2,2.4,2.9c1,0.7,2.2,1,3.6,1c1,0,1.9-0.2,2.6-0.5c0.8-0.3,1.4-0.8,2-1.5 c0.5-0.6,1-1.4,1.2-2.4l0-0.2h3.4L256.6,134.4z M283,130.4c0,2.4-0.4,4.4-1.3,6.1c-0.7,1.3-1.5,2.4-2.6,3.3l2.9,4.1h-3.6l-1.9-2.7 c-1.2,0.4-2.5,0.7-3.9,0.7c-2.1,0-4-0.5-5.6-1.4c-1.6-0.9-2.8-2.3-3.6-4c-0.8-1.7-1.3-3.8-1.3-6.1v0c0-2.4,0.4-4.4,1.3-6.1 c0.8-1.7,2.1-3,3.6-4c1.6-0.9,3.4-1.4,5.6-1.4c2.1,0,4,0.5,5.5,1.4c1.6,0.9,2.8,2.3,3.6,4S283,128,283,130.4L283,130.4z M307.4,133.7c0,1.6-0.4,3.1-1.1,4.3c-0.7,1.2-1.8,2.2-3.1,2.9c-1.3,0.7-3,1-4.8,1c-1.9,0-3.5-0.3-4.8-1c-1.3-0.7-2.4-1.6-3.1-2.9 c-0.7-1.2-1.1-2.7-1.1-4.3v-14.4h3.5v14.2c0,1.6,0.5,2.9,1.5,3.9c1,1,2.3,1.5,4.1,1.5c1.8,0,3.1-0.5,4.1-1.5c1-1,1.4-2.3,1.4-3.9 v-14.2h3.5V133.7z M318.1,141.5h-3.5v-22.3h3.5V141.5z M338.1,141.5l-4.5-8.5c0,0-0.1,0-0.1,0s-0.1,0-0.1,0h-4.5v8.5h-3.5v-22.3 h8.7c1.5,0,2.8,0.3,3.9,0.8c1.1,0.6,2,1.3,2.6,2.4c0.6,1,0.9,2.2,0.9,3.6v0c0,1.5-0.4,2.8-1.1,4c-0.8,1.1-1.8,1.9-3.2,2.4l5,9.1 H338.1z M362.1,122.2h-10.7v6.5h10.1v2.9h-10.1v6.9h10.7v3H348v-22.3h14.1V122.2z M387.2,130.3c0,2.3-0.4,4.4-1.2,6 c-0.8,1.7-2,2.9-3.6,3.8c-1.6,0.9-3.5,1.3-5.7,1.3h-7.8v-22.3h7.8c2.2,0,4.1,0.4,5.7,1.3c1.6,0.9,2.8,2.1,3.6,3.8 S387.2,128,387.2,130.3L387.2,130.3z"></path> <polygon class="st0" points="223,122.9 219.7,132.7 226.3,132.7 223,122.9 "></polygon> </g> </svg> 