<?xml version="1.0" encoding="UTF-8"?> <svg xmlns="http://www.w3.org/2000/svg" xmlns:xlink="http://www.w3.org/1999/xlink" version="1.1" id="Layer_1" x="0px" y="0px" viewBox="0 0 600 124" style="enable-background:new 0 0 600 124;" xml:space="preserve"> <style type="text/css"> .st0{fill:#016AF1;} </style> <g> <path class="st0" d="M455,78.5c-0.7,2.5-1.1,5.2-2.2,7.5c-4,8.8-11.3,13.4-20.7,14.7c-2.2,0.3-4.6,0.2-6.8,0.4 c-0.8,0.1-1.7,0.4-2.2,1c-2.9,3.1-5.8,6.4-8.6,9.5c-0.4,0.4-1.1,0.8-1.6,0.8c-9.8,0.1-19.6,0.1-29.4,0c-0.2,0-0.4-0.1-0.7-0.1 c0-30.2,0-60.4,0-90.8c0.5,0,1.1,0,1.6,0c9.3,0,18.5,0,27.8,0c1.2,0,2-0.4,2.8-1.3c2.6-3,5.3-5.9,8-8.9c0.4-0.4,0.7-0.9,1-1.3 c2,0,3.9,0,5.9,0c1.6,0.3,3.1,0.5,4.6,1c17.2,4.2,21.3,21.1,16.1,32.1c-2.1,4.4-5.4,7.9-9.7,10.5c0.5,0.3,1,0.5,1.5,0.7 c5.8,2.9,9.9,7.3,11.9,13.5c0.4,1.4,0.7,2.8,1.1,4.1C455,74.2,455,76.3,455,78.5z M396.9,98.9c0.3,0.1,0.5,0.2,0.7,0.2 c5.1,0,10.2,0.1,15.3,0c0.5,0,1.1-0.4,1.5-0.8c2.6-2.8,5.2-5.6,7.6-8.5c1.2-1.4,2.4-2.2,4.3-2c0.9,0.1,1.9-0.1,2.8-0.3 c5-0.9,8.8-3.4,10.3-8.4c1.6-5.3,1.3-10.5-2.8-14.7c-3.1-3.3-7.3-4.1-11.6-4c-0.7,0-1.5,0.4-1.9,0.9c-2.9,3.1-5.7,6.4-8.6,9.5 c-0.5,0.5-1.3,0.8-2,0.8c-4.6,0.1-9.1,0.1-13.6,0.1c-0.7,0-1.3,0-2,0C396.9,80.8,396.9,89.8,396.9,98.9z M396.9,58.2 c0.2,0.1,0.4,0.1,0.5,0.1c5.2,0,10.3,0.1,15.5,0c0.5,0,1.1-0.4,1.5-0.8c2.5-2.7,5-5.3,7.3-8.2c1.4-1.7,2.8-2.4,5-2.5 c4.7-0.2,8.5-2.4,10.1-7.1c1.6-4.7,1.1-9.3-2.7-13c-2.5-2.3-5.5-3.1-8.8-3.2c-0.7,0-1.6,0.4-2.1,0.8c-2.9,3.1-5.7,6.2-8.5,9.4 c-0.7,0.8-1.4,1.1-2.5,1.1c-4-0.1-8,0-12.1,0c-1.1,0-2.1,0-3.2,0C396.9,42.8,396.9,50.5,396.9,58.2z"></path> <path class="st0" d="M237.7,113.8c-23.2-0.1-41.6-16-44.7-39c-1.7-12.8,0.3-24.8,7.7-35.6c7.6-11.1,18.3-17.2,31.6-18.6 c11.5-1.3,22.3,1,31.9,7.7c10.1,7.1,16,17,18.3,29.1c2.3,12.9,0.5,25.2-6.7,36.3c-7.8,12-19.2,18.4-33.4,19.7 C240.8,113.6,239.2,113.7,237.7,113.8z M207.2,65.6c0,5.8,0.7,10.2,2.3,14.5c7.6,20.3,32.9,26.6,48.5,12c12.7-12,14.2-33,3.4-46.7 c-10-12.6-28.4-15.2-41.3-5.5C211.1,46.5,207.5,56,207.2,65.6z"></path> <path class="st0" d="M354.6,21.6c5.3,0,10.4,0,15.7,0c-0.2,0.7-0.4,1.3-0.7,1.9c-11.2,29.2-22.3,58.4-33.5,87.5 c-0.4,1.1-0.9,1.5-2.1,1.4c-3.7-0.1-7.3-0.1-11,0c-1.1,0-1.7-0.4-2.1-1.4c-9.3-24.3-18.6-48.5-27.9-72.9c-1.9-5-3.8-10.1-5.8-15.1 c-0.2-0.4-0.3-0.8-0.5-1.4c0.4-0.1,0.7-0.1,1-0.1c4.7,0,9.4,0,14.1,0c1,0,1.4,0.3,1.7,1.1c8,23.2,16.2,46.4,24.3,69.6 c0.2,0.6,0.4,1.1,0.8,2.2C337.5,69.9,346.1,45.8,354.6,21.6z"></path> <path class="st0" d="M145.1,21.7c4.7,0,9.3,0,14.1,0c0,25.7,0,51.4,0,77.3c9.9,0,19.6,0,29.4,0c0,4.6,0,9,0,13.4 c-14.5,0-29,0-43.5,0C145.1,82.1,145.1,52,145.1,21.7z"></path> </g> </svg> 