<?xml version="1.0" encoding="UTF-8"?> <svg xmlns="http://www.w3.org/2000/svg" id="Layer_1" viewBox="0 0 514 179.86"><path d="M294.8,151.36c0-1.2-.4-2.2-1.1-2.9-.8-.7-1.8-1.1-3.1-1.1h-4.7v8h4.9c1.3,0,2.4-.3,3.1-1,.5-.7.9-1.7.9-3h0Z" style="fill:#016af1; stroke-width:0px;"></path><path d="M233.1,148.26c-1-.7-2.2-1-3.6-1s-2.6.3-3.7,1c-1,.7-1.8,1.6-2.4,2.9-.6,1.3-.8,2.8-.8,4.5h0c0,1.7.3,3.2.8,4.5.6,1.3,1.4,2.2,2.4,2.9s2.3,1,3.7,1c.7,0,1.4-.1,2-.3l-2.8-3.9h3.6l1.7,2.4c.6-.6,1.1-1.3,1.5-2.2.6-1.3.8-2.7.8-4.5h0c0-1.7-.3-3.2-.8-4.5-.6-1.2-1.4-2.1-2.4-2.8Z" style="fill:#016af1; stroke-width:0px;"></path><path d="M337.2,148.46c-1.1-.6-2.4-.9-4-.9h-4.1v16.3h4.1c1.6,0,2.9-.3,4-.9,1.1-.6,1.9-1.5,2.5-2.8.6-1.2.8-2.7.8-4.4h0c0-1.7-.3-3.2-.9-4.4-.5-1.4-1.3-2.3-2.4-2.9Z" style="fill:#016af1; stroke-width:0px;"></path><path d="M0,128.86v51h514v-51H0ZM186.2,166.76l-2-6h-8.6l-2,6h-3.6l8.1-22.3h3.7l8.1,22.3h-3.7ZM213.5,159.76c-.2,1.5-.8,2.8-1.6,3.9-.8,1.1-1.9,2-3.2,2.6s-2.8.9-4.4.9c-2.1,0-3.9-.5-5.5-1.4-1.5-.9-2.7-2.3-3.6-4-.8-1.7-1.3-3.8-1.3-6.1h0c0-2.4.4-4.4,1.3-6.1.8-1.7,2-3,3.6-4,1.5-.9,3.4-1.4,5.5-1.4,1.6,0,3.1.3,4.4.9,1.3.6,2.4,1.5,3.3,2.6.9,1.1,1.4,2.4,1.6,3.9v.2h-3.4l-.1-.3c-.2-.9-.6-1.6-1.1-2.3s-1.2-1.1-2-1.4c-.8-.3-1.7-.5-2.7-.5-1.4,0-2.6.3-3.6,1s-1.8,1.7-2.4,2.9c-.6,1.3-.8,2.7-.8,4.5h0c0,1.7.3,3.2.8,4.5.6,1.3,1.3,2.2,2.4,2.9,1,.7,2.2,1,3.6,1,1,0,1.9-.2,2.6-.5.8-.3,1.4-.8,2-1.5.5-.6,1-1.4,1.2-2.4v-.2h3.4v.3ZM239.8,155.66c0,2.4-.4,4.4-1.3,6.1-.7,1.3-1.5,2.4-2.6,3.3l2.9,4.1h-3.6l-1.9-2.7c-1.2.4-2.5.7-3.9.7-2.1,0-4-.5-5.6-1.4s-2.8-2.3-3.6-4c-.8-1.7-1.3-3.8-1.3-6.1h0c0-2.4.4-4.4,1.3-6.1.8-1.7,2.1-3,3.6-4,1.6-.9,3.4-1.4,5.6-1.4s4,.5,5.5,1.4c1.6.9,2.8,2.3,3.6,4s1.3,3.7,1.3,6.1h0ZM264.3,158.96c0,1.6-.4,3.1-1.1,4.3s-1.8,2.2-3.1,2.9c-1.3.7-3,1-4.8,1-1.9,0-3.5-.3-4.8-1s-2.4-1.6-3.1-2.9c-.7-1.2-1.1-2.7-1.1-4.3v-14.4h3.5v14.2c0,1.6.5,2.9,1.5,3.9s2.3,1.5,4.1,1.5,3.1-.5,4.1-1.5,1.4-2.3,1.4-3.9v-14.2h3.5v14.4h-.1ZM275,166.76h-3.5v-22.3h3.5v22.3ZM295,166.76l-4.5-8.5h-4.7v8.5h-3.5v-22.3h8.7c1.5,0,2.8.3,3.9.8,1.1.6,2,1.3,2.6,2.4.6,1,.9,2.2.9,3.6h0c0,1.5-.4,2.8-1.1,4-.8,1.1-1.8,1.9-3.2,2.4l5,9.1h-4.1ZM319,147.46h-10.7v6.5h10.1v2.9h-10.1v6.9h10.7v3h-14.1v-22.3h14.1v3ZM344.1,155.56c0,2.3-.4,4.4-1.2,6-.8,1.7-2,2.9-3.6,3.8-1.6.9-3.5,1.3-5.7,1.3h-7.8v-22.3h7.8c2.2,0,4.1.4,5.7,1.3,1.6.9,2.8,2.1,3.6,3.8s1.2,3.8,1.2,6.1h0Z" style="fill:#016af1; stroke-width:0px;"></path><polygon points="179.9 148.16 176.5 157.96 183.2 157.96 179.9 148.16" style="fill:#016af1; stroke-width:0px;"></polygon><g id="_2_MOJO_logo_horiz_blk-Copy-7"><g id="Group-9"><g id="Group-3"><path id="Fill-1" d="M137.92,55.16v24.26H58.54c25.85-9.95,52.38-18.06,79.38-24.26ZM185.54,79.42c-16.84,0-31.85-10.63-37.43-26.52,25.43-5.37,51.18-9.1,77.09-11.17-1.08,21.11-18.51,37.68-39.65,37.68ZM396.54,55.69h0c-8.85,20.06-32.29,29.14-52.34,20.29-13.62-6.01-22.73-19.13-23.6-33.99,25.63,2.61,51.03,7.17,75.97,13.64l-.03.07ZM274.23,39.71c12.87,0,25.63.54,38.3,1.61-.77,21.9-19.15,39.03-41.05,38.26-20.91-.74-37.65-17.57-38.27-38.48,13.59-.93,27.26-1.4,41.02-1.4h0ZM185.54,0c17.98,0,33.71,12.08,38.35,29.45-26.29,2.58-52.33,7.27-77.87,14.03-.12-1.25-.18-2.51-.18-3.77C145.84,17.79,163.61,0,185.53,0h.01ZM360.19,0c21.92,0,39.69,17.79,39.68,39.71v1.67c-25.6-6.11-51.63-10.27-77.87-12.45C326.82,11.82,342.44,0,360.22,0h-.03ZM312.43,0l.1,28.22c-12.53-.84-25.18-1.26-37.95-1.26h-1.86V0h39.71ZM58.54,0l39.68,39.71L137.92,0v45.7c-27.3,7.73-53.86,17.86-79.38,30.26V0Z" style="fill:#016af1; stroke-width:0px;"></path></g><path id="Fill-4" d="M435.6,39.71h.31c10.96.17,19.71,9.19,19.54,20.15-.08,5.05-2.07,9.88-5.59,13.5l-.24.24c-7.75,7.75-20.32,7.74-28.07-.01-7.75-7.75-7.74-20.32.01-28.07,3.74-3.73,8.81-5.82,14.1-5.81" style="fill:#016af1; stroke-width:0px;"></path></g></g></svg> 