<?xml version="1.0" encoding="UTF-8"?> <svg xmlns="http://www.w3.org/2000/svg" xmlns:xlink="http://www.w3.org/1999/xlink" version="1.1" id="Layer_1" x="0px" y="0px" viewBox="0 0 600 179" style="enable-background:new 0 0 600 179;" xml:space="preserve"> <style type="text/css"> .st0{fill:#016AF1;} </style> <path class="st0" d="M181.7,104.1c0-19.4,14.6-34.6,34.6-34.6c20.1,0,34.7,15.1,34.7,34.6s-14.6,34.4-34.7,34.4 C196.3,138.5,181.7,123.6,181.7,104.1z M236.1,104.1c0-12.4-8.5-21.3-19.9-21.3s-19.8,8.9-19.8,21.3c0,12.3,8.4,21.2,19.8,21.2 S236.1,116.3,236.1,104.1z M278,137.1l-25.8-66.2h16.1l13.7,38.7c1,3,2.1,6.5,2.7,9h0.3c0.7-2.6,1.8-6,2.8-9L301.5,71h16.1 l-25.7,66.2H278L278,137.1z M394.1,137.1V41H409v96.1H394.1z M424.9,137.1V41h14.8v96.1H424.9z M504.5,70.9h12.8v66.2h-13.2 l-1.1-10.2c-4.5,7.5-12.9,11.6-22.5,11.6c-16.2,0-31.5-12.3-31.5-34.4c0-22.3,15.3-34.6,31.5-34.6c9.6,0,18.1,4.1,22.5,11.7 C503,81.3,504.5,70.9,504.5,70.9z M503,104.1c0-13.3-9.7-21.2-19.4-21.2c-10.6,0-19.8,7.9-19.8,21.2c0,13.4,9.2,21.2,19.8,21.2 C493.5,125.3,503,117.7,503,104.1z M180.2,137h-15.8l-16.7-53l8.3-26.4L180.2,137z M82.6,40.5L52.8,137h15.8l24.3-77.2h8.6V40.5 H82.6z M101.5,59.8h14.7v19.6h-14.7V59.8z M333.8,108.5c0,0.1,0.2,1,0.2,1c2,10.2,9.2,16.1,18.7,16.1c8,0,13.2-2.8,16-8.4h14.5 c-4.1,13.4-16.2,21.3-30.4,21.3c-19.8,0-33.7-14.1-33.7-34.4c0-20.2,13.8-34.6,33.6-34.6c18.1,0,32.1,14.8,32.1,34.6 c0,2.1,0,3.2-0.1,5.4h-42.6l3-9.3c0.4-1.2,1.6-2,2.8-2h22.2c-0.9-8.5-8-15.6-17.5-15.6c-9.7,0-16.7,6.2-18.7,15.6 C334,98.1,333.1,102.2,333.8,108.5L333.8,108.5z M125.6,123.8c-2.2,7-6.9,12.1-14.3,13.1c-1.6,0.2-11.2,0.2-12.5,0 c-0.1,0-0.2-0.2,0-0.3c0.2,0,0.3-0.1,0.6-0.1c6.5-1.2,7.7-5.7,10-11.8c1.1-3,2-6.2,2.9-9.4l14.5-46.1c1.5-5,2.9-10,4.6-15.4 c2.2-7,6.9-12.1,14.3-13.1c0.4-0.1,2.9-0.2,4.9-0.2c3,0,6.7,0,7.5,0.2c0.1,0,0.2,0.2,0,0.3c-0.2,0-0.3,0.1-0.6,0.1 c-4.9,0.9-6.5,3.7-8.3,7.7c-0.6,1.2-1.1,2.7-1.7,4.2c-1.1,3-2,6.2-2.9,9.4L125.6,123.8z"></path> <g> <path class="st0" d="M521.9,42.9v-2.5h10.4v2.5h-3.8v9.8h-2.7v-9.8H521.9z M543.8,40.5h3.5v12.3h-2.7v-7.8v-0.8 c-0.1,0.3-0.2,0.7-0.3,0.9l-3.1,7.6h-2L536,45c-0.1-0.2-0.2-0.6-0.3-0.9v8.6H533V40.5h3.5l2.9,6.9c0.2,0.6,0.4,1,0.7,1.9 c0.2-0.8,0.4-1.2,0.7-1.9L543.8,40.5z"></path> </g> </svg> 