<?xml version="1.0" encoding="UTF-8"?> <svg xmlns="http://www.w3.org/2000/svg" id="Layer_1" viewBox="0 0 514 179.64"><path d="M294.8,151.14c0-1.2-.4-2.2-1.1-2.9-.8-.7-1.8-1.1-3.1-1.1h-4.7v8h4.9c1.3,0,2.4-.3,3.1-1,.5-.7.9-1.7.9-3h0Z" style="fill:#016af1;"></path><path d="M233.1,148.04c-1-.7-2.2-1-3.6-1s-2.6.3-3.7,1c-1,.7-1.8,1.6-2.4,2.9-.6,1.3-.8,2.8-.8,4.5h0c0,1.7.3,3.2.8,4.5.6,1.3,1.4,2.2,2.4,2.9s2.3,1,3.7,1,1.4-.1,2-.3l-2.8-3.9h3.6l1.7,2.4c.6-.6,1.1-1.3,1.5-2.2.6-1.3.8-2.7.8-4.5h0c0-1.7-.3-3.2-.8-4.5-.6-1.2-1.4-2.1-2.4-2.8h0Z" style="fill:#016af1;"></path><path d="M337.2,148.24c-1.1-.6-2.4-.9-4-.9h-4.1v16.3h4.1c1.6,0,2.9-.3,4-.9,1.1-.6,1.9-1.5,2.5-2.8.6-1.2.8-2.7.8-4.4h0c0-1.7-.3-3.2-.9-4.4-.5-1.4-1.3-2.3-2.4-2.9h0Z" style="fill:#016af1;"></path><path d="M0,128.64v51h514v-51H0ZM186.2,166.54l-2-6h-8.6l-2,6h-3.6l8.1-22.3h3.7l8.1,22.3h-3.7ZM213.5,159.54c-.2,1.5-.8,2.8-1.6,3.9-.8,1.1-1.9,2-3.2,2.6s-2.8.9-4.4.9-3.9-.5-5.5-1.4c-1.5-.9-2.7-2.3-3.6-4-.8-1.7-1.3-3.8-1.3-6.1h0c0-2.4.4-4.4,1.3-6.1.8-1.7,2-3,3.6-4,1.5-.9,3.4-1.4,5.5-1.4s3.1.3,4.4.9c1.3.6,2.4,1.5,3.3,2.6.9,1.1,1.4,2.4,1.6,3.9v.2h-3.4v-.3c-.3-.9-.7-1.6-1.2-2.3s-1.2-1.1-2-1.4c-.8-.3-1.7-.5-2.7-.5s-2.6.3-3.6,1-1.8,1.7-2.4,2.9c-.6,1.3-.8,2.7-.8,4.5h0c0,1.7.3,3.2.8,4.5.6,1.3,1.3,2.2,2.4,2.9,1,.7,2.2,1,3.6,1s1.9-.2,2.6-.5c.8-.3,1.4-.8,2-1.5.5-.6,1-1.4,1.2-2.4v-.2h3.4v.3h0ZM239.8,155.44c0,2.4-.4,4.4-1.3,6.1-.7,1.3-1.5,2.4-2.6,3.3l2.9,4.1h-3.6l-1.9-2.7c-1.2.4-2.5.7-3.9.7-2.1,0-4-.5-5.6-1.4s-2.8-2.3-3.6-4c-.8-1.7-1.3-3.8-1.3-6.1h0c0-2.4.4-4.4,1.3-6.1.8-1.7,2.1-3,3.6-4,1.6-.9,3.4-1.4,5.6-1.4s4,.5,5.5,1.4c1.6.9,2.8,2.3,3.6,4s1.3,3.7,1.3,6.1h0ZM264.3,158.74c0,1.6-.4,3.1-1.1,4.3s-1.8,2.2-3.1,2.9c-1.3.7-3,1-4.8,1s-3.5-.3-4.8-1-2.4-1.6-3.1-2.9c-.7-1.2-1.1-2.7-1.1-4.3v-14.4h3.5v14.2c0,1.6.5,2.9,1.5,3.9s2.3,1.5,4.1,1.5,3.1-.5,4.1-1.5,1.4-2.3,1.4-3.9v-14.2h3.5v14.4h-.1ZM275,166.54h-3.5v-22.3h3.5v22.3ZM295,166.54l-4.5-8.5h-4.7v8.5h-3.5v-22.3h8.7c1.5,0,2.8.3,3.9.8,1.1.6,2,1.3,2.6,2.4.6,1,.9,2.2.9,3.6h0c0,1.5-.4,2.8-1.1,4-.8,1.1-1.8,1.9-3.2,2.4l5,9.1h-4.1,0ZM319,147.24h-10.7v6.5h10.1v2.9h-10.1v6.9h10.7v3h-14.1v-22.3h14.1v3h0ZM344.1,155.34c0,2.3-.4,4.4-1.2,6-.8,1.7-2,2.9-3.6,3.8-1.6.9-3.5,1.3-5.7,1.3h-7.8v-22.3h7.8c2.2,0,4.1.4,5.7,1.3,1.6.9,2.8,2.1,3.6,3.8s1.2,3.8,1.2,6.1h0Z" style="fill:#016af1;"></path><polygon points="179.9 147.94 176.5 157.74 183.2 157.74 179.9 147.94" style="fill:#016af1;"></polygon><path d="M406.88,19.77c-23.54,0-42.62,19.08-42.62,42.62s19.08,42.62,42.62,42.62c23.54,0,42.62-19.08,42.62-42.62h0c-.04-23.52-19.1-42.58-42.62-42.62ZM406.88,86.19c-13.14,0-23.79-10.65-23.79-23.79s10.65-23.79,23.79-23.79c13.14,0,23.79,10.65,23.79,23.79h0c-.02,13.13-10.66,23.78-23.79,23.79Z" style="fill:#016af1;"></path><path d="M107.12,19.77c-23.54,0-42.62,19.08-42.62,42.62s19.08,42.62,42.62,42.62,42.62-19.08,42.62-42.62h0c-.04-23.52-19.1-42.58-42.62-42.62ZM107.12,86.19c-13.14,0-23.79-10.65-23.79-23.79,0-13.14,10.65-23.79,23.79-23.79,13.14,0,23.79,10.65,23.79,23.79h0c-.02,13.13-10.66,23.78-23.79,23.79Z" style="fill:#016af1;"></path><path d="M342.12,0l-38.22,38.29v-18.09h-32.22c-7.27-.2-14.43,1.86-20.48,5.9-6.07,4.18-9.06,10.25-9.06,17.96-.13,5.56,1.75,10.99,5.28,15.29,3.29,3.88,7.52,6.86,12.29,8.66,4.33,1.57,8.82,3,13.16,4.25,3.54.94,6.95,2.31,10.15,4.09,2.83,1.66,2.83,3.07,2.83,3.62,0,3.23-4.02,4.81-11.97,4.81h-31.49v20.34h31.51c27.57,0,33.32-13.72,33.32-25.14,0-2.33-.24-4.65-.71-6.94-.66-2.81-1.86-5.45-3.54-7.8-2.07-2.83-4.88-5.04-8.12-6.37-3.07-1.42-7.56-3-13.86-5.05-6.07-1.97-9.54-3.07-10.32-3.3-1.04-.39-2.04-.87-3-1.42-.89-.37-1.71-.87-2.43-1.5-.47-.5-.87-1.05-1.19-1.66-.3-.61-.44-1.29-.4-1.97,0-.47,0-1.26,1.66-2.12,2.06-1,4.33-1.49,6.62-1.42h49.16v30.29c0,12.13,3.47,20.95,10.23,26.38,6.54,5.28,18.6,7.88,31.83,7.88h3.31v-20.33h-3.62c-3.16.03-6.32-.13-9.46-.47-2.06-.37-4.07-.97-5.99-1.81-1.67-.73-3.01-2.05-3.78-3.71-1.1-2.5-1.62-5.22-1.5-7.95v-30.25h17.96v-20.3h-17.96V0Z" style="fill:#016af1;"></path><path d="M173.22,63.1c.02-11.82,8.7-21.84,20.4-23.55v-18.91c-23.45,1.82-40.99,22.3-39.17,45.75,1.62,20.93,18.25,37.55,39.17,39.17v-18.84c-11.72-1.72-20.41-11.78-20.4-23.62Z" style="fill:#016af1;"></path><path d="M239.63,63.1c-.04-22.21-17.1-40.67-39.24-42.46v18.91c13.03,1.73,22.19,13.69,20.46,26.71-1.41,10.67-9.81,19.06-20.48,20.46v18.91c22.17-1.78,39.25-20.29,39.25-42.53Z" style="fill:#016af1;"></path></svg> 