<?xml version="1.0" encoding="UTF-8"?> <svg xmlns="http://www.w3.org/2000/svg" id="Layer_1" data-name="Layer 1" viewBox="0 0 400 190"><defs><style>.cls-1{fill:#016af1;}</style></defs><path class="cls-1" d="M338.14,101.57a3,3,0,0,1-2,.35c-3.05,0-6.1,0-9.3,0-1.41,2.72-2.82,5.47-4.25,8.21q-3.85,7.38-7.73,14.75a10.44,10.44,0,0,1-.67.93l-4.31-8.63,7.14-15a161.41,161.41,0,0,0-16.19-.09c1.73,3.6,3.44,7.16,5.16,10.71q3.28,6.83,6.59,13.63a7.06,7.06,0,0,1,.77,3.27c0,4.39,0,8.78,0,13.17v1.78h-8.76v-1.94c0-4.51,0-9,0-13.54a4.75,4.75,0,0,0-.57-2.35c-2.73-5.27-5.44-10.55-8.17-15.82-1.54-3-3.11-5.91-4.76-9h-7.45a4,4,0,0,0,.07,1q3,8.91,6.05,17.82c1.75,5.1,3.53,10.2,5.29,15.3.82,2.37,1.64,4.74,2.44,7.11a12.4,12.4,0,0,1,.3,1.5H289c-1.42-3.47-2.37-7.23-3.67-11H270.89a60.86,60.86,0,0,1,2.53-8.17,22,22,0,0,1,4.63-.19c1.51,0,3,0,4.67,0-2.57-7.87-5.08-15.6-7.58-23.27h-1.73c.88,2.76,1.7,5.45,2.62,8.1a2.71,2.71,0,0,1,0,2c-1.09,3.14-2.11,6.31-3.13,9.47q-3.45,10.65-6.88,21.31c-.19.59-.44,1.16-.66,1.76h-9c4.87-14.25,9.68-28.36,14.54-42.58h-8.52c-.93,2.7-1.89,5.47-2.84,8.25q-5.19,15.24-10.37,30.48c-.44,1.3-1,2.56-1.48,3.87h-8a5.55,5.55,0,0,1,.14-1q3.18-9.86,6.38-19.69c1.48-4.54,3-9.06,4.46-13.6.88-2.73,1.7-5.48,2.58-8.3h-18q-7.29,21.32-14.57,42.62h-8.27c4.52-14.28,9.21-28.36,13.76-42.58H203.38c3.56,10.93,7.07,21.76,10.6,32.62q-1.64,4.92-3.32,10h-1.77L194.33,102H185.5c2.28,7.21,4.83,14.25,7.24,21.34s4.79,14.12,7.22,21.28h-9c-.81-.67-.82-1.84-1.15-2.81-.93-2.66-1.7-5.37-2.57-8.19H173a26.81,26.81,0,0,1,2.34-8.07h9a11.94,11.94,0,0,0-.26-1.54q-2.79-8.69-5.61-17.36c-.5-1.55-1-3.1-1.5-4.67h-1.71c1,3.06,1.92,6.08,2.88,9.14q-5.4,16.65-10.84,33.46h-8.77a1.55,1.55,0,0,1-.15-.18.62.62,0,0,1,0-.19,1.5,1.5,0,0,1,0-.37c.13-.42.28-.84.42-1.25q7-20.1,14-40.19a1.55,1.55,0,0,0,0-.32A31.21,31.21,0,0,0,168,102c-1.59,0-3.18,0-4.77,0H143.51l7.23-7.29V51.77a24.1,24.1,0,0,1,4.81-.19c1.24,2.5,2.49,5,3.68,7.47a4.1,4.1,0,0,1,.28,1.65c0,2.41,0,4.83,0,7.25v1.79h9.82l3.27-3.65.27.18c0-1,0-1.9,0-2.85,0-2.78-1.23-4-4-4.16-.63,0-1.27,0-1.91,0h-5.15c-.12,0-.25,0-.56-.05l-3.74-7.45a9.93,9.93,0,0,1,1.19-.17c4.38,0,8.77,0,13.16,0A9.9,9.9,0,0,1,178,53.64a8.25,8.25,0,0,1,3.29,6.12c.22,2.78,0,5.58,0,8.5l-5.2,5c2,2.2,4.06,4.06,6,6.12,0,2.48.17,5,0,7.43a8.84,8.84,0,0,1-4.43,6.91c-.37.23-.73.48-1.09.72,0,0,0,.09-.06.19H187.9c.06-.06.11-.09.15-.14a.4.4,0,0,0,.08-.16,5.46,5.46,0,0,0,0-.57q0-20.9,0-41.78c0-.06,0-.11.12-.28H193c1.19,2.39,2.49,4.9,3.69,7.45a4.54,4.54,0,0,1,.23,1.85q0,15.75,0,31.48v2.12h15c-2.81-5.6-5.53-11-8.3-16.59h-5a16.64,16.64,0,0,1-.18-3.83c0-1.21,0-2.42,0-3.75a9.87,9.87,0,0,1,1.27-.17c1.46,0,2.93,0,4.39,0a12.59,12.59,0,0,0,2.8-.38,2.93,2.93,0,0,0,2.17-2.19,11.85,11.85,0,0,0,0-6.17,2.24,2.24,0,0,0-1.61-1.73,12.72,12.72,0,0,0-2.58-.47c-2-.07-4.07,0-6.25,0-1.23-2.44-2.47-4.9-3.8-7.52a13.12,13.12,0,0,1,1.38-.17c4.2,0,8.4.06,12.6,0,5.1-.1,9.25,4.81,9.13,9.24-.07,2.41,0,4.83,0,7.25,0,3.92-1.56,7-5.1,8.84-.1,0-.15.2-.33.46l8.69,17h4.52a1.59,1.59,0,0,0,.13-.13.37.37,0,0,0,.07-.16q0-21.09,0-42.13c1.51-.4,19.1-.55,24.6-.23a.86.86,0,0,1,.14.13.27.27,0,0,1,.09.15v7.15a15.16,15.16,0,0,1-3.92.18c-1.34,0-2.68,0-4,0h-8V69.38a27.56,27.56,0,0,0,4.27.11c1.4,0,2.8,0,4.2,0h4.3c.19.28.38.43.39.59,0,2.28,0,4.56,0,7a20.5,20.5,0,0,1-4.29.15c-1.46,0-2.93,0-4.39,0h-4.46V87.44h18.6v6.83h2.17a8.07,8.07,0,0,0,.47-1q4.57-13.37,9.13-26.73c1.56-4.57,3.09-9.15,4.65-13.73.14-.41.35-.79.52-1.17h1.69l2.35,6.95a16.93,16.93,0,0,0,.5,1.62,3.57,3.57,0,0,1,0,2.74c-1.49,4.53-2.89,9.09-4.35,13.63-1.4,4.36-2.83,8.71-4.24,13.07-.48,1.49-.93,3-1.4,4.48,1.46.36,17.51.48,22.8.17-1.08-3.35-2.14-6.66-3.26-10.12-2.41-.15-4.81,0-7.2-.07s-4.82,0-7.37,0c.86-2.77,1.66-5.37,2.51-8.1h9.44c-2.65-8.19-5.23-16.16-7.84-24.24a17.59,17.59,0,0,1,4.15-.17c1.33-.05,2.66,0,4.05,0,1.22,3.46,2.46,6.87,3.63,10.31,2.85,8.37,5.65,16.76,8.48,25.15.75,2.19,1.52,4.38,2.29,6.57a4.53,4.53,0,0,0,.39.69h3.72V51.58c3-.06,5.79,0,8.77,0V69.61c1.74-1.34,2.55-3.08,3.74-4.49s2.29-3,3.43-4.53l3.28-4.4,3.38-4.57h9.54L311.94,79.85h-2.37V94.08a83.72,83.72,0,0,0,13,0c-3.24-4.27-6.42-8.48-9.67-12.78,1.59-2.2,3.07-4.5,5-6.7,1.07,1.37,2,2.59,3,3.84Q326.46,85.9,332,93.34c1.7,2.28,3.37,4.57,5.07,6.84a7.89,7.89,0,0,0,1.07,1ZM159.29,87.42c3.23,0,6.34,0,9.44,0a19,19,0,0,0,2.61-.33,2.48,2.48,0,0,0,2-1.8,9.89,9.89,0,0,0,.31-3.5l-4.4-4.5h-9.94Z"></path><path class="cls-1" d="M133.6,39c0,.51,0,1,0,1.52V144.6c-.76.36-1.56.71-2.32,1.1-4.44,2.26-8.87,4.55-13.31,6.81L97.92,162.73c-.09,0-.13.18-.19.28h-.38c-.07-.09-.11-.24-.2-.28l-17.31-8.84q-9-4.59-18-9.2V39Zm-69,3.07V142.67l32.94,17L113,151.79l16.51-8.47c.38-.2.73-.46,1.05-.66.32-7.48.17-98.83-.17-100.6Z"></path><path class="cls-1" d="M235.76,144.65h-1.64c-.09-.31-.17-.6-.27-.89-1.89-5.58-3.77-11.17-5.72-16.73a3.31,3.31,0,0,1,0-2.36c1.26-3.55,2.43-7.13,3.65-10.7.05-.16.23-.28.48-.59.6,1.72,1.18,3.31,1.7,4.92,1.57,4.89,3.09,9.81,4.7,14.69a4.58,4.58,0,0,1,0,3.12c-.86,2.42-1.6,4.88-2.41,7.32C236.13,143.84,235.93,144.24,235.76,144.65Z"></path><path class="cls-1" d="M94.22,115.36c-1.9,2.66-3.75,5.21-5.54,7.81a10.32,10.32,0,0,1-6,4c-2.42.68-4.89.34-7.64.36,3.25-5.22,6.71-10,10-14.87s6.66-9.79,10-14.72L94.14,97l-1.8,2.22H75.49a.7.7,0,0,1-.15-.15.33.33,0,0,1-.09-.16c0-.38,0-.76,0-1.14V51.35a37.63,37.63,0,0,1,4.87-.13,12.21,12.21,0,0,1,.68,1.08c1.07,2.08,2.09,4.18,3.17,6.26a4.83,4.83,0,0,1,.53,2.36c0,2.8,0,5.6,0,8.4v1.56l.27.27s.1.11.15.11H95.59l4-4.12c0-1.1,0-2.43,0-3.76A3.36,3.36,0,0,0,96.23,60c-2.41-.07-4.83,0-7.24,0H86.74c-1.57-2.74-2.88-5.65-4.41-8.65.7,0,1.19-.09,1.68-.09,4.52,0,9-.08,13.55,0a12.3,12.3,0,0,1,7,1.83,10,10,0,0,1,4.29,6.62c.55,2.78.2,5.56.27,8.34a3.49,3.49,0,0,1-1.24,2.65c-1.53,1.43-3,2.94-4.6,4.56.77.77,1.48,1.47,2.16,2.19s1.27,1.43,1.81,2h9.19c-.58,1.83-1.82,3.11-2.63,4.62S112,87,111.13,88.45s-1.83,3-2.77,4.5-1.88,3-2.83,4.48-1.83,2.87-2.72,4.32-1.81,3-2.77,4.65h11.27c0-.43.11-.91.12-1.4,0-4.07,0-8.14,0-12.21a4.19,4.19,0,0,1,.62-2.32c2-3.3,3.92-6.62,5.91-9.91.79-1.29.93-1.3,2.45-.77.32,1.66.45,39.6.16,47.55a19,19,0,0,1-4.46.18c-1.46,0-2.93,0-4.48,0a14.51,14.51,0,0,1-.19-3.94c-.05-1.34,0-2.67,0-4v-4a1.79,1.79,0,0,0-.18-.19.37.37,0,0,0-.16-.07ZM84.7,90.82c2.68,0,5.27,0,7.87,0,2.33,0,4.66.05,6.85-.95.2-.09.55.16.89.26l2.3-3.32-7.24-7.23H84.9c-.05,0-.11.06-.16.1a.53.53,0,0,0-.13.13A67.39,67.39,0,0,0,84.7,90.82ZM103,83.75l1,1,2.22-3.44-1-.83ZM96.36,96l2.28-3.45-1-.94-2.2,3.34Z"></path><path class="cls-1" d="M95.42,132.5H100l-.82,6.59,6.09-2.74,1.39,4.3-6.3,1.19c1.1,2,2.8,3.31,4.28,5L101,149.48l-3.18-5.64c-1.4,1.71-2.1,3.74-3.36,5.65l-3.58-2.58,4.42-5-6.39-1.29,1.28-4.24,6,2.71C96,136.83,95.58,134.77,95.42,132.5Z"></path></svg> 