<?xml version="1.0" encoding="UTF-8"?> <svg xmlns="http://www.w3.org/2000/svg" id="Layer_1" data-name="Layer 1" viewBox="0 0 400 190"><defs><style>.cls-1{fill:#016af1;}</style></defs><path class="cls-1" d="M202,155.19h-3.76l-.31-.05c-1.14-.08-2.27-.14-3.4-.24a52.93,52.93,0,0,1-7.42-1.23,66,66,0,0,1-12.43-4.31,58.61,58.61,0,0,1-16-10.74,57.72,57.72,0,0,1-9.84-12.39,66.86,66.86,0,0,1-4-8,58.29,58.29,0,0,1-3.14-9.46,52,52,0,0,1-1.09-6.68c-.12-1.23-.3-2.45-.4-3.67a36.19,36.19,0,0,1-.07-6.07c.19-2.19.37-4.39.67-6.56a54.06,54.06,0,0,1,1.66-7.63,56.9,56.9,0,0,1,5.69-13.28,63.42,63.42,0,0,1,12.63-15.35,56.51,56.51,0,0,1,11.11-7.67,63.23,63.23,0,0,1,28.37-7,55.88,55.88,0,0,1,10.87,1A56.63,56.63,0,0,1,219.39,38a63.9,63.9,0,0,1,9.26,4.13,58.44,58.44,0,0,1,24.8,25.43,60.56,60.56,0,0,1,4.36,11,51.75,51.75,0,0,1,1.61,7.49c.23,1.84.4,3.69.53,5.55a22.79,22.79,0,0,1,0,3c-.1,1.62-.29,3.23-.38,4.85a50.7,50.7,0,0,1-.8,7.26,63.17,63.17,0,0,1-3.33,11.17A59,59,0,0,1,248,131.07a62.91,62.91,0,0,1-9.78,10.26,52.88,52.88,0,0,1-8.87,6.06,69.36,69.36,0,0,1-9.52,4.27,60.37,60.37,0,0,1-9.61,2.6,54.34,54.34,0,0,1-7.94.88A1.81,1.81,0,0,0,202,155.19Zm-2.27-58.46.13,0c.21.29.43.57.62.87s.23.47.36.7c1.25,2.32,2.52,4.64,3.77,7l5.12,9.59a2.15,2.15,0,0,0,2.18,1.25c1.61,0,3.22,0,4.83,0a1.71,1.71,0,0,0,1.73-1c.36-.73.72-1.46,1.09-2.19,1.4-2.76,2.81-5.51,4.18-8.27,1.76-3.53,3.49-7.07,5.23-10.61a1.3,1.3,0,0,1,1.29-.81c.39,0,.78,0,1.17,0h5.94c.47,0,.95,0,1.42,0,.62,0,.8.2.81.82v1.74a29.59,29.59,0,0,1-.44,5.4c-.21,1.07-.48,2.13-.77,3.18-.43,1.57-.81,3.17-1.36,4.7a37.81,37.81,0,0,1-5.61,9.91,36.53,36.53,0,0,1-5.49,6,41.46,41.46,0,0,1-8.4,5.46,37.67,37.67,0,0,1-16.26,4.2,41,41,0,0,1-6.17-.34A38.57,38.57,0,0,1,184,131.2a40.4,40.4,0,0,1-14.18-10.8,38,38,0,0,1-7.23-13.1c-.22-.65-.4-1.31-.62-2a1,1,0,0,0-.94-.69h-.85c-2.36,0-4.72,0-7.08,0-1.16,0-1.41.35-1.13,1.47a51.87,51.87,0,0,0,3.38,9.6,49.93,49.93,0,0,0,10.9,15.2,48.6,48.6,0,0,0,29,13.19,50.41,50.41,0,0,0,9.11,0,51.92,51.92,0,0,0,7.12-1.11,46.51,46.51,0,0,0,24.51-14.22,53.1,53.1,0,0,0,7.88-11,47.45,47.45,0,0,0,5-14.89,45.05,45.05,0,0,0,.65-7.59c0-2.21-.21-4.43-.44-6.62-.16-1.53-.49-3-.79-4.54-.12-.65-.41-.83-1.08-.83H224a1.1,1.1,0,0,0-1,.63l-.38.77-4.88,9.71c-1.11,2.22-2.21,4.45-3.32,6.68a3.41,3.41,0,0,1-.45.55c-.13-.2-.21-.3-.27-.41-.66-1.19-1.32-2.38-2-3.58q-2.13-3.92-4.24-7.84-1.41-2.61-2.79-5.23a2.34,2.34,0,0,0-2.39-1.38c-1.4.07-2.81,0-4.22,0-.34,0-.68-.07-1,0a2.69,2.69,0,0,0-2.16,1.6c-.6,1.1-1.17,2.22-1.77,3.32l-6.42,11.91c-.11.21-.26.43-.5.36a.94.94,0,0,1-.49-.39c-.16-.24-.25-.54-.39-.8-.75-1.38-1.51-2.76-2.26-4.15q-2.83-5.25-5.65-10.5a2.32,2.32,0,0,0-2.25-1.32c-3.85,0-7.7,0-11.55.06-1.1,0-1.34-.31-1-1.34a39.09,39.09,0,0,1,4.74-9.42,43,43,0,0,1,11.84-11.38,35.9,35.9,0,0,1,14.17-5.46,39.77,39.77,0,0,1,10.34-.23,43.27,43.27,0,0,1,8.28,1.6,36.76,36.76,0,0,1,15.56,9.38,43.68,43.68,0,0,1,5.09,6.1,2.23,2.23,0,0,0,2.08,1c.7,0,1.4,0,2.09,0,1.71,0,3.42,0,5.12,0a10.54,10.54,0,0,0,1.59-.12.46.46,0,0,0,.41-.67,8.11,8.11,0,0,0-.43-1.06,43.43,43.43,0,0,0-8.41-11.62A48.76,48.76,0,0,0,200.35,45.4a48,48,0,0,0-9.64.82,47,47,0,0,0-7.55,2.1,50.77,50.77,0,0,0-8.86,4.4,44.91,44.91,0,0,0-12,10.3,54.28,54.28,0,0,0-5.62,8.14,49.47,49.47,0,0,0-4.59,12c-.51,2.16-.85,4.36-1.22,6.56a23.28,23.28,0,0,0-.22,2.65c0,.5.22.7.72.73.11,0,.21,0,.32,0h18.51a1,1,0,0,1,1,.58l.54,1c1,1.94,2,3.89,3.06,5.81,1.8,3.32,3.63,6.62,5.46,9.93.75,1.34,1.5,2.68,2.29,4A2.91,2.91,0,0,0,185,116c1,0,2,0,3,.07a1.8,1.8,0,0,0,1.78-1.05q4.45-8.2,8.94-16.4C199,98,199.37,97.35,199.72,96.73Z"></path></svg> 