<?xml version="1.0" encoding="UTF-8"?> <svg xmlns="http://www.w3.org/2000/svg" id="Layer_1" data-name="Layer 1" viewBox="0 0 400 190"><defs><style>.cls-1{fill:#016af1;}</style></defs><path class="cls-1" d="M95.47,98.79A12.46,12.46,0,0,0,91.68,95h0c-5.5-3.74-13.54-4.52-18.21-6.77-2.28-1.09-3.76-2.53-3.76-4.84,0-3.76,2.67-5.47,7.07-5.47,5.56,0,8.42,2.53,8.86,7.3l10.94-2.76c-1-9-7.63-15.29-19.83-15.29C65.36,67.17,58,73.82,58,83.39a14,14,0,0,0,2.22,8.13A12.69,12.69,0,0,0,63.82,95c5.69,3.88,14.17,4.57,18.74,7,2,1.06,3.23,2.46,3.23,4.57,0,3.76-2.67,5.49-7.08,5.49-5.43,0-8.27-2.42-8.81-6.91l-11,2.74c1.13,8.77,7.76,14.91,19.77,14.91,11.38,0,18.76-6.65,18.76-16.22A14.24,14.24,0,0,0,95.47,98.79Z"></path><path class="cls-1" d="M153.45,121.85h38.43V111.11H164.33V100.38h27.55V89.64H153.45Z"></path><path class="cls-1" d="M104.06,78.88h13.76v43h10.91v-43h13.76V68.15H104.06Z"></path><path class="cls-1" d="M252.14,78.88h23.31L252.14,111.1h0v10.74h37.53V111.1h-23.3l23.3-32.22V68.15H252.14Z"></path><path class="cls-1" d="M202.81,121.85h38.43V111.11H213.69V100.38h27.55V89.64H202.81Z"></path><path class="cls-1" d="M241.24,68.16H153.45V78.9h87.79Z"></path><path class="cls-1" d="M329,68.15l-9.85,21.49-9.85-21.49h-13l17.4,32.3v21.4h10.91V101.27L342,68.15Z"></path></svg> 