<?xml version="1.0" encoding="UTF-8"?> <svg xmlns="http://www.w3.org/2000/svg" id="Layer_1" data-name="Layer 1" viewBox="0 0 400 190"><defs><style>.cls-1{fill:#016af1;}</style></defs><path class="cls-1" d="M65,109.9A14.93,14.93,0,0,0,80.47,95.54V71.1A4.49,4.49,0,0,0,77.78,67a30.6,30.6,0,0,0-24.46,0,4.49,4.49,0,0,0-2.7,4.12V94.61A15.14,15.14,0,0,0,65,109.9ZM90.65,77.55a1.5,1.5,0,0,0-2.72.85V95A22.37,22.37,0,1,1,43.2,95V78.39a1.5,1.5,0,0,0-1.51-1.48,1.47,1.47,0,0,0-1.2.62,30.57,30.57,0,1,0,50.16,0Z"></path><path class="cls-1" d="M125.29,106.23c0,4.26-2.1,6.35-6.35,6.35h-4.18c-4.26,0-6.4-2.06-6.4-6.35V78.06h6.85v27.43a1.07,1.07,0,0,0,.88,1.23,1.93,1.93,0,0,0,.34,0h.74a1.06,1.06,0,0,0,1.22-.88,1,1,0,0,0,0-.35V78.06h6.9Z"></path><path class="cls-1" d="M138,112.29l-4.35-18.63.09,8.71.1,9.92h-5.91V78.06h7l4,16.93-.1-9.88V78h5.92v34.24Z"></path><path class="cls-1" d="M154.23,112.29h-6.85V78.06h6.85Z"></path><path class="cls-1" d="M160.59,112.29,156,78.06h6.93l2.4,24.31,2.49-24.31h6.4l-4.6,34.23Z"></path><path class="cls-1" d="M188.62,78.06v6.13h-5.87v7.67h5.64V98h-5.64v8.22h6v6.11H175.9V78.06Z"></path><path class="cls-1" d="M207.78,100.51v11.78h-6.84V100.55a1.08,1.08,0,0,0-.9-1.22.91.91,0,0,0-.33,0H198v13h-6.86V78.06h10.22c4.25,0,6.36,2.1,6.36,6.35V91c0,2.93-1.08,4.4-2.94,5.09C206.9,96.69,207.78,98,207.78,100.51ZM199.67,84H198v9.49h1.67a1.06,1.06,0,0,0,1.22-.88,1,1,0,0,0,0-.34V85.24A1.07,1.07,0,0,0,200,84a.91.91,0,0,0-.33,0Z"></path><path class="cls-1" d="M226.66,99.91v6.32c0,4.26-2.1,6.35-6.36,6.35h-3.76c-4.26,0-6.36-2.09-6.36-6.35V98.94h6.7v6.66a1.08,1.08,0,0,0,.89,1.22.92.92,0,0,0,.33,0h.64a1.08,1.08,0,0,0,1.23-.89,1.82,1.82,0,0,0,0-.33v-4.11a2.36,2.36,0,0,0-1.18-2.21l-5.87-4.35a5.72,5.72,0,0,1-2.74-5.38V84.12c0-4.26,2.1-6.36,6.36-6.36h3.72c4.25,0,6.36,2.1,6.36,6.36v6.26h-6.71V84.73a1.06,1.06,0,0,0-.88-1.22,1,1,0,0,0-.34,0h-.54a1.07,1.07,0,0,0-1.22.89.92.92,0,0,0,0,.33V88a2.34,2.34,0,0,0,1.17,2.2l5.82,4.38A5.64,5.64,0,0,1,226.66,99.91Z"></path><path class="cls-1" d="M239.28,112.29l-.53-5H234.4l-.49,5h-6.2l4.49-34.23h9.34l4.51,34.23Zm-4.2-11h3l-1.52-14.92Z"></path><path class="cls-1" d="M254.64,78.06v28.12h4.94v6.11H247.8V78.06Z"></path><path class="cls-1" d="M272,112.29V84.19h-4.16V78.07H283v6.12H278.8v28.12Z"></path><path class="cls-1" d="M297.63,78.06v6.13h-5.85v7.67h5.64V98h-5.64v8.22h6v6.11H284.91V78.06Z"></path><path class="cls-1" d="M310.25,112.29l-4.36-18.63.09,8.71.11,9.92h-5.93V78.06h7l4,16.93-.1-9.88L311,78h5.91v34.24Z"></path><path class="cls-1" d="M329.67,112.29l-4.36-18.63.11,8.71.09,9.92h-5.92V78.06h7l4,16.93-.1-9.86L330.4,78h5.92v34.23Z"></path><path class="cls-1" d="M345.9,112.29h-6.85V78.06h6.85Z"></path><path class="cls-1" d="M365,99.91v6.32c0,4.26-2.1,6.35-6.36,6.35H354.8c-4.26,0-6.36-2.09-6.36-6.35V98.94h6.7v6.66a1.07,1.07,0,0,0,.89,1.22.91.91,0,0,0,.33,0H357a1.07,1.07,0,0,0,1.22-.89.92.92,0,0,0,0-.33v-4.11a2.34,2.34,0,0,0-1.17-2.21l-5.87-4.35a5.72,5.72,0,0,1-2.74-5.38V84.12c0-4.26,2.1-6.36,6.36-6.36h3.76c4.25,0,6.36,2.1,6.36,6.36v6.26h-6.73V84.73a1.07,1.07,0,0,0-.9-1.22.91.91,0,0,0-.33,0h-.54a1.08,1.08,0,0,0-1.23.89,1.82,1.82,0,0,0,0,.33V88a2.37,2.37,0,0,0,1.18,2.2l5.87,4.38A5.68,5.68,0,0,1,365,99.91Z"></path></svg> 