<?xml version="1.0" encoding="UTF-8"?> <svg xmlns="http://www.w3.org/2000/svg" id="Layer_1" data-name="Layer 1" viewBox="0 0 400 190"><defs><style>.cls-1{fill:#016af1;}</style></defs><path class="cls-1" d="M151,72.68h17.36c9.21,0,15.95,6.73,15.95,15.23s-6.73,15.24-15.95,15.24h-7.09v14.17H151Zm17.36,20.55a5.33,5.33,0,1,0,0-10.63h-7.09V93.23Z"></path><path class="cls-1" d="M188.11,72.68h9.57v44.64h-9.57Z"></path><path class="cls-1" d="M227,114.13a15.4,15.4,0,0,1-2.48,1.78,13.73,13.73,0,0,1-6.73,1.77c-8.15,0-15.24-7-15.24-16.66s7.09-16.65,15.24-16.65a14.43,14.43,0,0,1,6.73,1.77A16,16,0,0,1,227,87.91l1.42-3.18h7.09v32.58h-7.09Zm-7.78-5.32c4,0,7.08-3.19,7.08-7.8s-3.13-7.78-7.08-7.78-7.09,3.19-7.09,7.79S215.28,108.81,219.26,108.81Z"></path><path class="cls-1" d="M244.1,120.51c4,0,5.66-1.77,6.73-4.6l-12.4-31.18H248.7l7.09,20.19,7.08-20.19h10.28L260,117.31c-3.33,8.15-6.73,11.7-12.76,11.7-.7,0-1.41-.06-2.12-.14l-1.06-.22Z"></path><path class="cls-1" d="M272.42,72.68h10.63L293,103.5l9.91-30.82h10.64l-15.24,44.64H287.66Z"></path><path class="cls-1" d="M324,102.44c0,4,2.12,6,6.37,6,4,0,6-2.13,6-4.61,0-6.73-22-2.84-22-18.78,0-6.73,6-12.76,15.94-12.76,9.57,0,15.6,6,15.6,14.18l-9.93.71c0-3.62-2.05-5.67-5.67-5.67-3.19,0-5.31,2-5.31,4.25,0,6.38,22,2.48,22,18.78,0,7.08-6,13.11-16.66,13.11-10.27,0-16.29-6-16.29-14.53Z"></path><path class="cls-1" d="M113,95,130.33,57,91.42,72.63l0-16A38.4,38.4,0,0,0,53,94.94c0,.6,0,1.2,0,1.8a38.39,38.39,0,0,0,76.69.14c0-.61,0-1.21.05-1.82ZM93.32,109.9H88v-7.44h-5.3V95H93.32Zm-15.67,0H72.33v-7.44H67V95h10.6Z"></path></svg> 