<?xml version="1.0" encoding="UTF-8"?> <svg xmlns="http://www.w3.org/2000/svg" id="Layer_1" data-name="Layer 1" viewBox="0 0 400 190"><defs><style>.cls-1{fill:#016af1;}</style></defs><path class="cls-1" d="M144.92,143.34c-4.4,2.95-8.91,3.87-13.69,2.55a15.39,15.39,0,0,1-1-29.29c1.32-.5,3.72-.17,3.09-2.84l-10.09-2.22c-.32.38-.82.94-1.29,1.52-8.72,11-25.63,13.13-36.36,4.62A24,24,0,0,1,77.2,104C75.75,97.77,78.87,92.56,85,90.7c3-.91,6-1.69,9.31-2.63C93.19,83.9,92.09,80,91.11,76c-1.11-4.48.34-9.33,4.32-11.34A51.15,51.15,0,0,1,108,60.43c3.33-.7,6.29,1.08,8.6,3.61.67.72,1.24,1.53,1.94,2.4,9.94-6,20-6.85,30.4-.85,3.82-4.09,8.24-7.33,13.8-8.85a27.21,27.21,0,0,1,16.27.81c.21-1.77.31-3.32.6-4.83,1.07-5.69,5.18-9.09,11-9.2,1.9,0,3.81,0,5.71,0,6.06.09,10.05,3.47,11.18,9.44.13.65.29,1.3.5,2.23,5,.48,10.47-.68,14.27,4,5.88-2.4,11.7-3.49,17.83-2.15a27.19,27.19,0,0,1,15,8.66c11.41-3.67,16-3.88,29,2.41a15.1,15.1,0,0,1,1.46-2A10.45,10.45,0,0,1,296,63.22a88.52,88.52,0,0,1,9.23,3c4.33,1.59,6.26,5.13,7,9.39,1.41.52,2.67,1,3.9,1.46a10.66,10.66,0,0,1,6.58,13,46,46,0,0,1-1.38,4.46,21.23,21.23,0,0,0-1.32,8.37c.38,9.82-9.22,19.39-19.45,19.9-9,.45-16.36-2.75-22.43-9.7a29.18,29.18,0,0,1-23.35-1.63c-.18.43-.45.73-.39,1,1.76,7.39,1,14.91,1,22.36,0,7-4.65,11.46-11.68,11.45-3.44,0-6.88-.52-10.32-.52s-6.88.44-10.33.51a40.9,40.9,0,0,1-4.62-.54,11.14,11.14,0,0,0-2.94,0c-5.58,1-11.08,1.46-16.4-1.7-9.31,3.88-18.41,3.46-27.08-2.28C163.41,147.42,154.39,148.06,144.92,143.34Zm81-49.88c2.39,1.2,4.26,2.52,6.35,3.1,8.39,2.34,15.86-3.26,17.17-12.68,1.15-8.3-4.83-15.66-13.63-16.75s-15.58,4-16.44,12.64c-.65,6.66-1,13.35-1.4,20-.06.85,0,1.71,0,2.73l7,.54C225.26,99.63,225.57,96.56,225.89,93.46Zm-13.83,41.72c0-4.86,0-9.33,0-13.79,0-4.27,1.54-6.18,4.84-6.23s5,2,5.07,6.37c0,3.35,0,6.71,0,10.06,0,1.18.13,2.35.19,3.52h7.56c0-2.69,0-5.14,0-7.58,0-3,0-6,.25-9,.23-2.4,1.59-3.38,3.81-3.34s3.4,1.12,3.7,3.51a35.06,35.06,0,0,1,.12,4.35c0,4,0,8,0,12.07h6.66c0-6,.27-11.66-.07-17.32s-4.46-9-10.08-9.25a11.62,11.62,0,0,0-8.76,3.18c-2.68-1.17-4.8-2.63-7.09-3-7.11-1.14-11.75,3.09-12.07,10.83-.2,4.8,0,9.61,0,14.41a4.83,4.83,0,0,0,.4,1.24ZM151.53,98.59c-.79-5.25-1.38-10.12-2.27-14.93A12.62,12.62,0,0,0,142.19,74c-5.92-2.78-11.63-1.7-16.78,1.94-4.92,3.48-6.82,8.49-5.89,14.39s3.82,10.38,9.78,12c5.66,1.53,10.62.13,14.26-4.78.1-.13.35-.15.55-.24l1,2.51ZM267.3,74.15c-8.42.06-14.63,6.41-14.67,15,0,8.4,6.81,14.79,15.76,14.72,8.36-.06,14.65-6.5,14.68-15S276.3,74.09,267.3,74.15Zm-53.06,21c-2.82-6-6.9-10.58-11.37-15.19,5.7-3,9.76-7.07,11.3-13.54H206a14.63,14.63,0,0,1-9,8.43c-.82-6.94.08-13.58-.55-20.3-1.17-.07-2.15-.17-3.13-.16s-1.73.12-2.71.2V95.05h6.16V85.38l.78-.3L206,95.18Zm79-21.42c-2.69,8.66-5.42,16.91-7.76,25.27-1,3.45.44,6.62,3.09,9.07A15.22,15.22,0,0,0,298,112a10.09,10.09,0,0,0,11-8.9l-6.14-1.9-.77,1.45c-1.41,2.56-2.76,3.2-5.09,2.41-2.62-.89-3.83-2.8-3.11-5.43.94-3.41,2.11-6.76,3.24-10.31,2.42.74,4.54,1.38,6.64,2s4.21,1.32,6.53,2.06c.68-2.18,1.27-4.05,1.94-6.15l-6.6-2.15-6.39-2.14c.64-2.35,1.2-4.45,1.81-6.68ZM182.63,74.83a14.71,14.71,0,0,0-17.56-7.36A15.1,15.1,0,0,0,168.4,97a14.76,14.76,0,0,0,15.35-10.72l-6.39-1.91c-3.86,5.63-8.45,6.93-12.56,3.83a7.85,7.85,0,0,1-1.53-11c3.22-4.21,7.87-4,13.68.77Zm4.65,33.7c-8.07.06-13.74,5.77-13.64,13.74.1,7.76,5.82,13.25,13.79,13.26s13.89-5.7,13.86-13.57S195.38,108.47,187.28,108.53ZM88,101.24c2.07,8.33,8.46,12.16,16.6,10.27,8.45-2,12.37-7.8,10.4-16.06-1.7-7.16-3.79-14.22-5.74-21.32-.23-.84-.59-1.64-1-2.78l-6.48,2.12c1.88,6.81,3.67,13.25,5.44,19.69a33.4,33.4,0,0,1,.95,3.89c.51,3.43-.89,5.67-4.07,6.73q-5.18,1.71-7.75-2.66c-.32-.56-.61-1.15-1-1.93Zm81.72,15.3a13.32,13.32,0,0,0-14.86-8.35,13.82,13.82,0,0,0,.05,27.19A13.22,13.22,0,0,0,169.65,127l-5.37-2.29c-4.38,4.69-8.62,5.46-12,2.31a7.24,7.24,0,0,1-.23-10.23c3.32-3.42,7.55-2.76,12.21,2Zm-29.8,14.63a4.37,4.37,0,0,0-4.37-4.49,4.42,4.42,0,1,0-.15,8.83A4.38,4.38,0,0,0,139.87,131.17Z"></path><path class="cls-1" d="M226.78,81.93c0-4.54,2.81-7.6,7-7.65,4.66-.06,7.9,3,7.93,7.56s-3,7.91-7.2,7.92A7.52,7.52,0,0,1,226.78,81.93Z"></path><path class="cls-1" d="M142.11,87.54a7.64,7.64,0,0,1-7.83,7.83c-4.24.07-7.38-3.27-7.34-7.81A7.92,7.92,0,0,1,135,79.85C139.07,79.81,142.08,83.06,142.11,87.54Z"></path><path class="cls-1" d="M275.22,88.71c0,4.62-3,7.88-7.23,7.89a7.25,7.25,0,0,1-7.6-7.51c.06-4.46,3.31-7.84,7.45-7.76A7.17,7.17,0,0,1,275.22,88.71Z"></path><path class="cls-1" d="M187.52,128.9a6.87,6.87,0,0,1-.2-13.74c4.16-.06,6.83,2.66,6.8,6.93S191.52,128.87,187.52,128.9Z"></path></svg> 