<?xml version="1.0" encoding="UTF-8"?> <svg xmlns="http://www.w3.org/2000/svg" id="Layer_1" data-name="Layer 1" viewBox="0 0 400 190"><defs><style>.cls-1,.cls-2{fill:#016af1;}.cls-2{opacity:0.6;}</style></defs><path class="cls-1" d="M125.47,54.9c.4.36.93.24,1.39.32a18.31,18.31,0,0,1,10.61,5.31A17.54,17.54,0,0,1,142,68.88a19.93,19.93,0,0,1,.48,6.34,39.36,39.36,0,0,1-.74,4.56c-.71,3.54-1.47,7.06-2.21,10.59-.61,2.87-1.23,5.74-1.84,8.62s-1.22,5.86-1.84,8.79c-.43,2-.83,4-1.35,6a25.77,25.77,0,0,1-4,8.31,31.18,31.18,0,0,1-16.81,12.24,18.69,18.69,0,0,1-5.43.81q-29.07,0-58.13,0H49L52.91,117c.33-.28.73-.19,1.1-.19H83.49c6.41,0,12.82,0,19.24,0a13.59,13.59,0,0,0,4.13-.68,16.58,16.58,0,0,0,8.14-5.67,15,15,0,0,0,3-6.16c.51-2.33,1-4.67,1.48-7q1-4.95,2.08-9.9a14.45,14.45,0,0,0,.41-5.63,9.52,9.52,0,0,0-4.69-6.93,11.09,11.09,0,0,0-5.72-1.38H96.72c-.31,0-.64.1-.93-.11a3.38,3.38,0,0,1,0-.45c.3-1.51.6-3,.91-4.54.75-3.73,1.49-7.47,2.25-11.2.15-.71.34-1.41.5-2.11h24.26a3,3,0,0,0,.52,0c.07,0,.12-.1.19-.16Z"></path><path class="cls-1" d="M99.45,55.07a.5.5,0,0,1,0-.17h25c-.07.06-.12.15-.19.16a3,3,0,0,1-.52,0Z"></path><path class="cls-1" d="M84.53,54.9v.18H66.43V54.9Z"></path><path class="cls-2" d="M66.43,55.08H84.52c-.14.8-.26,1.6-.41,2.39-.38,1.9-.78,3.79-1.16,5.69s-.8,3.91-1.19,5.86-.73,3.8-1.11,5.7-.75,3.62-1.12,5.43-.77,3.8-1.15,5.7l-1.17,5.78c-.31,1.56-.62,3.12-.94,4.67s-.63,3-.94,4.51a46.58,46.58,0,0,0-1,4.93,10,10,0,0,0,2,7.29,9.86,9.86,0,0,0,6.08,3.61l1,.18H54c-.37,0-.77-.09-1.1.19.71-3.28,1.4-6.56,2.12-9.83.55-2.52,1.15-5,1.7-7.53.68-3.14,1.31-6.29,2-9.42.47-2.21,1-4.4,1.48-6.61.39-1.8.75-3.62,1.14-5.43s.74-3.33,1.1-5c.4-1.83.79-3.67,1.19-5.51.36-1.67.73-3.33,1.09-5,.52-2.4,1-4.8,1.55-7.21A2.78,2.78,0,0,1,66.43,55.08Z"></path><path class="cls-1" d="M150.2,109.82c.12-.61.22-1.12.33-1.62l2.19-10.33q1-4.62,2-9.22c.63-2.93,1.25-5.86,1.88-8.79,0-.14.06-.29.1-.43a.37.37,0,0,1,.44-.32c.2,0,.41,0,.61,0h10.81a14.56,14.56,0,0,1,6,1.19A9.9,9.9,0,0,1,180,86a14.75,14.75,0,0,1,.88,5.4,21.24,21.24,0,0,1-1.4,7.69,16.27,16.27,0,0,1-12.68,10.35,20.51,20.51,0,0,1-3.83.34H150.2Zm9.42-7.27a34.71,34.71,0,0,0,5.2-.06,8.42,8.42,0,0,0,6.23-3.93,10.44,10.44,0,0,0,1.67-7.92,5.06,5.06,0,0,0-4.37-4.18,42.4,42.4,0,0,0-4.91-.16.43.43,0,0,0-.47.4c-.09.4-.16.8-.25,1.2-.62,2.93-1.25,5.86-1.87,8.79Z"></path><path class="cls-1" d="M217.23,108.18c-.36.11-.57.17-.78.25a12.29,12.29,0,0,1-7.39.51,5.41,5.41,0,0,1-4.18-5.37,19.14,19.14,0,0,1,.6-4.06c.19-1,.43-1.93.61-2.9a4.6,4.6,0,0,0,.06-1c0-.71-.21-.91-.92-1-.2,0-.4,0-.65,0a1.35,1.35,0,0,1,0-.4c.34-1.68.7-3.36,1-5a.54.54,0,0,1,.5-.5,7.62,7.62,0,0,1,6.16,1.27,4.32,4.32,0,0,1,1.62,3.09,12.42,12.42,0,0,1-.45,4.24c-.25,1-.5,2-.71,3.06-.44,2.08.8,3.28,2.89,2.87a3.76,3.76,0,0,0,3-2.77,33.89,33.89,0,0,0,.88-3.47c.56-2.56,1.08-5.12,1.62-7.68.11-.52.16-.56.7-.56h6.5a1.88,1.88,0,0,1,.32.06c-.06.34-.1.67-.17,1q-1,4.62-2,9.22c-.68,3.21-1.34,6.44-2.07,9.64a14.65,14.65,0,0,1-4.17,7.83,11.22,11.22,0,0,1-6.5,3,22.91,22.91,0,0,1-3.41.16,17.38,17.38,0,0,1-8.48-2.45,4.12,4.12,0,0,1-.32-.26c.89-1.78,1.76-3.55,2.67-5.38l.65.35a13.56,13.56,0,0,0,4.25,1.28,12.63,12.63,0,0,0,3.93,0,4.48,4.48,0,0,0,3.35-2.27A7.48,7.48,0,0,0,217.23,108.18Z"></path><path class="cls-1" d="M290.05,79.16c-.78,3.61-1.54,7.16-2.32,10.84l.46-.27a9.5,9.5,0,0,1,6.41-1.65,5.68,5.68,0,0,1,5,3.72,9.79,9.79,0,0,1,.73,3.75,18.63,18.63,0,0,1-.72,5.7,11.87,11.87,0,0,1-8.41,8.39,19.26,19.26,0,0,1-7.12.66,21.89,21.89,0,0,1-6.8-1.5c-.77-.32-.81-.22-.63-1.14.32-1.63.68-3.25,1-4.87q1.13-5.3,2.26-10.58l2.64-12.46c.13-.6.15-.63.73-.63,2.14,0,4.27,0,6.41,0C289.8,79.12,289.88,79.14,290.05,79.16Zm-5.33,24.65a10.75,10.75,0,0,0,3.6.24,4.9,4.9,0,0,0,2.7-1.15c1.91-1.55,2.47-4.84,1.79-6.89a2.13,2.13,0,0,0-1.6-1.58,4,4,0,0,0-4.15,1.43,8.27,8.27,0,0,0-1.32,3.1C285.38,100.55,285.07,102.15,284.72,103.81Z"></path><path class="cls-1" d="M312.07,110.4a11.4,11.4,0,0,1-4.61-.92,7.68,7.68,0,0,1-4.69-6.09,13.15,13.15,0,0,1,10.13-15,13.12,13.12,0,0,1,6.41,0,8.44,8.44,0,0,1,6.37,6.11,10,10,0,0,1,.25,3.73,13.19,13.19,0,0,1-1.07,4.21,12.81,12.81,0,0,1-5.2,5.86,13.17,13.17,0,0,1-5.51,1.86Zm3.24-16.11a13.89,13.89,0,0,0-1.46.24c-3.12.83-4.72,4.83-3.76,7.63a2.55,2.55,0,0,0,2.13,1.84,5,5,0,0,0,4.64-1.49,6.6,6.6,0,0,0,1.87-5,4,4,0,0,0-.28-1.27A3.1,3.1,0,0,0,315.31,94.29Z"></path><path class="cls-1" d="M260.82,102a2.47,2.47,0,0,0,1.45,1.92,5.45,5.45,0,0,0,1.84.48,18.3,18.3,0,0,0,7-.8c.05,0,.11,0,.27,0,.23,1.65.46,3.34.69,5a16.72,16.72,0,0,1-3.81,1.18,24.26,24.26,0,0,1-6,.55,9.75,9.75,0,0,1-5.12-1.57A7.12,7.12,0,0,1,254,104.2a13.54,13.54,0,0,1,1.86-10.49,12.54,12.54,0,0,1,7.31-5.1,15.38,15.38,0,0,1,5.56-.52,8.35,8.35,0,0,1,4.87,1.72,4.88,4.88,0,0,1,1.79,3.48,7.15,7.15,0,0,1-4.08,7.23,13.35,13.35,0,0,1-4.75,1.43,28.08,28.08,0,0,1-4.2.13C261.85,102.08,261.37,102,260.82,102Zm.64-4.47a9.38,9.38,0,0,0,4.6-.12,2.81,2.81,0,0,0,2.13-1.76,1.24,1.24,0,0,0-.89-1.76,3.93,3.93,0,0,0-2.64.17A5.84,5.84,0,0,0,261.46,97.48Z"></path><path class="cls-1" d="M351,88.67a7.11,7.11,0,0,1-.46.7L344,97.23c-.36.43-.72.85-1.07,1.28a.6.6,0,0,0-.08.71q2,4.52,4,9a2.59,2.59,0,0,1,.43,1.51c-.19,0-.36,0-.53,0-2.08,0-4.16,0-6.24,0a.81.81,0,0,1-.9-.61c-.59-1.55-1.21-3.09-1.83-4.63,0-.11-.1-.2-.19-.38-.51.62-1,1.19-1.44,1.78-.88,1.12-1.76,2.25-2.62,3.39a1,1,0,0,1-.88.45c-2.61,0-5.21,0-7.82,0a2.77,2.77,0,0,1-.41,0,2.29,2.29,0,0,1,.23-.47c1.06-1.28,2.12-2.56,3.2-3.83,1.69-2,3.38-4,5.09-6a1.11,1.11,0,0,0,.22-1.31c-1.13-2.84-2.22-5.71-3.31-8.56a7.79,7.79,0,0,1-.22-.83,55.75,55.75,0,0,1,7.37-.09c.51,1.52,1,3.06,1.56,4.66a7.9,7.9,0,0,0,1.3-1.5c.74-.91,1.44-1.84,2.15-2.77a1,1,0,0,1,.88-.45c2.55,0,5.09,0,7.64,0A3.71,3.71,0,0,1,351,88.67Z"></path><path class="cls-1" d="M231.13,88.59h7c.33,0,.46.14.51.45.39,2.06.83,4.11,1.19,6.17.2,1.14.3,2.3.47,3.58a5.25,5.25,0,0,0,.42-.63,94.74,94.74,0,0,1,5.21-9,1.07,1.07,0,0,1,1-.59c2.34,0,4.68,0,7,0a5.28,5.28,0,0,1,.58,0c.15.43-.17.64-.34.89-1.59,2.34-3.2,4.66-4.81,7-3,4.35-6,8.7-9,13.06a1.17,1.17,0,0,1-1.14.61c-.81,0-1.63,0-2.54,0-1-3.59-1.91-7.18-2.84-10.77S232,92.29,231.13,88.59Z"></path><path class="cls-1" d="M185,88.54c1.08,0,2.1-.14,3.11-.11a8.16,8.16,0,0,1,2.14.39A3.45,3.45,0,0,1,192.5,91a9.23,9.23,0,0,1,11.28-1.43,56.89,56.89,0,0,1-3.36,6.25,13.76,13.76,0,0,0-1.71-.67A4.71,4.71,0,0,0,193.64,97a8.77,8.77,0,0,0-1.39,3.37c-.64,3.07-1.3,6.14-2,9.21,0,.06-.06.1-.1.17h-7.32c.16-.85.29-1.65.46-2.44.73-3.38,1.47-6.76,2.19-10.15a4,4,0,0,0,.07-1,1.19,1.19,0,0,0-1-1.31c-.27-.08-.56-.11-.88-.17Z"></path><path class="cls-1" d="M97.63,105.53a10.45,10.45,0,0,1-7.14-2.72,9.78,9.78,0,0,1-3-5,11.59,11.59,0,0,1,2.1-9.93,12.18,12.18,0,0,1,8.72-5.15,10.23,10.23,0,0,1,11.09,6.58,10.07,10.07,0,0,1,.61,2.89,12,12,0,0,1-2.44,8.19,12.47,12.47,0,0,1-7.37,4.85A25,25,0,0,1,97.63,105.53Z"></path></svg> 