<?xml version="1.0" encoding="UTF-8"?> <svg xmlns="http://www.w3.org/2000/svg" id="Layer_1" data-name="Layer 1" viewBox="0 0 400 190"><defs><style>.cls-1{fill:#016af1;}</style></defs><path class="cls-1" d="M81.21,110.79A25.77,25.77,0,0,1,78,106.24a1.28,1.28,0,0,0-1.16-.67h0a1.3,1.3,0,0,0-1.17.7,31.8,31.8,0,0,1-3.15,4.58c-1.44,1.66-2.86,3.24-4.24,4.55a1.32,1.32,0,0,0-.3,1.47c2.49,5.74,5.38,8.63,8.86,8.63s6.4-2.89,8.84-8.63a1.23,1.23,0,0,0-.3-1.41C84.05,114,82.63,112.46,81.21,110.79Zm-4.32,12.07c-2.6,0-4.73-3.24-6.11-6.24a49.11,49.11,0,0,0,3.74-4.16,30.29,30.29,0,0,0,2.37-3.1,28.94,28.94,0,0,0,2.33,3.08c1.28,1.53,2.55,2.89,3.77,4.16C81.7,119.62,79.47,122.86,76.89,122.86ZM87.46,84.25a1.3,1.3,0,0,0-1.8-.25c-2.13,1.52-5.38,5.22-3.82,9.23a7,7,0,0,0-3.5,4c-1.07,3.35.51,7.62,4.78,12.68,9.21,11,15.67,12.23,17.93,12.23a4.39,4.39,0,0,0,2.6-.66l.09-.11a4.67,4.67,0,0,0,2.19-3.44C106.9,112.37,100.78,101.36,87.46,84.25Zm16,33.18a2.24,2.24,0,0,1-1.13,1.79h-.11a2,2,0,0,1-1.11.22c-1.52,0-7.26-.83-16-11.27C81.54,103.91,80,100.37,80.8,98A4.89,4.89,0,0,1,84,95.13a1.54,1.54,0,0,0,.91-.75,1.23,1.23,0,0,0-.1-1.16c-1.67-2.55.25-5,1.52-6.3C102.11,107.56,103.89,114.85,103.49,117.43ZM75.4,97.14a6.81,6.81,0,0,0-3.58-3.94c1.47-4-1.8-7.71-3.82-9.24a1.32,1.32,0,0,0-1.8.25C53,101.36,46.89,112.37,47.62,117.84a4.69,4.69,0,0,0,2.19,3.45l.11.1a4.64,4.64,0,0,0,2.58.67c2.35,0,8.81-1.17,17.94-12.18C74.9,104.77,76.53,100.5,75.4,97.14ZM52.63,119.47a2.85,2.85,0,0,1-1.12-.16h0l-.1-.11a2.25,2.25,0,0,1-1.12-1.79c-.41-2.58,1.37-10,17.24-30.49,1.27,1.27,3.16,3.71,1.52,6.3a1.23,1.23,0,0,0-.1,1.16,1.26,1.26,0,0,0,.91.75A4.89,4.89,0,0,1,73,98c.77,2.38-.72,5.92-4.27,10.24C59.91,118.65,54.2,119.47,52.63,119.47ZM64.32,79.1a8.31,8.31,0,0,0,3,2.39,18.33,18.33,0,0,0,9.26,2h.44a21.28,21.28,0,0,0,9-1.79A8.07,8.07,0,0,0,89.7,79a6.63,6.63,0,0,0,1.36-4h0a5.77,5.77,0,0,0-.14-1.25,7.17,7.17,0,0,0-7.18-5.24,7,7,0,0,0-2,.29,3.07,3.07,0,0,0-.72.25,1.27,1.27,0,0,1-.72-.51,1.21,1.21,0,0,1,.47-1.63A1.28,1.28,0,0,0,81,65.13a1.3,1.3,0,0,0-1.48-.43,3.72,3.72,0,0,0-1.36,5v.16a4.11,4.11,0,0,0,1.36,1.36,9.07,9.07,0,0,0-.25,3.59,12,12,0,0,0,2,5.69,25.21,25.21,0,0,1-4.16.35,27.65,27.65,0,0,1-4.27-.23,12.2,12.2,0,0,0,2.08-5.74,8.64,8.64,0,0,0-.38-3.84,4,4,0,0,0,1.24-1.18A3.61,3.61,0,0,0,76.12,67a3.75,3.75,0,0,0-1.77-2.31,1.41,1.41,0,0,0-1.92.46s0,0,0,0A1.31,1.31,0,0,0,72.87,67h0a1.29,1.29,0,0,1,.56.72,1.13,1.13,0,0,1-.11.9,1.23,1.23,0,0,1-.55.46,1.3,1.3,0,0,0-.67-.19,8.53,8.53,0,0,0-1.88-.27,7,7,0,0,0-7.17,5.24,4.76,4.76,0,0,0-.15,1.25h0A6.59,6.59,0,0,0,64.32,79.1Zm19.73.5h0c-.7,0-2-2.19-2.39-5.07-.19-2,.2-3.09.61-3.2a5.89,5.89,0,0,1,1.33-.14,4.45,4.45,0,0,1,4.57,3.19,5,5,0,0,1,.11.76v.5a5.17,5.17,0,0,1-3.21,3.59,4.52,4.52,0,0,1-1,.37ZM70.22,71.23a5.38,5.38,0,0,1,1.33.16c.41.11.8,1.27.61,3.19-.31,2.89-1.69,5.08-2.39,5.08h0a9.26,9.26,0,0,1-1.13-.36A9.58,9.58,0,0,1,67,78.13a4.13,4.13,0,0,1-1.47-2.85,1.73,1.73,0,0,1,.1-.75A4.31,4.31,0,0,1,70.22,71.23Zm132.53,6.65c-12.2,0-13.37,3.8-13.37,9.33v17.2c0,5.63,1.22,9.32,13.37,9.32s13.32-3.74,13.32-9.32V104A2.08,2.08,0,0,0,214,101.9h0a1.93,1.93,0,0,0-2.08,1.74V104c0,4.27-.55,6.49-9.15,6.49s-9.27-2.26-9.27-6.49V97.05H216V87.21C216.07,81.68,214.91,77.88,202.75,77.88Zm9.16,15.62H193.55V87.67c0-4.27.52-6.54,9.2-6.54s9.16,2.27,9.16,6.54Zm22.24-15.62c-12.21,0-13.38,3.8-13.38,9.33v17.2c0,5.63,1.22,9.32,13.38,9.32s13.33-3.74,13.33-9.32V104a2,2,0,0,0-2-2.08h0a2.09,2.09,0,0,0-2.15,2v0h0c0,4.27-.5,6.49-9.15,6.49s-9.2-2.26-9.2-6.49V97.05h22.58V87.21C247.51,81.68,246.29,77.88,234.15,77.88ZM243.3,93.5H225V87.67c0-4.27.5-6.54,9.2-6.54s9.15,2.27,9.15,6.54Zm-90.43-15a2,2,0,0,0-2.05,2v.25a13.7,13.7,0,0,0-9.2-2.89c-12.16,0-13.27,3.8-13.27,9.33v17.2c0,5.63,1.33,9.32,13.27,9.32a14.64,14.64,0,0,0,9.17-2.79v4c0,4.25-.47,6.55-9.17,6.55-7.67,0-8.79-1.79-9-5.24a2.08,2.08,0,0,0-2.13-1.92,2,2,0,0,0-2.08,1.8v.48c.2,5,1.79,8.16,13.16,8.16,12.16,0,13.33-3.75,13.33-9.32V80.52A2.13,2.13,0,0,0,152.87,78.49ZM150.73,104c0,4.27-.46,6.49-9.16,6.49s-9.1-2.26-9.1-6.49V87.84c0-4.26.45-6.48,9.1-6.48s9.16,2.22,9.16,6.48ZM278.44,87.24V111a2.1,2.1,0,0,1-4.18,0h0V87.67c0-4.25-.61-6.52-9.15-6.52S256,83.42,256,87.67V111h0a2.08,2.08,0,0,1-4.16,0h0V80.36a1.91,1.91,0,0,1,2-1.8h0A2.13,2.13,0,0,1,256,80.62v.18A14.29,14.29,0,0,1,265.16,78c11.89,0,13.28,3.59,13.28,9.24Zm30.49-15V111a2.09,2.09,0,0,1-4.17,0h0V72.25h0a2.05,2.05,0,0,1,2-2.08h0a2.12,2.12,0,0,1,2,2.08Zm31,8.38h0v34.8c0,5.57-1.11,9.32-13.31,9.32-11.19,0-12.87-3.19-13.12-8v-.2a2.13,2.13,0,0,1,4.26,0v.09c.22,3.19,1.47,4.88,9,4.88,8.7,0,9.17-2.3,9.17-6.55v-4a14.36,14.36,0,0,1-9.17,2.79c-12,0-13.27-3.69-13.27-9.32V80.66a2,2,0,0,1,2-2.08h0a2,2,0,0,1,2,1.79V104c0,4.27.45,6.49,9.09,6.49s9.17-2.22,9.17-6.49V80.66h0a2,2,0,0,1,2-2.08h0a2,2,0,0,1,2.08,1.9Zm-39.71,3.59A1.78,1.78,0,0,1,298.58,86H287.1v25h0a2.1,2.1,0,1,1-4.18.38h0a1.27,1.27,0,0,1,0-.39V79.1c0-5.58.91-9,10.28-9h5.38a1.72,1.72,0,0,1,1.92,1.46,1.69,1.69,0,0,1-1.46,1.9h-5.7c-5.54,0-6.1,1.79-6.1,6.13v2.67h11.48a1.81,1.81,0,0,1,1.58,1.8ZM182.93,97a2,2,0,0,1-2.1-1.8V87.84c0-4.26-.7-6.53-8.65-6.53s-8.59,2.24-8.59,6.53v23.31a2.12,2.12,0,0,1-2.08,2,2,2,0,0,1-2.08-2V80.36a1.91,1.91,0,0,1,2-1.8h0a2,2,0,0,1,1.94,1.28,3.78,3.78,0,0,1,0,1A14.85,14.85,0,0,1,172.09,78c11.3,0,12.83,3.75,12.83,9.33V95A1.9,1.9,0,0,1,183.13,97ZM344.6,80.36h-1.18a.43.43,0,0,1-.4-.4.4.4,0,0,1,.38-.41h3.17A.47.47,0,0,1,347,80a.4.4,0,0,1-.4.4h-1.24v3.58a.41.41,0,0,1-.41.42.4.4,0,0,1-.39-.4h0V80.37Zm3.25-.4a.41.41,0,0,1,.41-.41h0a.48.48,0,0,1,.41.21L350.11,82l1.47-2.28a.33.33,0,0,1,.36-.21H352a.41.41,0,0,1,.41.41v4a.41.41,0,0,1-.41.41.42.42,0,0,1-.4-.41V81.13l-1.18,1.79a.38.38,0,0,1-.34.2.54.54,0,0,1-.36-.2l-1.17-1.79V84a.41.41,0,0,1-.82,0V80Z"></path></svg> 