<?xml version="1.0" encoding="UTF-8"?> <svg xmlns="http://www.w3.org/2000/svg" id="Layer_1" version="1.1" viewBox="0 0 400 142.8"><defs><style> .st0 { fill: #016af1; } </style></defs><g><path class="st0" d="M148.6,103.5h12v2.1h-4.9v14.8h-2.3v-14.8h-4.9v-2.1Z"></path><path class="st0" d="M175.1,112.9v5.4h7.2v2.1h-9.5v-16.9h9.4v2.1h-7.1v5.2h6.3v2.1h-6.3Z"></path><path class="st0" d="M209.7,120.4h-2.5l-1.6-4.1h-8.3l-1.6,4.1h-2.4l6.9-16.9h2.7l6.9,16.9ZM201.5,105.9l-3.3,8.3h6.6l-3.3-8.3Z"></path><path class="st0" d="M230.1,117l6-13.6h2.9v16.9h-2.2v-13.2l-5.9,13.2h-1.6l-5.9-13.2v13.2h-2.3v-16.9h3l6.1,13.6Z"></path></g><path class="st0" d="M363.7,38.6h-2.1v-1.1h5.4v1.1h-2.1v6h-1.2v-6ZM372.2,42.9l2.2-5.4h1.6v7.2h-1.2v-5.2l-2.1,5.2h-.9l-2.1-5.3v5.3h-1.2v-7.2h1.6l2.2,5.4Z"></path><g><path class="st0" d="M80.4,60.9c-2.9,10.9-13,18.7-24.3,18.7s-25.2-11.3-25.2-25.2,11.3-25.2,25.2-25.2,21.4,7.8,24.3,18.7h6c-3-14.2-15.7-24.5-30.3-24.5s-31,13.9-31,31,13.9,31,31,31,27.2-10.3,30.3-24.5h-6Z"></path><path class="st0" d="M98.9,54.4c2.7-7.3,9.7-12.2,17.5-12.2s14.8,4.9,17.5,12.2h6.1,0c-3-10.7-12.7-18-23.6-18s-20.6,7.4-23.6,17.9h0c0,.1,6.1.1,6.1.1Z"></path><path class="st0" d="M264.1,54.4c2.7-7.3,9.7-12.2,17.5-12.2s14.8,4.9,17.5,12.2h6.1,0c-3-10.7-12.7-18-23.6-18s-20.6,7.4-23.6,17.9h0c0,.1,6.1.1,6.1.1Z"></path><path class="st0" d="M154.5,54.4c2.5-7.3,9.3-12.2,17-12.2s14.5,4.9,17,12.2h6.1,0c-2.7-10.7-12.2-18-23.1-18s-20.4,7.4-23.1,17.9h0c0,.1,6.1.1,6.1.1Z"></path><path class="st0" d="M209.1,54.4c2.7-7.3,9.7-12.2,17.5-12.2s14.8,4.9,17.5,12.2h6.1,0c-3-10.7-12.7-18-23.6-18s-20.6,7.4-23.6,17.9h0c0,.1,6.1.1,6.1.1Z"></path><path class="st0" d="M135.1,60.9c0,10.3-8.4,18.7-18.7,18.7s-18.7-8.4-18.7-18.7h-5.8c0,13.5,11,24.5,24.5,24.5s14-3.2,18.7-8.7v7.6h5.8v-23.4h-5.8Z"></path><path class="st0" d="M300.3,60.9c0,10.3-8.4,18.7-18.7,18.7s-18.7-8.4-18.7-18.7h-5.8v40.3h5.8v-24.5c4.6,5.5,11.5,8.7,18.7,8.7,13.5,0,24.5-11,24.5-24.5h-5.8Z"></path><polygon class="st0" points="351.6 37.5 332.2 75.5 313 37.7 312.9 37.5 306.4 37.5 329 81.9 318.6 102.3 325.1 102.3 358 37.5 351.6 37.5"></polygon><path class="st0" d="M245.2,60.9c0,10.3-8.4,18.7-18.7,18.7s-18.7-8.4-18.7-18.7h-5.8c0,13.5,11,24.5,24.5,24.5s24.5-11,24.5-24.5h-5.8Z"></path><rect class="st0" x="189.5" y="60.9" width="5.8" height="23.4"></rect><rect class="st0" x="147.7" y="60.9" width="5.8" height="23.4"></rect></g></svg> 