<?xml version="1.0" encoding="UTF-8"?> <svg xmlns="http://www.w3.org/2000/svg" id="Layer_1" data-name="Layer 1" viewBox="0 0 400 190"><defs><style>.cls-1{fill:#016af1;}</style></defs><path class="cls-1" d="M95.58,114.26H83c-10.4-1.46-18.39-9.62-18.39-19.5s5.89-18,18.15-19.47V66.62A28.16,28.16,0,0,0,55,94.91a28.65,28.65,0,0,0,26.22,28.3h0a29,29,0,0,0,3.49.17H95.65Z"></path><path class="cls-1" d="M82.72,79.24v4.28s-10.89-1-10.89,13h-4S66.16,80.28,82.72,79.24Z"></path><polygon class="cls-1" points="82.72 92.77 82.72 100.68 95.64 100.68 95.64 114.17 103.42 114.17 103.42 92.77 82.72 92.77"></polygon><path class="cls-1" d="M134,80.08h6.81l14.37,33.78h-7.73l-3.06-7.52H130.25l-3.06,7.52h-7.53Zm7.76,19.75-4.46-11-4.46,10.91Z"></path><path class="cls-1" d="M172.36,80.29h8l8.82,14.18L198,80.29h8v33.55h-7.28V92l-9.44,14.3H189l-9.35-14.18v21.76h-7.28Z"></path><path class="cls-1" d="M239.92,114.36q-6.73,0-10.64-3.74T225.4,99.44V80.29h7.38v19c0,2.75.64,4.81,1.92,6.2a6.86,6.86,0,0,0,5.32,2.09,7,7,0,0,0,5.32-2q1.92-2,1.92-6V80.29h7.38V99.22a19.36,19.36,0,0,1-1,6.66,12.5,12.5,0,0,1-2.94,4.72,12.18,12.18,0,0,1-4.63,2.83A18.77,18.77,0,0,1,239.92,114.36Z"></path><path class="cls-1" d="M274.13,80.29h15.34q6.36,0,9.77,3.37a10.38,10.38,0,0,1,2.88,7.67v.09a10.55,10.55,0,0,1-2,6.63,11.44,11.44,0,0,1-5.2,3.76l8.19,12H294.5l-7.21-10.69h-5.8v10.74h-7.38ZM289,96.59a6.17,6.17,0,0,0,4.21-1.3,4.35,4.35,0,0,0,1.46-3.45v-.09a4.27,4.27,0,0,0-1.53-3.6A6.69,6.69,0,0,0,288.84,87h-7.33v9.63Z"></path><path class="cls-1" d="M332.73,114.31a22.18,22.18,0,0,1-7.52-1.32,20,20,0,0,1-6.73-4l4.36-5.23a21.86,21.86,0,0,0,4.72,3,12.68,12.68,0,0,0,5.29,1.1,6.44,6.44,0,0,0,3.57-.84,2.65,2.65,0,0,0,1.27-2.33v-.09a2.92,2.92,0,0,0-.26-1.27,2.77,2.77,0,0,0-1-1,11.12,11.12,0,0,0-2.07-1c-.88-.32-2-.65-3.43-1a39,39,0,0,1-4.62-1.39A12.82,12.82,0,0,1,322.79,97a7.72,7.72,0,0,1-2.23-2.8,9.83,9.83,0,0,1-.79-4.21v0a10,10,0,0,1,.84-4.14,9.31,9.31,0,0,1,2.45-3.18,10.68,10.68,0,0,1,3.69-2.07,14.93,14.93,0,0,1,4.74-.71,20,20,0,0,1,6.77,1.09,19.81,19.81,0,0,1,5.68,3.17l-3.82,5.55a25.18,25.18,0,0,0-4.41-2.41,11.22,11.22,0,0,0-4.31-.84,5.24,5.24,0,0,0-3.24.84,2.49,2.49,0,0,0-1.07,2.08v0a3,3,0,0,0,.31,1.41,2.75,2.75,0,0,0,1.13,1.11,9.86,9.86,0,0,0,2.23.91c.94.29,2.13.63,3.57,1a34.25,34.25,0,0,1,4.54,1.45,12.65,12.65,0,0,1,3.37,2A7.75,7.75,0,0,1,344.3,100a9.45,9.45,0,0,1,.7,3.79v.09a10.41,10.41,0,0,1-.9,4.44,9.27,9.27,0,0,1-2.53,3.26,11.31,11.31,0,0,1-3.86,2A16.77,16.77,0,0,1,332.73,114.31Z"></path></svg> 