<?xml version="1.0" encoding="UTF-8"?> <svg xmlns="http://www.w3.org/2000/svg" id="Layer_1" data-name="Layer 1" viewBox="0 0 400 190"><defs><style>.cls-1{fill:#016af1;}</style></defs><path class="cls-1" d="M123.29,106.79V83.68h4.49v19.08h10.48v4Z"></path><path class="cls-1" d="M145,106.79V83.68h15.2v4H149.49v5.43h9.12v4h-9.12v5.61H160.2v4Z"></path><path class="cls-1" d="M181.71,106.79l-1.35-4.07h-8.24l-1.4,4.07H166l8.42-23.11H178l8.42,23.11Zm-5.38-16.28-2.9,8.42h5.76Z"></path><path class="cls-1" d="M205.94,104.35a8.59,8.59,0,0,1-6.5,2.62,8.43,8.43,0,0,1-6.22-2.52,6.31,6.31,0,0,1-1.87-3.46,30.2,30.2,0,0,1-.38-5.76,33.9,33.9,0,0,1,.38-5.75A6.82,6.82,0,0,1,193.22,86a8.44,8.44,0,0,1,6.22-2.53,8.28,8.28,0,0,1,8.7,7.39H203.6a3.93,3.93,0,0,0-4.16-3.36,3.78,3.78,0,0,0-2.9,1.21c-.84,1.08-1.12,1.92-1.12,6.5s.18,5.48,1.12,6.51a3.65,3.65,0,0,0,2.9,1.21,4.24,4.24,0,0,0,3.23-1.31,4.47,4.47,0,0,0,1-3.09v-.88h-4.25V93.92h8.75v3.37C208.14,100.71,207.53,102.67,205.94,104.35Z"></path><path class="cls-1" d="M223.62,107c-4.72,0-8.51-3.22-8.51-8.09V83.68h4.49v15c0,2.67,1.54,4.26,4,4.26s4-1.59,4-4.26v-15h4.49v15.2C232.09,103.79,228.34,107,223.62,107Z"></path><path class="cls-1" d="M240.08,106.79V83.68h15.2v4H244.57v5.43h9.12v4h-9.12v5.61h10.71v4Z"></path><path class="cls-1" d="M276.85,106.79l-1.36-4.07H267.3l-1.4,4.07h-4.72l8.42-23.11h3.55l8.42,23.11Zm-5.43-16.28-2.9,8.42h5.75Z"></path><path class="cls-1" d="M296.82,98.09h-4.45v8.7h-4.49V83.68h8.94c4.77,0,7.62,3.28,7.62,7.2S301.59,98.09,296.82,98.09Zm-.24-10.39h-4.21V94h4.21a3.16,3.16,0,1,0,0-6.32Z"></path><path class="cls-1" d="M319.46,98.09H315v8.7h-4.49V83.68h8.94c4.77,0,7.62,3.28,7.62,7.2S324.23,98.09,319.46,98.09Zm-.24-10.39H315V94h4.21a3.16,3.16,0,1,0,0-6.32Z"></path><path class="cls-1" d="M339.9,107c-3.51,0-6.18-.74-8.42-3l2.9-2.9a7.62,7.62,0,0,0,5.56,2c2.67,0,4.07-1,4.07-2.86a2.72,2.72,0,0,0-.7-2,3.39,3.39,0,0,0-2.06-.79l-2.8-.38A7.62,7.62,0,0,1,334,95.09a6,6,0,0,1-1.64-4.53c0-4.12,3-7,8-7a10,10,0,0,1,7.49,2.71L345,89.06a6.39,6.39,0,0,0-4.72-1.59c-2.39,0-3.56,1.31-3.56,2.9a2.1,2.1,0,0,0,.71,1.64,3.82,3.82,0,0,0,2.15.89l2.71.37a7.54,7.54,0,0,1,4.4,1.78,6.55,6.55,0,0,1,1.77,4.91C348.45,104.45,344.76,107,339.9,107Z"></path><rect class="cls-1" x="65.72" y="59.5" width="28.39" height="4.68"></rect><polygon class="cls-1" points="103.6 125.82 51.55 125.82 51.55 130.5 108.28 130.5 108.28 106.83 103.6 106.83 103.6 125.82"></polygon><polygon class="cls-1" points="94.11 73.67 94.11 69 83.3 69 66.65 120.96 98.78 120.96 98.78 106.83 94.11 106.83 94.11 116.28 73.2 116.28 86.67 73.67 94.11 73.67"></polygon><polygon class="cls-1" points="51.55 116.28 51.55 120.96 61.7 120.96 78.35 69 65.72 69 65.72 73.67 71.84 73.67 58.33 116.28 51.55 116.28"></polygon></svg> 