<?xml version="1.0" encoding="UTF-8"?> <svg xmlns="http://www.w3.org/2000/svg" id="Layer_1" data-name="Layer 1" viewBox="0 0 400 190"><defs><style>.cls-1{fill:#016af1;}</style></defs><path class="cls-1" d="M241.06,90.23a13.22,13.22,0,0,1-1.61-.52c-.07-.11-7.7-29.65-7.67-29.72s2.28-2.27,5-5l5.46-5.32.42-.39,0,20.72c0,16.52,0,20.69,0,20.69S241.9,90.48,241.06,90.23Zm16.06,4.48-11.93-3.32,0-22.23,0-22.26,4.27-4.2c2.38-2.27,4.3-4.2,4.34-4.2l14.84,4.1,14.8,4.13,3.82,14.87c2.1,8.19,3.81,14.88,3.81,14.91S269.09,98,269,98,263.67,96.53,257.12,94.71ZM201.58,77.35l0-21.52,25.2,0V65.87l-6.65,0-6.65,0v6H226l0,4.87,0,4.86H213.48v6.93h13.3v5.15l0,5.14-25.2,0Zm-29.13,0,0-21.52,25.2,0V65.87H184.25v6h12.63v9.73H184.25v6.93h13.37V98.84l-25.2,0Zm-20.51-2.87a5.18,5.18,0,0,0,2.45-1.33,4.92,4.92,0,0,0,1.19-3.92,4.6,4.6,0,0,0-.42-1.64,4.08,4.08,0,0,0-3.29-2.28,7.91,7.91,0,0,0-1.75-.07,14.49,14.49,0,0,0-1.54.07l-.35,0v9.24l.21,0c.14,0,.28,0,.39,0h1.36A6,6,0,0,0,151.94,74.48Zm-15.61,2.84,0-21.6.17,0c.21,0,1.93-.11,4.24-.21,2.52-.11,12.56-.11,13.54,0,5.53.52,9.17,2.1,11.41,4.9a14,14,0,0,1,2.49,9.27,12.54,12.54,0,0,1-5.81,10.12,14.09,14.09,0,0,1-1.75.87c-.11,0-.21.07-.21.11a10.24,10.24,0,0,0,.56.91c1,1.47,1.71,2.69,3.32,5.46l4.24,7.17c1.47,2.49,2.66,4.52,2.66,4.55s-3.22,0-7.18.07h-7.21l-4-7.87-4.06-7.88h-.46V98.91h-11.9Zm-27.3.1,0-21.52,24.57,0V66.05H120.9v7h12v9.73h-12V98.91H109Zm88.83,67.41s0-9.69-.07-21.52l0-21.49h11.87l0,43.05h-5.91C200.56,144.87,197.9,144.87,197.86,144.83Zm-61.28-21.42,0-21.52,25.2,0V111.9h-13.3V118h12.64v9.73H148.44v6.93h13.3v10.29l-25.2,0Zm-27.51,0,0-21.53H120.9l0,32.45h11.83V145l-23.69,0Zm65,5.14V112.18h-9.31V102l30.49,0v10.18h-9.31L186,145H174.1Zm56.15,16.63c-4.73-.32-8.65-1.68-11.59-4.06a17.11,17.11,0,0,1-2.1-2.07c-2.45-2.9-3.88-6.72-4.34-11.55a45.9,45.9,0,0,1,0-5.74,25.68,25.68,0,0,1,2.48-9.34,19,19,0,0,1,3.71-5.25,18,18,0,0,1,4.87-3.54,22.32,22.32,0,0,1,8.33-2.27,34.44,34.44,0,0,1,6.54.1,26,26,0,0,1,4.34.81s-.24,2.45-.63,5.35c-.56,4.34-.7,5.32-.73,5.32l-.88-.21a22,22,0,0,0-8-.56,8.16,8.16,0,0,0-6.37,5.85,15.9,15.9,0,0,0-.6,2.66,26.22,26.22,0,0,0,0,4.69c.35,3,1.19,5.11,2.7,6.61s3.95,2.42,7.1,2.31a19.82,19.82,0,0,0,5.43-.91,4.82,4.82,0,0,1,.63-.21c.1,0,.14.25.8,5.25l.7,5.25s-2.27.35-5,.74c-4.93.7-5,.73-5.88.7A7.79,7.79,0,0,1,230.21,145.22Zm19.18-.21-4.31-.46s.6-10.64.6-10.67a3.09,3.09,0,0,1,.56.14,30.86,30.86,0,0,0,8.78,1.29,10.9,10.9,0,0,0,1.4-.1c1.72-.35,2.84-1.23,3.08-2.45a4.36,4.36,0,0,0,0-.77c-.07-1.33-.88-2.28-2.7-3.12-.7-.31-1.15-.52-2.9-1.15-4.06-1.47-5.71-2.42-7.35-4a8.64,8.64,0,0,1-1.54-2,14.22,14.22,0,0,1-1.37-9.13c1-6.09,6-10.12,13.76-11.1a27.77,27.77,0,0,1,3.92-.21,47.74,47.74,0,0,1,7.28.56l.56.07,0,.42c0,.21-.17,2.49-.31,5l-.32,4.66s-.45-.07-1-.21a25.06,25.06,0,0,0-6-.84,7.54,7.54,0,0,0-3.78.56,3,3,0,0,0-1.3,1.15,2.67,2.67,0,0,0,.07,2.56,4.92,4.92,0,0,0,1.23,1.15,24.58,24.58,0,0,0,3.57,1.68c2.13.84,2.9,1.19,4,1.72a12.34,12.34,0,0,1,5.11,4.23,10.16,10.16,0,0,1,1.68,4.55,21.83,21.83,0,0,1,0,3.71,14,14,0,0,1-7.8,10.92,22.42,22.42,0,0,1-8.72,2.28A55.53,55.53,0,0,1,249.39,145Z"></path></svg> 