<?xml version="1.0" encoding="UTF-8"?> <svg xmlns="http://www.w3.org/2000/svg" id="Layer_1" data-name="Layer 1" viewBox="0 0 400 190"><defs><style>.cls-1{fill:#016af1;}.cls-2{fill:#b7d3ff;}.cls-3{fill:#5494f8;}</style></defs><path class="cls-1" d="M40.52,94.94V89.73a9.1,9.1,0,0,1,.28-2.44,4.27,4.27,0,0,0,.13-1,6,6,0,0,1,.33-1.83,2.86,2.86,0,0,0,.12-.73,4.55,4.55,0,0,1,.3-1.3,2.79,2.79,0,0,0,.15-.72,3.43,3.43,0,0,1,.3-1.14.28.28,0,0,0,.06-.14,10.56,10.56,0,0,1,.56-2.07c.17-.68.4-1.33.63-2,.42-1.19.85-2.38,1.31-3.55.2-.51.47-1,.71-1.47.16-.33.31-.67.47-1,.65-1.37,1.38-2.68,2.12-4a49.79,49.79,0,0,1,3.43-5.21c.91-1.24,1.91-2.41,2.89-3.59A66.25,66.25,0,0,1,59,52.81c.51-.5,1.08-.94,1.64-1.39.91-.73,1.81-1.47,2.75-2.16s2-1.43,3-2.11a37.73,37.73,0,0,1,4.18-2.41c.75-.38,1.48-.81,2.23-1.17s1.54-.69,2.31-1l1.77-.75c.39-.16.79-.3,1.19-.43.68-.23,1.37-.44,2-.65l.85-.27c.24-.07.49-.11.72-.19.77-.26,1.58-.41,2.36-.63a5.64,5.64,0,0,1,1.15-.26,3.72,3.72,0,0,0,.8-.19,4,4,0,0,1,1.23-.24,3.73,3.73,0,0,0,1.24-.23,4.19,4.19,0,0,1,1.32-.21,10.25,10.25,0,0,0,2.06-.24,8.79,8.79,0,0,1,1.85-.18c2.7,0,5.41,0,8.11,0a9.77,9.77,0,0,1,2.22.27,6.43,6.43,0,0,0,1.32.15,5.34,5.34,0,0,1,1.9.31,2.68,2.68,0,0,0,.8.13,4.22,4.22,0,0,1,1.53.31l.07,0c.86.09,1.68.39,2.53.56a3.73,3.73,0,0,1,.58.12c.46.18,1,.28,1.42.42,1.23.38,2.46.79,3.67,1.22.91.32,1.81.67,2.71,1,.41.17.81.36,1.21.56,1.09.53,2.18,1.07,3.26,1.62.59.31,1.16.66,1.74,1A41.4,41.4,0,0,1,131,48.4c1.67,1.2,3.33,2.42,4.88,3.78l.11.1c1.09,1,2.21,2.06,3.28,3.14s1.93,2.06,2.83,3.16,1.74,2.09,2.52,3.21,1.52,2.14,2.17,3.28c.46.8,1,1.55,1.42,2.36.58,1.09,1.12,2.2,1.67,3.31.25.51.5,1,.73,1.55s.45,1.1.67,1.65c.05.14.09.28.15.42a9.58,9.58,0,0,1,.78,2.07,3.56,3.56,0,0,0,.17.41l.24.7.24.7a2.35,2.35,0,0,1,.15.42,13.39,13.39,0,0,0,.39,1.51,50.63,50.63,0,0,1,1.2,6,2.25,2.25,0,0,0,.06.36,24.23,24.23,0,0,1,.38,3.4c0,.59.14,1.18.2,1.77,0,.32.07.65.08,1,0,1.31,0,2.63,0,3.94a22.17,22.17,0,0,1-.22,2.82c-.09.79-.14,1.58-.21,2.37,0,.39-.09.79-.15,1.18s-.13.78-.19,1.18a45.46,45.46,0,0,1-.92,4.59c-.05.19-.07.39-.12.58a3.45,3.45,0,0,1-.18.72,4,4,0,0,0-.29,1.07,3.74,3.74,0,0,1-.17.57c-.08.26-.17.52-.25.77,0,0,0,.11,0,.15a18,18,0,0,0-.62,1.74c-.23.65-.5,1.29-.77,1.93s-.64,1.5-1,2.24-.54,1.17-.83,1.74a47.65,47.65,0,0,1-2.48,4.48c-.65,1-1.29,2.06-2,3s-1.62,2.25-2.52,3.31a54.42,54.42,0,0,1-5.09,5.43,55,55,0,0,1-5.87,4.79c-1.15.79-2.29,1.57-3.46,2.31-.91.56-1.85,1.06-2.79,1.55s-2.08,1-3.13,1.56a17.45,17.45,0,0,1-2.16,1,16.65,16.65,0,0,0-1.58.61c-.64.28-1.32.42-2,.71a12.63,12.63,0,0,1-1.84.56c-.15,0-.29.06-.44.11a45.42,45.42,0,0,1-5.27,1.27c-.66.14-1.31.26-2,.36-.51.08-1,.12-1.55.17a9.06,9.06,0,0,0-1,.13,9.84,9.84,0,0,1-1.62.21c-2.7.18-5.41.13-8.11.08a13.64,13.64,0,0,1-3.25-.33,4.38,4.38,0,0,0-.82-.08,10.24,10.24,0,0,1-2.2-.31,1.53,1.53,0,0,0-.29-.07,35.2,35.2,0,0,1-3.66-.69c-.34-.06-.67-.16-1-.24l-.79-.19-.71-.21a2,2,0,0,0-.28-.11,14.08,14.08,0,0,1-1.92-.56,4,4,0,0,1-.49-.17,1.47,1.47,0,0,0-.34-.15c-.8-.19-1.52-.59-2.28-.85-.57-.19-1.09-.48-1.66-.65a5.28,5.28,0,0,1-.87-.41c-1.08-.54-2.21-1-3.26-1.6-.64-.38-1.31-.7-2-1.08-1.13-.66-2.25-1.34-3.33-2.08s-2.21-1.52-3.25-2.36a46.08,46.08,0,0,1-4.16-3.6c-.68-.7-1.36-1.38-2.05-2s-1.54-1.69-2.29-2.55c-1-1.15-1.91-2.35-2.78-3.58-.74-1.06-1.49-2.11-2.16-3.21-.58-1-1.11-1.93-1.66-2.9-.23-.4-.41-.84-.62-1.26s-.33-.66-.5-1-.49-.91-.71-1.38-.41-1-.61-1.51-.45-1.1-.66-1.66-.37-1-.52-1.47a18.25,18.25,0,0,1-.73-2.42c-.36-.69-.34-1.5-.69-2.19-.09-.86-.42-1.68-.56-2.53a10.37,10.37,0,0,0-.3-1.45,5.24,5.24,0,0,1-.18-1.25,7.25,7.25,0,0,0-.22-1.47,6.7,6.7,0,0,1-.19-1.84c0-1.84,0-3.68,0-5.51Zm82.33-8.51c.33.42.37.46.77.61s.57.18.84.3a29,29,0,0,1,4.22,2.18c.11.06.21.14.32.19a.44.44,0,0,0,.55-.1,3.48,3.48,0,0,0,.41-.52c.49-.84,1-1.68,1.45-2.52.85-1.48,1.72-2.95,2.58-4.43l1.73-3a1.24,1.24,0,0,0,0-1.4c-.49-.8-1-1.62-1.43-2.43l-1.54-2.63-4.22-7.28c-.89-1.54-1.8-3.08-2.7-4.62-.4-.68-.82-1.36-1.22-2a1,1,0,0,0-.92-.53H102.2c-.18,0-.35,0-.52,0a1.33,1.33,0,0,0-1.32.79c-.8,1.42-1.63,2.83-2.45,4.25-1.35,2.31-2.69,4.63-4.06,6.93a2.77,2.77,0,0,0-.43,1.62c0,.17,0,.35,0,.52l0,21.22q0,9,0,17.94c0,.6,0,1.19,0,1.79,0,.25,0,.5,0,.74a21.19,21.19,0,0,0,1.33,5.71A21.41,21.41,0,0,0,96.48,123a20.77,20.77,0,0,0,7.87,7.41,21,21,0,0,0,3.34,1.44,19,19,0,0,0,2.51.66,21.56,21.56,0,0,0,3.85.38,25.2,25.2,0,0,0,2.6-.16,19.88,19.88,0,0,0,4.76-1.12,19.39,19.39,0,0,0,4-2,20.38,20.38,0,0,0,7.9-9.43c.18-.44.3-.89.48-1.32a24.41,24.41,0,0,0,.68-2.36,2.14,2.14,0,0,0,.08-.44c.06-.46.11-.93.19-1.4a13.29,13.29,0,0,0,.07-3.93,23.66,23.66,0,0,0-.61-3.51,25.52,25.52,0,0,0-1.15-3.21,18.28,18.28,0,0,0-2.14-3.65,20.79,20.79,0,0,0-3.28-3.54,21.38,21.38,0,0,0-4.42-2.88,20.88,20.88,0,0,0-2.4-1,12,12,0,0,0-2.22-.61c-.39-.06-.77-.22-1.16-.25-1.26-.11-2.52-.23-3.79-.25-2.13,0-4.26,0-6.4,0a3.81,3.81,0,0,0-.59,0,.47.47,0,0,0-.4.39,1.61,1.61,0,0,0-.05.44V98.5a1.61,1.61,0,0,0,0,.37.43.43,0,0,0,.39.38,4.93,4.93,0,0,0,.67,0h5.58a20.62,20.62,0,0,1,3.92.34,12.46,12.46,0,0,1,3.43,1.19,12.93,12.93,0,0,1,6.92,13.45,12.14,12.14,0,0,1-2.25,5.6,13.13,13.13,0,0,1-23-2.8,11.79,11.79,0,0,1-.66-2.43A16,16,0,0,1,101,112l0-15.12q0-11.31,0-22.63a3,3,0,0,1,.65-2.3c1-1.71,2-3.43,3-5.14.57-1,.56-1,1.57-1H119c.2,0,.4,0,.6,0a.83.83,0,0,1,.73.44c.15.28.33.55.49.83l3.35,5.8c1,1.65,1.92,3.29,2.9,4.93a1.13,1.13,0,0,1,0,1.26c-1.13,1.89-2.24,3.8-3.35,5.71A6.79,6.79,0,0,0,122.85,86.43Zm-40.36,13v-.06h4.24a7.18,7.18,0,0,0,1-.09.44.44,0,0,0,.38-.4,4,4,0,0,0,0-.59V93a3.17,3.17,0,0,0,0-.44c0-.42-.19-.59-.6-.63-.24,0-.49,0-.74,0-2.13,0-4.27,0-6.4,0a14.16,14.16,0,0,1-3.24-.4,12.76,12.76,0,0,1-7.54-5,12.36,12.36,0,0,1-2.41-5.85,14,14,0,0,1-.09-2.89,11.8,11.8,0,0,1,.28-2,16.87,16.87,0,0,1,.66-2,13,13,0,0,1,7.3-7.13c.54-.21,1.09-.34,1.63-.52a5.11,5.11,0,0,1,1.45-.28c.47,0,1-.06,1.42-.06a10.85,10.85,0,0,1,4,.46h.08a8.38,8.38,0,0,1,1.94.72,12.26,12.26,0,0,1,2,1.15,3.59,3.59,0,0,0,.44.28A.53.53,0,0,0,89,68.3a3.37,3.37,0,0,0,.19-.32l1.16-2,1.81-3.08a.71.71,0,0,0-.22-1.09l-.19-.12a20.23,20.23,0,0,0-2.65-1.49,19.27,19.27,0,0,0-2.7-1A21,21,0,0,0,83,58.45,19.9,19.9,0,0,0,79,58.29a20.77,20.77,0,0,0-9.88,3.17A21.54,21.54,0,0,0,63.33,67a20.93,20.93,0,0,0-3.44,7.92c0,.14,0,.29-.07.44-.07.61-.14,1.23-.22,1.84a13,13,0,0,0,0,3.12c.07.67.14,1.33.24,2,.05.35.13.69.21,1s.13.38.16.57A13.28,13.28,0,0,0,61,86.4a19.57,19.57,0,0,0,2.54,4.53,20.53,20.53,0,0,0,6.61,5.79,22.72,22.72,0,0,0,3.45,1.55,14,14,0,0,0,1.64.49c.7.16,1.41.28,2.11.42q.3,0,.6.06Zm5.68,6.66c0-.3,0-.6,0-.89a.56.56,0,0,0-.52-.55,3,3,0,0,0-.52,0H81.7l-.37,0a.7.7,0,0,0-.65.52,5.39,5.39,0,0,0-.16.8c-.09.59-.14,1.19-.27,1.77a22,22,0,0,1-2.57,6.62,22.56,22.56,0,0,1-6.25,6.8,20.1,20.1,0,0,1-4.62,2.52c-.85.32-1.74.58-2.61.87l-.28.09a.4.4,0,0,0-.21.44,1.2,1.2,0,0,0,.36.55,51.55,51.55,0,0,0,4.14,4l.86.71a1,1,0,0,0,.91.18,2.6,2.6,0,0,0,.49-.18c.8-.39,1.61-.77,2.4-1.18A26.63,26.63,0,0,0,77,126.34a29.37,29.37,0,0,0,6.87-7.66,22.15,22.15,0,0,0,1.64-3.08c.4-.93.8-1.87,1.16-2.81a10.3,10.3,0,0,0,.52-1.63,19,19,0,0,0,.63-2.9c0-.1,0-.19.06-.29A8.21,8.21,0,0,0,88.17,106.06Zm0-24.2h0c0-1.19,0-2.38,0-3.57A6.78,6.78,0,0,0,87,74.51a8,8,0,0,0-5.57-3.61,7.56,7.56,0,0,0-4.63.73A7.74,7.74,0,0,0,73,75.24a12.85,12.85,0,0,0-.55,1.46,4.64,4.64,0,0,0-.28,1.38,8,8,0,0,0,5.22,8.08,8.65,8.65,0,0,0,3.06.53c2.16,0,4.32,0,6.48,0a3.38,3.38,0,0,0,.45,0c.55,0,.7-.19.73-.72,0-.2,0-.4,0-.6Zm18.3,27.27c0,.85,0,1.69,0,2.53a14.88,14.88,0,0,0,.46,3.39,1.25,1.25,0,0,0,.1.27c.24.47.46.94.73,1.38a7.6,7.6,0,0,0,2.94,2.77,6.9,6.9,0,0,0,.87.41c.35.13.71.23,1.06.33a2.57,2.57,0,0,0,.66.13c.67,0,1.34,0,2,0a4.44,4.44,0,0,0,1-.19c.17,0,.32-.14.49-.17a4.74,4.74,0,0,0,1.82-.8,7.94,7.94,0,0,0,2.67-2.85,7,7,0,0,0,.88-2.82,8.62,8.62,0,0,0-.26-3,7.63,7.63,0,0,0-4-4.74,6.41,6.41,0,0,0-2.34-.7c-1.14-.09-2.28-.16-3.42-.14-1.46,0-2.93,0-4.39,0-1.1,0-1.21.12-1.21,1.18Zm6.94-24.5h3.34a.88.88,0,0,0,.82-.42c.45-.76.94-1.51,1.36-2.29.64-1.2,1.33-2.37,2-3.53a1,1,0,0,0,0-1.1c-.51-.85-1-1.71-1.49-2.57-.6-1-1.22-2-1.79-3.07a1.17,1.17,0,0,0-1.27-.7H110a.9.9,0,0,0-.8.46c-.18.3-.36.6-.53.9l-1.19,2q-.87,1.52-1.77,3a.86.86,0,0,0,0,1c.58,1,1.13,1.92,1.69,2.87s1,1.72,1.52,2.56.56.87,1.54.87Z"></path><path class="cls-1" d="M171.54,117.07v-13.7a6.19,6.19,0,0,1,0-.74.41.41,0,0,1,.39-.39,3.82,3.82,0,0,1,.59,0h9.31c.41,0,.83.07,1.25.12s.93.13,1.4.18a10.41,10.41,0,0,1,2.85.79,9.51,9.51,0,0,1,1.68.94,5.78,5.78,0,0,1,2.48,3.5,6.67,6.67,0,0,1-.36,4.79,5,5,0,0,1-1.66,2c-.33.21-.65.44-1,.64a3.27,3.27,0,0,1-.55.2.5.5,0,0,0-.2.84,1.13,1.13,0,0,0,.59.31,7.09,7.09,0,0,1,3.14,2,5.09,5.09,0,0,1,1.19,2.36c.11.53.25,1.06.34,1.6a5.66,5.66,0,0,1-.18,2.35,1.57,1.57,0,0,0-.08.29,5.41,5.41,0,0,1-.63,1.89,6.43,6.43,0,0,1-1.64,2.1,8.57,8.57,0,0,1-2,1.37,7.29,7.29,0,0,1-1.59.62c-.58.13-1.14.31-1.73.42a27.19,27.19,0,0,1-5.33.42h-7.15a6.23,6.23,0,0,1-.74,0,.37.37,0,0,1-.34-.34,7.5,7.5,0,0,1,0-.82v-13.7Zm4.76,6v3.35c0,.22,0,.45,0,.67a.8.8,0,0,0,.73.73,4.43,4.43,0,0,0,.52,0c1.71,0,3.42,0,5.13,0a6.56,6.56,0,0,0,1.25-.14,6.1,6.1,0,0,0,1.28-.38,5.27,5.27,0,0,0,1.53-.9,4.45,4.45,0,0,0,1.25-1.89,4.33,4.33,0,0,0-1.92-5.11,6.74,6.74,0,0,0-3-.92l-1,0h-4.69a1,1,0,0,0-1.11,1.14c0,.18,0,.35,0,.52Zm0-12.35v3a4.86,4.86,0,0,0,0,.66.87.87,0,0,0,.78.78,4.52,4.52,0,0,0,.52,0c1.37,0,2.73,0,4.09,0a6.51,6.51,0,0,0,3.2-.84,4.08,4.08,0,0,0,1.64-5.39,4,4,0,0,0-1.49-1.61,3.69,3.69,0,0,0-1.58-.62,1,1,0,0,1-.29-.08,2.89,2.89,0,0,0-1.3-.24l-4.46,0h-.3a.73.73,0,0,0-.79.72,4.53,4.53,0,0,0,0,.74C176.29,108.77,176.3,109.73,176.3,110.7Z"></path><path class="cls-1" d="M194.88,88.08c-.15.1-.22.18-.3.2a3,3,0,0,1-.52,0h-4.17a.74.74,0,0,1-.69-.35c-.1-.15-.22-.27-.32-.42-.55-.79-1.11-1.58-1.65-2.38L185.08,82c-.43-.63-.87-1.26-1.3-1.9-.76-1.1-1.51-2.2-2.26-3.31l-.17-.24a1.54,1.54,0,0,0-1.4-.69c-.76,0-1.53,0-2.3,0a3,3,0,0,0-.6,0,.89.89,0,0,0-.75.89c0,.22,0,.44,0,.67v9.75a2.16,2.16,0,0,1-.09.92.82.82,0,0,1-.71.22H173c-.27,0-.54,0-.81,0a3,3,0,0,1-.5-.12,3,3,0,0,1-.1-.46c0-.22,0-.44,0-.67V59.68a1.82,1.82,0,0,1,.1-.85,2.35,2.35,0,0,1,.45-.17,5.42,5.42,0,0,1,.81-.06c.84,0,1.69,0,2.53,0,2.78-.06,5.55.12,8.33.15a3.39,3.39,0,0,1,.45,0,16.21,16.21,0,0,1,3.94,1,8.41,8.41,0,0,1,3.29,2.61,4.5,4.5,0,0,1,.77,1.43c.06.19.16.37.23.55a1.78,1.78,0,0,1,.17.49,14,14,0,0,1,.2,2.89,11.32,11.32,0,0,1-.26,1.84,7.57,7.57,0,0,1-1.5,2.88,8.57,8.57,0,0,1-2.89,2.17,13.24,13.24,0,0,1-1.24.48,1.84,1.84,0,0,0-.28.09.46.46,0,0,0-.26.68,8.57,8.57,0,0,0,.52.81l1.68,2.45.12.18c.58.81,1.17,1.6,1.74,2.41s1.26,1.84,1.9,2.75c.44.63.91,1.25,1.35,1.87S194.45,87.46,194.88,88.08ZM176.3,67.47c0,1.12,0,2.23,0,3.35a3.64,3.64,0,0,0,0,.74.84.84,0,0,0,.83.72h.44l4.62,0a4.14,4.14,0,0,0,1.6-.26,2.17,2.17,0,0,1,.5-.13,4.75,4.75,0,0,0,2.47-1.28A3.63,3.63,0,0,0,188,68.13a4.15,4.15,0,0,0-.85-3.28,5,5,0,0,0-1.61-1.29,4.07,4.07,0,0,0-1.89-.59,1.35,1.35,0,0,1-.29,0,11.87,11.87,0,0,0-2.15-.21h-3.42a5.76,5.76,0,0,0-.59,0,.89.89,0,0,0-.92.88c0,.2,0,.4,0,.6Z"></path><path class="cls-1" d="M270.76,92.52a1.64,1.64,0,0,1,.74.21c.27.12.54.24.8.38a17.43,17.43,0,0,0,2.11.71,3.05,3.05,0,0,0,.95.16c.94,0,1.88,0,2.83,0a4.46,4.46,0,0,0,1.43-.34,5.61,5.61,0,0,0,1.72-1A4.54,4.54,0,0,0,282.93,90a17.53,17.53,0,0,0,.25-1.77,1.83,1.83,0,0,0,0-.66.63.63,0,0,0-.78-.51,1.45,1.45,0,0,0-.35.12c-.34.16-.66.34-1,.49a2.22,2.22,0,0,1-.49.18,5.66,5.66,0,0,0-1.14.31,1.63,1.63,0,0,1-.66.1c-.82,0-1.64,0-2.45,0a1.86,1.86,0,0,1-.87-.17,1,1,0,0,0-.28-.1,6,6,0,0,1-1.83-.6,6.32,6.32,0,0,1-.85-.45,8.92,8.92,0,0,1-3.66-4.09,4.74,4.74,0,0,1-.5-1.47.43.43,0,0,0,0-.14,4.16,4.16,0,0,1-.35-2c0-.74,0-1.49,0-2.23a6,6,0,0,1,.14-1c.09-.41.21-.82.32-1.22a1.38,1.38,0,0,1,.08-.29,12.83,12.83,0,0,1,1.63-2.91A9.28,9.28,0,0,1,274,68.67a6.08,6.08,0,0,1,1.71-.49,2.15,2.15,0,0,0,.44-.09,7.64,7.64,0,0,1,2.43-.28,8.14,8.14,0,0,1,1.77.2c.38.09.77.15,1.16.24a4.75,4.75,0,0,1,.64.2c.42.14.84.3,1.26.45a1.29,1.29,0,0,0,.73,0l3.15-.56a1.24,1.24,0,0,1,.25,0,.93.93,0,0,1,.13.31c0,.23,0,.45,0,.67q0,9.6,0,19.21a5.8,5.8,0,0,1-.32,2.19,1.53,1.53,0,0,0-.07.29,6.22,6.22,0,0,1-.84,2.28,6.68,6.68,0,0,1-1.67,2.16c-.3.28-.69.48-1,.74a12.68,12.68,0,0,1-1.68,1,1.29,1.29,0,0,1-.35.1,1.43,1.43,0,0,0-.43.1,3.61,3.61,0,0,1-1.57.39c-.72.07-1.43.2-2.14.29a7.89,7.89,0,0,1-2-.11c-.59-.09-1.18-.16-1.77-.23a2.21,2.21,0,0,1-.37,0c-.82-.33-1.71-.5-2.51-.9a.6.6,0,0,1-.33-.47,3.15,3.15,0,0,1,0-.44V93.19A.79.79,0,0,1,270.76,92.52Zm12.45-14.37c0-1.24,0-2.48,0-3.72a4,4,0,0,0-.16-1.24.82.82,0,0,0-.44-.58c-.4-.18-.81-.35-1.23-.5s-.67-.19-1-.27a6,6,0,0,0-.94-.16c-.52,0-1,0-1.56,0a5,5,0,0,0-2.13.61,6.55,6.55,0,0,0-2,1.71,5.54,5.54,0,0,0-1,2,9,9,0,0,0-.24,1.24,4.59,4.59,0,0,0-.06,1.33A9.05,9.05,0,0,0,273,81a7.83,7.83,0,0,0,1.15,1.72A4.78,4.78,0,0,0,275.82,84a5,5,0,0,0,2.59.54c.17,0,.35,0,.52,0a3.91,3.91,0,0,0,2-.35.48.48,0,0,1,.14-.05,4.09,4.09,0,0,0,1.36-.57,1.15,1.15,0,0,0,.66-.85,5.2,5.2,0,0,0,.09-1C283.21,80.53,283.21,79.34,283.21,78.15Z"></path><path class="cls-1" d="M334.73,88.23a3.42,3.42,0,0,1-.48.08h-3.49a1.06,1.06,0,0,1-.31-.09c-.07-.15-.13-.31-.2-.46a.57.57,0,0,0-.79-.33,1.21,1.21,0,0,0-.2.09,10.05,10.05,0,0,1-2,.86,9.9,9.9,0,0,1-3.82.37c-.32,0-.64,0-1-.08a1.66,1.66,0,0,1-.22,0c-.57-.18-1.14-.34-1.69-.55-.37-.14-.7-.36-1.05-.53a8.16,8.16,0,0,1-2.45-2,9.2,9.2,0,0,1-1.51-2.45c-.35-.79-.41-1.64-.73-2.42a1.24,1.24,0,0,1-.07-.51c0-1,0-1.93,0-2.9a4.43,4.43,0,0,1,.16-.87,4.74,4.74,0,0,0,.15-.5,6.64,6.64,0,0,1,.48-1.63A9.66,9.66,0,0,1,319,69.82,8.87,8.87,0,0,1,322,68.34a12.06,12.06,0,0,1,3.59-.54,8,8,0,0,1,1.62.21c.29.08.58.11.87.18l.93.26c.12,0,.24.08.36.1.57.09.84-.13.87-.71,0-.22,0-.45,0-.67V58.09a2,2,0,0,1,.13-1,1.42,1.42,0,0,1,.44-.13c1.14,0,2.28,0,3.42,0a.78.78,0,0,1,.22,0,.37.37,0,0,1,.34.34,4,4,0,0,1,0,.59c0,1,0,1.94,0,2.9q0,13.18,0,26.35A2,2,0,0,1,334.73,88.23Zm-4.44-10V74c0-.22,0-.45,0-.67a1,1,0,0,0-.61-.86,11.36,11.36,0,0,0-1.6-.59,4.16,4.16,0,0,0-1.31-.24l-1.19,0a5.31,5.31,0,0,0-2.32.42A5.85,5.85,0,0,0,321,73.67a6.74,6.74,0,0,0-1.55,3.63,11.9,11.9,0,0,0-.1,1.33c0,.47.11.94.17,1.4a5.57,5.57,0,0,0,1,2.45,5.49,5.49,0,0,0,1.93,1.81c.29.15.6.25.88.4a1.87,1.87,0,0,0,.92.25l1.86,0a3.35,3.35,0,0,0,1.94-.38.37.37,0,0,1,.14,0,3.87,3.87,0,0,0,1.42-.63,1.2,1.2,0,0,0,.72-1.27,4.51,4.51,0,0,1,0-.52Z"></path><path class="cls-1" d="M274.28,101.33c.08,0,.13-.08.17-.08l3.79.09a.81.81,0,0,1,.24.09,1.68,1.68,0,0,1,.11.4,5,5,0,0,1,0,.67v28.29a2.26,2.26,0,0,1-.12,1.05,1,1,0,0,1-.33.11c-1.17,0-2.33,0-3.5,0a1.22,1.22,0,0,1-.25-.07,3.51,3.51,0,0,0-.22-.43.71.71,0,0,0-1.07-.29,9.47,9.47,0,0,1-5.65,1.24A10.1,10.1,0,0,1,263,131a4.45,4.45,0,0,1-.66-.48,11.55,11.55,0,0,1-1.91-2,16.5,16.5,0,0,1-.85-1.47c-.33-.63-.4-1.33-.71-2a2,2,0,0,1-.1-.66c-.05-.44-.09-.89-.11-1.33s0-1,0-1.49.08-1.09.13-1.63a.82.82,0,0,1,0-.22c.25-.67.39-1.38.68-2a10.48,10.48,0,0,1,1-1.9,7.29,7.29,0,0,1,1.53-1.7l.23-.2a7.93,7.93,0,0,1,2.49-1.58,9.69,9.69,0,0,1,3.52-.82c.84,0,1.68,0,2.52,0a4.27,4.27,0,0,1,1.32.24c.37.14.75.24,1.13.36a.53.53,0,0,0,.7-.24,1.19,1.19,0,0,0,.16-.48,6.26,6.26,0,0,0,0-.75v-8.26a6.26,6.26,0,0,1,0-.75A1.89,1.89,0,0,1,274.28,101.33Zm-.13,20.47v-4.16c0-.25,0-.5,0-.74a.73.73,0,0,0-.43-.65,3.55,3.55,0,0,0-1.3-.54,1.39,1.39,0,0,1-.42-.14,3,3,0,0,0-1.22-.26c-.57,0-1.15,0-1.71,0a4.81,4.81,0,0,0-2.54.7,6.45,6.45,0,0,0-2.09,1.87,6.55,6.55,0,0,0-.8,1.5,6.75,6.75,0,0,0-.39,1.5,7.22,7.22,0,0,0,.66,4.48,5.65,5.65,0,0,0,2.31,2.55c.34.21.73.3,1.07.49a2.23,2.23,0,0,0,1,.27,7.12,7.12,0,0,0,3.57-.38,4.21,4.21,0,0,0,1.36-.58,1.51,1.51,0,0,0,1-1.58C274.11,124.68,274.15,123.24,274.15,121.8Z"></path><path class="cls-1" d="M213.37,116.82a1.69,1.69,0,0,1-.1-.36c0-1,0-2,0-3a1.19,1.19,0,0,1,.09-.36,3.12,3.12,0,0,1,1.18-.62,2.18,2.18,0,0,0,.48-.19,2.31,2.31,0,0,1,.41-.16c.51-.13,1-.24,1.52-.35a6.57,6.57,0,0,1,.89-.12l1.93-.13h.52l1.63.11a5.15,5.15,0,0,1,1.39.25,16.12,16.12,0,0,1,1.62.53,5.59,5.59,0,0,1,2.34,1.76,7.43,7.43,0,0,1,.87,1.62,7.6,7.6,0,0,1,.41,2.71v7.29c0,.3,0,.6,0,.89a2.58,2.58,0,0,0,.57,1.51,1.22,1.22,0,0,0,1.09.54h.52l.37.09a3.28,3.28,0,0,1,.09.37c0,.72,0,1.44,0,2.16,0,.5-.14.66-.62.79a7.2,7.2,0,0,1-3.1.06,3.85,3.85,0,0,1-1.76-.75c-.2-.15-.37-.33-.56-.5a.87.87,0,0,0-1.15-.1,9.1,9.1,0,0,1-1.57.84,11.1,11.1,0,0,1-4.73.75,7.74,7.74,0,0,1-3.43-.92,5.19,5.19,0,0,1-2.39-2.83,6.42,6.42,0,0,1-.33-2.33,3.78,3.78,0,0,1,.24-1.45,8.24,8.24,0,0,1,.52-1.23,5.58,5.58,0,0,1,1.85-1.89,7.9,7.9,0,0,1,3.14-1.09,15.45,15.45,0,0,1,3-.14c.84,0,1.68.14,2.52.21a1.43,1.43,0,0,0,.22,0c.55.07.84-.17.87-.74a8,8,0,0,0,0-1c0-.22-.06-.44-.08-.66a2.76,2.76,0,0,0-1.27-2.16,5.82,5.82,0,0,0-1.12-.55,7.66,7.66,0,0,0-4-.25,3.43,3.43,0,0,0-.5.14,2.75,2.75,0,0,1-.49.14,5.09,5.09,0,0,0-1.21.35c-.49.18-.94.43-1.43.62A4.76,4.76,0,0,1,213.37,116.82Zm10.6,8.91h0c0-.4,0-.79,0-1.19a1,1,0,0,0-1-1.05c-.35,0-.69-.08-1-.11a8.18,8.18,0,0,0-2.37,0,6.34,6.34,0,0,0-2,.54,2.75,2.75,0,0,0-1.45,1.78,2.32,2.32,0,0,0,.43,2,3.53,3.53,0,0,0,2.64,1.31,4.1,4.1,0,0,0,2-.21.72.72,0,0,1,.28-.07,4.42,4.42,0,0,0,1.59-.59,1.32,1.32,0,0,0,.85-1.36C224,126.42,224,126.08,224,125.73Z"></path><path class="cls-1" d="M358,83.21a.71.71,0,0,1,.18.24,1.65,1.65,0,0,1,.05.44c0,.8,0,1.59,0,2.38a1.08,1.08,0,0,1-.64,1.08,8.58,8.58,0,0,1-2.79,1,1.28,1.28,0,0,0-.43.1,3.11,3.11,0,0,1-1.38.25c-.84,0-1.68.09-2.52.09a12.08,12.08,0,0,1-2-.13,11.7,11.7,0,0,1-1.93-.52c-.51-.18-1-.44-1.49-.67a9.47,9.47,0,0,1-3.4-2.82,13.23,13.23,0,0,1-1.29-2.25.7.7,0,0,1-.08-.2,12.28,12.28,0,0,1-.54-5.14,11.55,11.55,0,0,1,1-3.57,7.88,7.88,0,0,1,1.54-2.26,11.46,11.46,0,0,1,2.1-1.77,8.54,8.54,0,0,1,3.08-1.24,4.7,4.7,0,0,0,.51-.12,7.69,7.69,0,0,1,4,0,13.23,13.23,0,0,1,1.93.55,7.82,7.82,0,0,1,2.44,1.52c.16.16.31.33.48.48a9.69,9.69,0,0,1,1.62,2.29,13.54,13.54,0,0,1,.6,1.9,2.27,2.27,0,0,0,.16.73,4.2,4.2,0,0,1,.23,1.61v1.41a1.11,1.11,0,0,1-.16.7,2,2,0,0,1-.43.14c-.27,0-.55,0-.82,0H345.93a6.56,6.56,0,0,0-.89,0,.6.6,0,0,0-.58.65,2,2,0,0,0,.12.73,6.92,6.92,0,0,0,1.53,2.35,6.68,6.68,0,0,0,1.61,1.18,2,2,0,0,0,.34.13,1.23,1.23,0,0,1,.29.08,8.37,8.37,0,0,0,3,.57,4.2,4.2,0,0,0,1.11-.09c.32,0,.64-.08,1-.09a2.34,2.34,0,0,0,1.29-.32.5.5,0,0,1,.2-.08A11.14,11.14,0,0,0,358,83.21Zm-8.35-6.79h4.17a3.77,3.77,0,0,0,.88-.1.52.52,0,0,0,.43-.6,2.15,2.15,0,0,0-.09-.44c-.06-.18-.14-.37-.21-.55A4.81,4.81,0,0,0,353.76,73a5.12,5.12,0,0,0-2.69-1.47,5.51,5.51,0,0,0-3.88.58,5.23,5.23,0,0,0-.73.5,6.16,6.16,0,0,0-1.9,2.61,1.82,1.82,0,0,0-.09.66.5.5,0,0,0,.44.52,4.53,4.53,0,0,0,.74,0Z"></path><path class="cls-1" d="M312,85a11.89,11.89,0,0,1,0,3.1,1.52,1.52,0,0,1-1.25.53h-1.86a2.07,2.07,0,0,1-1-.23c-.26-.14-.58-.18-.82-.33a7.39,7.39,0,0,1-.94-.73c-.51-.45-.74-.49-1.32-.16a9.84,9.84,0,0,1-1.57.83,17.12,17.12,0,0,1-1.84.59,7.23,7.23,0,0,1-1.33.13,15.66,15.66,0,0,1-2.82-.11,4.6,4.6,0,0,1-.5-.13c-.14,0-.27-.13-.41-.17a5.55,5.55,0,0,1-2.61-1.63,5.84,5.84,0,0,1-.91-1.52,6.7,6.7,0,0,1-.37-3.07,1.57,1.57,0,0,1,0-.37,5.59,5.59,0,0,1,1.65-2.93,7,7,0,0,1,1.93-1.22,8,8,0,0,1,1.57-.43l.08,0a14,14,0,0,1,4.43-.27,6.55,6.55,0,0,1,.95.17,8.78,8.78,0,0,0,1,.13.55.55,0,0,0,.65-.56,7.39,7.39,0,0,0-.1-2.3,3,3,0,0,0-1.19-1.74,5.26,5.26,0,0,0-2.65-.9,8.21,8.21,0,0,0-3.23.31,9.18,9.18,0,0,0-1.92.56,5,5,0,0,0-.47.22l-.55.23a1.41,1.41,0,0,1-.25,0,.38.38,0,0,1-.22-.39V69.83a.72.72,0,0,1,.51-.73,11.36,11.36,0,0,1,3-.91c.52-.07,1-.21,1.54-.27a10.72,10.72,0,0,1,4,.13,4.69,4.69,0,0,0,.65.14,5.79,5.79,0,0,1,5.39,4.88,8.09,8.09,0,0,1,.15,1.7q0,3.8,0,7.59a9.37,9.37,0,0,0,.09,1.18,1.9,1.9,0,0,0,.49,1,1.05,1.05,0,0,0,.83.41c.2,0,.4,0,.6,0S311.79,85,312,85Zm-10.4-5.32v0h-1.05a4.75,4.75,0,0,0-2.61.93,2.57,2.57,0,0,0-1,1.85,1.15,1.15,0,0,0,0,.37,2.92,2.92,0,0,0,1.27,1.93,1.75,1.75,0,0,0,.34.15c.28.1.55.2.84.29a1.48,1.48,0,0,0,.5.13,4.36,4.36,0,0,0,2.26-.24.79.79,0,0,1,.36-.11,4,4,0,0,0,1.59-.58,1.08,1.08,0,0,0,.7-1c0-.9,0-1.79,0-2.68a.71.71,0,0,0-.47-.69,3.78,3.78,0,0,0-1.44-.36Z"></path><path class="cls-1" d="M214.36,83.21c.06.1.16.2.17.3a6.26,6.26,0,0,1,0,.75c0,.69,0,1.38,0,2.08a1,1,0,0,1-.52.92,9.11,9.11,0,0,1-3.2,1.11,3,3,0,0,0-.42.14,2.42,2.42,0,0,1-.58.13c-1,.06-1.93.12-2.9.13a14.12,14.12,0,0,1-2.15-.14,11.94,11.94,0,0,1-1.93-.51c-.51-.18-1-.44-1.48-.67a9.39,9.39,0,0,1-3.53-3,16,16,0,0,1-1.21-2.13,1.79,1.79,0,0,1-.1-.35,2.25,2.25,0,0,0-.13-.51,5.81,5.81,0,0,1-.35-1.8,23.26,23.26,0,0,1,0-3.34.86.86,0,0,1,0-.23c.19-.61.34-1.24.57-1.83a10.56,10.56,0,0,1,1.13-2.09,9.34,9.34,0,0,1,2.82-2.71,8.24,8.24,0,0,1,3.14-1.28,2.33,2.33,0,0,0,.44-.1,7.75,7.75,0,0,1,4.11,0,12.62,12.62,0,0,1,1.86.53,8.94,8.94,0,0,1,4,3.23,12,12,0,0,1,.71,1.38,12.66,12.66,0,0,1,.83,4.21,7.38,7.38,0,0,1-.11,1.48c0,.33-.2.46-.55.49s-.49,0-.74,0H202.17c-.25,0-.5,0-.74,0a.69.69,0,0,0-.69.86,1.66,1.66,0,0,0,.12.5,6.42,6.42,0,0,0,1,1.81A5.88,5.88,0,0,0,204,84.32a4.76,4.76,0,0,0,2.18.64,4.57,4.57,0,0,1,.52.05,8.88,8.88,0,0,0,1.26.08c.76,0,1.53-.12,2.29-.18a.8.8,0,0,0,.15,0c.49-.23,1-.33,1.53-.53C212.71,84,213.48,83.63,214.36,83.21ZM206,76.42h4.17a4.36,4.36,0,0,0,.81-.07.53.53,0,0,0,.45-.52,1.28,1.28,0,0,0,0-.52,6.31,6.31,0,0,0-.52-1.22,5.64,5.64,0,0,0-2.21-2.15,6.57,6.57,0,0,0-1.34-.44,5.28,5.28,0,0,0-3.48.41,5.62,5.62,0,0,0-3,3.27,2.15,2.15,0,0,0-.12.5.59.59,0,0,0,.57.72,5,5,0,0,0,.67,0Z"></path><path class="cls-1" d="M262.53,83.23c.29.18.26.42.27.64v2.46a1.62,1.62,0,0,1,0,.22.88.88,0,0,1-.52.76,10.21,10.21,0,0,1-2.93,1,.58.58,0,0,0-.14,0,7,7,0,0,1-2.64.38c-.86.06-1.73,0-2.6,0l-.44,0h-.15a14.06,14.06,0,0,1-2.3-.57,10.08,10.08,0,0,1-1.22-.54,9.81,9.81,0,0,1-2.18-1.41,7.67,7.67,0,0,1-2.16-2.7c-.23-.47-.45-.94-.67-1.41a.9.9,0,0,1-.08-.21,23.34,23.34,0,0,1-.49-2.32,15,15,0,0,1,0-2.6,7.51,7.51,0,0,1,.21-.94,2.42,2.42,0,0,0,.1-.36,5.09,5.09,0,0,1,.58-1.83,8.12,8.12,0,0,1,1.47-2.4,9.41,9.41,0,0,1,2.19-1.89A9.19,9.19,0,0,1,252,68.19a3.81,3.81,0,0,0,.51-.12,8.39,8.39,0,0,1,2.73-.25,2.3,2.3,0,0,1,.45.05,19.09,19.09,0,0,1,2,.44,8.74,8.74,0,0,1,2.9,1.47,8.34,8.34,0,0,1,2.64,3.61,13.69,13.69,0,0,1,.73,3,15.11,15.11,0,0,1,.05,2.52c0,.35-.16.49-.51.52a7.42,7.42,0,0,1-.82,0H250.51c-.28,0-.55,0-.82,0a.68.68,0,0,0-.69.86,3.35,3.35,0,0,0,.17.64,6.42,6.42,0,0,0,2.68,3.18c.55.33,1.16.44,1.69.76.83.1,1.67.21,2.5.29a3.81,3.81,0,0,0,.67-.07l1.48-.15a2.12,2.12,0,0,0,.44-.05c.61-.2,1.22-.41,1.82-.64.37-.14.72-.32,1.08-.49S262.18,83.41,262.53,83.23Zm-8.2-6.81h4.09a4.36,4.36,0,0,0,.81-.07.54.54,0,0,0,.44-.53,1.6,1.6,0,0,0-.11-.81,5.87,5.87,0,0,0-.36-.81,6.2,6.2,0,0,0-.88-1.28,5.61,5.61,0,0,0-7.52-.17,6.15,6.15,0,0,0-1.71,2.49,1.71,1.71,0,0,0-.1.5.53.53,0,0,0,.44.61,4.36,4.36,0,0,0,.81.07Z"></path><path class="cls-1" d="M225.14,68.42a1.56,1.56,0,0,1,.14.83,4,4,0,0,0,0,.6.47.47,0,0,0,.68.35,4.09,4.09,0,0,0,.46-.25l1-.67a8,8,0,0,1,2.74-1.1,3.39,3.39,0,0,0,.43-.11,5.91,5.91,0,0,1,2.21-.25c.42,0,.83.1,1.25.17a10.65,10.65,0,0,1,1.08.27,6,6,0,0,1,3.64,3.18,2.9,2.9,0,0,1,.16.41,12.58,12.58,0,0,1,.5,3.23c0,3.49,0,7,0,10.49v1.86a4.55,4.55,0,0,1,0,.52,1.07,1.07,0,0,1-.07.19.77.77,0,0,1-.57.18h-3.12l-.3,0a.39.39,0,0,1-.34-.35,7.38,7.38,0,0,1,0-.82c0-3,0-6,0-9a23.89,23.89,0,0,0-.3-3.78A2.58,2.58,0,0,0,234,73a3.79,3.79,0,0,0-3.57-1.23,8.17,8.17,0,0,0-3.3,1.27,15.8,15.8,0,0,0-1.47,1.24,1,1,0,0,0-.3.67c0,.29,0,.59,0,.89V87.14c0,.32,0,.64,0,1a2,2,0,0,1-.5.17,8.75,8.75,0,0,1-.89,0H221.7a1.67,1.67,0,0,1-.84-.12,1.88,1.88,0,0,1-.14-.38c0-.22,0-.44,0-.67,0-5.92,0-11.85,0-17.78a4.93,4.93,0,0,1,0-.67.42.42,0,0,1,.39-.39,2.92,2.92,0,0,1,.51,0h2.76A1.27,1.27,0,0,1,225.14,68.42Z"></path><path class="cls-1" d="M239.41,131.87a1.84,1.84,0,0,1-.4.09h-3.34a2.72,2.72,0,0,1-.4-.09,4.27,4.27,0,0,1-.13-.48,4,4,0,0,1,0-.6V113.07a1.79,1.79,0,0,1,.12-1,1,1,0,0,1,.75-.17c2.58,0,2.76,0,3.33.14a1.36,1.36,0,0,1,.22.84c0,.22,0,.44.06.66a.43.43,0,0,0,.56.35,2.35,2.35,0,0,0,.59-.3c.43-.28.85-.6,1.29-.87a6.75,6.75,0,0,1,1.69-.75c.17,0,.33-.12.49-.17a2.44,2.44,0,0,1,.57-.16,13.41,13.41,0,0,1,2.45-.12,2.3,2.3,0,0,0,.37,0,5,5,0,0,1,2.38.53,5.73,5.73,0,0,1,2.68,2.26,6.75,6.75,0,0,1,.93,3.1c.23,3.62.06,7.24.11,10.86,0,.84,0,1.69,0,2.53,0,.2,0,.4,0,.6,0,.35-.17.48-.51.52h-3.13a1.07,1.07,0,0,1-.68-.14,2,2,0,0,1-.1-.39c0-.27,0-.55,0-.82,0-3.55,0-7.1,0-10.64a7.15,7.15,0,0,0-.53-2.61,2.91,2.91,0,0,0-1.47-1.52,4,4,0,0,0-2.81-.41,9.14,9.14,0,0,0-2.62,1c-.41.25-.8.51-1.18.78a3.93,3.93,0,0,0-.61.54,1.57,1.57,0,0,0-.48,1.21c0,.2,0,.4,0,.6v11.09a6,6,0,0,1,0,.74A2.64,2.64,0,0,1,239.41,131.87Z"></path><path class="cls-1" d="M284.36,127a1.27,1.27,0,0,1,.44,0c.82.34,1.63.71,2.44,1.06a.39.39,0,0,0,.14,0,17.87,17.87,0,0,0,2.91.59c.39,0,.78.1,1.18.14a8.6,8.6,0,0,0,2.58-.23,2.67,2.67,0,0,0,1.74-1.18,2,2,0,0,0,.24-1.71,1.11,1.11,0,0,0-.2-.39,2.71,2.71,0,0,0-1.44-1,3.69,3.69,0,0,1-.56-.19,3.17,3.17,0,0,0-1-.24,9.93,9.93,0,0,1-1.09-.19l-1.32-.24c-.19,0-.4,0-.59-.08a31.14,31.14,0,0,1-3-.93,6.23,6.23,0,0,1-1.59-.94,4,4,0,0,1-1.47-2.51,6.29,6.29,0,0,1,.41-3.78,4.16,4.16,0,0,1,.64-1,6.15,6.15,0,0,1,2.46-1.87,9.1,9.1,0,0,1,3.52-.81c.27,0,.54,0,.81-.06a5.65,5.65,0,0,1,.82,0c.7,0,1.39.06,2.08.12a11.56,11.56,0,0,1,1.18.17,10.92,10.92,0,0,1,1.38.29,6.31,6.31,0,0,1,2.32,1,3.32,3.32,0,0,1,.06.44c0,1,0,2,0,3a.64.64,0,0,1-.09.22,1.59,1.59,0,0,1-.91-.23,2.46,2.46,0,0,0-.82-.34,2,2,0,0,1-.4-.18,1.26,1.26,0,0,0-.34-.15,17.25,17.25,0,0,0-2.68-.57,2.13,2.13,0,0,1-.65-.12,6.13,6.13,0,0,0-2-.14,3.56,3.56,0,0,0-.65.13c-.2,0-.39.12-.58.14a2.49,2.49,0,0,0-1.16.46,2.59,2.59,0,0,0-.95,1.29,1,1,0,0,0,0,.59,2.29,2.29,0,0,0,1.37,1.55c.21.09.41.18.62.25s.42.14.64.19.3,0,.44,0c1.49.4,3,.48,4.52.92a12,12,0,0,1,2.55,1,4.44,4.44,0,0,1,1.91,2,5.84,5.84,0,0,1,.38,1.89,7.55,7.55,0,0,1-.22,2.37,4.45,4.45,0,0,1-1,1.82,7.43,7.43,0,0,1-4.2,2.38,14.7,14.7,0,0,1-3.91.37c-.54,0-1.09-.07-1.63-.14-.69-.09-1.37-.2-2.06-.33a15,15,0,0,1-2.77-.83.86.86,0,0,1-.62-.9c0-.92,0-1.83,0-2.75A3.08,3.08,0,0,1,284.36,127Z"></path><path class="cls-1" d="M209.66,116.1l-.43,0a10.61,10.61,0,0,0-2.81.22,7.6,7.6,0,0,0-2.72,1.62c-.3.3-.57.62-.85.94a1.45,1.45,0,0,0-.34,1c0,.25,0,.5,0,.74v10.28a6.23,6.23,0,0,1,0,.74.41.41,0,0,1-.39.38,2.31,2.31,0,0,1-.37,0h-3c-.68,0-.78-.11-.8-.77,0-.12,0-.25,0-.37q0-8.79,0-17.57c0-.27,0-.54,0-.82a.43.43,0,0,1,.37-.41,4.48,4.48,0,0,1,.81-.1c.79,0,1.59,0,2.38,0h.08c.64,0,.76.16.78.82,0,.34,0,.69,0,1a1.46,1.46,0,0,0,.12.5.43.43,0,0,0,.58.19,3.43,3.43,0,0,0,.63-.51,6.1,6.1,0,0,1,2.61-1.79,7,7,0,0,1,3-.44c.46,0,.62.19.62.67,0,1.06,0,2.13,0,3.2A.5.5,0,0,1,209.66,116.1Z"></path><path class="cls-2" d="M88.16,81.86v3.5c0,.2,0,.4,0,.6,0,.53-.18.68-.73.72a3.38,3.38,0,0,1-.45,0c-2.16,0-4.32,0-6.48,0a8.65,8.65,0,0,1-3.06-.53,8,8,0,0,1-5.22-8.08,4.64,4.64,0,0,1,.28-1.38A12.85,12.85,0,0,1,73,75.24a7.74,7.74,0,0,1,3.71-3.61,7.56,7.56,0,0,1,4.63-.73A8,8,0,0,1,87,74.51a6.78,6.78,0,0,1,1.2,3.78c0,1.19,0,2.38,0,3.57Z"></path><path class="cls-3" d="M106.46,109.13v-3c0-1.06.11-1.17,1.21-1.18,1.46,0,2.93,0,4.39,0,1.14,0,2.28,0,3.42.14a6.41,6.41,0,0,1,2.34.7,7.63,7.63,0,0,1,4,4.74,8.62,8.62,0,0,1,.26,3,7,7,0,0,1-.88,2.82,7.94,7.94,0,0,1-2.67,2.85,4.74,4.74,0,0,1-1.82.8c-.17,0-.32.13-.49.17a4.44,4.44,0,0,1-1,.19c-.66,0-1.33,0-2,0a2.57,2.57,0,0,1-.66-.13c-.35-.1-.71-.2-1.06-.33a6.9,6.9,0,0,1-.87-.41,7.6,7.6,0,0,1-2.94-2.77c-.27-.44-.49-.91-.73-1.38a1.25,1.25,0,0,1-.1-.27,14.88,14.88,0,0,1-.46-3.39C106.49,110.82,106.46,110,106.46,109.13Z"></path><path class="cls-3" d="M113.4,84.63h-2.91c-1,0-1,0-1.54-.87s-1-1.7-1.52-2.56-1.11-1.92-1.69-2.87a.86.86,0,0,1,0-1q.9-1.48,1.77-3l1.19-2c.17-.3.35-.6.53-.9A.9.9,0,0,1,110,71h6.39a1.17,1.17,0,0,1,1.27.7c.57,1,1.19,2,1.79,3.07.5.86,1,1.72,1.49,2.57a1,1,0,0,1,0,1.1c-.71,1.16-1.4,2.33-2,3.53-.42.78-.91,1.53-1.36,2.29a.88.88,0,0,1-.82.42H113.4Z"></path></svg> 