<?xml version="1.0" encoding="UTF-8"?> <svg xmlns="http://www.w3.org/2000/svg" id="Layer_1" data-name="Layer 1" viewBox="0 0 400 190"><defs><style>.cls-1{fill:#016af1;}</style></defs><path class="cls-1" d="M54.38,44.13c1.19.21,2.39.38,3.58.63A60.31,60.31,0,0,1,74,51,136,136,0,0,1,98,67.86a183.69,183.69,0,0,1,21.6,21.88l.57.73-1.7,2.38c-.35-.43-.64-.79-.92-1.15A141.74,141.74,0,0,0,69.27,52.56a35.92,35.92,0,0,0-11.09-3.71,14.81,14.81,0,0,0-6.35.33,10.44,10.44,0,0,0-7.48,10.23,26.58,26.58,0,0,0,2.59,11.43A118,118,0,0,0,57,88.73l1,1.56c-.15.22-.25.4-.37.56-.49.63-1,1.25-1.52,1.91a2.91,2.91,0,0,1-.35-.33A107.35,107.35,0,0,1,43.48,71.64a42.62,42.62,0,0,1-3.55-12.52,2.26,2.26,0,0,0-.15-.41V54.8c.07-.29.16-.57.2-.85a10.7,10.7,0,0,1,8.42-9.38c.68-.17,1.38-.3,2.07-.44Z"></path><path class="cls-1" d="M39.78,131.27c.22-1.19.4-2.39.65-3.57a63.78,63.78,0,0,1,7.46-18.09A142.42,142.42,0,0,1,65.22,85.88a184.61,184.61,0,0,1,20-19.46l1-.76c.41.28.8.53,1.18.81s.75.55,1.19.88c-1.44,1.18-2.83,2.28-4.19,3.42a141.58,141.58,0,0,0-36.54,46.5,32.39,32.39,0,0,0-3.3,10.28c-.42,3.44-.18,6.76,2,9.65a10.64,10.64,0,0,0,8.67,4.16,23.86,23.86,0,0,0,9.28-1.84,102.88,102.88,0,0,0,17.83-9.4c1.23-.77,2.43-1.58,3.74-2.43l2.38,1.87a2.39,2.39,0,0,1-.37.45c-7.17,5.22-14.64,9.9-23,13.11a38.05,38.05,0,0,1-10.22,2.62,17.8,17.8,0,0,1-7.74-.66c-4.26-1.53-6.47-4.69-7.16-9a8.26,8.26,0,0,0-.2-.86Z"></path><path class="cls-1" d="M130.94,44.13l1.65.34a10.65,10.65,0,0,1,8.85,9.33,27,27,0,0,1-1.21,11.66A77,77,0,0,1,131.41,84a154.35,154.35,0,0,1-18.55,23.83A184.08,184.08,0,0,1,96,123.8c-.22.18-.46.35-.74.57l-2.35-1.69c.32-.27.58-.5.85-.71a142.25,142.25,0,0,0,39.45-48.3,35.91,35.91,0,0,0,3.71-10.89,15,15,0,0,0-.38-6.86c-1.38-4.36-5.29-7.11-10.15-7.24a25.06,25.06,0,0,0-9.79,2,105,105,0,0,0-17.79,9.48c-1.13.71-2.23,1.46-3.39,2.22L93,60.42a5,5,0,0,1,.52-.48A100.53,100.53,0,0,1,116,47.06a39.58,39.58,0,0,1,10.55-2.77,3.22,3.22,0,0,0,.5-.16Z"></path><path class="cls-1" d="M218.21,96c3.3-7.68,6.53-15.24,9.81-22.88h1.17c11.25,0,22.49,0,33.74,0,2.63,0,3.24,1.8,2.42,3.69-1.94,4.52-3.85,9-5.78,13.58-.8,1.88-1.62,3.74-2.48,5.72h-2.38c-1.34,0-2.68-.06-4,0-2.36.13-3.1-1.59-2.37-3.47s1.56-3.71,2.36-5.56c1.11-2.55,2.24-5.1,3.35-7.65.63-1.47.25-2.07-1.33-2.07-.59,0-1.18,0-1.85,0-2.66,6.23-5.32,12.42-8,18.66H232.62c.18-.45.31-.81.45-1.15l6.56-15.27a7.54,7.54,0,0,0,.29-.74,1,1,0,0,0-1-1.49c-.77,0-1.54,0-2.4,0q-4,9.36-8,18.66Z"></path><path class="cls-1" d="M138.64,96.09c4-9.32,7.92-18.39,11.84-27.51.36,0,.68,0,1,0h24.39c1.68,0,2.92.82,3.16,2.28a4.19,4.19,0,0,1-.32,2.14c-1.47,3.59-3,7.15-4.53,10.72-1.18,2.75-2.37,5.5-3.54,8.25a6.53,6.53,0,0,1-6.38,4.14c-6,.09-11.93,0-17.89,0h-7.73Zm20.89-22.28-7.12,16.76c1.85,0,3.53,0,5.2,0a2.93,2.93,0,0,0,3-1.94q2.74-6.31,5.49-12.62a3.51,3.51,0,0,0,.28-.74,1.1,1.1,0,0,0-1.1-1.46C163.4,73.79,161.54,73.81,159.53,73.81Z"></path><path class="cls-1" d="M347.54,73.14l2-4.57h10.71L348.59,96c-.42,0-.74.06-1.06.06-7.2,0-14.41,0-21.61,0-2.18,0-3.15-1.49-2.34-3.41,2.28-5.4,4.51-10.82,6.91-16.17a5.54,5.54,0,0,1,5.39-3.41c3.5,0,7,0,10.5,0Zm-8,18.67,6.26-14.45c-.93,0-1.69,0-2.44,0a3.14,3.14,0,0,0-3.29,2.17c-1.45,3.44-2.92,6.86-4.38,10.29-.08.19-.16.39-.22.58-.23.82.13,1.38,1,1.41C337.46,91.84,338.46,91.81,339.56,91.81Z"></path><path class="cls-1" d="M274.36,96.09h-9.44c-2.17,0-3.14-1.32-2.3-3.33,2.26-5.44,4.54-10.88,6.95-16.26a5.5,5.5,0,0,1,5.4-3.37c6.2,0,12.41.05,18.61,0,2.11,0,3.16,1.42,2.33,3.43C293.65,82,291.38,87.42,289,92.8a5.38,5.38,0,0,1-5.26,3.3C280.59,96.08,277.48,96.09,274.36,96.09Zm1.72-4.1a3.09,3.09,0,0,0,3.38-2.18c.79-1.89,1.63-3.74,2.45-5.61.73-1.68,1.48-3.36,2.19-5,.37-.89.06-1.58-.72-1.76a3.45,3.45,0,0,0-4.26,2.13L274.59,90a4.07,4.07,0,0,0-.22.58A1,1,0,0,0,275.3,92,6.85,6.85,0,0,0,276.08,92Z"></path><path class="cls-1" d="M214.25,96c-.34,0-.58,0-.81,0h-22c-1.6,0-2.5-.8-2.45-2.17a4.39,4.39,0,0,1,.31-1.38c.8-1.94,1.57-3.9,2.47-5.8a5.69,5.69,0,0,1,5.41-3.51c3.12,0,6.23,0,9.34,0a3.33,3.33,0,0,0,3.36-2.14c.29-.65.62-1.29.88-1.95.41-1.07,0-1.7-1.17-1.8a3.35,3.35,0,0,0-3.9,2.33,1.87,1.87,0,0,1-.17.31l-.14.19H194.66c1.08-2.49,1.63-5.19,4.32-6.43a6.22,6.22,0,0,1,2.47-.59c6.25,0,12.51,0,18.77,0,2.3,0,3.14,1.53,2.34,3.55-.87,2.18-1.81,4.32-2.73,6.47l-5.18,12.08C214.53,95.48,214.39,95.74,214.25,96Zm-7.08-8.88a21.13,21.13,0,0,0-3.4,0,2.91,2.91,0,0,0-1.7,1.13,11.57,11.57,0,0,0-1.2,2.74.86.86,0,0,0,.74,1.19c1.13.09,2.27,0,3.4,0Z"></path><path class="cls-1" d="M310.53,77.36l-8,18.66H291.64l9.8-22.88h1.17c7.09,0,14.18.06,21.27,0,2.79,0,3.18,1.92,2.42,3.69-1.7,4-3.39,8-5.1,12-1,2.39-2.07,4.78-3.12,7.22-.41,0-.79.06-1.17.06-2,0-3.92-.07-5.87,0-2.17.09-3.12-1.48-2.31-3.42,1.13-2.7,2.3-5.39,3.47-8.08.76-1.76,1.56-3.51,2.31-5.29.56-1.31.11-2-1.34-2C312.31,77.35,311.46,77.36,310.53,77.36Z"></path><path class="cls-1" d="M123.43,99.7l1.89-2.4a2.34,2.34,0,0,1,.38.28c5.58,7.67,10.58,15.68,13.78,24.67a31,31,0,0,1,2.13,12.27c-.25,4.32-1.85,7.88-5.89,10a13.08,13.08,0,0,1-5.57,1.34c-5.86.24-11.24-1.56-16.5-3.83a109.84,109.84,0,0,1-23.37-14.33,181.38,181.38,0,0,1-28.36-27.38c-.19-.22-.37-.46-.59-.74L63,97.21l1.64,2a142.3,142.3,0,0,0,44.71,36.86,46.07,46.07,0,0,0,12.55,4.9c3.17.62,6.32.73,9.32-.74A10.08,10.08,0,0,0,137,132a22.68,22.68,0,0,0-2-11.6,108.93,108.93,0,0,0-10-18.24C124.54,101.35,124,100.57,123.43,99.7Z"></path><path class="cls-1" d="M221.36,122.15h-12c-.43-4.45-.86-8.83-1.28-13.21l-.22-.06q-2.85,6.63-5.72,13.29h-7.32c2.75-6.42,5.45-12.72,8.16-19.06h12.39q.62,6.24,1.24,12.47l.22.07c1.79-4.17,3.57-8.33,5.37-12.54h7.33Z"></path><path class="cls-1" d="M167.55,122.15c-1.2-3.27-2.37-6.48-3.54-9.69l-.27,0c-1.38,3.22-2.77,6.44-4.18,9.71h-8.44c2.75-6.4,5.45-12.72,8.17-19h8.43L163.94,112l.14.12c.27-.2.54-.41.79-.62q4.71-3.87,9.4-7.76a2.73,2.73,0,0,1,1.93-.69c2.7,0,5.4,0,8.1,0h.86l.09.2-11.52,8.48,4.41,10.43Z"></path><path class="cls-1" d="M345.18,108.66h-8.06c0-.21,0-.38,0-.55.12-1.28-.31-1.87-1.58-1.93a11.66,11.66,0,0,0-2.64.18,2.91,2.91,0,0,0-1.35.79c-.83.8-.68,1.6.41,1.94,1.83.59,3.71,1,5.56,1.57a27.46,27.46,0,0,1,3.75,1.35,2.78,2.78,0,0,1,1.56,3.77,7.86,7.86,0,0,1-3.51,4.43,16.88,16.88,0,0,1-7,2.22,37,37,0,0,1-10.46-.08,10.35,10.35,0,0,1-2.45-.74,2.64,2.64,0,0,1-1.62-3.2c.15-.75.4-1.47.62-2.22h8.51c-.07.47-.15.87-.18,1.27a1.26,1.26,0,0,0,1,1.54,6,6,0,0,0,4.86-.75,2.33,2.33,0,0,0,.61-.64c.56-.81.42-1.42-.51-1.73-1.32-.45-2.67-.78-4-1.17-1.54-.45-3.07-.89-4.6-1.38a6.54,6.54,0,0,1-1.43-.7,2.33,2.33,0,0,1-1.14-2.66,7.67,7.67,0,0,1,3.7-5.1,14.76,14.76,0,0,1,5.87-1.94,34,34,0,0,1,10.8.07,6.34,6.34,0,0,1,.86.21C345.57,104,346.41,105.89,345.18,108.66Z"></path><path class="cls-1" d="M315.48,115a9.52,9.52,0,0,1-3.6,4.68,18,18,0,0,1-7.72,2.77,25.78,25.78,0,0,1-9.63-.22c-4.14-1-5.6-3.47-4.38-7.53,2-6.53,6.44-10.33,13.07-11.63a27.47,27.47,0,0,1,10.69,0,9.93,9.93,0,0,1,2.66,1,2.92,2.92,0,0,1,1.61,3.5,10.49,10.49,0,0,1-.36,1.28c-.15.42-.33.83-.52,1.3h-8.52c.07-.4.14-.76.19-1.13a1.64,1.64,0,0,0-1.49-2.11,5.77,5.77,0,0,0-5.36,2,13.26,13.26,0,0,0-3.24,6.23,5.11,5.11,0,0,0-.08,1.24,2.13,2.13,0,0,0,2.14,2.25,5.45,5.45,0,0,0,5.74-3c.08-.16.18-.31.29-.5Z"></path><path class="cls-1" d="M241.36,107.06c-.52,1.2-1,2.29-1.51,3.53H250.2l-1.71,4H238.13c-.51,1.17-1,2.27-1.55,3.57h11.16l-1.69,4H226.71c2.75-6.42,5.46-12.74,8.16-19.06h19.24l-1.69,4Z"></path><path class="cls-1" d="M183.72,96.07c-2.71,0-5.26,0-7.81,0a1.91,1.91,0,0,1-1.83-2.27,4.91,4.91,0,0,1,.38-1.36q4-9.28,7.93-18.55c.09-.21.21-.42.33-.68h10.7C190.17,80.86,187,88.44,183.72,96.07Z"></path><path class="cls-1" d="M263.85,122.18h-8.44c2.06-4.82,4.08-9.53,6.16-14.41H255l2-4.65h21.61l-1.94,4.6h-6.59Z"></path><path class="cls-1" d="M282.44,122.15H274c2.76-6.43,5.46-12.73,8.16-19h8.45Z"></path><path class="cls-1" d="M189.62,122.17h-8.44l8.17-19.07h8.44C195,109.53,192.33,115.84,189.62,122.17Z"></path><path class="cls-1" d="M94.71,112.91l.75,4.7-4.72,3.68L86,117.63l.72-4.72Z"></path><path class="cls-1" d="M68.22,99.81,64.39,95l3.83-4.78L72.33,95Z"></path><path class="cls-1" d="M113.3,90.34,117.07,95l-3.77,4.69-4-4.68Z"></path><path class="cls-1" d="M90.72,76.47l-4.75-4,4.76-3.7,4.76,3.7Z"></path></svg> 