<?xml version="1.0" encoding="UTF-8"?> <svg xmlns="http://www.w3.org/2000/svg" id="Layer_1" data-name="Layer 1" viewBox="0 0 400 190"><defs><style>.cls-1{fill:#016af1;}</style></defs><path class="cls-1" d="M264,121.75c-.63,1.24-1.23,2.49-2,3.66a44.26,44.26,0,0,1-8.43,9.68,73.35,73.35,0,0,1-6.31,4.94l-.33.21a1.06,1.06,0,0,1-.05-.55q0-43,0-86c0-.19.1-.42-.12-.57a.48.48,0,0,0-.72.08c-.47.5-.95,1-1.45,1.49q-3.06,3-6.1,6.12c-.29.3-.45.24-.71,0q-3.27-3.15-6.58-6.29c-1.2-1.14-2.36-2.33-3.62-3.4-.53-.45-.54-.74,0-1.25l6.13-6.42q5.76-6,11.5-12.1a9,9,0,0,0,.75-.77,1.52,1.52,0,0,1,1.4-.6c5.39,0,10.78,0,16.17,0a1.23,1.23,0,0,0,.5,0Z"></path><path class="cls-1" d="M239.81,122.59V123c0,6.66,0,13.32,0,20a.74.74,0,0,1-.45.74,167,167,0,0,1-20.05,9.63A195,195,0,0,1,200.71,160c-.44.13-.44.14-.44-.33q0-64.64,0-129.27c0-.37.09-.46.46-.46q8.11,0,16.21,0c.4,0,.48.11.48.49q0,52,0,104c0,.71,0,.72.64.43a130.61,130.61,0,0,0,16.55-8.73c1.68-1.07,3.32-2.2,4.91-3.41A.41.41,0,0,1,239.81,122.59Z"></path><path class="cls-1" d="M136,75.87V30.64c0-.64,0-.64.66-.64h56c.63,0,.55-.09.55.55V47c0,.61.07.54-.53.54H153.7c-.6,0-.52-.07-.52.51q0,13.37,0,26.74c0,.4.11.48.49.48l39,0c.41,0,.5.11.5.5,0,5.65,0,11.29,0,16.94,0,.55.07.48-.5.48h-39c-.5,0-.5,0-.5.49q0,10.89,0,21.8a1.2,1.2,0,0,0,.26.77,47.62,47.62,0,0,0,8.51,8.63A84,84,0,0,0,176.35,134,129.84,129.84,0,0,0,192.8,141a.44.44,0,0,1,.37.5c0,5.88,0,11.76,0,17.64,0,.44,0,.44-.44.31A150.28,150.28,0,0,1,171.07,151a111.49,111.49,0,0,1-16.19-9.46,77.82,77.82,0,0,1-9.34-7.74,57.67,57.67,0,0,1-9.4-11.88,1.06,1.06,0,0,1-.14-.65V75.87Z"></path></svg> 