<?xml version="1.0" encoding="UTF-8"?> <svg xmlns="http://www.w3.org/2000/svg" id="Layer_1" data-name="Layer 1" viewBox="0 0 400 190"><defs><style>.cls-1{fill:#016af1;}</style></defs><path class="cls-1" d="M46.9,118.67H35.54c-.28,0-.55,0-.83,0-.75,0-.93-.19-.93-.91,0-2.24,0-4.49,0-6.73,0-.75.24-1,1-1.09a7.48,7.48,0,0,1,1.06,0c6.51,0,13,0,19.52,0a2.78,2.78,0,0,0,2.46-1.29,7.15,7.15,0,0,0,1.2-5.39c-.35-2.86-1.07-3.57-4-4.1a7.38,7.38,0,0,0-1.41-.1c-2.91,0-5.83,0-8.75,0a14.36,14.36,0,0,1-5.61-1.21,9.26,9.26,0,0,1-4.9-5.18A17.59,17.59,0,0,1,33,86a22.25,22.25,0,0,1,.64-6.19,11.74,11.74,0,0,1,5.6-7.13,9.55,9.55,0,0,1,5-1.33c6.79.07,13.57,0,20.35,0,1.5,0,1.5,0,1.5,1.53v5.55c0,.27,0,.55,0,.82a.67.67,0,0,1-.68.68l-.94,0H47.12a3.92,3.92,0,0,0-3.9,3.25,14,14,0,0,0,0,4.09,2.92,2.92,0,0,0,2.49,2.5,25.92,25.92,0,0,0,3,.23c2.72,0,5.45,0,8.17,0a13.44,13.44,0,0,1,5.6,1.24,9.62,9.62,0,0,1,5,5.52,18.24,18.24,0,0,1,1.22,6.2,24.17,24.17,0,0,1-.73,7.24,12,12,0,0,1-5.91,7.33,8.18,8.18,0,0,1-4.27,1.13C54.23,118.62,50.56,118.67,46.9,118.67Z"></path><path class="cls-1" d="M322.75,105.38H311.28c-1.41,0-1.67.38-1.15,1.72a4.89,4.89,0,0,0,2.92,2.75,10.07,10.07,0,0,0,3.8.72h15.26c.81,0,1,.16,1,1q0,3,0,5.91c0,1-.18,1.18-1.17,1.18-4.81,0-9.62.1-14.42-.08a21.83,21.83,0,0,1-9-2,10.57,10.57,0,0,1-5.55-6,21.67,21.67,0,0,1-1.28-6.91,25.51,25.51,0,0,1,.69-7.59C304,90,308,86.25,314.16,84.86a24.52,24.52,0,0,1,6.55-.67A21.37,21.37,0,0,1,329.07,86a10.77,10.77,0,0,1,6.14,7.6,18.31,18.31,0,0,1,.49,4.67c-.05,1.93,0,3.86,0,5.78,0,1.24-.11,1.36-1.35,1.36-3.66,0-7.33,0-11,0Zm-3.84-7.8c2.68,0,5.36,0,8,0,1.2,0,1.26-.42,1.15-1.36a3.37,3.37,0,0,0-.1-.34,5.29,5.29,0,0,0-3.79-3.7,13.22,13.22,0,0,0-7.32-.4,13.8,13.8,0,0,0-5.37,2.3A4.48,4.48,0,0,0,310,96c-.4,1.08-.07,1.54,1.09,1.54Z"></path><path class="cls-1" d="M223.63,118.65c-3.55,0-7.1-.07-10.65,0a5.38,5.38,0,0,1-5.15-3.09,13.94,13.94,0,0,1-1.52-4.56,15,15,0,0,1,1.31-9,8.78,8.78,0,0,1,2.49-3.11,4.64,4.64,0,0,1,3.07-1c3.71,0,7.41,0,11.12,0a4.11,4.11,0,0,0,3-1,2.55,2.55,0,0,0-1.73-4.39H209.52c-1.77,0-1.8,0-1.81-1.77s0-3.38,0-5.07c0-1.2.17-1.37,1.37-1.37,6,0,12,0,18,0a8.23,8.23,0,0,1,7.56,4.61,13.75,13.75,0,0,1,1.66,6.56c.06,7.36,0,14.72,0,22.08,0,1.13-.08,1.21-1.22,1.21Zm-2.11-13c-1.85,0-3.71,0-5.56,0a2.11,2.11,0,0,0-2.08,1.6,3.29,3.29,0,0,0,.23,2.3,2.07,2.07,0,0,0,1.95,1.28c3.75,0,7.49,0,11.23,0,.8,0,.93-.15,1-1s0-1.89,0-2.83c0-1.18-.17-1.34-1.4-1.34Z"></path><path class="cls-1" d="M121.65,118.64c-2.36,0-4.72,0-7.09,0a9.26,9.26,0,0,1-8.86-7.31,18.33,18.33,0,0,1-.54-4.55c0-4.17,0-8.34,0-12.51a10.13,10.13,0,0,1,2-6,9.53,9.53,0,0,1,6.28-3.83,17.19,17.19,0,0,1,3-.22c4.1,0,8.2,0,12.29,0a10.09,10.09,0,0,1,6,1.85,9.25,9.25,0,0,1,4.11,6.85c.09.93.17,1.87.17,2.81,0,3.26.07,6.53,0,9.79a25.9,25.9,0,0,1-.66,6.07,16.2,16.2,0,0,1-.62,1.9,7.7,7.7,0,0,1-6.53,4.94,37.09,37.09,0,0,1-4.23.28c-1.77,0-3.54,0-5.32,0ZM113.24,101c0,1.77,0,3.55,0,5.32a3.64,3.64,0,0,0,2.2,3.47,7.67,7.67,0,0,0,3.43.72c2,0,4,0,6,0a8,8,0,0,0,3.53-.83,3.68,3.68,0,0,0,2.3-3.31c0-3.5,0-7,0-10.5a2.67,2.67,0,0,0-.87-2,5.67,5.67,0,0,0-4.11-1.49c-2.72,0-5.44,0-8.16,0a6.13,6.13,0,0,0-2.51.56,2.77,2.77,0,0,0-1.84,2.75C113.26,97.48,113.24,99.25,113.24,101Z"></path><path class="cls-1" d="M80.17,84.16h1.38c3.35,0,6.7-.07,10,0a11,11,0,0,1,10,6.19,7.48,7.48,0,0,1,.82,3.64c0,5.83,0,11.65,0,17.48,0,2,0,4,0,6,0,1.1,0,1.15-1.11,1.16-1.94,0-3.87,0-5.8,0-1.12,0-1.2-.09-1.2-1.23,0-6.37,0-12.75,0-19.13a10.39,10.39,0,0,0-.18-1.75,4.24,4.24,0,0,0-2.37-3,8.64,8.64,0,0,0-3.49-1,17.25,17.25,0,0,0-5.41.22,6.35,6.35,0,0,0-1.41.58,2.22,2.22,0,0,0-1.25,2.11c0,1,0,1.89,0,2.84v18.65c0,.32,0,.63,0,1,0,.71-.13.82-.85.83q-3.19,0-6.39,0c-.77,0-.85-.12-.89-.91,0-.24,0-.47,0-.71V73c0-1.84,0-1.65,1.68-1.65s3.55,0,5.32,0c1.1,0,1.14,0,1.14,1.12,0,3.43,0,6.85,0,10.28Z"></path><path class="cls-1" d="M179.31,99.5v18c0,1.06,0,1.09-1.05,1.09q-3.72,0-7.45,0c-1,0-1.15-.17-1.19-1.16,0-.32,0-.63,0-1V81.84c0-.24,0-.47,0-.71,0-1.14-.07-1.21-1.2-1.21h-9.22c-1.63,0-1.64,0-1.64-1.65s0-3.54,0-5.31a7.61,7.61,0,0,1,0-.83c.07-.48.3-.8.85-.76.24,0,.48,0,.71,0H190c1.49,0,1.55,0,1.56,1.5,0,1.85,0,3.7,0,5.55,0,.16,0,.32,0,.47-.07.84-.25,1-1.1,1s-1.57,0-2.36,0H181c-1.61,0-1.68.07-1.68,1.65C179.3,87.54,179.31,93.52,179.31,99.5Z"></path><path class="cls-1" d="M259.74,118.63c-2,0-4,.06-5.91,0-6.06-.23-10.41-3.19-13.22-8.47a13.06,13.06,0,0,1-1.45-6.25c0-1.88,0-3.77,0-5.66a17.11,17.11,0,0,1,1.3-6.31,11.35,11.35,0,0,1,6.05-6,20,20,0,0,1,6.73-1.59c4.41-.34,8.82-.07,13.23-.16a2.89,2.89,0,0,1,.59,0,.74.74,0,0,1,.71.79c0,2.17,0,4.33,0,6.5,0,.63-.22.82-.85.89-.31,0-.63,0-.95,0H254.14a7,7,0,0,0-3.72,1,7,7,0,0,0-3.21,5,19,19,0,0,0,0,6.56c.58,3.27,2.48,5.07,5.49,5.45a28.22,28.22,0,0,0,3.05.2c3.47,0,6.94,0,10.41,0,.28,0,.55,0,.83,0,.61.06.74.18.79.8,0,.31,0,.63,0,.95,0,1.69,0,3.38,0,5.07,0,1.19-.06,1.25-1.29,1.25h-6.74Z"></path><path class="cls-1" d="M145.89,103.7V94a7.66,7.66,0,0,0,0-.83c0-.62-.16-.75-.78-.77-.95,0-1.9,0-2.84,0S141,92.17,141,91.17c0-1.92,0-3.85,0-5.78,0-1,.25-1.21,1.29-1.23.86,0,1.73,0,2.6,0s1-.13,1-1c0-2.28,0-4.56,0-6.85,0-.27,0-.55,0-.82,0-.62.17-.75.79-.78s1.18,0,1.77,0c1.5,0,3,0,4.49,0,1,0,1.05,0,1.05,1.09q0,3.3,0,6.61c0,.27,0,.55,0,.82.07.8.21,1,1,1,1.34,0,2.68,0,4,0a7.48,7.48,0,0,1,.82,0c.67.06.94.29.94,1,0,2.12,0,4.25,0,6.37,0,.71-.21.89-.95.9-1.45,0-2.91,0-4.37,0S154,92.43,154,94V108.7c0,.23,0,.47,0,.71,0,.92.2,1.11,1.11,1.13,1.3,0,2.6,0,3.9,0,.28,0,.55,0,.83,0,.81,0,1,.16,1,1,0,2,0,4.09,0,6.14,0,.82-.15,1-1,1-3,0-6.07,0-9.1,0a5.34,5.34,0,0,1-4.9-5.12C146,110.23,145.89,107,145.89,103.7Z"></path><path class="cls-1" d="M279.17,94.88v21.83c0,.27,0,.55,0,.82,0,1-.12,1.1-1.08,1.11-2,0-3.95,0-5.92,0-1,0-1.06-.11-1.09-1.09,0-.2,0-.39,0-.59q0-22,0-44c0-1.77,0-1.57,1.62-1.58h5c1.56,0,1.51-.13,1.51,1.57V94.88Z"></path><path class="cls-1" d="M338.56,105.08c0-3.89,0-7.78,0-11.68a9,9,0,0,1,1.73-5.51,8.56,8.56,0,0,1,6.92-3.69c2.83-.1,5.67,0,8.51,0a2.92,2.92,0,0,1,.59,0c.42.07.72.26.72.77,0,2.2,0,4.4,0,6.6,0,.67-.19.8-1,.81-1.81,0-3.62.07-5.43,0A2.71,2.71,0,0,0,347.82,94a3.67,3.67,0,0,0-.31,1.59c0,3.53,0,7.07,0,10.61v10.5c0,.28,0,.55,0,.83-.06.92-.21,1.1-1.14,1.1q-3.3,0-6.62,0c-1,0-1.16-.16-1.18-1.17,0-1.38,0-2.75,0-4.13Z"></path><path class="cls-1" d="M186.37,104.76c0-4.06,0-8.11,0-12.16a8.78,8.78,0,0,1,5.48-7.73,10,10,0,0,1,3.8-.7c2.49,0,5,0,7.46,0a7.48,7.48,0,0,1,.82,0c.6.06.87.3.88.9,0,2.12,0,4.25,0,6.37,0,.68-.32.92-1.1.93-1.65,0-3.31,0-5,0-2.53,0-3.61,1.1-3.61,3.68V117c0,1.68,0,1.68-1.69,1.69h-5.68c-1.38,0-1.41,0-1.41-1.37,0-4.17,0-8.34,0-12.51Z"></path><path class="cls-1" d="M302.54,84.38a5.77,5.77,0,0,1-.48.82c-1.29,1.48-2.61,2.94-3.9,4.42-2.05,2.33-4.09,4.68-6.14,7-.67.77-1.36,1.53-2,2.3s-.59.79-.06,1.51l7.92,10.73c1.58,2.15,3.18,4.29,4.76,6.45a9.33,9.33,0,0,1,.49.88,4.94,4.94,0,0,1-.75.14c-2.57,0-5.13,0-7.69,0a2.41,2.41,0,0,1-2.11-1.26c-.92-1.22-1.81-2.47-2.72-3.7q-4.14-5.61-8.25-11.21a7.79,7.79,0,0,1-.91-1.65c-.63-1.5,0-2.79.94-3.9,1.73-2.08,3.58-4.08,5.37-6.11l4.42-5.07c.26-.29.55-.56.8-.86a2,2,0,0,1,1.66-.74h7.46A9.89,9.89,0,0,1,302.54,84.38Z"></path><path class="cls-1" d="M361.74,81.8a4.91,4.91,0,0,1-5.36-5,4.66,4.66,0,0,1,3.15-4.78,5.41,5.41,0,0,1,6,1.1,5.16,5.16,0,0,1,1.16,5.33,5,5,0,0,1-4.57,3.32C362,81.81,361.81,81.8,361.74,81.8Zm-.1-.7a4.3,4.3,0,0,0,4.59-4.29,4.39,4.39,0,0,0-4.57-4.48,4.44,4.44,0,0,0-4.47,4.34A4.35,4.35,0,0,0,361.64,81.1Z"></path><path class="cls-1" d="M359.39,73.53c1.05,0,1.92,0,2.78,0A2,2,0,0,1,364,74.85,1.93,1.93,0,0,1,363.6,77c-.57.59-.55.62-.15,1.29.28.46.59.91.9,1.39-1.2.28-1.2.28-1.72-.51-.22-.33-.41-.67-.61-1a.91.91,0,0,0-.9-.44c-.32,0-.53.12-.54.47s0,.79,0,1.18-.29.5-.64.49-.54-.11-.54-.47Zm1.25,3c.32,0,.54.06.77.07a5.45,5.45,0,0,0,.7,0c.61-.06.8-.28.82-.91s-.19-.92-.74-1-1,0-1.55,0Z"></path></svg> 