<?xml version="1.0" encoding="UTF-8"?> <svg xmlns="http://www.w3.org/2000/svg" id="Layer_1" data-name="Layer 1" viewBox="0 0 400 190"><defs><style>.cls-1{fill:#016af1;}</style></defs><path class="cls-1" d="M240.58,113.53C232,104.39,223.77,95,215.38,85.58L231.85,92a14.49,14.49,0,0,0-.09-1.48,43.18,43.18,0,0,0-.91-4.24A48.41,48.41,0,0,0,229,81.37a28.26,28.26,0,0,0-3.64-6.06,31.45,31.45,0,0,0-8.6-7.73,32.23,32.23,0,0,0-8-3.52,24.08,24.08,0,0,0-5.58-1c-1.59-.06-3.18-.2-4.77-.15a29,29,0,0,0-5.78.85,32.07,32.07,0,0,0-10.37,4.55,30.21,30.21,0,0,0-4.88,4,31.85,31.85,0,0,0-6.7,9.94,28.39,28.39,0,0,0-2,6.75c-.15,1-.32,1.92-.38,2.88-.1,1.72-.21,3.44-.14,5.16a27.31,27.31,0,0,0,.59,4.29,32.18,32.18,0,0,0,18.63,23.08,43.34,43.34,0,0,0,4.7,1.6,23.21,23.21,0,0,0,6.78,1,48.07,48.07,0,0,0,5-.16,30.6,30.6,0,0,0,8.6-2.31,31.82,31.82,0,0,0,7.32-4.39c.26-.2.47-.4.21-.79q-3.66-5.39-7.3-10.78L206.87,100c-.46-.67-.9-1.35-1.37-2a2.79,2.79,0,0,0-.34-.35l-.17,0c-.19,2.54-.39,5.09-.59,7.74-.33-.59-.62-1.09-.89-1.6l-4.57-8.45c-.3-.55-.42-.55-.79,0L189,107.83l-1,1.38c-.22-.31-.4-.56-.55-.82q-2.37-3.86-4.72-7.72l-2.19-3.59c-.31-.52-.38-.54-.8-.12l-5.41,5.29-3.45,3.37c.18-.79.32-1.44.48-2.1s.37-1.19.47-1.8a6.62,6.62,0,0,1,1.29-2.48c1.85-2.85,3.72-5.68,5.59-8.52.61-.93,1.23-1.86,1.82-2.81a.55.55,0,0,1,.8-.24c2.35,1.07,4.7,2.14,7.06,3.19,1,.45.92.44,1.45-.43l7.82-12.76,2.1-3.43a2.64,2.64,0,0,1,.2-.22,5.81,5.81,0,0,1,.43.43q3.93,4.55,7.84,9.1c2.42,2.8,4.86,5.59,7.28,8.39l7.34,8.53q5.58,6.47,11.18,12.91c1.22,1.42,2.43,2.84,3.66,4.25a.65.65,0,0,1,.06.82,26.28,26.28,0,0,1-3.38,5,41.72,41.72,0,0,1-8,7.55,46,46,0,0,1-8.19,4.72,41.79,41.79,0,0,1-7.66,2.64c-1.75.41-3.53.69-5.3,1a10.38,10.38,0,0,1-1.24.11c-2,.07-4,.24-6.06.16a40.19,40.19,0,0,1-5.68-.67,44.17,44.17,0,0,1-8.7-2.52,46.07,46.07,0,0,1-11-6.35A43.57,43.57,0,0,1,165,122.6a44,44,0,0,1-7.37-13.81,37.5,37.5,0,0,1-1.56-6.35c-.22-1.6-.42-3.21-.54-4.82-.11-1.38-.12-2.78-.1-4.16a31.53,31.53,0,0,1,.23-3.77,46.71,46.71,0,0,1,1.65-7.84,45.43,45.43,0,0,1,5.21-11.19,44.33,44.33,0,0,1,7.18-8.57,45,45,0,0,1,8.87-6.39,43.87,43.87,0,0,1,7.58-3.29,40,40,0,0,1,4.42-1.18,45.21,45.21,0,0,1,5.65-.91,61.09,61.09,0,0,1,6.35-.06,36.31,36.31,0,0,1,4.42.41c1.41.22,2.81.55,4.2.89a42,42,0,0,1,9,3.41,44.57,44.57,0,0,1,12,8.88,43.71,43.71,0,0,1,7,9.52,43,43,0,0,1,3.68,8.81c.5,1.76.83,3.57,1.2,5.36a34.15,34.15,0,0,1,.63,7.75,52,52,0,0,1-.5,6.23,38.84,38.84,0,0,1-2.16,8.35c-.4,1-.8,2-1.21,3.07A5.5,5.5,0,0,1,240.58,113.53Z"></path><path class="cls-1" d="M188.62,152.76c-1.5-.37-2.89-.64-4.24-1-1.91-.57-3.82-1.16-5.66-1.9a67.1,67.1,0,0,1-6.35-2.88c-1.93-1-3.77-2.2-5.6-3.39a51.27,51.27,0,0,1-6.84-5.45,59.32,59.32,0,0,1-9.52-11.39,54.78,54.78,0,0,1-4.71-9c-.84-2.07-1.55-4.21-2.22-6.35-.49-1.59-.88-3.23-1.24-4.86-.25-1.13-.39-2.29-.54-3.44a1.85,1.85,0,0,0-1-1.6c-2.45-1.28-4.87-2.65-7.3-4L128.79,95c-.08,0-.16-.1-.36-.23l22-10c-.18,1.08-.37,2.1-.5,3.13-.15,1.3-.3,2.6-.37,3.9-.08,1.71-.15,3.42-.08,5.12a47.52,47.52,0,0,0,.51,5.47,59.28,59.28,0,0,0,1.33,6.16,48.45,48.45,0,0,0,5.1,12,50.89,50.89,0,0,0,7.29,9.56,52,52,0,0,0,7.42,6.32,46.43,46.43,0,0,0,8.07,4.55c1.49.65,3,1.18,4.53,1.81a1.27,1.27,0,0,1,.59.62c1.19,2.58,2.34,5.17,3.51,7.76C188.1,151.65,188.33,152.14,188.62,152.76Z"></path><path class="cls-1" d="M142.17,83.34c.53-2,1-4,1.62-5.88a55.52,55.52,0,0,1,2.11-5.74c1-2.25,2.13-4.46,3.32-6.62a49.6,49.6,0,0,1,5.38-7.72,58.5,58.5,0,0,1,6.29-6.5,59.64,59.64,0,0,1,6.82-5.24,59,59,0,0,1,9.48-5,58.14,58.14,0,0,1,8.8-2.91c1.4-.34,2.83-.58,4.26-.85.78-.14,1.57-.23,2.35-.39a.8.8,0,0,0,.51-.34c1.89-3.42,3.76-6.85,5.64-10.27.33-.61.65-1.21,1-1.81.1-.17.23-.33.34-.49l.17,0,9.9,21.88c-.81-.14-1.55-.31-2.31-.39-1.5-.18-3-.35-4.51-.45s-3.18-.2-4.77-.15a40.77,40.77,0,0,0-5.18.4c-2.18.34-4.35.78-6.49,1.32a46.18,46.18,0,0,0-7.11,2.51,49.79,49.79,0,0,0-8.87,5,50.56,50.56,0,0,0-8.81,7.92,50,50,0,0,0-4.81,6.42,47.58,47.58,0,0,0-4.73,9.7c-.1.28-.22.56-.31.85a1.2,1.2,0,0,1-.7.78c-2.64,1.17-5.26,2.38-7.88,3.57l-1.36.58Z"></path><path class="cls-1" d="M257.84,106.49c-.42,1.66-.78,3.34-1.28,5-.58,1.87-1.22,3.73-1.93,5.55a54.22,54.22,0,0,1-3.58,7.35,59.1,59.1,0,0,1-21.94,21.79,58.33,58.33,0,0,1-8.44,3.94,49.52,49.52,0,0,1-6.94,2.1c-1.89.39-3.78.72-5.68,1.05a1.8,1.8,0,0,0-1.44,1c-1.21,2.33-2.53,4.61-3.8,6.92-.88,1.59-1.74,3.19-2.61,4.78a5.73,5.73,0,0,1-.36.52l-10-22.06L193,145c.46.08.92.11,1.38.17a39.66,39.66,0,0,0,7.06.28,60.11,60.11,0,0,0,6.13-.53,47.94,47.94,0,0,0,10-2.61,50.85,50.85,0,0,0,11.82-6.3,50.27,50.27,0,0,0,13.71-14.78,53.12,53.12,0,0,0,4-8c.26-.65.45-1.33.73-2a1.43,1.43,0,0,1,.6-.66c2-.92,3.94-1.81,5.92-2.7,1.1-.5,2.2-1,3.31-1.47Z"></path><path class="cls-1" d="M271.57,95.09l-22,9.93c.17-1.11.33-2.11.47-3.11a23.92,23.92,0,0,0,.32-2.51c.1-2.37.24-4.75.17-7.12a38,38,0,0,0-.66-5.73,54,54,0,0,0-1.52-6.3c-.68-2.19-1.54-4.32-2.42-6.44a42.55,42.55,0,0,0-4-7.13,49.6,49.6,0,0,0-6.67-8,50.33,50.33,0,0,0-10.06-7.59,52.89,52.89,0,0,0-9-4.07,1,1,0,0,1-.47-.48c-.79-1.71-1.56-3.43-2.34-5.14-.54-1.21-1.1-2.41-1.65-3.61-.08-.18-.14-.38-.25-.68.94.21,1.78.36,2.6.58,1.54.42,3.09.79,4.58,1.34,2.32.86,4.62,1.77,6.86,2.79a51,51,0,0,1,8.61,5.06,61.67,61.67,0,0,1,6.56,5.42A58.38,58.38,0,0,1,249,62.21a49.72,49.72,0,0,1,4.57,8.23c.94,2.21,1.87,4.44,2.61,6.73.67,2.1,1.12,4.28,1.6,6.44.28,1.25.43,2.54.67,3.8a1,1,0,0,0,.39.59c2.25,1.26,4.52,2.5,6.78,3.75l5.75,3.15S271.46,95,271.57,95.09Z"></path><path class="cls-1" d="M229.62,154.09l-.56.28c-.57.29-1,.5-1.67-.09-.81-.76-2.51-.1-2.94,1a2.61,2.61,0,0,0,.1,2.09,12.2,12.2,0,0,0,1.28,2.49c1.18,1.6,2.8,1.12,3.94,0a.59.59,0,0,0,.12-.74c-.17-.34-.32-.7-.46-1s-.25-.33-.51-.21c-.44.21-.9.4-1.37.61a7,7,0,0,1-.39-.88.47.47,0,0,1,.17-.41c1-.48,2-.93,3-1.41.21.44.41.85.6,1.26s.46,1.06.74,1.56a1.26,1.26,0,0,1-.14,1.5,6,6,0,0,1-2.68,2,3.91,3.91,0,0,1-5-1.7,7.56,7.56,0,0,1-1.35-4A3.46,3.46,0,0,1,224.8,153a5,5,0,0,1,2-.56,2.8,2.8,0,0,1,2.17,1Z"></path><path class="cls-1" d="M249.4,146.88c-.07.34-.13.61-.2.88a2.44,2.44,0,0,1-2.54,1.74,5.25,5.25,0,0,1-3.84-3.35,2.5,2.5,0,0,1,2.18-3.4c.06,0,.11,0,.3-.12L242.8,140c.39-.36.75-.72,1.14-1,.07,0,.33,0,.43.15q2.56,2.67,5.11,5.36l1.71,1.81a6.23,6.23,0,0,0-.81.69C250.05,147.3,249.76,147.08,249.4,146.88Zm-5-1.84a3.67,3.67,0,0,0,2.55,2.8,1.39,1.39,0,0,0,1.39-.8,1,1,0,0,0-.21-1.46c-.46-.51-.93-1-1.4-1.5a1.12,1.12,0,0,0-1.36-.38A1.46,1.46,0,0,0,244.38,145Z"></path><path class="cls-1" d="M254.83,137.2l-2.44,3c-.09.11-.18.23-.26.35s-.08.34.13.45a1.66,1.66,0,0,0,1.84-.15,2.12,2.12,0,0,0,1-1.82c0-.53.33-.45.64-.45s.64-.08.65.44a3.92,3.92,0,0,1-2.33,3.55,3.12,3.12,0,0,1-3.12-.34,3.92,3.92,0,0,1-2.07-3.48,3.35,3.35,0,0,1,2.5-3A3.58,3.58,0,0,1,254.83,137.2Zm-3.71,2.71c.53-.63,1.07-1.27,1.57-1.94a.53.53,0,0,0-.11-.5,1.3,1.3,0,0,0-2,.39A1.47,1.47,0,0,0,251.12,139.91Z"></path><path class="cls-1" d="M264,121.66c-.26-.24-.52-.48-.79-.7-.81-.67-1.63-1.34-2.45-2a.45.45,0,0,1-.19-.61c.19-.43.36-.87.58-1.4l1.63,1.47c1.76,1.59,3.55,3.16,5.28,4.78a2.07,2.07,0,0,1,.4,2.59c-.19.39-.42.48-.79.3l-.65-.31c0-.17.05-.32.09-.45a1.34,1.34,0,0,0-1.19-1.74c-1-.12-2-.19-3-.25-1.29-.08-2.58-.13-3.86-.2l-.45-.07c.23-.56.43-1.07.67-1.56,0-.08.22-.12.33-.11l4,.42a1.82,1.82,0,0,0,.32,0Z"></path><path class="cls-1" d="M235.14,150.24l1.44-1c.41.63.8,1.25,1.2,1.86l2.39,3.69c.21.32.26.57-.15.77a10.13,10.13,0,0,0-.89.55l-.5-.35a7.75,7.75,0,0,1-.83,1.27c-1.1,1.13-2.6,1.29-3.62-.18-.9-1.3-1.73-2.64-2.59-4a2.69,2.69,0,0,1-.14-.32l1.42-1c.41.64.81,1.25,1.2,1.87s.89,1.4,1.35,2.08.78.75,1.24.61a1.85,1.85,0,0,0,1.24-1.39,1.4,1.4,0,0,0-.24-.61c-.73-1.15-1.47-2.28-2.2-3.42C235.36,150.64,235.27,150.47,235.14,150.24Z"></path><path class="cls-1" d="M256.87,136c.25-.4.46-.77.72-1.11a.54.54,0,0,1,.45-.15,1.61,1.61,0,0,0,1.68-1.54,1,1,0,0,0-.39-.73.86.86,0,0,0-.78,0c-.57.4-1.07.9-1.61,1.33a2.23,2.23,0,0,1-2,.58,1.64,1.64,0,0,1-1.27-1.28A3.5,3.5,0,0,1,256.4,129a4.68,4.68,0,0,1,1.24.17c-.33.51-.56.91-.83,1.28a.56.56,0,0,1-.44.16,1.33,1.33,0,0,0-1.42,1.29,1,1,0,0,0,.37.75,1,1,0,0,0,.79,0,3.41,3.41,0,0,0,.75-.59,15.27,15.27,0,0,1,1.32-1.09,1.8,1.8,0,0,1,2.73.77,2.4,2.4,0,0,1-.07,2,3.5,3.5,0,0,1-2.39,2.35A2,2,0,0,1,256.87,136Z"></path><path class="cls-1" d="M264.05,128c-.23.49-.41.92-.64,1.31a.51.51,0,0,1-.47.08c-1.25-.63-2.49-1.29-3.74-1.93l-4.57-2.4c-.14-.07-.27-.16-.43-.26l.79-1.55Z"></path><path class="cls-1" d="M239.91,146.79l4.38,5.57-1.39,1.09-1.7-2.16-2.36-3c-.36-.46-.36-.5.12-.85l.76-.58S239.78,146.83,239.91,146.79Z"></path><path class="cls-1" d="M238,144.76a.89.89,0,0,1,.92.83,1.12,1.12,0,0,1-1,1,.82.82,0,0,1-.89-.89A1,1,0,0,1,238,144.76Z"></path></svg> 