<?xml version="1.0" encoding="UTF-8"?> <svg xmlns="http://www.w3.org/2000/svg" id="Layer_1" data-name="Layer 1" viewBox="0 0 400 190"><defs><style>.cls-1,.cls-2{fill:#016af1;}.cls-2{opacity:0.6;}.cls-3{fill:#868686;}</style></defs><path class="cls-1" d="M50.34,114.1c-2.74,0-5.53,0-8.33,0,0-.27,0-.53,0-.74q0-10,0-20c0-.22,0-.43,0-.65h.34l21.47,0a3.1,3.1,0,0,0,.43,0,1.76,1.76,0,0,0,1.4-.82,8.43,8.43,0,0,0,.45-1.18,10.66,10.66,0,0,0,.22-3.38,6.26,6.26,0,0,0-.57-2.52,1.75,1.75,0,0,0-1.33-1,4.16,4.16,0,0,0-.69-.12c-1.45,0-2.9.1-4.35.11-3.4,0-6.81,0-10.22,0l-.69,0C50.27,81,52.28,78,54.11,75.18c.24,0,.48,0,.72,0,3.23,0,6.46,0,9.7,0a12.31,12.31,0,0,1,4,.65,9.68,9.68,0,0,1,4.93,4.12,13.83,13.83,0,0,1,2.14,5.36,15.13,15.13,0,0,1-1.53,10,14,14,0,0,1-2.7,3.48c-.16.15-.35.27-.52.41l-.21.15h0l-.12.12h0a6.62,6.62,0,0,1-.63.45,9.54,9.54,0,0,1-4.67,1.35c-4.47,0-8.94,0-13.41,0-.26,0-.51,0-.86,0V114.1Z"></path><path class="cls-2" d="M72.91,100.86C75,98.94,77,97,79.08,95.06L83,91.42l5.09-4.83L90.77,84a4.35,4.35,0,0,1,.55-.36c-.34.71-.65,1.43-1,2.13Q87,92.18,83.75,98.56l-3.36,6.59q-1.74,3.43-3.49,6.87c-.36.71-.71,1.44-1.08,2.17H67.9c-2.72-4.25-5.56-8.66-8.3-13h5.55a9.54,9.54,0,0,0,4.67-1.35,5.62,5.62,0,0,0,.65-.43c.14.26.25.5.41.75.31.48.64,1,1,1.49"></path><path class="cls-1" d="M71.89,101.69C73.23,99,75,95.66,76.38,93q3.53-7,7.06-14c.65-1.28,1.29-2.57,1.94-3.87h14.71c-.19.21-.3.35-.43.47L93.5,81.48c-.71.67-1.39,1.35-2.09,2l-.64.49-2.72,2.59L83,91.42l-3.88,3.64c-2,1.94-4.11,3.88-6.17,5.8Z"></path><path class="cls-2" d="M59.89,83.74a4.5,4.5,0,0,0,.28.5l2.67,4c.76,1.12,1.5,2.25,2.25,3.37l.4.55a1.81,1.81,0,0,1-1.31.59,3,3,0,0,1-.42,0H54.14l-.06-.11c-.18-.3-.29-.5-.41-.69l-3.61-5.68-1.39-2.21c-.07-.1-.13-.2-.21-.33l.64,0c3.4,0,6.81,0,10.22,0Z"></path><path class="cls-3" d="M91.32,83.64l.09-.13Z"></path><path class="cls-1" d="M110.91,75h17.6c3.18,0,4.62,1.19,4.62,4.23v4.87c0,3-1.44,4.24-4.62,4.24h-14v8.5h-3.64Zm3.64,2.84v7.62h12.53c1.6,0,2.37-.43,2.37-2.29V80.13c0-1.82-.72-2.28-2.37-2.28Z"></path><path class="cls-1" d="M140.45,96.85V79h3.39v17.9Z"></path><path class="cls-1" d="M160.68,96.85h-3.39V81.57h-8.46V78.91h20.36v2.66h-8.51Z"></path><path class="cls-1" d="M177.23,81.57V94.14h12.53V89.87l3.38.63v2.12c0,3.3-1,4.23-4.4,4.23H178.2c-3.47,0-4.36-.93-4.36-4.23V83.18c0-3.3.93-4.27,4.36-4.27h10.54c3.35,0,4.4.93,4.4,4.27v1.69l-3.38.55V81.57Z"></path><path class="cls-1" d="M200.34,79h3.39v7.19H218V79h3.39v17.9H218v-8h-14.3v8h-3.39Z"></path><path class="cls-1" d="M227,75h3.94l9.65,18.2L249.78,75h3.59L241.94,96.85h-3Z"></path><path class="cls-1" d="M258,96.85V79h3.38v17.9Z"></path><path class="cls-1" d="M272.84,81.57v4.66h11.51c3.43,0,4.36,1,4.36,4.23v2.16c0,3.3-1,4.23-4.36,4.23H273.43c-3.42,0-4.4-.93-4.4-4.23v-.51l3.09-.63v2.66h13.55v-5H274.11c-3.38,0-4.36-.93-4.36-4.24V83.18c0-3.34,1-4.27,4.36-4.27h10c3.13,0,4.4.84,4.4,3.93v.43l-3.09.67V81.57Z"></path><path class="cls-1" d="M296.46,96.85V79h3.38v17.9Z"></path><path class="cls-1" d="M312,78.91h13c3.42,0,4.4,1,4.4,4.27v9.44c0,3.3-1,4.23-4.4,4.23H312c-3.42,0-4.4-.89-4.4-4.23V83.18C307.63,79.92,308.61,78.91,312,78.91Zm14,15.23V81.57H311V94.14Z"></path><path class="cls-1" d="M340.39,85.72V96.85h-3.13V78.91h2.58L353,90.63a11.8,11.8,0,0,1,2.15,2.46,18.43,18.43,0,0,1-.29-3.35V78.91H358V96.85h-2.33L342.25,85a10.71,10.71,0,0,1-2.11-2.46A20.55,20.55,0,0,1,340.39,85.72Z"></path><path class="cls-1" d="M129.18,105.75v3h6.73c2,0,2.49.6,2.49,2.53v1.2c0,2-.56,2.53-2.49,2.53h-6.23c-1.93,0-2.51-.56-2.51-2.53v-.29l1.66-.39v1.72h7.95v-3.21h-6.71c-1.9,0-2.48-.54-2.48-2.53v-.93c0-2,.58-2.53,2.48-2.53h5.7c1.78,0,2.5.5,2.5,2.34v.23l-1.53.43v-1.55Z"></path><path class="cls-1" d="M143.06,106.21h7.41c1.35,0,1.93.47,1.93,1.7v2c0,1.22-.6,1.68-1.93,1.68h-5.76V115h-1.65Zm1.65,1.28v2.78h5c.67,0,1-.17,1-.83v-1.12c0-.68-.33-.83-1-.83Z"></path><path class="cls-1" d="M157.55,106.21h6.34c1.68,0,2.15.49,2.15,2.09v4.62c0,1.61-.49,2.07-2.15,2.07h-6.34c-1.67,0-2.15-.44-2.15-2.07V108.3C155.4,106.7,155.88,106.21,157.55,106.21Zm6.84,7.45v-6.15h-7.33v6.15Z"></path><path class="cls-1" d="M169.9,106.21H177c1.28,0,1.84.47,1.84,1.7v2c0,1.2-.56,1.68-1.84,1.68H175.8l3.87,3.44h-2.21l-3.5-3.44h-2.41V115H169.9Zm1.65,1.28v2.84h4.68c.73,0,.94-.19.94-.89v-1.06c0-.72-.32-.89-.94-.89Z"></path><path class="cls-1" d="M186.82,115h-1.66v-7.48H181v-1.3h10v1.3h-4.16Z"></path><path class="cls-1" d="M195.06,107.51v2.28h5.63c1.68,0,2.14.5,2.14,2.07v1.06c0,1.61-.48,2.07-2.14,2.07h-5.34c-1.68,0-2.15-.46-2.15-2.07v-.25l1.51-.31v1.3h6.62V111.2h-5.65c-1.66,0-2.13-.46-2.13-2.07v-.83c0-1.64.49-2.09,2.13-2.09h4.89c1.53,0,2.15.41,2.15,1.92v.21l-1.51.33v-1.16Z"></path><path class="cls-1" d="M219.29,115h-1.78v-9.24h-4.89V104.3H224.2v1.45h-4.91Z"></path><path class="cls-1" d="M226.06,106.21h8.84v1.3h-7.18v2.26h4.33v1.3h-4.33v2.63H235V115h-8.93Z"></path><path class="cls-1" d="M239.54,107.51v6.15h6.13v-2.09l1.66.31v1c0,1.61-.5,2.07-2.15,2.07H240c-1.7,0-2.13-.46-2.13-2.07V108.3c0-1.62.45-2.09,2.13-2.09h5.16c1.63,0,2.15.45,2.15,2.09v.83l-1.66.27v-1.89Z"></path><path class="cls-1" d="M250.85,106.23h1.66v3.52h7v-3.52h1.66V115h-1.66v-3.92h-7V115h-1.66Z"></path><path class="cls-1" d="M266.76,109.54V115h-1.54v-8.78h1.27l6.44,5.73a6.33,6.33,0,0,1,1.05,1.2,9,9,0,0,1-.14-1.63v-5.3h1.53V115h-1.14l-6.56-5.82a5.23,5.23,0,0,1-1-1.2A9.24,9.24,0,0,1,266.76,109.54Z"></path><path class="cls-1" d="M281.38,106.21h6.34c1.67,0,2.15.49,2.15,2.09v4.62c0,1.61-.5,2.07-2.15,2.07h-6.34c-1.68,0-2.16-.44-2.16-2.07V108.3C279.22,106.7,279.7,106.21,281.38,106.21Zm6.83,7.45v-6.15h-7.33v6.15Z"></path><path class="cls-1" d="M293.72,106.21h1.66v7.45h6.83V115h-8.49Z"></path><path class="cls-1" d="M306.75,106.21h6.34c1.67,0,2.15.49,2.15,2.09v4.62c0,1.61-.5,2.07-2.15,2.07h-6.34c-1.68,0-2.16-.44-2.16-2.07V108.3C304.59,106.7,305.07,106.21,306.75,106.21Zm6.83,7.45v-6.15h-7.33v6.15Z"></path><path class="cls-1" d="M320.54,107.51v6.15h6.94v-2.38H323.9v-1.2h5.24v2.84c0,1.61-.5,2.07-2.16,2.07H321c-1.68,0-2.16-.46-2.16-2.07V108.3c0-1.62.5-2.09,2.16-2.09H327c1.55,0,2.16.43,2.16,2v.25l-1.66.29v-1.2Z"></path><path class="cls-1" d="M335.78,111.16l-4.57-5h2l3.5,3.81,3.33-3.81H342l-4.56,5V115h-1.66Z"></path></svg> 