<?xml version="1.0" encoding="UTF-8"?> <svg xmlns="http://www.w3.org/2000/svg" id="Layer_1" data-name="Layer 1" viewBox="0 0 400 190"><defs><style>.cls-1{fill:#016af1;}</style></defs><path class="cls-1" d="M68.05,111.51,39.61,94.86V78.59L68,61.78l28.53,17V90.57l-7.25-4.11V83L68.1,70.41,47,83v7.29l21.06,12.57,3.33-1.63L50.75,88.85l17.3-10.29L96.6,95.48v15.77l-28.41,17-28.61-17V99.63L47,104v3.36l21.22,12.19,21.07-12.15v-8l-21-12.5-3.56,2,20.84,12.54Z"></path><path class="cls-1" d="M342.73,102.74H335.1c-.43,1.29-.87,2.58-1.32,3.89h-6.42c2.85-8,5.64-15.83,8.45-23.7h6.43c2.73,7.83,5.48,15.68,8.27,23.69h-6.43C343.64,105.36,343.19,104.08,342.73,102.74Zm-1.54-5.3c-.72-2.4-1.37-4.59-2-6.78h-.36c-.69,2.2-1.38,4.41-2.13,6.79Z"></path><path class="cls-1" d="M251.28,106.67V83.19c.18-.11.33-.27.47-.27,3.41,0,6.82-.06,10.22.12,2.59.14,4.74,1.28,5.52,4s.39,5.26-2.13,7.15a16.68,16.68,0,0,1,1.94,2.13,6.63,6.63,0,0,1-4.19,10,10.27,10.27,0,0,1-2.05.31C257.88,106.69,254.71,106.67,251.28,106.67Zm4.16-10.31v6.46c2.21,0,4.33.14,6.42,0,1.41-.14,2.22-1.55,2.2-3.09a2.77,2.77,0,0,0-2.33-3C259.69,96.45,257.63,96.46,255.44,96.36Zm0-9.75v6a52,52,0,0,0,5.6,0,2.71,2.71,0,0,0,2.57-3.1,2.82,2.82,0,0,0-2.85-2.88C259.06,86.53,257.33,86.61,255.46,86.61Z"></path><path class="cls-1" d="M197.61,106.62c-.79-1.6-1.59-3.2-2.38-4.79l-2.32-4.69h-4.22v9.42h-4.1V83c.79,0,1.58-.11,2.37-.11,2.14,0,4.28-.09,6.42,0a12.84,12.84,0,0,1,4.05.74,6.37,6.37,0,0,1,4.18,6,6.53,6.53,0,0,1-3.29,6.25l-1.13.71c1.7,3.3,3.37,6.55,5.13,10Zm-8.89-20v6.67c1.81,0,3.53.08,5.23,0,2.26-.13,3.5-1.33,3.54-3.22s-1.31-3.29-3.57-3.41C192.26,86.55,190.59,86.62,188.72,86.62Z"></path><path class="cls-1" d="M159.94,94.73a48.25,48.25,0,0,1,.56-5.65c.89-4.25,4.33-6.73,8.89-6.6s7.87,2.66,8.4,6.94a42.64,42.64,0,0,1,.13,10c-.6,5.32-4.17,7.94-9.65,7.65-4.64-.24-7.79-3.52-8.11-8.49-.09-1.26,0-2.54,0-3.8Zm4.25.1a46.23,46.23,0,0,0,.45,4.9,4.18,4.18,0,0,0,4.61,3.55c2.4,0,4.21-1.37,4.39-3.79a61.43,61.43,0,0,0,0-9.3,4.19,4.19,0,0,0-4.48-3.93,4.31,4.31,0,0,0-4.59,3.83C164.32,91.61,164.32,93.18,164.19,94.83Z"></path><path class="cls-1" d="M291.82,94.65c-.11,1.8-.09,3.31-.32,4.78-.79,5-3.91,7.64-8.87,7.63s-8.22-2.63-8.76-7.52A41.54,41.54,0,0,1,274,89.39c.62-4.47,4.11-7,8.76-6.91s7.88,2.67,8.63,7.14C291.69,91.37,291.7,93.16,291.82,94.65Zm-14.11.18a49,49,0,0,0,.45,4.9,4.18,4.18,0,0,0,4.61,3.55c2.4,0,4.21-1.37,4.4-3.78a61.56,61.56,0,0,0,0-9.31,4.18,4.18,0,0,0-4.47-3.93,4.31,4.31,0,0,0-4.6,3.83C277.84,91.61,277.84,93.18,277.71,94.83Z"></path><path class="cls-1" d="M129.22,88.24c-2.24-1.3-4.19-2.15-6.43-2a3.3,3.3,0,0,0-3.18,2.24,2.54,2.54,0,0,0,1.51,3.28,26.36,26.36,0,0,0,3.67,1c.89.21,1.82.32,2.7.59,2.57.83,4.29,2.43,4.61,5.25s-.52,5.37-3.08,7c-4,2.56-11.33,1.59-14.75-2l2.43-2.87c.9.53,1.68,1,2.47,1.46a8.77,8.77,0,0,0,5.7,1A3.26,3.26,0,0,0,128,100a2.56,2.56,0,0,0-2-2.73c-1.38-.39-2.81-.61-4.22-.93a17.05,17.05,0,0,1-2.33-.63,5.83,5.83,0,0,1-4.13-5.06,6.71,6.71,0,0,1,3.07-6.87c3.4-2.16,9.62-1.49,12.77,1.48Z"></path><path class="cls-1" d="M227.48,103.53l2.4-2.83,1.48.92a9.12,9.12,0,0,0,6.24,1.59,7,7,0,0,0,2.11-.7,2.7,2.7,0,0,0,1.41-2.75,2.38,2.38,0,0,0-1.69-2.38c-1.66-.47-3.37-.75-5.06-1.11-4.8-1-7.05-4.74-5.53-9.11a6.15,6.15,0,0,1,3.71-3.87c4.18-1.6,8-.7,11.86,1.71l-1.93,3.17c-.59-.28-1.09-.51-1.58-.76a8.73,8.73,0,0,0-5.34-1.07,3,3,0,0,0-2.86,2.77c-.12,1.5.55,2.46,2.3,3,1,.33,2.14.45,3.21.69.9.19,1.81.36,2.69.64a5.81,5.81,0,0,1,4.31,4.72,6.91,6.91,0,0,1-2.23,6.89C239.18,108.27,230.82,107.49,227.48,103.53Z"></path><path class="cls-1" d="M138.14,82.7c3.94.16,7.76,0,11.49.55,3.57.48,5.82,3.92,5.53,7.48a7.13,7.13,0,0,1-7.07,6.92c-1.89.1-3.79,0-5.94,0v8.9h-4Zm4.16,3.93v7.24c1.81,0,3.48.07,5.14,0A3.52,3.52,0,0,0,151,90.38a3.63,3.63,0,0,0-3.53-3.73C145.83,86.55,144.15,86.63,142.3,86.63Z"></path><path class="cls-1" d="M309.74,82.93h4.63l-6.82,11.44c2.37,4,4.76,7.95,7.28,12.18h-4.65l-5-8.28-5.05,8.32h-4.6l7.29-12.22-6.71-11.28a14.48,14.48,0,0,1,4.49-.18c1.46,2.4,2.92,4.8,4.57,7.53Z"></path><path class="cls-1" d="M223.59,83v3.58H217v20h-4.18v-20h-6.72V83Z"></path><path class="cls-1" d="M360.42,106.64h-5.85V83h5.85Z"></path></svg> 