<?xml version="1.0" encoding="UTF-8"?> <svg xmlns="http://www.w3.org/2000/svg" id="Layer_1" data-name="Layer 1" viewBox="0 0 400 190"><defs><style>.cls-1,.cls-2{fill:#016af1;}.cls-1{fill-rule:evenodd;}</style></defs><path id="Fanaply" class="cls-1" d="M199.53,76.17H200a6.21,6.21,0,0,1,4,1.32A11.65,11.65,0,0,1,207,82h0l10.59,22.82c.3.56.57.86.93.86s.69-.07.69-.76h0V76.43h6.37v28.84a7.65,7.65,0,0,1-1.78,5.4,6.39,6.39,0,0,1-4.92,1.92,6.53,6.53,0,0,1-4.11-1.31,11.4,11.4,0,0,1-3.06-4.44h0L201.13,84c-.28-.6-.54-.91-.94-.91s-.68.12-.68.75h0v28.5h-6.33V83.53a7.5,7.5,0,0,1,1.82-5.4,6.46,6.46,0,0,1,5-2Zm111.27.26v28.63c0,.77.36,1.1,1.11,1.1H327.4v6.18H310a5.32,5.32,0,0,1-5.74-5.74h0V76.43Zm-24.9,0a13.42,13.42,0,0,1,9.54,3.5,12,12,0,0,1,3.76,9.16,12.4,12.4,0,0,1-3.76,9.3,13.23,13.23,0,0,1-9.52,3.6h-8.19v10.35h-6.51V81.82a5.35,5.35,0,0,1,1.5-3.89,5.28,5.28,0,0,1,3.91-1.5h9.27ZM248,76.2a6.05,6.05,0,0,1,3.71,1A7.43,7.43,0,0,1,254,80.56h0l12.22,31.78h-6.91L255.83,103H240.52l-3.4,9.32h-6.76l12.13-31.77a8.18,8.18,0,0,1,2.1-3.32A5.33,5.33,0,0,1,248,76.2Zm-78.57,0h.41a6,6,0,0,1,3.68,1,7.35,7.35,0,0,1,2.25,3.32h0L188,112.34h-6.92L177.63,103h-15.3l-3.4,9.32h-6.76l12.17-31.77a8,8,0,0,1,2.11-3.32,5.16,5.16,0,0,1,3.43-1Zm-36.16.23h18.15v6.24H135.59c-.77,0-1.09.33-1.09,1.13h0v8.6h17v6.19h-17v13.75H128V82.17a5.28,5.28,0,0,1,5.71-5.74Zm198.14-.11,8,16.81a.49.49,0,0,0,.88,0h0l8-16.81h7.51l-12.57,24.35v11.57h-6.76V100.69L323.94,76.31Zm-83.13,6.87c-.17-.37-.4-.39-.59,0h0l-4.95,13.6h10.66Zm-78.15,0c-.18-.37-.41-.39-.6,0h0l-4.95,13.6h10.63Zm116.17-.47H278.8A1,1,0,0,0,278,83a1.09,1.09,0,0,0-.3.75h0v12h8.64a6.48,6.48,0,0,0,4.36-1.88,6.62,6.62,0,0,0,1.85-4.82,6.15,6.15,0,0,0-1.87-4.59,6.69,6.69,0,0,0-4.79-1.79Z"></path><g id="Atoms-_-Logo-_-Icon" data-name="Atoms-/-Logo-/-Icon"><path class="cls-2" d="M44.26,94.62a.72.72,0,0,0,.07-.25A7.56,7.56,0,0,1,44.92,92,6.5,6.5,0,0,1,46,90.16a11,11,0,0,1,1.21-1.25,7.72,7.72,0,0,1,3.27-1.64,8.32,8.32,0,0,1,2.9-.15,10.6,10.6,0,0,1,1.49.29,7.75,7.75,0,0,1,2.82,1.46c.43.34.83.7,1.23,1.07a8.22,8.22,0,0,0,3,1.84,6,6,0,0,0,4.45-.2,9.09,9.09,0,0,0,2.48-1.67,14.37,14.37,0,0,1,2-1.59,8.22,8.22,0,0,1,2.9-1.12,8.51,8.51,0,0,1,1.89-.13,8,8,0,0,1,5.82,2.81,7.83,7.83,0,0,1,1.81,3.79,7.66,7.66,0,0,1,.14,1.85,8.13,8.13,0,0,1-2.75,5.86,7.57,7.57,0,0,1-2.43,1.47,6.88,6.88,0,0,1-2.1.47,10.28,10.28,0,0,1-1.1.06,8.78,8.78,0,0,1-3.23-.76,10.59,10.59,0,0,1-2.72-1.93A9,9,0,0,0,66.83,99a6.87,6.87,0,0,0-2.89-.7,6.23,6.23,0,0,0-2.79.63,7.93,7.93,0,0,0-2.1,1.42,13.73,13.73,0,0,1-2.45,1.92,7.56,7.56,0,0,1-2.6.92,8.56,8.56,0,0,1-1.82.16,8.22,8.22,0,0,1-3.62-1,8.49,8.49,0,0,1-2.05-1.56,8,8,0,0,1-1.63-2.5A7.6,7.6,0,0,1,44.33,96a.36.36,0,0,0-.07-.17Z"></path><path class="cls-2" d="M98.64,65a1.13,1.13,0,0,0,.24.08,7,7,0,0,1,2.61.62,8.09,8.09,0,0,1,2.89,2.12,6.89,6.89,0,0,1,1.43,2.44,8.93,8.93,0,0,1,.43,1.57,7.77,7.77,0,0,1,0,2.31,9.8,9.8,0,0,1-.38,1.77,8.08,8.08,0,0,1-1.43,2.54,7.94,7.94,0,0,1-4.28,2.67,8.11,8.11,0,0,1-1.84.21,8.55,8.55,0,0,1-3.17-.52,7.53,7.53,0,0,1-2.27-1.29c-.49-.42-1-.86-1.44-1.29a8.9,8.9,0,0,0-1.6-1.1l-.61-.31a4.22,4.22,0,0,0-1.63-.45,7,7,0,0,0-.91-.08,6.59,6.59,0,0,0-2.43.53,9.15,9.15,0,0,0-2.77,1.91,10.23,10.23,0,0,1-2.32,1.71,8.19,8.19,0,0,1-2.71.82,14.66,14.66,0,0,1-1.48.07,6.12,6.12,0,0,1-1.8-.26,8,8,0,0,1-2.5-1.16,9,9,0,0,1-1.65-1.56,8,8,0,0,1-1.42-2.58,6.92,6.92,0,0,1-.36-2.51c0-.2,0-.4,0-.6a7.57,7.57,0,0,1,1.53-4.34,7.71,7.71,0,0,1,3-2.48A8.61,8.61,0,0,1,74.22,65c.16,0,.33,0,.49,0A1.53,1.53,0,0,0,75,65h.68a.86.86,0,0,0,.21.07l.83.08a8.16,8.16,0,0,1,3,1.1,16.52,16.52,0,0,1,2.38,1.94,8.22,8.22,0,0,0,2.4,1.46,6.94,6.94,0,0,0,1.76.41A5.15,5.15,0,0,0,87.74,70a7,7,0,0,0,2.72-1.12,17.24,17.24,0,0,0,2.13-1.77A9,9,0,0,1,94.22,66,7.72,7.72,0,0,1,97.67,65a.9.9,0,0,0,.21-.08Z"></path><path class="cls-2" d="M52.65,65a1.17,1.17,0,0,0,.25.07,6.43,6.43,0,0,1,2.29.48,8,8,0,0,1,5.1,6.27,8.94,8.94,0,0,1,.13,1.36,8.25,8.25,0,0,1-1.3,4.5A8.2,8.2,0,0,1,54.65,81a6,6,0,0,1-1.87.3A17.67,17.67,0,0,1,51,81.19a6.43,6.43,0,0,1-1.71-.49A7.66,7.66,0,0,1,46.68,79a7.89,7.89,0,0,1-2-3.2A6.8,6.8,0,0,1,44.33,74s0-.08-.07-.12V72.5l.09-.58A8.63,8.63,0,0,1,44.88,70a8.25,8.25,0,0,1,1.49-2.37,8,8,0,0,1,2.68-1.94A7.06,7.06,0,0,1,51.76,65,1,1,0,0,0,52,65Z"></path><path class="cls-2" d="M87.1,120a6.69,6.69,0,0,0-4.46,1.47,14.65,14.65,0,0,0-1.2,1,9,9,0,0,1-3.84,2.23,8.37,8.37,0,0,1-1.87.28,7.77,7.77,0,0,1-2.45-.25,8.57,8.57,0,0,1-1.55-.6,7.62,7.62,0,0,1-2-1.4,8.23,8.23,0,0,1-2.27-4,6.31,6.31,0,0,1-.17-1.92,7.29,7.29,0,0,1,.9-3.88,7.88,7.88,0,0,1,1.86-2.33,8.12,8.12,0,0,1,3.28-1.7,9.4,9.4,0,0,1,1.31-.2,3.81,3.81,0,0,1,.75-.07,10.77,10.77,0,0,1,2.69.47,8.45,8.45,0,0,1,2.69,1.53c.59.5,1.15,1,1.76,1.52a7,7,0,0,0,3.25,1.49,6.21,6.21,0,0,0,3.89-.68,10.56,10.56,0,0,0,2.38-1.76,8.66,8.66,0,0,1,4-2.3c.48-.1,1-.14,1.47-.2a4.09,4.09,0,0,1,.6-.07,8.39,8.39,0,0,1,4,1,7.85,7.85,0,0,1,2.23,1.82,7.53,7.53,0,0,1,1.55,2.81,5.92,5.92,0,0,1,.31,1.55c0,.41.08.81.07,1.22a7.88,7.88,0,0,1-.82,3.4,7.64,7.64,0,0,1-1.7,2.32,8.31,8.31,0,0,1-3.93,2,8.78,8.78,0,0,1-2.5.11,7.81,7.81,0,0,1-3.74-1.27,12.52,12.52,0,0,1-1.52-1.2,10.56,10.56,0,0,0-2.68-1.91"></path><path class="cls-2" d="M90.25,95.17a6.89,6.89,0,0,1,.51-3A7.73,7.73,0,0,1,92,90.11a8.5,8.5,0,0,1,1.93-1.76,8.18,8.18,0,0,1,2.77-1.13A8,8,0,0,1,99,87.08a7.9,7.9,0,0,1,2.42.61,8.11,8.11,0,0,1,2.38,1.54,7.73,7.73,0,0,1,1.51,1.94,8.44,8.44,0,0,1,.82,2.16,9.2,9.2,0,0,1,.21,2.45,7.88,7.88,0,0,1-1.56,4.3,8,8,0,0,1-3.6,2.76,6.38,6.38,0,0,1-2.06.48c-.31,0-.61.07-.91.07A8.07,8.07,0,0,1,95,102.7a7.84,7.84,0,0,1-2.65-1.87,8,8,0,0,1-2-3.83,7.81,7.81,0,0,1-.14-.82C90.23,95.86,90.25,95.54,90.25,95.17Z"></path><path class="cls-2" d="M52.39,108.5a1,1,0,0,0,.25.06,6.48,6.48,0,0,1,2.29.49,8,8,0,0,1,5.1,6.27,10.28,10.28,0,0,1,.13,1.35,8.22,8.22,0,0,1-1.3,4.5A7.93,7.93,0,0,1,56,123.82a7.43,7.43,0,0,1-1.64.7,6.46,6.46,0,0,1-1.86.3,17.67,17.67,0,0,1-1.78-.08,6.82,6.82,0,0,1-1.71-.49,7.68,7.68,0,0,1-2.61-1.73,7.81,7.81,0,0,1-2-3.19,7.31,7.31,0,0,1-.36-1.78s0-.08-.07-.13v-1.37c0-.2,0-.39.09-.59a8.23,8.23,0,0,1,2-4.29,7.82,7.82,0,0,1,2.69-1.94,7.21,7.21,0,0,1,2.7-.67,1.5,1.5,0,0,0,.29-.06Z"></path></g></svg> 