<?xml version="1.0" encoding="UTF-8"?> <svg xmlns="http://www.w3.org/2000/svg" id="Layer_1" data-name="Layer 1" viewBox="0 0 400 190"><defs><style>.cls-1{fill:#016af1;}</style></defs><path class="cls-1" d="M193.88,46.93c.13,4.08.37,8.17-.53,12.21-.85,1.2-1.39,2.66-2.8,3.41-.81.44-.79,1-.36,1.72,1.26,2.22,2.43,4.46,3.64,6.69a5,5,0,0,0,1.2,2.51c.54.66-.53,2.51,1.52,2.06a5.57,5.57,0,0,0,2.66.08c2.46,0,.42-1.46.73-2.14.42-10.07.32-20.15.29-30.22,0-1.23.12-2.47.17-3.69l2-.71,6.59.24c.27.31.54.63.82.94l0,32.75a5.7,5.7,0,0,1-.6,2.81c-.36,0-.9.33-.74.51,1,1.13.49,2.52.79,3.75l-.25,2L208.68,83a54.25,54.25,0,0,0-4.24,8.32,4.82,4.82,0,0,0-1.17,2.26,11.72,11.72,0,0,0-1.89,3.79,2.45,2.45,0,0,0-.81,1.55l-2.19,4.2c-.36.9.1,1,.84.89l1.05.07,1.14,0a34.55,34.55,0,0,0,4.19.08c2.59-.25,3.27,1,3,3.28-.12,1-.06,2.1-.09,3.14-.07,1.8-1.07,2.2-2.77,2.25-4.13.14-8.25-.71-12.38-.24a11.57,11.57,0,0,0-1.53-.24c-4.84-.21-4.84-.21-5.22-4.94,0-.54.09-1.08.13-1.62.26-.88.51-1.76.77-2.64l1-1.93,1.1-2.17L196,87.39c1.84-3.38,1.65-3.69-2.16-3.68a2.36,2.36,0,0,0-.51.12l-1.05,0c-1.39-.37-3,.24-4.2-.92a.25.25,0,0,0-.14-.38c-.07-.54-.14-1.07-.22-1.61a2.88,2.88,0,0,0,.12-2.1c-.3-.88,1-2.46-.49-2.61-2.41-.24-2.94-1.89-3.69-3.58-1.2-2.74-2.42-5.47-3.68-8.18-.26-.56-.33-1.47-1.62-1.18,0,3.46,0,7,0,10.45,0,.82.22,1.36,1.2,1.28,2-.17,2.6,1.06,2.72,2.75l-.24,10.08a1.78,1.78,0,0,0,0,1.62,5.1,5.1,0,0,0-.11,2.63,12.44,12.44,0,0,0-.16,4.26c-.13,4-.27,7.92-.39,11.89a7.69,7.69,0,0,1-.56,3.35,13.82,13.82,0,0,1-4.71.31c-4.32-.18-4.32-.17-4.59-4.4,0-.36,0-.71,0-1.06a44.26,44.26,0,0,0,.38-8,56,56,0,0,0,.22-8.49,21.38,21.38,0,0,0,.15-5.36,13.55,13.55,0,0,0,.17-4.26l.09-2.85c0-.59.13-1.43-.73-1.34-2.89.28-3-1.65-3.06-3.64l0-31.4c.05-.35.11-.71.16-1.07.92-1.23,2.27-1.13,3.58-1.15l8.12-.11h1.61l3.91.1a16,16,0,0,1,5.22,2.39,15.11,15.11,0,0,1,2.26,4.61C193.7,46.21,193.79,46.57,193.88,46.93Zm-15.66,4.89h.1c0,1,0,1.94,0,2.9,0,1.49.58,2.57,2.27,2.65s3.29-.51,3.62-2.34a13.73,13.73,0,0,0-.27-6.27c-.53-1.83-1.9-2.08-3.52-2s-2.19,1.22-2.21,2.68C178.2,50.24,178.22,51,178.22,51.82Z"></path><path class="cls-1" d="M214,100.55c0-2.47.09-4.94.13-7.42a.86.86,0,0,0,0-1.09,78.3,78.3,0,0,0,.33-11.66c0-.71,0-1.43,0-2.14a2.86,2.86,0,0,1,1.77-2.09l1.06-.09,2.66,0a4.77,4.77,0,0,0,3.48-.35l-4.43-3,0,0a3.51,3.51,0,0,0-1.47-1.6l-2.9-5.74c-.09-.38-.17-.76-.25-1.14-.07-.15-.13-.29-.19-.44-.08-.56-.17-1.12-.25-1.68-.17-4.79,0-9.55,1.78-14.1l1.63-2.81c3.83-4.67,8.84-6.64,14.79-6.5l1.07,0c5.16,1,6,2.65,4.41,8.63-.66.59-1.51.49-2.29.64-1.94-.58-3.87-1.09-5.84-.14a2,2,0,0,0-1.83.64l-.21.12a4.47,4.47,0,0,0-2.5,2.93,20.82,20.82,0,0,0,.26,13.48,3.43,3.43,0,0,0,3.46,2.4,1.47,1.47,0,0,0,1.57-1.48c.1-1.77,1.07-3.75-.73-5.18a5.62,5.62,0,0,1-.73-8.48l2.83-.25h1.06c5.91.43,5.89.43,5.92,6.47,0,4.74.08,9.49.12,14.23.06,2-1.54,2.48-2.85,3.24-1.85-.14-2.15,1.09-2.23,2.52-.37,6.24-.37,6.24-6.72,6.26a1.25,1.25,0,0,0-1.24,0c-1.68,0-1.88,1-1.66,2.34a1.31,1.31,0,0,0,.15,1.65c0,1.18.83,1.06,1.61,1h1.06c2,.53,4.58-.84,6.1,1.63,0,1.07.09,2.14.13,3.2,0,.53-.1,1.05-.14,1.58a3.7,3.7,0,0,1-1.84,2.26L229,98.48c-1.65,0-3.43-1.36-4.9.46-1.28,5.34-1,5.74,4.16,5.89,1.12,0,2.25,0,3.38,0l1.1.44v0l.66,1.61,0,3.17c0,.36-.06.72-.08,1.07-.21.69-.4,1.38-.61,2.07-.63.52,0,.83.2,1.21l2,7.34a1.84,1.84,0,0,0,.44,1.59l2.7,12.74c.05.39.11.78.16,1.16a17.44,17.44,0,0,0,1.28,5.22,2.74,2.74,0,0,0,.62,2.13l.6,4.24a5.07,5.07,0,0,1-2.17,1.57h-6.38l-1-.61,0,0c-.22-1.12-.44-2.23-.65-3.34-.33-1.77-1.07-3-3.17-2.44-2.11-.18-3.19.62-3,2.88.28,2.63-1,3.56-3.58,3.53-7.89-.11-7.52,1-5.72-7.2,2.08-9.45,3.89-19,5.83-28.45.43-.41,1.06-.94.71-1.45-.19-.28-1.11-.07-1.7-.1-1,0-1.94-.06-2.91-.07-3.2,0-3.59-.4-3.68-3.67,0-.35.05-.71.07-1.07a21.94,21.94,0,0,0,.52-6.36C214,101.62,214,101.08,214,100.55Zm13.44,22.17-.55,0c-.56,3.63-1.08,7.26-1.68,10.89-.26,1.6.56,2,1.91,2,1.18,0,2.55,0,2.28-1.72C228.82,130.2,228.09,126.47,227.42,122.72Zm6-46.25-.67.5a4.12,4.12,0,0,0,.63.39c.38.18.36-.23.52-.37Z"></path><path class="cls-1" d="M268.25,130.3c-.06,2.81-.11,5.62-.17,8.43a22.66,22.66,0,0,1-2.92,8.28c-.17.22-.36.42-.53.63-2.44,2.19-5.46,2.62-8.56,2.78a3.49,3.49,0,0,0-2.12,0h-1.06l-7.44.12-1.72-1.13c-.07-2.19-.21-4.38-.22-6.57,0-8.78.17-17.57-.37-26.34.47-1.85-.09-2.75-2.13-2.51a2.69,2.69,0,0,1-2.9-1.25q.22-11.67.42-23.33l0-1.6a49.15,49.15,0,0,0,.3-8.49c.23-2,1.76-2.31,3.37-2.45a3.3,3.3,0,0,0,2.17.07c1.51.58,3.26-.22,4.69.82a2.29,2.29,0,0,0,.73,1.56,1,1,0,0,0,.34,1.1,5.12,5.12,0,0,0,.71,2.61,5.74,5.74,0,0,0,.84,2.72,9.67,9.67,0,0,0,1.15,3.66c.1.38.22.76.32,1.15.33,1.08.63,2.18,1,3.25.16.45.33,1.11,1,1s.5-.82.51-1.29q.23-7.08.41-14.15c1.18-3.08,3.76-1.27,5.72-1.6s3.24.47,3.26,2.66c-.65,3.65-.37,7.33-.5,11s-.17,7.18-.26,10.76c0,.36,0,.72,0,1.08,0,.52,0,1.05,0,1.58,0,.36,0,.71,0,1.08,0,.87,0,1.76,0,2.64s0,1.78-.05,2.66c-.08.7-.16,1.39-.23,2.09-1.18,1-1.36,1.76,0,3,2,1.73,2.73,4.27,3.2,6.79S267.9,127.87,268.25,130.3Zm-10.53,2.09c0-2.89.32-5.84-.45-8.69a2.63,2.63,0,0,0-3.25-2c-1.69.21-1.43,1.55-1.42,2.65.06,5,.17,10.06.25,15.09,0,1.43-.17,3,1.93,3.1s2.84-1.21,2.91-3C257.78,137.16,257.72,134.78,257.72,132.39Zm-7.36-19.29c.44-.85,3.54,1.8,2.71-1.48-1.15-4.53-2.71-9-4.13-13.41-.17-.52-.12-1.41-1-1.31-1.07.13-.68,1.09-.7,1.7-.11,3.88,0,7.78-.31,11.65C246.73,112.82,247.44,113.88,250.36,113.1Z"></path><path class="cls-1" d="M158.27,40.09a13,13,0,0,1,4.33,5.77,1.77,1.77,0,0,0,.43,1.6,35.49,35.49,0,0,1-.4,10.54l-1.77,3.78-.43.6-2.09,2.06-.58.42-2,1-7,.83c-1.52.63-1.1,1.88-1,3a7,7,0,0,0,.18,3.13c-.39,1.42.51,1.22,1.36,1.08l8.94.19a1.09,1.09,0,0,0,1.12.17l6.88.31c1.82,1.9.39,4.21.79,6.28-.35,1.92-1.63,2.29-3.32,2.06-2.11-.28-3.08.47-2.86,2.77.2,2.08,0,4.2,0,6.31a2.91,2.91,0,0,0-.07,2.15,3,3,0,0,0-.1,2.1c0,.36,0,.72-.05,1.08,0,1.05-.05,2.11-.07,3.17,0,.36,0,.72,0,1.07a34.82,34.82,0,0,0,0,7.43c-.11,1.8-1.11,2.38-2.83,2.24a32.53,32.53,0,0,0-3.69.06l-2.63-.22c-.33-.34-.66-.68-1-1q.34-12.73.7-25.47c.54-2.27-.93-2.15-2.41-2l-2.52-.43a4.58,4.58,0,0,1-.92-3.94c.18-1.6-.23-2.47-2-2.39-1.63.08-2.46.66-1.94,2.4,0,.35,0,.71,0,1.06s0,.71,0,1.07,0,.7,0,1.05a2.93,2.93,0,0,0-.06,2.14c-.52,5.11-.48,10.24-.53,15.36a6.07,6.07,0,0,0-.1,3.22,6.93,6.93,0,0,0-.07,3.17,1.84,1.84,0,0,0,.09,1.65c-.09.82-.18,1.63-.26,2.45a3.91,3.91,0,0,1-2.75,1.34c-7.59-.7-7.08,1-6.83-7.73.23-7.48.53-15,.76-22.43a8,8,0,0,0-.17-3.4l0-1.08.24-1.58c.33-.36.64-.73,1-1.09l2.91-.08,1.07,0c1.12.23,2.09.4,2.07-1.33-.18-10.32.48-20.65-.18-31l1.09-2,6-.52a2.81,2.81,0,0,0,2.15,0,14.78,14.78,0,0,0,4.74,0l1.1.11,3.67,1A1.09,1.09,0,0,0,158.27,40.09Zm-4.79,12.46c-.16-1.19-.25-2.34-.47-3.45a2.94,2.94,0,0,0-3.33-2.68c-2,.13-2.38,1.6-2.4,3.17,0,2,.18,4,.23,6.07,0,1.34.23,2.46,1.94,2.53s3.07-.19,3.52-2C153.25,55,153.31,53.74,153.48,52.55Z"></path><path class="cls-1" d="M108.42,103.18a39.77,39.77,0,0,1-1.4-8.46c0-.36,0-.72,0-1.08.3-3.94.13-7.93,1-11.83.28-.84.56-1.68.85-2.52l.66-1.37c.71-.82,1.42-1.66,2.19-2.57l-2.5-1.83A14,14,0,0,1,107,68.7c-.08-.36-.15-.73-.23-1.09q0-12.45,0-24.92c0-3.5.26-3.74,3.79-3.74,6.49,0,5.84-.66,5.86,5.79,0,6.28,0,12.56,0,18.84,0,1.78.21,3.59,2.33,4.17,2.68.75,4.2-.59,4.22-3.77,0-6.27,0-12.55,0-18.83,0-6.89-.27-6.17,6.42-6.23,1.41,0,2.65.1,3.26,1.61q0,12.48.07,25c-.34,1.58-.67,3.17-1,4.76a17.63,17.63,0,0,1-3.22,4.21,1.2,1.2,0,0,0-1,.61c-1.38.12-1.55,1-1.41,2.14-.46,1.55.51,3.32-.74,4.74l-1.08.45c-1.45-.13-2.94-.47-4.22.6-1.88.84-2.1,2.48-2.07,4.24-.39,3.18-.84,6.37-.09,9.56-.06,1.53,0,3,1.55,3.89,1.1,1,2.48.65,3.77.73.81.06,1.58,0,2,.89.69,1.25,0,6.48-1,7.74l-2.66.25-3.72-.16-1.06-.15a22.15,22.15,0,0,1-4.86-2l-2.51-2.79,0,0Z"></path><path class="cls-1" d="M290,87.58l-.42.32-2.14.19-1-.18a2.82,2.82,0,0,0-2.13-.51l-1.05,0a1.65,1.65,0,0,0-2.1,1.43c-.24,1.49.87,2.34,1.89,3.16a2.17,2.17,0,0,0,1.28,1.13,30.42,30.42,0,0,0,2.24,2.16c3.09,2.46,5.25,5.42,5.28,9.55,0,.71-.05,1.41-.08,2.12a17.17,17.17,0,0,1-2.12,5.59l2.56,1.1.21.68.15,1.14,0,1.57c-.45,1.4.41,3.25-1.4,4.2l-5.82.11c-2.25-.46-2.49,1-2.47,2.64s.65,2.7,2.52,2.52l4.2-.4,2,.56a10.51,10.51,0,0,1,0,7.49l-1.43.61-1.6,0-2.12-.06c-2-.36-3.71-.28-3.13,2.56,0,.53,0,1.06,0,1.59-.1,1.15-.45,2.48,1.52,2.19l7,.14c1.3.83,1,2.32,1.46,3.51,0,.53,0,1.06,0,1.59-.16.89-.31,1.78-.47,2.66a4.68,4.68,0,0,1-2.66,1.15l-1.6,0L283.7,150a9.9,9.9,0,0,0-3.72,0c-2.07-.33-4.21.55-6.23-.38l-.66-.72c0-1.41,0-2.82,0-4.24a4.08,4.08,0,0,0,.25-2.67c.29-6.18.2-12.38-.07-18.56a1.91,1.91,0,0,0,0-1.62,3,3,0,0,0,0-2.1c1.09-3.18-.78-4.71-3.29-5.87l-.12-1c.05-1.49.13-3,.13-4.49s.51-2.58,2.05-3l1.06,0a5.47,5.47,0,0,0,2.66,1,4.37,4.37,0,0,0,4.25,0c1.82-1,1.14-2.31.34-3.47a10.75,10.75,0,0,0-3.46-3.14l-.12-.08-2.21-1.9-.39-.38a14.63,14.63,0,0,1-3.73-8.49l0-1.6.21-1c.12-.53.23-1.07.34-1.6,2-4.37,5.65-6,10.12-6.29,2.09-.14,4.2,0,6.3,0,2.27.31,3.11,1.64,2.83,3.87a19.94,19.94,0,0,0,0,2.89Z"></path><path class="cls-1" d="M151.38,142a1,1,0,0,0-.48-1.08,2.23,2.23,0,0,0-.16-.75c-.45-.68-.47-2.05-1.44-1.89s-.46,1.44-.53,2.22a18.53,18.53,0,0,0,.1,2.57c0,1.85-.05,3.7-.09,5.55a2.45,2.45,0,0,1-.51,2c-1.34,1.27-8.1.42-9.12-1.17l-.06-2.13c0-9.95,0-19.9-.06-29.86,0-2.11.58-3.4,2.79-3.63h1.6A73.82,73.82,0,0,0,154,113.7c4.87.18,8.63,1.91,9.88,7.11a59.16,59.16,0,0,1,.21,11.6c-.39,1.05-.78,2.1-1.16,3.14-.13.2-.27.39-.41.58-2.54,1.22-2.42,2.91-1,5,.89,1.29,1.57,2.74,2.35,4.12a2.36,2.36,0,0,0,.79,1.5,4,4,0,0,0,1,2.14l.07,1.06-.67.89c-3.18,0-6.38.62-9.52-.35l-1.07-1.6a3.66,3.66,0,0,0-1-2.13,1,1,0,0,0-.48-1.1c-.16-.36-.33-.71-.49-1.07A5.63,5.63,0,0,0,151.38,142Zm3.29-14.58a11.44,11.44,0,0,0-.51-3.9c-.68-1.76-2.15-1.89-3.71-1.72s-1.95,1.32-1.93,2.66c0,1.84.1,3.68.16,5.52,0,2,1.32,2.52,3,2.38C153.94,132.17,154.72,130.81,154.67,127.4Z"></path><path class="cls-1" d="M129.06,115c.26.15.5.31.76.47a9.58,9.58,0,0,1,3.16,7.81c0,3-.52,5.73-3.32,7.49l2.5,1.9.51.82.73,2.07c.15,1.24.3,2.48.44,3.72l-.24,3.79c0,.19-.07.37-.11.57-.25.85-.51,1.7-.76,2.54l-.28.44c-.15.24-.3.48-.44.72l-.16.2c-1,1.32-2.51,2-3.84,2.89-3.13.84-6.37.67-9.54,1a6.43,6.43,0,0,0-3.23,0h-1.58l-2.13-.26a2.35,2.35,0,0,1-1.53-2.53V115.06l1-.67c5.64-.16,11.28-.54,16.9.27Zm-9.84,24.19c0,3.72.36,4.42,2.16,4.37s3-1.54,3-4.18c0-2.07-.45-3.74-2.95-3.82C118.4,135.5,119.47,137.84,119.22,139.23Zm0-14.64c.36,1-.84,3,1.6,3a2.81,2.81,0,0,0,3-3.16c0-1.89-1-3-2.87-3C118.84,121.4,119.34,123.13,119.27,124.59Z"></path><path class="cls-1" d="M267.35,49.58v3.19l-.07,5.84a84.66,84.66,0,0,0,0,11.15c0,.35,0,.72,0,1.07,0,.88,0,1.76,0,2.64L267.05,75c-.14.17-.26.34-.4.5-3,.74-6.06,1.4-8.91-.6,0-3.31,0-6.61,0-9.92.48-1,.72-2.15-.35-2.84a2.42,2.42,0,0,0-3.31.48c-.14.41-.26.81-.4,1.22a1.09,1.09,0,0,0-.1,1.15v8c0,2.35-1.3,3.17-3.46,3.13-1.91,0-3.81,0-5.72,0a3.91,3.91,0,0,1-.6-2.75q0-14.85,0-29.7c0-4.62,0-4.62,4.53-4.65.61,0,1.23-.06,1.85-.1l1.6.09.54.13.44.22c1.11,1,.91,2.41.89,3.71,0,2.73-.12,5.45-.17,8.18-.22,1.2.18,1.94,1.49,2h1c3.17-1.18,1.65-3.68,1.61-5.75l0-3.19a3,3,0,0,0,0-2.64c.18-.72.35-1.44.52-2.15.9-.21,1.78-.43,2.68-.63h4.24l1.07.11a2.68,2.68,0,0,1,1.25,2.14c0,.71,0,1.42-.05,2.13,0,1.76,0,3.54,0,5.3Z"></path><path class="cls-1" d="M208.16,150.2c-5.64,1.63-11.11,1.52-16.35-1.41l-2.47-2.24-.14.13.13-.14-1.48-2-1.17-2.11-.42-1.07a28.23,28.23,0,0,1-.16-16.16,20,20,0,0,1,5.13-8.18l3.2-2.1a1.07,1.07,0,0,0,1.1-.43,34.42,34.42,0,0,1,9.72-.88c2.79.15,3.86,1.48,4.15,3.94,0,.89-.07,1.78-.09,2.65a1,1,0,0,0-.2,1.07c-.47.49-1,1-1.43,1.44l-1,0a5.81,5.81,0,0,0-3.21-.48.81.81,0,0,0-1.09,0,3,3,0,0,0-2.14.34c-.82.15-1.65.25-2.05,1.15a.66.66,0,0,0-.39.87h-.1c-2.1.86-2.07,2.77-2.23,4.58a3.31,3.31,0,0,0-.08,2.67,12.3,12.3,0,0,0,.6,6.36,3.59,3.59,0,0,0,2.14,3.3c2.87,1.07,3.38.65,3.35-2.77.4-1.68.46-3.19-1.75-3.6-2.34-2.17-1.11-4.82-1-7.32l1-.77c2.2-.07,4.39-.13,6.58-.21,2.47-.09,3.47,1.13,3.47,3.53,0,5.79.12,11.59.18,17.39-.3.62-.59,1.25-.9,1.87l.13.16-.15-.15C208.76,149.87,208.46,150,208.16,150.2Z"></path><path class="cls-1" d="M276.23,74c0-.71,0-1.42,0-2.13l.06-1.06a12.6,12.6,0,0,0,0-4.78,32.17,32.17,0,0,0-.09-8.49c0-2.47.07-4.93.11-7.4a1.38,1.38,0,0,0,0-1.6c-.38-1.5-1.67-1.07-2.57-1-2.5.13-3.51-1-3.37-3.41.07-1.13,0-2.27,0-3.39l.72-1.16.53-.24,3.58-.37,13.81,0c1.42.25,3.21-.07,3.33,2.17l-.06,4.24c-.06.36-.13.7-.2,1.06-.73,1.15-1.95,1.06-3.07,1.19-.8-.09-1.61-.33-2.27.38a1.22,1.22,0,0,0-.52,1.14q.07,10.34.16,20.66l0,1.59c0,.36,0,.71,0,1.06-.18,3.59-.22,3.64-3.77,3.67-1.22,0-2.44,0-3.66,0A2.35,2.35,0,0,1,276.23,74Z"></path><path class="cls-1" d="M180.56,116.48c-.17,9.56-.35,19.12.07,28.68,0,.53,0,1.06,0,1.59,0,.36,0,.71,0,1.06l-.78,2.59a20.7,20.7,0,0,1-8.26.18.27.27,0,0,0-.4-.19c-.21-1.21-.42-2.43-.64-3.65a9.83,9.83,0,0,0,0-4.25c.26-6.88.43-13.77,0-20.65a1.68,1.68,0,0,0,0-1.69c.42-1.58-.13-3.15-.1-4.73,1.54-2.89,4.25-1.23,6.43-1.62S180.38,114.24,180.56,116.48Z"></path></svg> 