<?xml version="1.0" encoding="UTF-8"?> <svg xmlns="http://www.w3.org/2000/svg" xmlns:xlink="http://www.w3.org/1999/xlink" id="Layer_1" data-name="Layer 1" viewBox="0 0 400 190"><defs><style>.cls-1{fill:#fff;}.cls-1,.cls-2{fill-rule:evenodd;}.cls-2{fill:#016af1;}.cls-3{mask:url(#mask);}.cls-4{mask:url(#mask-2-2);}.cls-5{mask:url(#mask-3);}</style><mask id="mask" x="207.71" y="48.66" width="16.32" height="91.21" maskUnits="userSpaceOnUse"><g id="mask-2"><polygon id="path-1" class="cls-1" points="207.71 48.66 224.03 48.66 224.03 139.86 207.71 139.86 207.71 48.66"></polygon></g></mask><mask id="mask-2-2" x="132.71" y="62.02" width="35.97" height="77.84" maskUnits="userSpaceOnUse"><g id="mask-4"><polygon id="path-3" class="cls-1" points="132.71 62.02 168.68 62.02 168.68 139.86 132.71 139.86 132.71 62.02"></polygon></g></mask><mask id="mask-3" x="235.68" y="48.66" width="16.32" height="91.21" maskUnits="userSpaceOnUse"><g id="mask-6"><polygon id="path-5" class="cls-1" points="235.68 48.66 252 48.66 252 139.86 235.68 139.86 235.68 48.66"></polygon></g></mask></defs><g id="Website-Layouts"><g id="Desktop-Home-TextToDL"><g id="NAV"><g id="Logo"><path id="Fill-1" class="cls-2" d="M193.68,87.52a8.19,8.19,0,0,1-2.46,6.09,8.55,8.55,0,0,1-14.69-6.09,8.51,8.51,0,0,1,2.41-6.15,8.84,8.84,0,0,1,12.28,0,8.39,8.39,0,0,1,2.46,6.15"></path><path id="Fill-3" class="cls-2" d="M195.59,139.34q-.89.53-6.05.52-5.92,0-8.51-2.59t-2.59-8.16v-23a17.09,17.09,0,0,1,2.27-.32,34.65,34.65,0,0,1,3.53-.2q11.35,0,11.35,10.24Z"></path><g id="Group-7"><g class="cls-3"><path id="Fill-5" class="cls-2" d="M224,139.35q-1.08.51-6,.51-10.32,0-10.32-10.53V49.16a14.65,14.65,0,0,1,2.16-.31,31.24,31.24,0,0,1,3.36-.19q10.8,0,10.8,10Z"></path></g></g><g id="Group-10"><g class="cls-4"><path id="Fill-8" class="cls-2" d="M156.83,62c-1.14,0-2.37.06-3.69.19a18.43,18.43,0,0,0-2.36.32V80.81h-7.15q-10.92,0-10.92,11c0,3.49.18,5.63.53,6.39h17.54v31q0,10.62,11.32,10.62c3.59,0,5.79-.17,6.58-.51V72.13Q168.68,62,156.83,62"></path></g></g><g id="Group-13"><g class="cls-5"><path id="Fill-11" class="cls-2" d="M252,139.35q-1.08.51-6,.51-10.32,0-10.32-10.53V49.16a14.65,14.65,0,0,1,2.16-.31,31.24,31.24,0,0,1,3.36-.19q10.8,0,10.8,10Z"></path></g></g></g></g></g></g></svg> 