<?xml version="1.0" encoding="UTF-8"?> <svg xmlns="http://www.w3.org/2000/svg" id="Layer_1" data-name="Layer 1" viewBox="0 0 400 190"><defs><style>.cls-1{fill:#016af1;}</style></defs><path class="cls-1" d="M200.09,155.5h0L92.9,95,200.09,34.5,307.1,95ZM164.3,95.73h.91L170.84,123c.18.36.18.36.73.36h8.17c.37,0,.55,0,.55-.18V123l-5.82-27.43c3.82,0,4.55-1.64,4.55-4.73V73.2c0-3.82-1.64-5.63-5.27-5.63H155.94c-.18,0-.54.18-.54.36v55.23c0,.18.18.55.36.55h8.18c.18,0,.54-.19.54-.37v-.18C164.3,123,164.3,95.73,164.3,95.73Zm56.87,8c-.19,0-.55.18-.55.36v14c0,3.82,1.64,5.45,5.45,5.45h12.54c3.81,0,5.63-1.63,5.63-5.45V93.36c0-3.27-1.45-4.72-4.72-4.72H229.7V75.2H235v6.36c0,.18.19.54.37.54h7.81c.18,0,.54-.18.54-.36V73c0-3.64-1.45-5.27-5.26-5.27H226.07c-3.63,0-5.27,1.63-5.27,5.27V91c0,2.55.91,5.45,5.63,5.45h8.73v19.44H229.7V104.45c0-.18-.18-.55-.36-.55h-.18ZM193.55,67.57c-3.82,0-5.27,1.45-5.27,5.45v45.05c0,3.82,1.64,5.45,5.27,5.45h13.26a4.86,4.86,0,0,0,5.45-4.17V73c0-3.82-1.63-5.45-5.45-5.45Zm9.81,48h-6v-40h6ZM169.75,90.64H164.3V75.38h5.45Z"></path></svg> 