<?xml version="1.0" encoding="UTF-8"?> <svg xmlns="http://www.w3.org/2000/svg" id="Layer_1" data-name="Layer 1" viewBox="0 0 400 190"><defs><style>.cls-1{fill:#016af1;}</style></defs><path class="cls-1" d="M104.25,104l14.32,14.2h22.56a17.09,17.09,0,1,0,0-34.17H85.61v45.5h18.64V98.19h33.93a2.89,2.89,0,0,1,0,5.77H104.25"></path><polygon class="cls-1" points="182.98 98.18 236.94 98.18 236.94 83.99 164.34 83.99 164.34 129.49 182.98 129.49 182.98 98.18"></polygon><polygon class="cls-1" points="182.98 103.96 197.29 118.16 197.29 118.16 236.94 118.16 236.94 103.96 182.98 103.96"></polygon><polygon class="cls-1" points="244.27 115.29 258.58 129.48 314.39 129.48 314.39 115.28 262.91 115.28 262.91 84 244.27 84 244.27 115.29"></polygon><path class="cls-1" d="M175.63,76.69,164,52.86l16.9,6.86a7.59,7.59,0,1,0,8.84-6.11.86.86,0,0,1-.17,0L200.63,42.5l11.09,11.08a7.62,7.62,0,1,0,8.7,6.35l0-.21,16.9-6.86L225.64,76.69Z"></path></svg> 