<?xml version="1.0" encoding="UTF-8"?> <svg xmlns="http://www.w3.org/2000/svg" id="Layer_1" data-name="Layer 1" viewBox="0 0 400 190"><defs><style>.cls-1{fill:#016af1;}</style></defs><path class="cls-1" d="M124.49,88.48c-1.59-1.11-3.06-2.27-4.65-3.23-3.42-2-6.9-4-10.36-6L99.9,73.73a10.16,10.16,0,0,0-10.77-.13c-4,2.31-8.09,4.61-12.07,7a8.74,8.74,0,0,0-4.22,5.66C72,90,73.36,93,76.25,95.19a51.33,51.33,0,0,0,5.65,3.45c2.66,1.55,5.3,3.16,8,4.55a9.44,9.44,0,0,0,9,0c3.17-1.64,6.22-3.49,9.32-5.26,1.2-.68,1.45-.67,2.46.27a5,5,0,0,1-.86,8.29c-3.16,2-6.41,3.76-9.63,5.63l-2.27,1.31a6.5,6.5,0,0,1-7,0l-14.06-8.12-6.67-3.86a11.49,11.49,0,0,1-5.9-8.55c-.56-3.62-.16-7.24-.25-10.86a8.84,8.84,0,0,1,.51-2.72,6.6,6.6,0,0,1,3.31-3.8q7.4-4.24,14.77-8.51c2.62-1.51,5.21-3.07,7.86-4.52a10.41,10.41,0,0,1,3.27-1.24,5,5,0,0,1,2.79.48c2.38,1.19,4.68,2.53,7,3.85q8.81,5.06,17.6,10.14a6.41,6.41,0,0,1,3.34,5.39c.15,2.35,0,4.72,0,7.08A1.65,1.65,0,0,1,124.49,88.48Z"></path><path class="cls-1" d="M64.06,101.4c.15,0,.19,0,.21,0,2.33,2.51,5.39,3.95,8.28,5.63,5.48,3.2,11,6.35,16.49,9.52a10.19,10.19,0,0,0,10.69,0c3.87-2.17,7.71-4.41,11.54-6.67a9.32,9.32,0,0,0,4.55-5.53,8.15,8.15,0,0,0-1.9-8.23,14.2,14.2,0,0,0-3.19-2.51q-5.48-3.28-11.06-6.4a10,10,0,0,0-10.44,0c-3,1.68-5.93,3.4-8.89,5.1l-.75.41a5.16,5.16,0,0,1-3.22-3.88,4.74,4.74,0,0,1,2.16-4.78c2.56-1.65,5.22-3.14,7.85-4.69,1.43-.85,2.89-1.65,4.32-2.5a6.75,6.75,0,0,1,7.36,0q10.09,5.9,20.27,11.68A11.76,11.76,0,0,1,124.15,96a13.65,13.65,0,0,1,.4,3.32c.06,3,0,6,0,9a6.88,6.88,0,0,1-3.68,6.32q-11.36,6.53-22.69,13.11a7.48,7.48,0,0,1-4.13,1.13,6.52,6.52,0,0,1-3.09-.89l-13.2-7.6c-3.38-1.95-6.74-3.91-10.13-5.85a7,7,0,0,1-3.57-6.31C64,105.93,64.06,103.69,64.06,101.4Z"></path><path class="cls-1" d="M335.89,96.27H315.41c-.34,2.42,1.84,5.76,4.49,7.06,2.81,1.38,6.48,1.13,9.51-2.59h5.29c-.22.48-.36.86-.55,1.22a12.64,12.64,0,0,1-15.2,5.85,12.83,12.83,0,0,1-8.36-9.44,13.6,13.6,0,0,1,5.46-14.43,12.6,12.6,0,0,1,17.87,4,13.3,13.3,0,0,1,2,7.32C336,95.53,335.92,95.82,335.89,96.27Zm-20.32-3.84h15a7.86,7.86,0,0,0-3.54-5,6.94,6.94,0,0,0-7.7-.16A7.87,7.87,0,0,0,315.57,92.43Z"></path><path class="cls-1" d="M235.26,96.25H214.68c.14.72.2,1.27.36,1.79,1,3.16,3.05,5.32,6.43,5.94a7.08,7.08,0,0,0,6.78-2.58,1.94,1.94,0,0,1,1.64-.73c1.09,0,2.18,0,3.27,0,.28,0,.57,0,1.15.1a30,30,0,0,1-1.76,2.8,12.57,12.57,0,0,1-19.24.84A13.06,13.06,0,0,1,209.78,94a12.81,12.81,0,0,1,7.52-11,12.42,12.42,0,0,1,15.28,3.76,12.8,12.8,0,0,1,2.83,8.41l0,.64C235.37,95.88,235.33,96,235.26,96.25Zm-5.2-3.82c-.74-3.56-4.26-6.54-7.9-6.2s-7.16,3.62-7,6.2Z"></path><path class="cls-1" d="M180.12,82.17h5.11c.84,2.14,1.7,4.33,2.55,6.51s1.69,4.4,2.58,6.58,1.56,4.37,2.61,6.44l.3,0,7.63-19.53h5.15c-.45,1.16-.86,2.25-1.29,3.32l-7.93,20a6.19,6.19,0,0,1-.39.92,3.7,3.7,0,0,1-3.34,2.11,3.48,3.48,0,0,1-3.39-2.14c-.78-1.67-1.41-3.4-2.09-5.11q-3.59-9-7.15-18C180.35,82.89,180.26,82.58,180.12,82.17Z"></path><path class="cls-1" d="M147.49,103.29h12.83v4.82a9,9,0,0,1-.92.09c-4.3,0-8.59,0-12.89,0-2.65,0-4.2-1.52-4.2-4.15,0-7,0-14,0-21,0-.27,0-.54.07-.89h5.12Z"></path><path class="cls-1" d="M243.34,82.17h5c0,.43.08.84.08,1.25,0,6.14,0,12.28,0,18.43,0,.41.06.82.1,1.37h12.83V108c-.43,0-.78.09-1.14.09-4.2,0-8.41,0-12.61,0-2.85,0-4.36-1.52-4.37-4.38q0-10.26,0-20.51C243.27,82.89,243.31,82.57,243.34,82.17Z"></path><path class="cls-1" d="M289.43,94.75l3-3.44c2.46-2.83,4.95-5.64,7.4-8.48a1.89,1.89,0,0,1,1.63-.75c1.24,0,2.48,0,3.72,0,.29,0,.58,0,1.1.08l-10.6,12.63c3.73,4.43,7.38,8.77,11.18,13.27a9.75,9.75,0,0,1-1.08.12c-1.33,0-2.67,0-4,0a2.08,2.08,0,0,1-1.86-.87c-2.31-2.77-4.64-5.51-7-8.26-1-1.13-1.91-2.26-2.86-3.4C289.88,95.42,289.69,95.12,289.43,94.75Z"></path><path class="cls-1" d="M269.33,82.18h5v25.94h-5Z"></path><path class="cls-1" d="M288.9,108.13h-5V82.19h4.93a10.93,10.93,0,0,1,.12,1.12c0,3.3,0,6.59,0,9.89V107C289,107.32,288.93,107.67,288.9,108.13Z"></path><path class="cls-1" d="M173,108.14H168.1V82.19H173Z"></path></svg> 