<?xml version="1.0" encoding="UTF-8"?> <svg xmlns="http://www.w3.org/2000/svg" xmlns:xlink="http://www.w3.org/1999/xlink" id="Layer_1" data-name="Layer 1" viewBox="0 0 400 190"><defs><style>.cls-1{fill:#fff;}.cls-2,.cls-4{fill:#016af1;}.cls-2{fill-opacity:0;}.cls-3{mask:url(#mask);}.cls-4{fill-rule:evenodd;}</style><mask id="mask" x="60.06" y="70.81" width="277.89" height="48.87" maskUnits="userSpaceOnUse"><g id="mask-2"><rect id="path-1" class="cls-1" x="60.06" y="70.81" width="277.88" height="48.87"></rect></g></mask></defs><g id="Page-1"><g id="fittrLogo-_5_" data-name="fittrLogo-(5)"><rect id="Rectangle_3025" data-name="Rectangle 3025" class="cls-2" x="60.06" y="69.59" width="279.94" height="51.12"></rect><g id="Group_5954-Clipped" data-name="Group 5954-Clipped"><g class="cls-3"><g id="Group_5954" data-name="Group 5954"><path id="Path_17022" data-name="Path 17022" class="cls-4" d="M84.5,82.87H69.92l1.07-4a11.29,11.29,0,0,1,10.22-8.06H130.7l-1,3.91a11.44,11.44,0,0,1-10.33,8.16Zm-1.85,6.9h32.5l-.6,2.24a11.41,11.41,0,0,1-10.33,8.15H79.87q-2.61,9.77-5.23,19.52H60.06l5.83-21.77a11.42,11.42,0,0,1,10.32-8.14Z"></path><polygon id="Path_17023" data-name="Path 17023" class="cls-4" points="135.6 70.81 150.19 70.81 137.1 119.67 122.51 119.67 135.6 70.81"></polygon><path id="Path_17024" data-name="Path 17024" class="cls-4" d="M201.27,70.81h-38A11.45,11.45,0,0,0,152.9,79l-1.05,3.91h21.47q-4.92,18.41-9.86,36.81h14.59q4.94-18.41,9.86-36.81h21.46l3.23-12.05Z"></path><path id="Path_17025" data-name="Path 17025" class="cls-4" d="M228.8,70.81H217.47L215.29,79h0l-1,3.91H235.7q-4.92,18.41-9.86,36.8h14.59q4.92-18.39,9.86-36.8H263.6a11.42,11.42,0,0,0,10.33-8.15L275,70.81Z"></path><path id="Path_17026" data-name="Path 17026" class="cls-4" d="M311.15,119.67h15.49l-5.23-19.6h2.8A10.81,10.81,0,0,0,334,92.34q1.86-6.9,3.7-13.81c1.14-4.25-1.4-7.72-5.65-7.72H288A11.41,11.41,0,0,0,277.64,79l-1.05,3.91h44.53l-1.81,6.76c-12.31,0-24.59.13-36.89.18a10.81,10.81,0,0,0-9.76,7.72l-5.94,22.15h15.39q2.61-9.75,5.23-19.49c6.15,0,12.29,0,18.43,0Z"></path></g></g></g></g></g></svg> 