<?xml version="1.0" encoding="UTF-8"?> <svg xmlns="http://www.w3.org/2000/svg" id="Layer_1" data-name="Layer 1" viewBox="0 0 400 190"><defs><style>.cls-1{fill:#016af1;fill-rule:evenodd;}</style></defs><path class="cls-1" d="M252.45,74.46a7.08,7.08,0,0,0-7,7.13v7.14a7,7,0,1,0,14.05,0V81.59A7.08,7.08,0,0,0,252.45,74.46Z"></path><path class="cls-1" d="M147.1,74.46c-5.69,0-6.95,3.92-7,7.21v28.47c.07,3.21,1.33,7.13,7,7.13s7-3.92,7-7.21V81.59C154.05,78.38,152.79,74.46,147.1,74.46Z"></path><path class="cls-1" d="M217.33,74.46c-5.69,0-7,3.92-7,7.21v14.2h14V81.59C224.28,78.38,223,74.46,217.33,74.46Z"></path><path class="cls-1" d="M287.56,74.46c-5.69,0-6.95,3.92-7,7.21v28.47c.07,3.21,1.33,7.13,7,7.13s6.95-3.92,7-7.21V81.59C294.51,78.38,293.25,74.46,287.56,74.46Z"></path><path class="cls-1" d="M77,53.13v83.74H323V53.13Zm49,35.6h-7V81.6c-.07-3.22-1.33-7.14-7-7.14s-7,3.92-7,7.21v28.47c.07,3.21,1.34,7.13,7,7.13s7-3.92,7-7.21V103h7v7.14s0,14.27-14,14.27-14-14.27-14-14.27V81.6s0-14.28,14-14.28S126,81.6,126,81.6Zm35.12,21.41s0,14.27-14.05,14.27-14-14.27-14-14.27V81.59s0-14.27,14-14.27,14.05,14.27,14.05,14.27Zm35.11-21.41s0,14.27-14,14.27h-7v21.41h-7V67.32h14c14,0,14,14.28,14,14.28Zm35.12,35.68h-7V103h-14v21.41h-7V81.59s0-14.27,14.05-14.27,14,14.27,14,14.27Zm35.11-35.69a14.56,14.56,0,0,1-.26,2.63c0,.2-.09.39-.13.59l-8,32.47h-7.24l5.41-22,.07-.09a13.66,13.66,0,0,1-3.91.63,14.16,14.16,0,0,1-14-14.27V81.59a14,14,0,1,1,28.09,0Zm35.12,21.42s0,14.27-14.05,14.27-14.05-14.27-14.05-14.27V81.59s0-14.27,14.05-14.27,14.05,14.27,14.05,14.27Z"></path><path class="cls-1" d="M182.21,74.46h-7V95.87h7c5.69,0,7-3.93,7-7.21V81.6C189.17,78.38,187.9,74.46,182.21,74.46Z"></path></svg> 