<?xml version="1.0" encoding="UTF-8"?> <svg xmlns="http://www.w3.org/2000/svg" id="Layer_1" data-name="Layer 1" viewBox="0 0 400 190"><defs><style>.cls-1{fill:#016af1;}</style></defs><path class="cls-1" d="M92.07,63.33h31.66V56.5H92.07Zm144.69,36.6H214.61V77.23h22.15c7.9,0,13.2,4.56,13.2,11.35s-5.3,11.35-13.2,11.35m7.34,5.32a17,17,0,0,0,12.51-16.67c0-10.33-8-17.27-19.85-17.27H208v61h6.65V105.94h22.52l14.35,26.41h7.19l-15-27ZM173.45,133.5c16.3,0,27.69-11.45,27.69-27.85V71.31H194.3v33.88c0,12.65-8.57,21.48-20.85,21.48-10.18,0-21.13-6.72-21.13-21.48V71.31h-6.83v34.34c0,16.4,11.49,27.85,28,27.85M292.74,79.28l14.41,31.51H278.24Zm-3.2-8-27.9,61h7.13l6.9-15.64h34.05l6.91,15.64h7.13l-27.9-61ZM107.91,70.16a31.67,31.67,0,1,0,31.66,31.67,31.7,31.7,0,0,0-31.66-31.67m0,56.51a24.84,24.84,0,1,1,24.83-24.84,24.86,24.86,0,0,1-24.83,24.84"></path></svg> 