<?xml version="1.0" encoding="UTF-8"?> <svg xmlns="http://www.w3.org/2000/svg" xmlns:xlink="http://www.w3.org/1999/xlink" version="1.1" id="Layer_1" x="0px" y="0px" viewBox="0 0 600 109.8" style="enable-background:new 0 0 600 109.8;" xml:space="preserve"> <style type="text/css"> .st0{fill:#016AF1;} </style> <g> <path class="st0" d="M358.5,25.3c0,4.6,0,9.1,0,13.6c18,0,35.8,0,53.7,0c0-4.6,0-9,0-13.6C394.2,25.3,376.5,25.3,358.5,25.3z M441.3,25.4c0,4.6,0,9,0,13.5c17.8,0,35.4,0,53.1,0c0-4.6,0-9,0-13.5C476.7,25.4,459.1,25.4,441.3,25.4z M101.9,25.2 c0,4.6,0,9.1,0,13.6c18,0,35.8,0,53.6,0c0-4.6,0-9.1,0-13.6C137.6,25.2,119.9,25.2,101.9,25.2z M494.4,61c0-4.6,0-9,0-13.4 c-17.8,0-35.4,0-53,0c0,4.6,0,8.9,0,13.4C459.1,61,476.6,61,494.4,61z M220.4,47.5c-18,0-35.5,0-53.2,0c0,4.5,0,9,0,13.6 c0.8,0,1.5,0,2.2,0c12.1,0,24.1,0,36.2,0c6.5,0,11.8-3.7,13.9-9.8C220,50.1,220.1,48.8,220.4,47.5z M236.1,70.2c0,4.7,0,9.4,0,14.2 c15.8,0,31.5,0,47.4,0c0-4.8,0-9.5,0-14.2C267.6,70.2,252,70.2,236.1,70.2z M346,70.3c-15.9,0-31.7,0-47.4,0c0,4.8,0,9.4,0,14 c15.9,0,31.6,0,47.4,0C346,79.6,346,75,346,70.3z M298.5,38.9c16,0,31.7,0,47.5,0c0-4.6,0-9,0-13.5c-15.9,0-31.6,0-47.5,0 C298.5,30,298.5,34.3,298.5,38.9z M236,25.3c0,4.6,0,8.9,0,13.4c15.9,0,31.6,0,47.4,0c0-4.5,0-8.9,0-13.4 C267.6,25.3,251.9,25.3,236,25.3z M236,60.9c0.5,0.1,0.7,0.1,1,0.1c15.1,0,30.2,0,45.3,0c1.2,0,1.5-0.6,1.4-1.6c0-3.4-0.1-6.6,0-10 c0.1-1.6-0.4-2.1-2.1-2.1c-14.6,0.1-29.3,0-43.9,0c-0.6,0-1.1,0.1-1.8,0.1C236,52,236,56.4,236,60.9z M298.6,60.9 c15.9,0,31.6,0,47.4,0c0-4.5,0-8.9,0-13.4c-15.8,0-31.6,0-47.4,0C298.6,52,298.6,56.3,298.6,60.9z M219.2,39 c-1.6-7.4-9.5-13.8-16.7-13.8c-11.1,0-22.4,0-33.5,0c-0.6,0-1.1,0.1-1.9,0.1c0,3.9,0.1,7.8-0.1,11.5c-0.1,1.8,0.5,2.2,2.2,2.2 c15.9-0.1,31.9,0,47.8,0C217.8,39,218.5,39,219.2,39z M91,70.2c-18,0-35.6,0-53.3,0c1.6,4.5,4.3,7.9,7.9,10.6c3.2,2.5,6.8,4,11,3.9 c5-0.2,9.9-0.1,14.8,0c8.5,0.1,14-4.7,18.4-11.3C90.5,72.5,90.7,71.4,91,70.2z M508.9,70.2c1.2,3.4,3.1,6,5.4,8.3 c3.9,3.9,8.5,6.3,14.3,6c4.6-0.2,9.2-0.1,13.8,0c8.4,0.1,14-4.5,18.5-10.9c0.7-0.9,0.8-2.1,1.4-3.4 C544.3,70.2,526.7,70.2,508.9,70.2z M38.7,38.8c17.7,0,34.9,0,52.4,0c-2.8-4.1-5.5-8-9.5-10.7c-2.2-1.6-4.8-2.6-7.6-2.6 c-6-0.1-12-0.1-18,0c-1.3,0-2.7,0.5-3.9,0.9c-4.5,1.8-8.1,4.6-11.1,8.4C40.2,35.9,39.6,37.3,38.7,38.8z M509.2,38.8 c17.6,0,34.8,0,51.9,0c0.1-0.2,0.3-0.4,0.4-0.5c-2.6-3-5.1-6.1-7.9-8.9c-2.8-2.7-6.4-4-10.3-4c-4.7,0-9.5,0-14.1-0.1 c-8-0.1-13.7,4.2-18.3,10.2C510.2,36.4,509.8,37.5,509.2,38.8z M91.2,61.1c-1.3-4.1-3.6-7.3-7.5-8.8c-4.3-1.6-8.7-3-13.2-3.8 c-10.6-2-21.3-1.2-32-1c-0.1,0-0.2,0.1-0.3,0.3c1.3,4.7,4.5,7.7,9,9.5c4.8,2,9.7,3.2,14.9,3.5C69.8,61,77.4,61,85,61.1 C87,61.1,89,61.1,91.2,61.1z M226.1,84.2c-3.1-4.8-5.9-9.2-8.8-13.6c-0.3-0.4-1.1-0.6-1.7-0.6c-3.8-0.1-7.8,0-11.6,0 c-1.3,0-2.5,0-3.7,0c0,0.4,0,0.5,0,0.6c2.7,4.3,5.4,8.6,8.2,12.9c0.2,0.4,0.8,0.7,1.3,0.7C214.9,84.2,220.4,84.2,226.1,84.2z M136.2,84.5c0-4.8,0-9.5,0-14.1c-5,0-9.7,0-14.5,0c0,4.8,0,9.5,0,14.1C126.6,84.5,131.3,84.5,136.2,84.5z M167.2,84.4 c5,0,9.7,0,14.5,0c0-4.8,0-9.5,0-14.2c-4.9,0-9.6,0-14.5,0C167.2,75,167.2,79.6,167.2,84.4z M378,84.5c3.9,0,7.7,0,11.5,0 c3.2,0,3.2,0,3.2-3.2c0-3.6,0-7.3,0-11.1c-5.1,0-9.8,0-14.7,0C378,75,378,79.7,378,84.5z M455.6,70.2c-4.9,0-9.5,0-14.2,0 c0,4.8,0,9.5,0,14.1c4.8,0,9.5,0,14.2,0C455.6,79.6,455.6,75,455.6,70.2z M136.2,47.5c-5,0-9.8,0-14.6,0c0,4.5,0,8.9,0,13.3 c4.9,0,9.7,0,14.6,0C136.2,56.4,136.2,52,136.2,47.5z M508.8,47.5c0,4.6,0,9,0,13.6c4.8,0,9.5,0,14.2,0c0-4.6,0-9,0-13.6 C518.2,47.5,513.6,47.5,508.8,47.5z M392.6,60.9c0-4.3,0-8.5,0-12.6c0-0.3-0.6-0.7-0.9-0.7c-4.5-0.1-9,0-13.6,0c0,4.6,0,9,0,13.5 C383,60.9,387.7,60.9,392.6,60.9z"></path> <path class="st0" d="M358.5,25.3c18,0,35.7,0,53.7,0c0,4.5,0,9,0,13.6c-17.9,0-35.7,0-53.7,0C358.5,34.3,358.5,29.9,358.5,25.3z"></path> <path class="st0" d="M441.3,25.4c17.7,0,35.4,0,53.1,0c0,4.5,0,8.9,0,13.5c-17.7,0-35.3,0-53.1,0C441.3,34.4,441.3,29.9,441.3,25.4 z"></path> <path class="st0" d="M101.9,25.2c18,0,35.7,0,53.6,0c0,4.5,0,9,0,13.6c-17.9,0-35.7,0-53.6,0C101.9,34.3,101.9,29.9,101.9,25.2z"></path> <path class="st0" d="M494.4,61c-17.7,0-35.3,0-53,0c0-4.5,0-8.9,0-13.4c17.6,0,35.2,0,53,0C494.4,52,494.4,56.4,494.4,61z"></path> <path class="st0" d="M220.4,47.5c-0.3,1.3-0.4,2.6-0.7,3.7c-2.2,6.1-7.5,9.8-13.9,9.8c-12.1,0-24.1,0-36.2,0c-0.7,0-1.4,0-2.2,0 c0-4.7,0-9.1,0-13.6C184.9,47.5,202.4,47.5,220.4,47.5z"></path> <path class="st0" d="M236.1,70.2c15.8,0,31.5,0,47.4,0c0,4.8,0,9.5,0,14.2c-15.8,0-31.5,0-47.4,0C236.1,79.6,236.1,74.9,236.1,70.2 z"></path> <path class="st0" d="M346,70.3c0,4.8,0,9.3,0,14c-15.8,0-31.6,0-47.4,0c0-4.7,0-9.3,0-14C314.3,70.3,330.1,70.3,346,70.3z"></path> <path class="st0" d="M298.5,38.9c0-4.5,0-8.9,0-13.5c15.8,0,31.6,0,47.5,0c0,4.4,0,8.9,0,13.5C330.2,38.9,314.5,38.9,298.5,38.9z"></path> <path class="st0" d="M236,25.3c15.9,0,31.6,0,47.4,0c0,4.5,0,8.8,0,13.4c-15.8,0-31.5,0-47.4,0C236,34.2,236,29.9,236,25.3z"></path> <path class="st0" d="M236,60.9c0-4.6,0-8.9,0-13.4c0.7,0,1.2-0.1,1.8-0.1c14.6,0,29.3,0,43.9,0c1.7,0,2.1,0.5,2.1,2.1 c-0.1,3.4-0.1,6.6,0,10c0,1-0.2,1.6-1.4,1.6c-15.1,0-30.2,0-45.3,0C236.7,61,236.5,61,236,60.9z"></path> <path class="st0" d="M298.6,60.9c0-4.5,0-8.9,0-13.4c15.8,0,31.6,0,47.4,0c0,4.5,0,8.8,0,13.4C330.2,60.9,314.5,60.9,298.6,60.9z"></path> <path class="st0" d="M219.2,39c-0.7,0-1.4,0-2.1,0c-15.9,0-31.9,0-47.8,0c-1.8,0-2.3-0.4-2.2-2.2c0.2-3.8,0.1-7.6,0.1-11.5 c0.7,0,1.3-0.1,1.9-0.1c11.1,0,22.4,0,33.5,0C209.8,25.2,217.6,31.6,219.2,39z"></path> <path class="st0" d="M91,70.2c-0.5,1.2-0.7,2.3-1.2,3.2c-4.4,6.6-9.9,11.4-18.4,11.3c-5-0.1-9.9-0.1-14.8,0 c-4.2,0.1-7.9-1.3-11-3.9c-3.6-2.8-6.3-6.1-7.9-10.6C55.5,70.2,73.1,70.2,91,70.2z"></path> <path class="st0" d="M508.9,70.2c17.9,0,35.5,0,53.4,0c-0.5,1.3-0.7,2.4-1.4,3.4c-4.5,6.5-10.1,11-18.5,10.9 c-4.6-0.1-9.2-0.2-13.8,0c-5.8,0.3-10.4-2.2-14.3-6C512,76.1,510.1,73.5,508.9,70.2z"></path> <path class="st0" d="M38.7,38.8c0.9-1.5,1.5-2.9,2.3-4c2.9-3.8,6.6-6.6,11.1-8.4c1.2-0.5,2.6-0.9,3.9-0.9c6-0.1,12-0.1,18,0 c2.8,0,5.2,1.1,7.6,2.6c3.9,2.7,6.6,6.6,9.5,10.7C73.6,38.8,56.4,38.8,38.7,38.8z"></path> <path class="st0" d="M509.2,38.8c0.7-1.3,1-2.4,1.8-3.3c4.7-5.9,10.3-10.3,18.3-10.2c4.7,0.1,9.5,0,14.1,0.1c3.9,0,7.5,1.3,10.3,4 c2.8,2.8,5.2,5.9,7.9,8.9c-0.1,0.2-0.3,0.4-0.4,0.5C544,38.8,526.7,38.8,509.2,38.8z"></path> <path class="st0" d="M91.2,61.1c-2.2,0-4.2,0-6.2,0C77.4,61,69.8,61,62.1,60.6C57,60.3,52,59.1,47.2,57.1c-4.4-1.8-7.6-4.8-9-9.5 c0.1-0.1,0.2-0.3,0.3-0.3c10.7-0.2,21.4-0.9,32,1c4.5,0.8,8.9,2.2,13.2,3.8C87.7,53.7,89.9,57,91.2,61.1z"></path> <path class="st0" d="M226.1,84.2c-5.8,0-11.1,0-16.5,0c-0.5,0-1-0.3-1.3-0.7c-2.8-4.3-5.5-8.6-8.2-12.9c-0.1-0.1,0-0.2,0-0.6 c1.2,0,2.5,0,3.7,0c3.8,0,7.8,0,11.6,0c0.6,0,1.4,0.2,1.7,0.6C220.2,75,223,79.4,226.1,84.2z"></path> <path class="st0" d="M136.2,84.5c-5,0-9.6,0-14.5,0c0-4.7,0-9.4,0-14.1c4.9,0,9.6,0,14.5,0C136.2,74.9,136.2,79.6,136.2,84.5z"></path> <path class="st0" d="M167.2,84.4c0-4.8,0-9.5,0-14.2c4.9,0,9.6,0,14.5,0c0,4.7,0,9.5,0,14.2C176.9,84.4,172.2,84.4,167.2,84.4z"></path> <path class="st0" d="M378,84.5c0-4.9,0-9.5,0-14.2c4.9,0,9.6,0,14.7,0c0,3.7,0,7.4,0,11.1c0,3.2,0,3.2-3.2,3.2 C385.7,84.5,382,84.5,378,84.5z"></path> <path class="st0" d="M455.6,70.2c0,4.8,0,9.4,0,14.1c-4.7,0-9.4,0-14.2,0c0-4.7,0-9.3,0-14.1C446.1,70.2,450.8,70.2,455.6,70.2z"></path> <path class="st0" d="M136.2,47.5c0,4.5,0,8.9,0,13.3c-4.9,0-9.7,0-14.6,0c0-4.5,0-8.8,0-13.3C126.5,47.5,131.3,47.5,136.2,47.5z"></path> <path class="st0" d="M508.8,47.5c4.9,0,9.5,0,14.2,0c0,4.5,0,9,0,13.6c-4.7,0-9.4,0-14.2,0C508.8,56.5,508.8,52.1,508.8,47.5z"></path> <path class="st0" d="M392.6,60.9c-5,0-9.7,0-14.6,0c0-4.5,0-8.9,0-13.5c4.6,0,9.1,0,13.6,0c0.3,0,0.9,0.5,0.9,0.7 C392.6,52.4,392.6,56.6,392.6,60.9z"></path> </g> </svg> 