<?xml version="1.0" encoding="UTF-8"?> <svg xmlns="http://www.w3.org/2000/svg" id="Layer_1" viewBox="0 0 600 123"><defs><style>.cls-1{fill:#016af1;}</style></defs><g><path class="cls-1" d="M322.52,45.08h9.38l8.76,23.95h.14l8.67-23.95h9.43v33.72h-5.95v-27.1h-.1l-10.24,27.1h-4.19l-10.1-27.1h-.1v27.1h-5.71V45.08Z"></path><path class="cls-1" d="M376.62,61.85c0-2.7,.45-5.13,1.36-7.31,.91-2.17,2.16-4.02,3.76-5.55,1.6-1.52,3.51-2.7,5.71-3.52,2.21-.83,4.61-1.24,7.21-1.24s5.06,.41,7.29,1.24c2.22,.83,4.14,2,5.76,3.52,1.62,1.52,2.88,3.37,3.79,5.55,.91,2.17,1.36,4.61,1.36,7.31s-.45,5.04-1.36,7.21c-.9,2.17-2.17,4.05-3.79,5.62s-3.54,2.79-5.76,3.67c-2.22,.87-4.65,1.31-7.29,1.31s-5.01-.44-7.21-1.31c-2.21-.87-4.11-2.1-5.71-3.67-1.6-1.57-2.86-3.44-3.76-5.62-.9-2.17-1.36-4.58-1.36-7.21Zm6.52,0c0,1.81,.28,3.47,.83,4.98,.55,1.51,1.35,2.82,2.38,3.93,1.03,1.11,2.25,1.98,3.67,2.6,1.41,.62,2.98,.93,4.69,.93s3.29-.31,4.71-.93c1.43-.62,2.66-1.48,3.69-2.6,1.03-1.11,1.83-2.42,2.38-3.93,.55-1.51,.83-3.17,.83-4.98s-.28-3.37-.83-4.86c-.56-1.49-1.34-2.79-2.36-3.91-1.02-1.11-2.24-1.98-3.67-2.62-1.43-.63-3.02-.95-4.76-.95s-3.33,.32-4.74,.95c-1.41,.64-2.63,1.51-3.64,2.62-1.02,1.11-1.8,2.41-2.36,3.91-.56,1.49-.83,3.11-.83,4.86Z"></path><path class="cls-1" d="M430.57,45.08h13.14c1.27,0,2.52,.15,3.76,.45,1.24,.3,2.34,.79,3.31,1.48,.97,.68,1.75,1.56,2.36,2.64,.6,1.08,.9,2.38,.9,3.91,0,1.91-.54,3.48-1.62,4.71s-2.49,2.13-4.24,2.67v.1c2.13,.29,3.87,1.11,5.24,2.48s2.05,3.19,2.05,5.48c0,1.84-.37,3.39-1.09,4.64-.73,1.25-1.69,2.26-2.88,3.02-1.19,.76-2.56,1.31-4.09,1.64-1.54,.33-3.1,.5-4.69,.5h-12.14V45.08Zm6,13.71h5.33c2,0,3.52-.4,4.57-1.19,1.05-.79,1.57-1.92,1.57-3.38s-.54-2.6-1.62-3.24c-1.08-.63-2.76-.95-5.05-.95h-4.81v8.76Zm0,14.95h5.38c.76,0,1.59-.05,2.48-.17,.89-.11,1.71-.34,2.45-.69,.75-.35,1.37-.86,1.86-1.52,.49-.67,.74-1.56,.74-2.67,0-1.78-.6-3.02-1.81-3.71-1.21-.7-3.03-1.05-5.48-1.05h-5.62v9.81Z"></path><path class="cls-1" d="M473.29,45.08h6v33.72h-6V45.08Z"></path><path class="cls-1" d="M499.58,45.08h6v28.38h14.33v5.33h-20.33V45.08Z"></path><path class="cls-1" d="M536.29,45.08h22.33v5.24h-16.33v8.57h15.48v5.05h-15.48v9.52h17.19v5.33h-23.19V45.08Z"></path></g><g><path class="cls-1" d="M163.39,53.85c-.7-.89-1.61-1.6-2.74-2.12-1.13-.52-2.21-.79-3.26-.79-.54,0-1.09,.05-1.64,.14-.56,.1-1.06,.28-1.5,.55-.45,.27-.82,.62-1.12,1.05-.3,.43-.45,.98-.45,1.64,0,.57,.12,1.05,.36,1.43,.24,.38,.59,.71,1.05,1,.46,.29,1.01,.55,1.64,.79,.63,.24,1.35,.48,2.14,.74,1.14,.38,2.33,.8,3.57,1.26,1.24,.46,2.36,1.07,3.38,1.83,1.02,.76,1.86,1.71,2.52,2.83,.67,1.13,1,2.53,1,4.21,0,1.94-.36,3.61-1.07,5.02-.71,1.41-1.67,2.58-2.88,3.5s-2.59,1.6-4.14,2.05c-1.56,.44-3.16,.67-4.81,.67-2.41,0-4.75-.42-7-1.26-2.25-.84-4.13-2.04-5.62-3.6l5.33-5.43c.82,1.02,1.91,1.87,3.26,2.55,1.35,.68,2.69,1.02,4.02,1.02,.6,0,1.19-.06,1.76-.19,.57-.13,1.07-.33,1.5-.62s.77-.67,1.02-1.14c.25-.48,.38-1.05,.38-1.71s-.16-1.17-.48-1.62-.77-.85-1.36-1.21c-.59-.36-1.32-.7-2.19-1-.87-.3-1.87-.63-2.98-.98-1.08-.35-2.14-.76-3.17-1.24-1.03-.48-1.95-1.09-2.76-1.83-.81-.75-1.46-1.65-1.95-2.71-.49-1.06-.74-2.36-.74-3.88,0-1.87,.38-3.48,1.14-4.81s1.76-2.43,3-3.29c1.24-.86,2.63-1.48,4.19-1.88,1.56-.4,3.13-.6,4.71-.6,1.9,0,3.85,.35,5.83,1.05,1.98,.7,3.72,1.73,5.21,3.1l-5.19,5.48Z"></path><path class="cls-1" d="M197.05,78.8l-13.57-22.05h-.14l.19,22.05h-7.91V45.09h9.29l13.52,22h.14l-.19-22h7.91v33.72h-9.24Z"></path><path class="cls-1" d="M237.72,78.8l-2.62-6.62h-13.05l-2.48,6.62h-8.86l14.14-33.72h7.91l14,33.72h-9.05Zm-9.05-24.72l-4.29,11.57h8.48l-4.19-11.57Z"></path><path class="cls-1" d="M277,55.47c0,1.97-.37,3.63-1.1,4.98-.73,1.35-1.71,2.44-2.95,3.26-1.24,.83-2.67,1.43-4.29,1.81-1.62,.38-3.3,.57-5.05,.57h-4.05v12.72h-8.14V45.09h12.38c1.84,0,3.56,.18,5.17,.55,1.6,.37,3,.95,4.19,1.76,1.19,.81,2.13,1.87,2.81,3.19,.68,1.32,1.02,2.95,1.02,4.88Zm-8.14,.05c0-.79-.16-1.44-.48-1.95-.32-.51-.75-.9-1.29-1.19-.54-.29-1.15-.48-1.83-.57-.68-.09-1.39-.14-2.12-.14h-3.57v7.95h3.43c.76,0,1.49-.06,2.19-.19,.7-.13,1.33-.35,1.88-.67,.55-.32,.99-.74,1.31-1.26,.32-.52,.48-1.18,.48-1.98Z"></path><path class="cls-1" d="M293.34,74.76c0,.64-.12,1.23-.36,1.79-.24,.56-.57,1.03-1,1.43-.43,.4-.93,.71-1.5,.95-.57,.24-1.18,.36-1.81,.36s-1.23-.11-1.79-.33c-.56-.22-1.04-.54-1.45-.95-.41-.41-.75-.89-1-1.43-.25-.54-.38-1.13-.38-1.76,0-.6,.12-1.18,.36-1.74s.56-1.04,.98-1.45,.9-.74,1.48-.98,1.17-.36,1.81-.36,1.24,.12,1.81,.36c.57,.24,1.07,.56,1.5,.95,.43,.4,.76,.87,1,1.43,.24,.56,.36,1.14,.36,1.74Zm-8.67-7.24v-22.43h7.95v22.43h-7.95Z"></path></g><g><path class="cls-1" d="M77.38,66.9c0-.51-.23-1.04-.6-1.39l-9.03-7.87s-2.26-1.87-2.26-5.49c.02-4.34,3.58-7.87,7.98-7.92h31.96s12.65-12.17,12.65-12.17c.87-.83,.28-2.3-.93-2.3h-44.68c-1.37,0-2.68,.53-3.66,1.48l-24.77,23.85c-6.38,6.14-3.5,16.3,4.02,18.95l28.05-5.34c.94-.37,1.26-.9,1.28-1.8Z"></path><path class="cls-1" d="M87.69,56.1c0,.51,.23,1.04,.6,1.39l9.03,7.87s2.26,1.87,2.26,5.49c-.02,4.34-3.58,7.87-7.98,7.92h-31.96s-12.65,12.17-12.65,12.17c-.87,.83-.28,2.3,.93,2.3h44.68c1.37,0,2.68-.53,3.66-1.48l24.77-23.85c6.38-6.14,3.5-16.3-4.02-18.95l-28.05,5.34c-.94,.37-1.26,.9-1.28,1.8Z"></path></g></svg> 