<?xml version="1.0" encoding="UTF-8"?> <svg xmlns="http://www.w3.org/2000/svg" id="Layer_1" viewBox="0 0 600 179"><path d="m246.55,101.64h14.31c.42,3.27,3.48,5.65,11.45,5.65,6.28,0,9.55-1.32,9.55-4.54s-3.27-4.33-14.52-5.86c-13.51-1.74-20.06-6.71-20.06-16.68,0-11.83,9.4-17.84,24.28-17.84s23.07,7.13,23.6,18.11h-14.36c-.42-3.27-3.38-5.54-10.3-5.54-6.49,0-8.87,2.06-8.87,4.44,0,3.38,4.12,3.91,12.78,5.07,14.52,1.85,21.86,7.02,21.86,17.63,0,11.45-9.77,17.84-25.02,17.84-15.36-.05-24.28-7.29-24.71-18.27h0Z" style="fill:#016af1;"></path><path d="m301.77,90.08c.95-17,11.72-27.72,28.03-27.72,18.22,0,28.93,12.56,28.93,29.57,0,15.68-11.56,27.51-26.56,27.51-7.02,0-12.56-2.48-15.84-6.81v22.44h-14.84v-35.11c-.05-4.12.05-6.76.26-9.87h0Zm42.13.95c0-8.55-5.54-14.73-13.78-14.73s-13.73,6.18-13.73,14.73c0,8.97,5.33,14.62,13.73,14.62s13.78-5.86,13.78-14.62Z" style="fill:#016af1;"></path><path d="m364.91,43.94h14.94v74.7h-14.94V43.94Z" style="fill:#016af1;"></path><path d="m386.03,92.03c0-17.9,11.56-29.67,29.14-29.67,15.84,0,27.08,10.72,28.14,26.98.21,3.91.42,6.81.74,13.88l.74,15.36h-13.67l-.21-7.02c-3.38,5.44-9.66,8.24-17.95,8.24-16.16.05-26.92-11.09-26.92-27.77h0Zm42.39-.69c0-8.97-5.44-15.04-13.62-15.04s-13.88,6.07-13.88,15.04,5.33,14.94,13.88,14.94c8.18-.05,13.62-5.28,13.62-14.94Z" style="fill:#016af1;"></path><path d="m448.85,101.64h14.31c.42,3.27,3.48,5.65,11.46,5.65,6.28,0,9.55-1.32,9.55-4.54s-3.27-4.33-14.52-5.86c-13.51-1.74-20.06-6.71-20.06-16.68,0-11.83,9.4-17.84,24.28-17.84s23.07,7.13,23.6,18.11h-14.31c-.42-3.27-3.38-5.54-10.3-5.54-6.49,0-8.87,2.06-8.87,4.44,0,3.38,4.12,3.91,12.78,5.07,14.52,1.85,21.86,7.02,21.86,17.63,0,11.45-9.77,17.84-25.02,17.84-15.41-.05-24.34-7.29-24.76-18.27h0Z" style="fill:#016af1;"></path><path d="m504.66,43.94h14.94l-.21,24.23c3.38-3.7,8.45-5.76,15.57-5.76,13.51,0,22.86,9.55,22.86,23.49v32.73h-14.94v-30.2c0-8.24-2.8-12.56-11.14-12.56s-12.14,5.07-12.14,13.62v29.14h-14.94V43.94h0Z" style="fill:#016af1;"></path><path d="m101.2,52.9h-13.24c-4.3,0-8.38,1.96-11.07,5.32l-5.19,6.49-5.19-6.49c-2.69-3.36-6.76-5.32-11.07-5.32h-13.24c0,16.3,13.21,29.51,29.51,29.51s29.51-13.21,29.51-29.51Z" style="fill:#016af1;"></path><path d="m184.61,45.52c-15.87,0-28.53,5.24-37.5,21-6.81,11.95-6.83,30.54-20.3,38.84-5.21,3.53-12.16,5.7-19.81,5.7-16.15,0-29.24-9.65-29.24-21.55h-12.12c0,24.29,19.69,43.98,43.98,43.98h75c24.29,0,43.98-19.69,43.98-43.98s-19.69-43.98-43.98-43.98Zm16.61,27.79h0c-1.77-1.77-1.77-4.63,0-6.39h0c1.77-1.77,4.63-1.77,6.39,0h0c1.77,1.77,1.77,4.63,0,6.39h0c-1.77,1.77-4.63,1.77-6.39,0Z" style="fill:#016af1;"></path></svg> 