<?xml version="1.0" encoding="UTF-8"?> <svg xmlns="http://www.w3.org/2000/svg" xmlns:xlink="http://www.w3.org/1999/xlink" version="1.1" id="Layer_1" x="0px" y="0px" viewBox="0 0 600 179" style="enable-background:new 0 0 600 179;" xml:space="preserve"> <style type="text/css"> .st0{fill:#016AF1;} </style> <g> <path class="st0" d="M230.6,106.4l9.6-5.4c2.2,5.8,6.7,9.6,14.7,9.6c7.5,0,10.3-3.2,10.3-6.6c0-4.6-4.3-6.4-13.8-9.1 c-9.8-2.7-19.2-6.9-19.2-18.7c0-11.8,10.1-18.7,21-18.7c10.4,0,18.6,5.3,22.8,14.1l-10.6,6.1c-2.2-4.8-5.8-8-12.2-8 c-5.3,0-8.3,2.7-8.3,6.2c0,3.8,2.4,5.9,12.2,8.8c10.1,3.2,20.8,6.4,20.8,19.2c0,11.7-9.6,18.9-23.2,18.9 c-12.5,0-20.8-5.6-24.5-14.2C229.5,107.7,229.8,106.8,230.6,106.4z"></path> <path class="st0" d="M331.1,98.4c0,13.6-10.1,24-22.3,24c-6.7,0-11.5-2.4-14.7-6.7v23.5h-11.7V77.4c0-1,0.6-1.6,1.6-1.6h9l1.3,5.4 c3.2-4.2,8.2-6.7,14.7-6.7C321,74.5,331.1,84.9,331.1,98.4z M319.2,98.4c0-7.5-5.5-12.6-12.7-12.6c-7.2,0-12.7,5.1-12.7,12.6 c0,7.5,5.5,12.6,12.7,12.6C313.9,111.1,319.2,106,319.2,98.4z"></path> <path class="st0" d="M333.8,98.1c0-13.6,10.7-24.1,24-24.1c13.5,0,24.2,10.5,24.2,24.1c0,13.6-10.7,24.1-24.2,24.1 C344.6,122.1,333.8,111.7,333.8,98.1z M370.5,98.1c0-7.3-5.5-12.6-12.7-12.6c-7.1,0-12.7,5.3-12.7,12.6s5.5,12.6,12.7,12.6 C365.1,110.8,370.5,105.5,370.5,98.1z"></path> <path class="st0" d="M401.8,105.8V86.9l6.9-1.1c0.3-3.5,1-7,1.9-10.2h-8.8V62.8L391.2,66c-0.6,0.2-1.1,0.8-1.1,1.6v8h-6.4 c-1,0-1.6,0.6-1.6,1.6v9.6h7.9v18.9c0,12.3,5.6,17.1,22.1,15.3v-10.7C405.3,110.9,401.8,110.7,401.8,105.8z"></path> <path class="st0" d="M415.7,89.5c0-18.7,14.7-33.1,33.2-33.1c18.4,0,33.2,14.4,33.2,33.1c0,18.5-14.8,33.1-33.2,33.1 C430.5,122.6,415.7,108,415.7,89.5z M469.4,89.5c0-12.1-9-20.6-20.7-20.6c-11.5,0-20.7,8.5-20.7,20.6c0,12,9,20.5,20.7,20.5 C460.5,109.9,469.4,101.5,469.4,89.5z"></path> <path class="st0" d="M529.7,93.3v28H518V94.8c0-6.2-3.7-9.4-9-9.4c-5.8,0-10.1,3.4-10.1,11.3v24.6h-11.9V77.4c0-1,0.6-1.6,1.6-1.6 h9l1.3,5.1c2.7-4.2,7.5-6.4,13.6-6.4C522.2,74.5,529.7,81.2,529.7,93.3z"></path> <path class="st0" d="M138.4,21.6c-37.7,0-68.1,29.6-68.1,67.9c0,38.5,30.5,67.9,68.1,67.9c37.7,0,68.1-29.6,68.1-67.9 C206.7,51.2,176.1,21.6,138.4,21.6z M138.4,122.3c-18.1,0-32.7-14.2-32.7-32.6c0-18.5,14.6-32.6,32.7-32.6 c18.1-0.2,32.9,14.1,32.9,32.4C171.3,108,156.5,122.3,138.4,122.3z"></path> <path class="st0" d="M138.4,21.6c-37.7,0-68.1,29.6-68.1,67.9c0,38.5,30.5,67.9,68.1,67.9c37.7,0,68.1-29.6,68.1-67.9 C206.7,51.2,176.1,21.6,138.4,21.6z M138.4,122.3c-18.1,0-32.7-14.2-32.7-32.6c0-18.5,14.6-32.6,32.7-32.6 c18.1-0.2,32.9,14.1,32.9,32.4C171.3,108,156.5,122.3,138.4,122.3z"></path> </g> </svg> 