<?xml version="1.0" encoding="UTF-8"?> <svg xmlns="http://www.w3.org/2000/svg" xmlns:xlink="http://www.w3.org/1999/xlink" version="1.1" id="Layer_1" x="0px" y="0px" viewBox="0 0 600 174.6" style="enable-background:new 0 0 600 174.6;" xml:space="preserve"> <style type="text/css"> .st0{fill:#016AF1;} </style> <g> <path class="st0" d="M113.8,23.1c0,0.3,0.1,0.6,0,0.8c-1.9,5-3.8,10-5.7,15c0,0.1-0.1,0.2-0.2,0.2l0,0c-6.8,0-13.6,0-20.4,0 c-0.8,0-1,0.3-1.2,0.8c-3.9,10.3-7.9,20.7-11.8,31l0,0c-0.6,0-1.2,0.1-1.7,0.1c-5.5,0-11,0-16.6,0c-0.4,0-0.9,0-1.5,0 c0.1-0.4,0.2-0.7,0.3-1c5.9-15.4,11.7-30.8,17.6-46.2c0.1-0.2,0.2-0.5,0.3-0.7C86.6,23.2,100.2,23.2,113.8,23.1z"></path> <path class="st0" d="M107.8,39.2c5.3,0,10.5,0,15.8,0c1.3,0,2.5,0,4,0c-0.1,0.4-0.1,0.7-0.2,1c-5.8,15.4-11.7,30.7-17.6,46.1 c-0.2,0.5-0.4,0.8-1.2,0.8c-13.1,0-26.2,0-39.4,0c-0.2,0-0.4,0-0.7,0c0-0.2,0-0.4,0-0.5c2-5.2,4-10.3,5.9-15.5l0,0 c6.9,0,13.7,0,20.6,0.1c0.8,0,0.9-0.4,1-0.9c2.2-5.7,4.4-11.5,6.6-17.2C104.4,48.4,106.1,43.8,107.8,39.2 C107.9,39.2,107.8,39.2,107.8,39.2z"></path> <path class="st0" d="M517.2,50.2c1.8-2.2,4.4-2.9,7.4-2.7c3,0.2,5.2,1.3,6.7,3.7c0.2-0.2,0.3-0.3,0.4-0.4c2.2-3.2,6.4-3.9,10.1-3 c3.2,0.8,5.5,3.2,5.5,6.5c0.1,5.2,0.1,10.4,0.1,15.6c0,0.7-0.4,0.9-1.2,0.9c-1.6,0-3.1,0-4.7,0c-1,0-1.4-0.3-1.4-1.2 c0-4.1,0-8.1,0-12.2c0-0.6,0-1.3-0.2-1.9c-0.5-1.8-2-2.7-4-2.6s-3.5,1.3-3.7,3.1c-0.1,0.8-0.1,1.5-0.1,2.3c0,3.8,0,7.5,0,11.2 c0,1.3-0.1,1.3-1.6,1.3c-1.3,0-2.6,0-3.9,0c-1.7,0-1.7,0-1.7-1.5c0-3.9,0-7.8,0-11.6c0-0.5,0-1-0.1-1.5c-0.3-2.1-2-3.3-4.2-3.3 c-2.3,0.1-3.8,1.5-3.8,3.6c0,4.2,0,8.5,0,12.7c0,1.1-0.6,1.6-1.9,1.6c-1.3,0-2.5,0-3.8,0c-1.4,0-1.5-0.1-1.5-1.4c0-0.8,0-1.5,0-2.3 c0-5.9,0-11.9,0-17.8c0-1.4,0.1-1.5,1.7-1.5c1.4,0,2.8,0,4.1,0c1.1,0,1.5,0.4,1.4,1.2c0,0.3,0,0.7,0,1 C517.1,50.2,517.2,50.2,517.2,50.2L517.2,50.2z"></path> <path class="st0" d="M166.3,50c-0.2,0-0.5,0-0.8,0c-0.8,0-1.8,0.2-2.3-0.2c-0.4-0.3-0.4-1.2-0.6-1.8c-0.4-1.2-1.2-2.1-2.5-2.7 c-2.2-1-4.5-1.1-6.8-0.4c-1.3,0.4-2.1,1.2-2.3,2.4c-0.2,1.2,0.3,2.3,1.5,2.9c1.3,0.7,2.7,1.2,4.1,1.7c2.6,0.9,5.2,1.7,7.8,2.7 c7.2,2.9,6.6,9.6,3.3,12.8c-1.8,1.8-4.1,2.8-6.8,3.2c-4.1,0.7-8.2,0.5-12-1.2c-3.8-1.8-5.5-4.6-5.4-8.4c0-0.6,0.3-0.9,1.1-0.9 c1.7,0,3.3,0,5,0c0.7,0,1,0.3,1.1,0.9c0.2,2.3,1.3,3.7,3.9,4.2c1.6,0.3,3.2,0.3,4.8,0.2c0.8-0.1,1.6-0.6,2.2-1.1 c1.6-1.3,1.4-3.4-0.4-4.4c-1.1-0.7-2.5-1.2-3.8-1.7c-2.6-0.9-5.2-1.7-7.8-2.8c-2.9-1.2-5.2-3.1-5.8-6c-0.8-3.9,1.1-7.5,5.3-9.1 c5.6-2.2,11.2-2,16.4,1.1c2.9,1.7,4.2,4.3,4.1,7.4c0,0.7-0.4,1-1.2,1C167.9,50,167.1,50,166.3,50L166.3,50z"></path> <path class="st0" d="M347.6,50c-0.9,0-1.8,0-2.6,0c-0.3,0-0.8-0.3-0.9-0.6c-0.8-3.5-3.1-5-7.2-4.8c-0.8,0.1-1.7,0.2-2.4,0.5 c-2.6,1-3,3.8-0.7,5.2c1.1,0.7,2.4,1.1,3.7,1.6c2.8,1,5.6,1.8,8.3,2.9c7.2,2.9,6.6,9.7,3.3,12.9c-1.8,1.8-4.1,2.7-6.7,3.1 c-4.1,0.7-8.1,0.6-11.9-1.2c-3.9-1.8-5.6-4.6-5.5-8.4c0-0.7,0.4-1,1.1-1c1.6,0,3.3,0,4.9,0c0.7,0,1.1,0.2,1.1,0.9 c-0.1,2.3,1.5,3.6,3.8,4.2c1.6,0.4,3.4,0.3,5,0.2c1.1-0.1,2.1-0.7,2.7-1.6c0.9-1.4,0.7-2.9-0.8-3.8c-1.4-0.8-2.9-1.3-4.4-1.9 c-2.4-0.9-4.9-1.6-7.3-2.6c-3-1.2-5.2-3.1-5.8-6.1c-0.8-4,1.1-7.4,5.4-9.1c5.5-2.2,11.1-1.9,16.2,1.1c3,1.7,4.3,4.3,4.2,7.4 c0,0.7-0.3,1-1.2,1C349.2,50,348.4,50,347.6,50L347.6,50z"></path> <path class="st0" d="M363.5,50.1c3.6-4.3,12.3-3.2,15.2,2.3c2.6,4.9,2.6,10-0.6,14.8c-2.1,3.2-6.8,4.8-10.9,3.7 c-1.3-0.3-2.4-1.1-3.8-1.8c0,0.2,0,0.6,0,0.9c0,2.6,0,5.2,0,7.8c0,1.2-0.2,1.3-1.5,1.3c-1.5,0-3,0-4.6,0c-0.8,0-1.1-0.3-1.1-1 c0-0.6,0-1.1,0-1.7c0-9,0-18,0-27.1c0-1.6,0-1.6,1.8-1.6c1.3,0,2.6,0,3.9,0c1.4,0,1.5,0.1,1.5,1.3 C363.5,49.4,363.5,49.6,363.5,50.1L363.5,50.1z M371.9,63.2c1-2.4,1-5,0.1-7.5c-0.1-0.2-0.1-0.4-0.2-0.6c-0.6-1.4-2-2.1-3.8-2.1 c-1.8,0-3,0.8-3.6,2.2c-1.3,2.8-1.3,5.6,0,8.4c0.6,1.3,1.8,2,3.5,2.1c1.7,0.1,3.2-0.5,3.8-1.9C371.8,63.6,371.8,63.4,371.9,63.2 L371.9,63.2z"></path> <path class="st0" d="M302,49.2c0-1.9,0-3.8,0-5.7c0-1.1,0-2.3,0-3.4c0-0.6,0.3-0.9,1-0.9c1.7,0,3.4,0,5.1,0c0.7,0,1,0.3,1,0.9 c0,0.7,0,1.4,0,2.1c0,8.9,0,17.8,0,26.7c0,1.5,0,1.5-1.8,1.5c-1.3,0-2.6,0-3.9,0c-1.4,0-1.5-0.1-1.5-1.3c0-0.2,0-0.5,0-0.8 c-0.2,0-0.3,0-0.3,0.1c-2.8,3.4-9.2,2.8-12.3,0.3c-2.8-2.2-3.9-5-4.2-8.1c-0.3-3.3,0-6.6,2.1-9.5c2.3-3.2,6.9-4.8,11-3.8 C299.5,47.7,300.6,48.5,302,49.2L302,49.2z M293.6,55.7c-0.9,2.4-0.8,4.9,0.1,7.2c0.1,0.2,0.1,0.4,0.2,0.6c0.6,1.4,2,2,3.7,2.1 c1.6,0,2.9-0.7,3.5-2c1.4-2.9,1.4-5.8,0-8.7c-0.6-1.3-1.8-2-3.4-2s-3.5,1.1-4,2.5C293.7,55.5,293.7,55.6,293.6,55.7L293.6,55.7z"></path> <path class="st0" d="M391.3,61.4c0.1,2.5,1.8,4.1,4.7,4.4c2.4,0.2,4.6-0.2,6.3-1.8c0.5-0.5,1.1-0.6,1.6,0c0.8,0.7,1.6,1.4,2.4,2 c0.7,0.6,0.6,1,0,1.6c-3.2,3-7.4,4-11.9,3.5c-5.8-0.7-9.5-4.1-10.2-9.3c-0.3-2-0.3-4.1,0.1-6c1.1-5.2,6-8.5,12-8.2 c6,0.2,9.8,3.1,11.1,8.6c0.3,1.4,0.4,2.8,0.6,4.2c0.1,0.9-0.6,1-1.4,1c-4.7,0-9.5,0-14.2,0C392.2,61.3,391.8,61.4,391.3,61.4 L391.3,61.4z M391.5,56.8h9.1c0-2.2-1.8-3.9-4.4-4C393.5,52.8,391.7,54.3,391.5,56.8z"></path> <path class="st0" d="M265.4,49.7c0.2-0.1,0.3-0.1,0.4-0.1c2.8-2.8,6.3-2.9,9.9-1.7c3.6,1.1,5.2,3.7,5.3,6.9c0.1,5,0,9.9,0.1,14.9 c0,0.7-0.4,1-1.1,1c-1.7,0-3.3,0-5,0c-1,0-1.1-0.5-1.1-1.2c0-4,0-8,0-12c0-0.5,0-1.1-0.1-1.6c-0.3-1.9-1.8-3-3.9-3.1 c-2.1-0.1-3.8,1-4.2,2.9c-0.1,0.5-0.2,1.1-0.2,1.7c0,4,0,8.1,0,12.1c0,1.1-0.1,1.3-1.4,1.3c-1.5,0-3,0-4.6,0 c-0.9,0-1.2-0.3-1.2-1.1c0-7,0-13.9,0-20.9c0-0.8,0.3-1.1,1.2-1.1c1.5,0,3,0,4.6,0c1.3,0,1.4,0.1,1.4,1.3 C265.4,49,265.4,49.3,265.4,49.7L265.4,49.7z"></path> <path class="st0" d="M254.1,58.9c-0.3,1.5-0.4,3-0.8,4.5c-1.5,4.8-6,7.6-11.8,7.5c-6.5-0.1-10.9-3.6-11.8-9.2 c-0.4-2.2-0.3-4.4,0.3-6.6c1.7-6.1,7.6-8.4,13.5-7.8c6,0.6,9.9,4.4,10.4,9.7c0.1,0.6,0.1,1.3,0.1,1.9C254,58.8,254,58.8,254.1,58.9 L254.1,58.9z M237.1,56c-0.7,2.1-0.6,4.4,0.1,6.5c0.1,0.2,0.1,0.4,0.2,0.6c0.7,1.7,2.2,2.6,4.3,2.6c2,0,3.5-0.9,4.2-2.6 c1.1-2.5,1.1-5.2,0.1-7.7c-0.7-1.7-2.4-2.6-4.4-2.6c-1.9,0-3.6,1-4.2,2.7C237.2,55.7,237.1,55.9,237.1,56L237.1,56z"></path> <path class="st0" d="M496.3,68.7c-1.3,1.5-3,2.2-5.1,2.4c-5.3,0.5-10.1-2.1-10.2-7.2c-0.1-5,0-10-0.1-15c0-0.7,0.4-1,1.2-1 c1.6,0,3.1,0,4.7,0c1,0,1.3,0.4,1.3,1.2c0,4,0,7.9,0,11.9c0,0.5,0,1,0.1,1.5c0.3,2.2,2,3.5,4.3,3.3c2.3-0.1,4-1.7,4-3.8 c0-4.2,0-8.5,0-12.8c0-1.3,0.1-1.4,1.6-1.4c1.5,0,2.9,0,4.4,0c0.9,0,1.2,0.3,1.2,1.1c0,7,0,13.9,0,20.9c0,0.8-0.3,1.1-1.2,1.1 c-1.5,0-3,0-4.6,0c-1.3,0-1.4-0.1-1.4-1.3c0-0.2,0-0.5,0-0.8C496.5,68.8,496.4,68.8,496.3,68.7L496.3,68.7z"></path> <path class="st0" d="M418.5,59.5c0.2,1.1,0.3,2.4,0.7,3.5c0.6,1.8,2.1,2.7,4.2,2.8c2,0.1,3.8-0.9,4.5-2.6c0.4-0.9,0.9-1.1,1.9-0.9 c1.3,0.2,2.6,0.3,4,0.5c1.3,0.2,1.6,0.5,1.2,1.7c-1.1,3.2-3.6,5.1-7.1,6.1c-5.4,1.5-11,0.1-14-3.5c-1.6-1.9-2.4-4.2-2.4-6.5 c0-2,0.1-4.2,0.7-6.1c1.3-4.2,4.8-6.4,9.6-7c4.2-0.5,8,0.4,11.1,3.1c1.3,1.1,2,2.5,2.5,4.1c0.2,0.7,0,1.1-0.9,1.2 c-1.7,0.2-3.4,0.5-5.2,0.7c-0.6,0.1-0.9-0.2-1.1-0.7c-0.6-2.1-2.3-3.1-4.7-3.1c-2.2,0-3.9,1.1-4.4,3.2 C418.7,57.1,418.7,58.2,418.5,59.5L418.5,59.5z"></path> <path class="st0" d="M209,59.3c0.3,1.3,0.4,2.4,0.8,3.4c0.6,1.7,2.1,2.7,4.1,2.7c2.1,0.1,3.8-0.9,4.5-2.5c0.4-0.8,0.9-1.1,1.9-1 c1.4,0.2,2.8,0.4,4.2,0.6c1.2,0.2,1.5,0.5,1.1,1.5c-0.5,1.1-1,2.2-1.8,3.1c-3.1,3.3-7.2,4.1-11.8,3.6c-4.4-0.5-7.6-2.6-9.1-6.3 c-1.5-3.6-1.5-7.4,0-11c1.7-4,5.3-5.8,9.9-6.2c3.6-0.3,6.9,0.5,9.7,2.6c1.6,1.2,2.7,2.7,3.2,4.5c0.2,0.9,0,1.2-1,1.4 c-1.6,0.2-3.2,0.4-4.8,0.6c-0.7,0.1-1-0.1-1.2-0.7c-0.6-2-2.2-3-4.5-3c-2.2,0-3.9,0.9-4.4,2.8C209.3,56.7,209.2,58.1,209,59.3 L209,59.3z"></path> <path class="st0" d="M441.8,59.5c0-1.9,0-3.9,0-5.8c0-0.6-0.2-0.9-0.9-0.8c-0.1,0-0.1,0-0.2,0c-2.9,0-2.6,0.3-2.6-2.4 c0-2.5,0-2.6,2.9-2.6c0.7,0,0.9-0.3,0.9-0.9c0-1.4,0-2.7,0-4.1c0-0.8,0.3-1.2,1.3-1.2c1.5,0,3,0,4.6,0c0.8,0,1.2,0.3,1.2,1 c0,1.4,0,2.8,0,4.2c0,0.7,0.2,0.9,1,0.9c1.2,0,2.4,0,3.6,0c0.8,0,1.2,0.3,1.2,1c0,1,0,2,0,3c0,0.7-0.4,1-1.2,1c-1.3,0-2.5,0-3.8,0 c-0.5,0-0.8,0.2-0.8,0.7c0,3.1,0,6.2,0,9.3c0,1.7,1,2.4,2.9,2.4c1.5,0,2.3,0.7,2.3,2.1c0,0.8,0,1.5,0,2.3c0,0.7-0.3,1.1-1.1,1.1 c-2.3-0.1-4.7,0-6.9-0.4c-2.8-0.5-4.1-2.2-4.2-5c0-0.1,0-0.2,0-0.3C441.9,63.2,441.9,61.4,441.8,59.5L441.8,59.5L441.8,59.5z"></path> <path class="st0" d="M467.8,50.2c0.2-0.2,0.5-0.5,0.8-0.8c1.9-1.8,4.2-2.2,6.9-1.6c1,0.2,1.4,0.7,1.1,1.6c-0.3,1.3-0.6,2.7-0.8,4 c-0.1,0.7-0.5,0.8-1.3,0.8c-1-0.1-2.1-0.1-3.1,0c-2.2,0.3-3.7,1.7-3.7,3.7c-0.1,3.8,0,7.6,0,11.4c0,1.5,0,1.5-1.8,1.5 c-1.3,0-2.7,0-4,0c-1.3,0-1.4-0.1-1.4-1.3c0-4.3,0-8.7,0-13c0-2.4,0-4.9,0-7.3c0-1.2,0.1-1.3,1.6-1.3c1.4,0,2.8,0,4.1,0 s1.5,0.1,1.5,1.3c0,0.3,0,0.6,0,0.9C467.6,50.1,467.7,50.1,467.8,50.2L467.8,50.2z"></path> <path class="st0" d="M198.5,60.1c-0.2-1.4-0.2-2.9-0.6-4.2c-1.2-5.1-4.6-8-9.9-8.6c-6.1-0.7-11.7,2.4-13.1,7.4 c-0.4,1.7-0.6,3.5-0.5,5.2c0.3,6.5,4.4,10.5,11.4,11c4.2,0.3,8-0.8,10.9-3.6c0.6-0.6,0.7-1.1,0-1.6c-0.8-0.7-1.6-1.3-2.4-2 c-0.6-0.5-1.1-0.5-1.6,0.1c-1.2,1.2-2.9,1.8-4.7,1.9c-3.2,0.2-5.6-1.2-6.2-3.7c-0.2-0.7,0.1-0.8,0.8-0.8c2.5,0,4.9,0,7.4,0 c2.5,0,4.9,0,7.4,0C198.2,61.1,198.6,60.8,198.5,60.1L198.5,60.1z M190.7,56.9c-2.7,0-5.4,0-8,0c-0.3,0-0.6,0-1,0 c0.1-2.6,2-4.1,4.9-4C189,53,190.9,54.8,190.7,56.9z"></path> </g> <g> <path class="st0" d="M338.9,123c0-1.2-0.4-2.2-1.1-2.9c-0.8-0.7-1.8-1.1-3.1-1.1h-4.7v8h4.9c1.3,0,2.4-0.3,3.1-1 C338.5,125.3,338.9,124.3,338.9,123L338.9,123z"></path> <path class="st0" d="M277.2,119.9c-1-0.7-2.2-1-3.6-1c-1.4,0-2.6,0.3-3.7,1c-1,0.7-1.8,1.6-2.4,2.9c-0.6,1.3-0.8,2.8-0.8,4.5v0 c0,1.7,0.3,3.2,0.8,4.5c0.6,1.3,1.4,2.2,2.4,2.9c1,0.7,2.3,1,3.7,1c0.7,0,1.4-0.1,2-0.3l-2.8-3.9h3.6l1.7,2.4 c0.6-0.6,1.1-1.3,1.5-2.2c0.6-1.3,0.8-2.7,0.8-4.5v0c0-1.7-0.3-3.2-0.8-4.5C279,121.5,278.2,120.5,277.2,119.9z"></path> <path class="st0" d="M381.3,120.1c-1.1-0.6-2.4-0.9-4-0.9h-4.1v16.3h4.1c1.6,0,2.9-0.3,4-0.9c1.1-0.6,1.9-1.5,2.5-2.8 c0.6-1.2,0.8-2.7,0.8-4.4v0c0-1.7-0.3-3.2-0.9-4.4C383.2,121.6,382.4,120.7,381.3,120.1z"></path> <path class="st0" d="M44.1,100.4v51h514v-51H44.1z M230.3,138.4l-2-6h-8.6l-2,6H214l8.1-22.3h1.9h0.9h0.9l8.1,22.3H230.3z M257.6,131.3c-0.2,1.5-0.8,2.8-1.6,3.9c-0.8,1.1-1.9,2-3.2,2.6c-1.3,0.6-2.8,0.9-4.4,0.9c-2.1,0-3.9-0.5-5.5-1.4 c-1.5-0.9-2.7-2.3-3.6-4c-0.8-1.7-1.3-3.8-1.3-6.1v0c0-2.4,0.4-4.4,1.3-6.1c0.8-1.7,2-3,3.6-4c1.5-0.9,3.4-1.4,5.5-1.4 c1.6,0,3.1,0.3,4.4,0.9c1.3,0.6,2.4,1.5,3.3,2.6c0.9,1.1,1.4,2.4,1.6,3.9l0,0.2h-3.4l-0.1-0.3c-0.2-0.9-0.6-1.6-1.1-2.3 s-1.2-1.1-2-1.4c-0.8-0.3-1.7-0.5-2.7-0.5c-1.4,0-2.6,0.3-3.6,1c-1,0.7-1.8,1.7-2.4,2.9c-0.6,1.3-0.8,2.7-0.8,4.5v0 c0,1.7,0.3,3.2,0.8,4.5c0.6,1.3,1.3,2.2,2.4,2.9c1,0.7,2.2,1,3.6,1c1,0,1.9-0.2,2.6-0.5c0.8-0.3,1.4-0.8,2-1.5 c0.5-0.6,1-1.4,1.2-2.4l0-0.2h3.4L257.6,131.3z M284,127.3c0,2.4-0.4,4.4-1.3,6.1c-0.7,1.3-1.5,2.4-2.6,3.3l2.9,4.1h-3.6l-1.9-2.7 c-1.2,0.4-2.5,0.7-3.9,0.7c-2.1,0-4-0.5-5.6-1.4c-1.6-0.9-2.8-2.3-3.6-4c-0.8-1.7-1.3-3.8-1.3-6.1v0c0-2.4,0.4-4.4,1.3-6.1 c0.8-1.7,2.1-3,3.6-4c1.6-0.9,3.4-1.4,5.6-1.4c2.1,0,4,0.5,5.5,1.4c1.6,0.9,2.8,2.3,3.6,4S284,124.9,284,127.3L284,127.3z M308.5,130.6c0,1.6-0.4,3.1-1.1,4.3c-0.7,1.2-1.8,2.2-3.1,2.9c-1.3,0.7-3,1-4.8,1c-1.9,0-3.5-0.3-4.8-1c-1.3-0.7-2.4-1.6-3.1-2.9 c-0.7-1.2-1.1-2.7-1.1-4.3v-14.4h3.5v14.2c0,1.6,0.5,2.9,1.5,3.9c1,1,2.3,1.5,4.1,1.5c1.8,0,3.1-0.5,4.1-1.5c1-1,1.4-2.3,1.4-3.9 v-14.2h3.5V130.6z M319.2,138.4h-3.5v-22.3h3.5V138.4z M339.1,138.4l-4.5-8.5c0,0-0.1,0-0.1,0s-0.1,0-0.1,0h-4.5v8.5h-3.5v-22.3 h8.7c1.5,0,2.8,0.3,3.9,0.8c1.1,0.6,2,1.3,2.6,2.4c0.6,1,0.9,2.2,0.9,3.6v0c0,1.5-0.4,2.8-1.1,4c-0.8,1.1-1.8,1.9-3.2,2.4l5,9.1 H339.1z M363.1,119.1h-10.7v6.5h10.1v2.9h-10.1v6.9h10.7v3H349v-22.3h14.1V119.1z M388.2,127.2c0,2.3-0.4,4.4-1.2,6 c-0.8,1.7-2,2.9-3.6,3.8c-1.6,0.9-3.5,1.3-5.7,1.3h-7.8v-22.3h7.8c2.2,0,4.1,0.4,5.7,1.3c1.6,0.9,2.8,2.1,3.6,3.8 S388.2,124.9,388.2,127.2L388.2,127.2z"></path> <polygon class="st0" points="224,119.8 220.7,129.6 227.4,129.6 224.1,119.8 "></polygon> </g> </svg> 