<?xml version="1.0" encoding="UTF-8"?> <svg xmlns="http://www.w3.org/2000/svg" xmlns:xlink="http://www.w3.org/1999/xlink" version="1.1" id="Layer_1" x="0px" y="0px" viewBox="0 0 659 185" style="enable-background:new 0 0 659 185;" xml:space="preserve"> <style type="text/css"> .st0{fill:#016AF1;} .st1{opacity:0.6;fill-rule:evenodd;clip-rule:evenodd;fill:#016AF1;} .st2{opacity:0.3;fill:#016AF1;} </style> <path class="st0" d="M108.3,123.3c14.3,0,26.8-7.4,26.9-21.6c0.1-10.8-7-16.9-16.1-20.5L109,77.4c-4-1.4-6.9-3.5-6.9-6.9 c0-3,2.2-5.6,6.9-5.6c4.2,0,8.3,2,13,5.9c1.3,1,2.3,1.2,3.4,0l6.4-7.6c0.7-0.9,1-2,0.1-3c-6-7.1-14.6-10.8-24-10.8 c-13.3,0-25,7.8-25,21.3c0,9.8,6.4,15.7,15.7,19.3l9.1,3.6c5.3,2.2,7.5,3.9,7.5,7.4c0,4-3.2,5.9-8.1,5.9c-5.6,0-10.5-2.5-16.5-6.9 c-1.2-0.9-2.5-1.2-3.7,0.6l-5.1,7.1c-1,1.6-1.2,3.2-0.3,4.2C87.2,118.3,96.3,123.3,108.3,123.3z"></path> <path class="st0" d="M216.6,83c0-17.9-12.6-33.7-34.4-33.7c-22.1,0-36.9,16-36.9,36.8c0,21.3,15.8,37.3,39.4,37.3 c10.1,0,19.3-2.9,25.5-8.9c1.3-1.2,1.5-2.2,0.7-3.2l-5.4-7.4c-0.7-1-1.5-1.2-2.5-0.6c-5.9,3.3-11.1,4.3-16.7,4.3 c-11.7,0-18.9-4.9-21.1-13.8h43.5C214.9,93.8,216.6,89.9,216.6,83z M182.3,65.7c8.6,0,15.1,4.6,16.3,14.1h-33.7 C166.5,70.4,173.4,65.7,182.3,65.7z"></path> <path class="st0" d="M272,49.2c-10.7,0-17.6,5.2-21.7,12.4l-0.6-8.4c0-1.7-0.9-2.3-2.2-2.3h-15.2c-1.3,0-2.2,0.9-2.2,2.2v66.3 c0,1.3,0.9,2.2,2.2,2.2h15.8c1.3,0,2.2-0.9,2.2-2.2V82.8c0-9.9,5.6-15.3,14.1-15.3c8.6,0,13.3,5.3,13.3,15.3v36.6 c0,1.3,0.9,2.2,2.2,2.2h15.7c1.3,0,2.3-0.9,2.3-2.2V78.4C297.9,59.9,287.1,49.2,272,49.2z"></path> <path class="st0" d="M339.6,123.3c14.3,0,26.8-7.4,26.9-21.6c0.1-10.8-7-16.9-16.1-20.5l-10.1-3.9c-4-1.4-6.9-3.5-6.9-6.9 c0-3,2.2-5.6,6.9-5.6c4.2,0,8.3,2,13,5.9c1.3,1,2.3,1.2,3.4,0l6.4-7.6c0.7-0.9,1-2,0.1-3c-6-7.1-14.6-10.8-24-10.8 c-13.3,0-25,7.8-25,21.3c0,9.8,6.4,15.7,15.7,19.3l9.1,3.6c5.3,2.2,7.5,3.9,7.5,7.4c0,4-3.2,5.9-8.1,5.9c-5.6,0-10.5-2.5-16.5-6.9 c-1.2-0.9-2.5-1.2-3.7,0.6l-5.1,7.1c-1,1.6-1.2,3.2-0.3,4.2C318.6,118.3,327.6,123.3,339.6,123.3z"></path> <path class="st0" d="M391.4,38.4c6.4,0,11.1-4.9,11.1-11.1c0-6.1-4.7-11-11.1-11c-6.4,0-11.3,4.9-11.3,11 C380.1,33.5,384.9,38.4,391.4,38.4z M383.3,121.6h16c1.3,0,2.2-0.9,2.2-2.2V53.1c0-1.3-0.9-2.2-2.2-2.2h-16c-1.3,0-2.2,0.9-2.2,2.2 v66.3C381.1,120.7,382,121.6,383.3,121.6z"></path> <path class="st0" d="M461.6,49.2c-10.1,0-17.4,3.7-22.3,10.1V20.7c0-1.3-0.9-2.2-2.2-2.2h-16c-1.3,0-2.2,0.9-2.2,2.2v98.7 c0,1.3,1,2.2,2.3,2.2h14.3c1.3,0,2.2-0.9,2.2-2.2l0.3-7.8c5,7.2,12.6,11.7,23.4,11.7c20.1,0,34-16,34-37 C495.6,65.4,481.7,49.2,461.6,49.2z M457.4,105.2c-10.8,0-18.3-7.5-18.3-18.9s7.5-18.9,18.3-18.9c10.5,0,18.4,7.6,18.4,18.9 C475.8,97.7,467.9,105.2,457.4,105.2z"></path> <path class="st0" d="M511.5,121.6h16c1.3,0,2.2-0.9,2.2-2.2V20.7c0-1.3-0.9-2.2-2.2-2.2h-16c-1.3,0-2.2,0.9-2.2,2.2v98.7 C509.4,120.7,510.2,121.6,511.5,121.6z"></path> <path class="st0" d="M614.7,83c0-17.9-12.6-33.7-34.4-33.7c-22.1,0-36.9,16-36.9,36.8c0,21.3,15.8,37.3,39.4,37.3 c10.1,0,19.3-2.9,25.5-8.9c1.3-1.2,1.5-2.2,0.7-3.2l-5.4-7.4c-0.7-1-1.5-1.2-2.5-0.6c-5.9,3.3-11.1,4.3-16.7,4.3 c-11.7,0-18.9-4.9-21.1-13.8h43.5C613.1,93.8,614.7,89.9,614.7,83z M580.5,65.7c8.6,0,15.1,4.6,16.3,14.1h-33.7 C564.7,70.4,571.5,65.7,580.5,65.7z"></path> <path class="st0" d="M355.2,184h4.3c0.7,0,1.3-0.3,1.5-1l11.8-33.8l11.7,33.8c0.3,0.7,0.8,1,1.5,1h4.3c0.7,0,1.3-0.3,1.5-1 l13.5-39.1c0.3-0.9,0-1.4-0.9-1.4h-3.9c-0.7,0-1,0.3-1.3,1L388,177.3l-11.6-33.8c-0.3-0.7-0.8-1-1.5-1h-4.2c-0.7,0-1.3,0.3-1.5,1 l-11.6,33.8l-11.3-33.8c-0.3-0.7-0.7-1-1.3-1h-3.8c-0.9,0-1.3,0.5-0.9,1.4l13.4,39.1C354,183.6,354.5,184,355.2,184z"></path> <path class="st0" d="M450.6,161.1c0-10.2-7.1-19.7-19.2-19.7c-12.3,0-20.7,9.4-20.7,21.6c0,12.1,8.3,22,21.8,22 c5.7,0,11-1.8,14.7-5.3c0.6-0.6,0.9-1,0.3-1.8l-1.4-2c-0.3-0.4-0.8-0.4-1.3-0.1c-3.2,2.5-6.8,4-11.8,4c-10,0-15.6-6.2-16.4-14.4h31 C450,165.4,450.6,164.1,450.6,161.1z M431.2,146.8c8.3,0,13.7,5.7,13.9,13.8h-28.6C417.3,152.3,423.1,146.8,431.2,146.8z"></path> <path class="st1" d="M82.6,164.5c45.6,0,82.6-36.8,82.6-82.3c0-45.4-37-82.3-82.6-82.3L0,0l0,82.3C0,127.7,37,164.5,82.6,164.5z"></path> <path class="st0" d="M500,142.4h-3.6c-0.8,0-1.1,0.4-1.1,1.2l-0.1,7c-3-5.7-8.5-9.2-15.9-9.2c-12,0-20.2,9.4-20.2,21.8 c0,12.5,8.2,21.8,20.2,21.8c7.4,0,12.9-3.5,15.9-9.1l0.1,6.9c0,0.8,0.3,1.2,1.1,1.2h3.6c0.8,0,1.1-0.4,1.1-1.2v-39.2 C501.1,142.8,500.8,142.4,500,142.4z M480.2,179.3c-8.8,0-15.2-6.4-15.2-16.1c0-9.6,6.4-16.1,15.2-16.1c8.8,0,15,6.6,15,16.3 C495.2,173,489,179.3,480.2,179.3z"></path> <path class="st0" d="M530.9,147.5c0.8,0,1.2-0.4,1.2-1.2v-2.7c0-0.8-0.4-1.2-1.2-1.2h-7v-9.8c0-0.8-0.3-1.2-1.1-1.2h-3.9 c-0.8,0-1.1,0.4-1.1,1.2v9.8h-5.4c-0.8,0-1.2,0.4-1.2,1.2v2.7c0,0.8,0.4,1.2,1.2,1.2h5.4V176c0,6.1,3,9,8.7,9c2.2,0,5.3-0.4,5.3-1.9 v-2.5c0-0.8-0.3-1.3-1.6-1.1c-0.8,0.1-1.9,0.2-2.6,0.2c-2.5,0-3.8-1.2-3.8-4.4v-27.7H530.9z"></path> <path class="st0" d="M561.8,141.4c-6.8,0-11.1,3.4-13.4,7.6v-24.5c0-0.8-0.3-1.2-1.1-1.2h-3.9c-0.8,0-1.1,0.4-1.1,1.2v58.3 c0,0.8,0.3,1.2,1.1,1.2h3.9c0.8,0,1.1-0.4,1.1-1.2V159c0-7.4,5.1-11.9,11.9-11.9c6.8,0,10.7,4.5,10.7,11.9v23.8c0,0.8,0.3,1.2,1,1.2 h3.9c0.8,0,1.1-0.4,1.1-1.2v-24.4C577,147.3,570.8,141.4,561.8,141.4z"></path> <path class="st0" d="M627.5,161.1c0-10.2-7.1-19.7-19.2-19.7c-12.3,0-20.7,9.4-20.7,21.6c0,12.1,8.3,22,21.8,22 c5.7,0,11-1.8,14.7-5.3c0.6-0.6,0.9-1,0.3-1.8l-1.4-2c-0.3-0.4-0.8-0.4-1.3-0.1c-3.2,2.5-6.8,4-11.8,4c-10,0-15.6-6.2-16.4-14.4h31 C626.9,165.4,627.5,164.1,627.5,161.1z M608.2,146.8c8.3,0,13.7,5.7,13.9,13.8h-28.6C594.2,152.3,600,146.8,608.2,146.8z"></path> <path class="st0" d="M657.4,142.2c-0.8-0.5-2.1-0.8-3.8-0.8c-5.1,0-7.9,3.1-9.5,7l-0.2-4.8c0-0.9-0.3-1.3-1.2-1.3h-3.5 c-0.8,0-1.1,0.4-1.1,1.2v39.2c0,0.8,0.3,1.2,1.1,1.2h3.9c0.8,0,1.1-0.4,1.1-1.2v-24.4c0-4.7,2-11.4,9.4-11.4c0.8,0,1.8,0.1,2.9,0.4 c0.9,0.3,1.5,0.1,1.5-0.8v-2.9C658.1,142.9,657.9,142.6,657.4,142.2z"></path> <path class="st2" d="M163.1,12.5c-10.3,0-20.1,2-28.9,5.5c18.9,15.1,31,38.2,31,64.2c0,23-9.5,43.8-24.8,58.8 c7.2,2.2,14.8,3.4,22.7,3.4c39.9,0,72.2-29.5,72.2-65.9C235.3,42,203,12.5,163.1,12.5z"></path> </svg> 