<?xml version="1.0" encoding="UTF-8"?> <svg xmlns="http://www.w3.org/2000/svg" xmlns:xlink="http://www.w3.org/1999/xlink" version="1.1" id="Layer_1" x="0px" y="0px" viewBox="0 0 600 155.4" style="enable-background:new 0 0 600 155.4;" xml:space="preserve"> <style type="text/css"> .st0{fill:#016AF1;} .st1{opacity:0.9;fill:#016AF1;enable-background:new ;} </style> <path class="st0" d="M100.1,47.5c2.6,3.8,8.2,6.3,14.4,6.3c4.8,0,7.4-1.4,7.4-3.6c0-2.6-3.9-2.9-10-3.9s-12.5-2.4-12.5-8.6 c0-5.7,5.5-10.1,15.1-10.1c7.9,0,14.1,2.9,16.8,6.5l-5,4.6c-2.5-3.1-6.9-4.9-12.7-4.9c-4.5,0-6.9,1.3-6.9,3.2c0,2.1,2.5,2.5,8.8,3.4 c6.5,1,14,2.3,14,8.9c0,6.2-5.9,10.7-15.6,10.7c-8.8,0-16.1-3.5-18.8-7.5L100.1,47.5L100.1,47.5z"></path> <path class="st0" d="M160.4,28.1h8.8L151,46.5l-1.8,13h-7.3l1.8-13l-13.1-18.3h8.4l8.9,12.5C148,40.7,160.4,28.1,160.4,28.1z"></path> <path class="st0" d="M200,59.5h-6.4l-16.5-22.2L174,59.5h-7.1l4.4-31.3h7.3l15.7,21.2l3-21.2h7.1L200,59.5z"></path> <path class="st0" d="M241.5,28.1l-0.8,6.2h-23.2l-0.8,6h20.7l-0.9,6.2h-20.7l-1,6.7H238l-0.9,6.2h-30.3l4.4-31.3H241.5L241.5,28.1z"></path> <path class="st0" d="M249.9,59.5h-7.3l4.4-31.3h19.1c7.2,0,11.6,3.6,11.6,9.4c0,4.8-3,8.8-8.6,10.3l6.3,11.7h-8l-5.9-11.1h-10.1 C251.4,48.4,249.9,59.5,249.9,59.5z M264.6,42.4c3.8,0,5.9-2,5.9-4.5c0-2.2-1.7-3.6-5-3.6h-12.1l-1.1,8.1L264.6,42.4L264.6,42.4z"></path> <path class="st0" d="M317.3,37.5l-6.9,2.7c-1.2-3.9-5.2-6.2-10.5-6.2c-7.2,0-12,4.5-12,10.5s4.4,9.2,10.8,9.2c5,0,9.2-2.2,10.6-5.7 h-13.2l0.8-5.9h20.2l-2.4,17.4h-6.8l0.4-3.1c-2.5,2.3-5.9,3.6-10.4,3.6c-10.2,0-17.5-6.2-17.5-15.1s8-17.2,19.9-17.2 C308.9,27.7,315.6,31.6,317.3,37.5L317.3,37.5z"></path> <path class="st0" d="M347,28.1h8.8l-18.1,18.3l-1.8,13h-7.3l1.8-13l-13-18.3h8.4l8.9,12.5C334.7,40.7,347,28.1,347,28.1z"></path> <path class="st0" d="M366,47.5c2.6,3.8,8.2,6.3,14.4,6.3c4.8,0,7.4-1.4,7.4-3.6c0-2.6-3.9-2.9-10-3.9s-12.5-2.5-12.5-8.6 c0-5.7,5.5-10.1,15.1-10.1c7.9,0,14.1,2.9,16.8,6.5l-5,4.6c-2.5-3.1-6.9-4.9-12.7-4.9c-4.5,0-6.9,1.3-6.9,3.2c0,2.1,2.5,2.5,8.8,3.4 c6.5,1,14,2.3,14,8.9c0,6.2-5.9,10.7-15.6,10.7c-8.8,0-16.1-3.5-18.9-7.5L366,47.5L366,47.5z"></path> <path class="st0" d="M405.4,59.5h-7.3l4.4-31.3h19.2c6.8,0,11.3,3.6,11.3,9.5c0,6.2-4.8,11-13,11h-13L405.4,59.5L405.4,59.5z M419.8,42.4c3.7,0,5.9-2,5.9-4.6c0-2.2-1.8-3.6-4.9-3.6h-12l-1.2,8.2H419.8L419.8,42.4z"></path> <path class="st0" d="M435.1,44.9c0-9.1,7.8-17.2,19.5-17.2c10.5,0,17.7,6.4,17.7,15.1c0,9.1-7.7,17.2-19.4,17.2 C442.3,59.9,435.1,53.5,435.1,44.9z M442.6,44.5c0,5.5,4.3,9.1,10.6,9.1c7,0,11.7-4.7,11.7-10.5c0-5.5-4.3-9.1-10.6-9.1 C447.3,34,442.6,38.7,442.6,44.5L442.6,44.5L442.6,44.5z"></path> <path class="st0" d="M481.7,59.5h-7.3l4.4-31.3h19.1c7.2,0,11.6,3.6,11.6,9.4c0,4.8-3,8.8-8.6,10.3l6.3,11.7h-8l-5.9-11.1h-10.1 L481.7,59.5L481.7,59.5z M496.4,42.4c3.8,0,5.9-2,5.9-4.5c0-2.2-1.7-3.6-5-3.6h-12.1l-1.1,8.1H496.4L496.4,42.4z"></path> <path class="st0" d="M532.6,34.4l-3.5,25.1h-7.3l3.5-25.1h-13.6l0.9-6.2h34.5l-0.9,6.2H532.6L532.6,34.4z"></path> <path class="st0" d="M548.9,47.5c2.6,3.8,8.2,6.3,14.4,6.3c4.8,0,7.4-1.4,7.4-3.6c0-2.6-3.9-2.9-10-3.9s-12.5-2.4-12.5-8.6 c0-5.7,5.5-10.1,15.1-10.1c7.9,0,14.1,2.9,16.8,6.5l-5,4.6c-2.5-3.1-6.9-4.9-12.7-4.9c-4.5,0-6.9,1.3-6.9,3.2c0,2.1,2.5,2.5,8.8,3.4 c6.5,1,14,2.3,14,8.9c0,6.2-5.9,10.7-15.6,10.7c-8.8,0-16.1-3.5-18.8-7.5L548.9,47.5L548.9,47.5z"></path> <path class="st1" d="M36.6,60.3c5.1,0,9.2-2.3,12.8-5.8l12.4-10.7V27.4c-5.1,0-9,2-12.7,5.7L36.5,44l0,0v16.3L36.6,60.3L36.6,60.3z"></path> <path class="st0" d="M36.5,60.3c-9.1,0-16.5-7.4-16.5-16.5s7.4-16.5,16.5-16.5V60.3z"></path> <path class="st0" d="M61.8,27.4c9.1,0,16.4,7.4,16.4,16.5s-7.4,16.5-16.5,16.5C61.7,60.3,61.7,27.4,61.8,27.4z"></path> <g> <path class="st0" d="M338.9,103.7c0-1.2-0.4-2.2-1.1-2.9c-0.8-0.7-1.8-1.1-3.1-1.1h-4.7v8h4.9c1.3,0,2.4-0.3,3.1-1 C338.5,106,338.9,105.1,338.9,103.7L338.9,103.7z"></path> <path class="st0" d="M277.2,100.6c-1-0.7-2.2-1-3.6-1c-1.4,0-2.6,0.3-3.7,1c-1,0.7-1.8,1.6-2.4,2.9c-0.6,1.3-0.8,2.8-0.8,4.5v0 c0,1.7,0.3,3.2,0.8,4.5c0.6,1.3,1.4,2.2,2.4,2.9c1,0.7,2.3,1,3.7,1c0.7,0,1.4-0.1,2-0.3l-2.8-3.9h3.6l1.7,2.4 c0.6-0.6,1.1-1.3,1.5-2.2c0.6-1.3,0.8-2.7,0.8-4.5v0c0-1.7-0.3-3.2-0.8-4.5C279,102.3,278.2,101.3,277.2,100.6z"></path> <path class="st0" d="M381.3,100.8c-1.1-0.6-2.4-0.9-4-0.9h-4.1v16.3h4.1c1.6,0,2.9-0.3,4-0.9c1.1-0.6,1.9-1.5,2.5-2.8 c0.6-1.2,0.8-2.7,0.8-4.4v0c0-1.7-0.3-3.2-0.9-4.4C383.2,102.4,382.4,101.4,381.3,100.8z"></path> <path class="st0" d="M44.1,81.2v51h514v-51H44.1z M230.3,119.2l-2-6h-8.6l-2,6H214l8.1-22.3h1.9h0.9h0.9l8.1,22.3H230.3z M257.6,112.1c-0.2,1.5-0.8,2.8-1.6,3.9c-0.8,1.1-1.9,2-3.2,2.6c-1.3,0.6-2.8,0.9-4.4,0.9c-2.1,0-3.9-0.5-5.5-1.4 c-1.5-0.9-2.7-2.3-3.6-4c-0.8-1.7-1.3-3.8-1.3-6.1v0c0-2.4,0.4-4.4,1.3-6.1c0.8-1.7,2-3,3.6-4c1.5-0.9,3.4-1.4,5.5-1.4 c1.6,0,3.1,0.3,4.4,0.9c1.3,0.6,2.4,1.5,3.3,2.6c0.9,1.1,1.4,2.4,1.6,3.9l0,0.2h-3.4l-0.1-0.3c-0.2-0.9-0.6-1.6-1.1-2.3 s-1.2-1.1-2-1.4c-0.8-0.3-1.7-0.5-2.7-0.5c-1.4,0-2.6,0.3-3.6,1c-1,0.7-1.8,1.7-2.4,2.9c-0.6,1.3-0.8,2.7-0.8,4.5v0 c0,1.7,0.3,3.2,0.8,4.5c0.6,1.3,1.3,2.2,2.4,2.9c1,0.7,2.2,1,3.6,1c1,0,1.9-0.2,2.6-0.5c0.8-0.3,1.4-0.8,2-1.5 c0.5-0.6,1-1.4,1.2-2.4l0-0.2h3.4L257.6,112.1z M284,108c0,2.4-0.4,4.4-1.3,6.1c-0.7,1.3-1.5,2.4-2.6,3.3l2.9,4.1h-3.6l-1.9-2.7 c-1.2,0.4-2.5,0.7-3.9,0.7c-2.1,0-4-0.5-5.6-1.4c-1.6-0.9-2.8-2.3-3.6-4c-0.8-1.7-1.3-3.8-1.3-6.1v0c0-2.4,0.4-4.4,1.3-6.1 c0.8-1.7,2.1-3,3.6-4c1.6-0.9,3.4-1.4,5.6-1.4c2.1,0,4,0.5,5.5,1.4c1.6,0.9,2.8,2.3,3.6,4S284,105.6,284,108L284,108z M308.5,111.3 c0,1.6-0.4,3.1-1.1,4.3c-0.7,1.2-1.8,2.2-3.1,2.9c-1.3,0.7-3,1-4.8,1c-1.9,0-3.5-0.3-4.8-1c-1.3-0.7-2.4-1.6-3.1-2.9 c-0.7-1.2-1.1-2.7-1.1-4.3V96.9h3.5v14.2c0,1.6,0.5,2.9,1.5,3.9c1,1,2.3,1.5,4.1,1.5c1.8,0,3.1-0.5,4.1-1.5c1-1,1.4-2.3,1.4-3.9 V96.9h3.5V111.3z M319.2,119.2h-3.5V96.9h3.5V119.2z M339.1,119.2l-4.5-8.5c0,0-0.1,0-0.1,0s-0.1,0-0.1,0h-4.5v8.5h-3.5V96.9h8.7 c1.5,0,2.8,0.3,3.9,0.8c1.1,0.6,2,1.3,2.6,2.4c0.6,1,0.9,2.2,0.9,3.6v0c0,1.5-0.4,2.8-1.1,4c-0.8,1.1-1.8,1.9-3.2,2.4l5,9.1H339.1z M363.1,99.9h-10.7v6.5h10.1v2.9h-10.1v6.9h10.7v3H349V96.9h14.1V99.9z M388.2,108c0,2.3-0.4,4.4-1.2,6c-0.8,1.7-2,2.9-3.6,3.8 c-1.6,0.9-3.5,1.3-5.7,1.3h-7.8V96.9h7.8c2.2,0,4.1,0.4,5.7,1.3c1.6,0.9,2.8,2.1,3.6,3.8S388.2,105.6,388.2,108L388.2,108z"></path> <polygon class="st0" points="224,100.6 220.7,110.4 227.4,110.4 224.1,100.6 "></polygon> </g> </svg> 