<?xml version="1.0" encoding="UTF-8"?> <svg xmlns="http://www.w3.org/2000/svg" xmlns:xlink="http://www.w3.org/1999/xlink" version="1.1" id="Layer_1" x="0px" y="0px" viewBox="0 0 600 154.1" style="enable-background:new 0 0 600 154.1;" xml:space="preserve"> <style type="text/css"> .st0{fill:#016AF1;} </style> <g> <g transform="translate(-40.000000, -41.000000)"> <path class="st0" d="M492.4,89.2l19.3,11.2c4.5,2.6,7.2,7.3,7.2,12.5v10.4c0,5.2-2.7,9.9-7.2,12.5l-19.3,11.2v-14.1 c0-1.7,0.9-3.3,2.4-4.2l15.9-9.2l5.7,0.5l-21.6-12.5c-1.5-0.9-2.4-2.4-2.4-4.2V89.2z M548.7,89.2v15.1c0,2-1.1,3.9-2.8,4.9 l-15.7,9.1l0.6-0.1l15,8.8c1.7,1,2.8,2.9,2.8,4.9v15.1l-1.7-1l-17.8-10.4c-4.5-2.6-7.2-7.4-7.2-12.6v-9.7c0-5.2,2.8-10,7.2-12.6 L547,90.2L548.7,89.2z M168.5,91.4c6.9,2.9,12.3,8.4,15.1,15.3c1.5,3.6,2.2,7.5,2.1,11.4c0,3.9-0.7,7.7-2.1,11.3 c-2.8,6.9-8.2,12.5-15.1,15.3c-3.6,1.5-7.4,2.2-11.3,2.2c-3.9,0-7.7-0.7-11.3-2.2c-6.9-2.9-12.4-8.4-15.1-15.3 c-1.4-3.6-2.2-7.5-2.1-11.3c0-3.9,0.7-7.8,2.1-11.4c1.4-3.4,3.4-6.5,6-9.2c2.6-2.6,5.7-4.7,9.1-6.1c3.6-1.5,7.4-2.2,11.3-2.2 C161.1,89.1,164.9,89.9,168.5,91.4z M237,89.2c5,0,9.4,0.9,13.2,2.7c3.7,1.8,6.9,4.4,9.3,7.7l-8.4,8c-1.6-2-3.6-3.7-5.8-5.1 c-2.1-1.3-4.7-2-7.8-2c-3.4,0-6.2,0.8-8.6,2.4c-2.4,1.6-4.3,3.8-5.5,6.4c-1.3,2.8-1.9,5.8-1.9,8.8c0,3.5,0.7,6.6,2.2,9.1 c1.4,2.5,3.4,4.6,5.9,6c2.5,1.4,5.3,2.1,8.4,2.1c2,0,4.1-0.2,6-0.8c1.8-0.5,3.4-1.4,4.9-2.5v-6.9h-9.7v-10h21.2v23.7 c-3,2.5-6.4,4.4-10,5.7c-3.8,1.4-8.2,2.1-13.1,2.1c-6,0-11.1-1.2-15.4-3.6c-4.2-2.3-7.6-5.8-9.8-10.1c-2.3-4.3-3.4-9.2-3.4-14.8 c0-3.9,0.7-7.8,2.1-11.4c1.3-3.4,3.3-6.5,5.8-9.2c2.5-2.6,5.6-4.7,9-6.1C229,89.9,232.8,89.2,237,89.2z M111.2,90.7v11H93.4v44.1 H80.9v-44.1H63.1v-11H111.2z M324.7,90.7v10.9h-25.1v10.7h19.5v10.6h-19.5v11.9h26.9v11h-39.4v-55H324.7z M395.6,90.7v11h-17.7 v44.1h-12.5v-44.1h-17.8v-11H395.6z M431.2,90.7v21.1H455V90.7h12.4v55H455v-22.6h-23.8v22.6h-12.4v-55H431.2z M594.6,90.7 c4.3,0,7.8,0.8,10.7,2.4c2.8,1.6,5,3.7,6.4,6.3c1.4,2.6,2.2,5.6,2.1,8.6c0,3.5-0.8,6.6-2.3,9.3c-1.6,2.7-3.9,4.9-6.6,6.4l12.1,22 h-13.6l-10.2-20.2h-6.9v20.2h-12v-55H594.6z M547.6,91.1l-17.8,10.4c-4.1,2.4-6.7,6.8-6.7,11.7v9.7c0,4.8,2.5,9.2,6.7,11.7 l17.8,10.4v-13.1c0-1.6-0.8-3.1-2.2-3.9l-14.7-8.6l-5.3,0.5l20-11.7c1.4-0.8,2.2-2.3,2.2-3.9V91.1z M157.2,100.7 c-3.2,0-6,0.8-8.4,2.3c-2.3,1.6-4.2,3.7-5.4,6.3c-1.3,2.7-1.9,5.6-1.9,8.6c0,3,0.6,5.9,1.9,8.6c1.2,2.6,3.1,4.7,5.4,6.3 c2.3,1.6,5,2.3,8.1,2.4l0.2,0l0.2,0c3.1,0,5.9-0.8,8.1-2.4c2.3-1.6,4.2-3.8,5.4-6.3c1.3-2.7,1.9-5.7,1.9-8.6c0-3-0.6-5.9-1.9-8.6 c-1.2-2.5-3-4.7-5.4-6.3C163.2,101.5,160.4,100.7,157.2,100.7z M593.9,100.9h-7.6v14.6h7.6c2.3,0,4.1-0.7,5.4-2.1 c1.3-1.4,2-3.1,2-5.2c0-2.3-0.7-4-2-5.4C597.9,101.6,596.1,100.9,593.9,100.9z"></path> </g> </g> </svg> 