<?xml version="1.0" encoding="UTF-8"?> <svg xmlns="http://www.w3.org/2000/svg" xmlns:xlink="http://www.w3.org/1999/xlink" version="1.1" id="Layer_1" x="0px" y="0px" viewBox="0 0 600 324.2" style="enable-background:new 0 0 600 324.2;" xml:space="preserve"> <style type="text/css"> .st0{fill:#016AF1;} </style> <g> <path class="st0" d="M208.7,24.5c0.6,0.9,1.6,0.7,2.4,1c3.3,1.3,5.6,3.7,7.1,6.8c6.7,13.2,13.4,26.4,20.1,39.6 c7.6,15,15.2,29.9,22.8,44.9c0.8,1.6,1.6,3.2,2.4,4.7c0.2,0.3,0.2,0.7,0.7,0.8c0.5,0,0.5-0.4,0.7-0.7c4-7.8,7.9-15.7,12-23.5 c2.9-5.5,5.4-11.2,8.7-16.5c3.1-5,10-7.2,15.5-5c5.6,2.3,8.7,7,8.6,13c0,2.4-1,4.6-2.1,6.7c-6.7,13.2-13.4,26.4-20.1,39.6 c-3.9,7.5-7.7,15.1-11.7,22.6c-2.6,4.9-6.9,7.2-12.5,6.9c-5.1-0.3-8.8-3.1-11.1-7.6c-6.7-13.2-13.4-26.4-20.1-39.6 c-6.7-13.2-13.5-26.5-20.2-39.7c-5.8-11.4-11.6-22.9-17.4-34.3c-4.2-8.1,0.5-17.1,8.3-19c0.4-0.1,0.7-0.2,0.9-0.5L208.7,24.5 L208.7,24.5z"></path> <path class="st0" d="M304.9,24.5c1.6,0,3.2,0.3,4.7,0.9h0c2.8,1.2,4.9,3.1,6.7,5.5c8.2,10.9,16.7,21.7,25.4,32.3 c2.1,2.6,4.2,5.2,6.3,7.9c0.7,0.9,1.2,0.9,1.9,0c3.6-4.5,7.2-9,10.8-13.5c3.5-4.5,8.2-6.3,13.7-5.2c7.1,1.4,11.4,8.5,10.2,15.1 c-0.5,2.7-1.8,5-3.4,7.1c-6.1,7.6-12.2,15.2-18.3,22.8c-0.6,0.7-0.6,1.4-0.6,2.2c0,17.2,0,34.3,0,51.5c0,4.6-1.5,8.6-5.2,11.4 c-7.7,5.9-18.1,1.9-20.7-6.6c-0.5-1.8-0.6-3.5-0.6-5.3c0-17.1,0-34.1,0-51.2c0-1.1-0.3-2-1-2.8c-10-12.3-19.9-24.7-29.7-37.1 c-3.8-4.8-7.7-9.6-11.1-14.7c-5.2-7.9,0.9-18.8,7.6-19.9c0.1,0,0.2-0.1,0.2-0.1c-0.1,0,0.6-0.1,1.2-0.3S304.2,24.5,304.9,24.5 L304.9,24.5L304.9,24.5z"></path> <path class="st0" d="M298.4,229.2c-1.9,0-3.7-0.4-5.5-1c0,0,0,0,0,0c-5.5-1.9-8.7-5.8-9.8-11.5c-1.4-7.3,2-14.1,8.8-16.8 c8-3.2,17.7-0.1,20.7,8.6c2.8,8.1-1.3,17.8-10.5,20c0,0,0,0,0,0C300.9,228.9,299.7,229.2,298.4,229.2L298.4,229.2L298.4,229.2z M306,213.6c0-3.6-2-6.8-4.9-7.8c-3.4-1.2-6.7-0.5-8.9,2.1c-2.3,2.8-2.6,6-1.4,9.3c1.7,4.9,8,6.8,12,3.5 C305.1,218.9,306,216.5,306,213.6L306,213.6z"></path> <path class="st0" d="M243,229.2c-1.4,0-2.9-0.3-4.2-0.6c0,0,0,0,0,0c-1.7-0.4-3.3-1.1-4.8-2c-1.5-1-1.7-2.2-0.7-3.7 c0.2-0.4,0.5-0.7,0.7-1c1.2-1.6,2.1-1.9,3.9-0.9c1.8,1,3.7,1.7,5.8,1.5c1.1-0.1,1.9-0.6,2.2-1.5c0.3-1.1-0.4-1.9-1.2-2.3 c-2.1-1.1-4.3-2.1-6.5-3.2c-4.2-2.1-5.8-5.3-4.9-9.9c0.6-3.2,4.5-6.1,8.1-6.5c3-0.3,6,0,8.8,1.3c1.1,0.5,2.3,1.1,2.1,2.6 c-0.2,1.6-0.9,3.1-2.3,4.1c-0.5,0.4-1.2,0.1-1.8-0.1c-1.1-0.5-2.3-0.9-3.5-1.3c-0.5-0.1-1-0.2-1.6-0.1c-1.2,0.1-2.6,0.2-2.9,1.7 c-0.3,1.4,0.8,2.1,1.8,2.6c1.8,0.9,3.7,1.7,5.6,2.5c6.4,2.9,6.4,8.8,3.9,12.8c-1.1,1.8-2.9,2.8-4.9,3.5c0,0,0,0,0,0 c-1.1,0.4-2.1,0.7-3.2,0.7L243,229.2L243,229.2z"></path> <path class="st0" d="M379.2,229.2c-1.3,0-2.6-0.2-3.8-0.7c-1-0.4-2.1-0.8-2.8-1.2c-0.7-0.4-1.4-0.8-2-1.3c-0.9-0.8-1.2-1.7-0.5-2.8 c0.4-0.6,0.8-1.2,1.2-1.8c1.1-1.4,2-1.6,3.5-0.7c1.7,0.9,3.5,1.7,5.5,1.6c1.1-0.1,2.2-0.3,2.5-1.5c0.4-1.2-0.4-1.9-1.4-2.6 c-2-1.2-4.2-1.9-6.2-3c-4.1-2.1-5.8-5.1-5-9.6c0.5-3.2,4.1-6.3,7.8-6.8c3.1-0.4,6.1-0.1,8.9,1.2c1.2,0.5,2.5,1.2,2.4,2.6 c-0.1,1.6-0.8,3.1-2.1,4.1c-0.4,0.3-1,0.4-1.5,0.1c-1.3-0.6-2.6-1.2-4-1.5c-0.3-0.1-0.6-0.2-0.9-0.1c-1.4,0.1-3,0-3.4,1.6 c-0.4,1.6,0.9,2.3,2.1,2.9c2.1,1,4.2,1.9,6.2,2.9c3.4,1.7,4.7,4.6,4.5,7.3c-0.3,3.7-2,6.7-5.8,8c0,0-0.1,0-0.1,0.1 C382.8,228.8,381,229.2,379.2,229.2L379.2,229.2L379.2,229.2z"></path> <path class="st0" d="M407.1,38.5c0,7.3-6.2,13.3-13.4,13.2c-7.2-0.1-13.1-6.1-13.1-13.3c0-7.2,6-13.1,13.3-13.2 C400.9,25.1,407.2,31.1,407.1,38.5z"></path> <path class="st0" d="M318.6,213.8c0-4.1,0-8.1,0-12.2c0-1.8,0.6-2.5,2.3-2.5c4,0,8.1-0.3,12.1,0.3c3.6,0.5,6.3,3.5,6.7,7.5 c0.4,3.5-0.5,6.6-3.4,8.8c-0.8,0.6-0.6,1-0.2,1.7c1.5,2.6,2.9,5.2,4.4,7.8c1.2,2.1,0.5,3.2-1.9,3.2c-0.7,0-1.4,0-2,0 c-1.6,0.1-2.7-0.6-3.4-2c-1.2-2.3-2.4-4.6-3.7-6.9c-0.5-0.9-2.6-1.4-3.5-0.9c-0.5,0.3-0.4,0.8-0.4,1.3c0,2.1,0,4.1,0,6.2 c0,1.6-0.7,2.3-2.3,2.3c-4.7,0.1-4.8,0.1-4.8-4.6C318.6,220.6,318.5,217.2,318.6,213.8L318.6,213.8z M325.6,208.8 c0,4.2,0.2,4.4,4.1,3.5c2-0.4,3.1-2.1,2.7-4.3c-0.3-2-2.2-3-5.6-2.8c-2.3,0.1-0.9,1.9-1.2,2.9C325.6,208.4,325.6,208.6,325.6,208.8 L325.6,208.8z"></path> <path class="st0" d="M258.1,213.8c0-3.9,0-7.9,0-11.8c0-1.9,0.7-2.7,2.5-2.7c3.7-0.1,7.5-0.2,11.2,0.1c6.2,0.6,8.9,6.9,8.1,11.8 c-0.6,3.5-2.3,6.3-5.8,7.7c-2.2,0.9-4.5,0.9-6.8,0.8c-1.4-0.1-1.9,0.3-1.8,1.7c0.1,1.5,0.1,3.1,0,4.6c0,1.9-0.8,2.7-2.7,2.7 c-4.4,0.1-4.7-0.2-4.7-4.5C258.1,220.6,258.1,217.2,258.1,213.8L258.1,213.8z M265.4,209.3c0,0.4,0,0.8,0,1.3 c0,3.3-0.4,2.8,2.9,2.8c3,0,4.4-1.5,4.2-4.7c-0.1-2.5-1.7-3.5-5.7-3.4c-2,0-1.4,0.3-1.4,0.3C265.3,205.8,265.4,208.9,265.4,209.3 L265.4,209.3z"></path> <path class="st0" d="M210.2,214c0-3.8,0-7.6,0-11.4c0-2.9,0.8-3.6,3.7-3.6c3.8,0,7.7,0,11.5,0c2.6,0,3.5,0.9,3.4,3.4 c0,2-0.8,2.9-2.9,2.9c-2.4,0.1-4.7,0.1-7.1,0c-0.9,0-1.3,0.3-1.3,1.2c-0.2,4.1-0.2,4.1,3.9,4.1c1,0,2,0,3,0.1 c1.4,0.1,2,0.9,2.1,2.3c0,0.5,0,1.1,0,1.6c0,1.2-0.6,1.9-1.8,2.2c-1.9,0.4-3.8,0.3-5.7,0.1c-1.1-0.1-1.4,0.2-1.4,1.3 c-0.1,4.1-0.2,4.1,3.9,4.1c1.7,0,3.5,0,5.2,0c1.9,0,2.7,0.9,2.7,3c0,2.3-0.8,3.2-2.7,3.2c-4.5,0-9.1,0-13.6,0c-2.1,0-2.9-0.8-2.9-3 C210.1,221.7,210.2,217.9,210.2,214L210.2,214z"></path> <path class="st0" d="M358.5,216.7c0,3.1,0,6.2,0,9.3c0,1.9-0.6,2.5-2.6,2.5c-3,0.1-4.5-1.4-4.5-4.4c0-5.7,0-11.4,0-17 c0-1.4-0.4-1.9-1.8-1.8c-1.8,0.1-3.6,0.1-5.4-0.1c-1.1-0.1-1.7-0.7-1.8-1.8c-0.3-3.6,0.3-4.3,3.2-4.3c6.1,0,12.2,0,18.3,0 c3,0,4.5,2.4,3.1,5.1c-0.3,0.6-0.8,0.9-1.5,1c-1.8,0.2-3.6,0.2-5.4,0.1c-1.5-0.1-1.9,0.5-1.9,1.9 C358.5,210.4,358.5,213.5,358.5,216.7L358.5,216.7z"></path> </g> <g> <path class="st0" d="M338.9,272.6c0-1.2-0.4-2.2-1.1-2.9c-0.8-0.7-1.8-1.1-3.1-1.1h-4.7v8h4.9c1.3,0,2.4-0.3,3.1-1 C338.5,274.9,338.9,273.9,338.9,272.6L338.9,272.6z"></path> <path class="st0" d="M277.2,269.5c-1-0.7-2.2-1-3.6-1c-1.4,0-2.6,0.3-3.7,1c-1,0.7-1.8,1.6-2.4,2.9c-0.6,1.3-0.8,2.8-0.8,4.5v0 c0,1.7,0.3,3.2,0.8,4.5c0.6,1.3,1.4,2.2,2.4,2.9c1,0.7,2.3,1,3.7,1c0.7,0,1.4-0.1,2-0.3l-2.8-3.9h3.6l1.7,2.4 c0.6-0.6,1.1-1.3,1.5-2.2c0.6-1.3,0.8-2.7,0.8-4.5v0c0-1.7-0.3-3.2-0.8-4.5C279,271.1,278.2,270.2,277.2,269.5z"></path> <path class="st0" d="M381.3,269.7c-1.1-0.6-2.4-0.9-4-0.9h-4.1V285h4.1c1.6,0,2.9-0.3,4-0.9c1.1-0.6,1.9-1.5,2.5-2.8 c0.6-1.2,0.8-2.7,0.8-4.4v0c0-1.7-0.3-3.2-0.9-4.4C383.2,271.2,382.4,270.3,381.3,269.7z"></path> <path class="st0" d="M44.1,250v51h514v-51H44.1z M230.3,288l-2-6h-8.6l-2,6H214l8.1-22.3h1.9h0.9h0.9L234,288H230.3z M257.6,281 c-0.2,1.5-0.8,2.8-1.6,3.9c-0.8,1.1-1.9,2-3.2,2.6c-1.3,0.6-2.8,0.9-4.4,0.9c-2.1,0-3.9-0.5-5.5-1.4c-1.5-0.9-2.7-2.3-3.6-4 c-0.8-1.7-1.3-3.8-1.3-6.1v0c0-2.4,0.4-4.4,1.3-6.1c0.8-1.7,2-3,3.6-4c1.5-0.9,3.4-1.4,5.5-1.4c1.6,0,3.1,0.3,4.4,0.9 c1.3,0.6,2.4,1.5,3.3,2.6c0.9,1.1,1.4,2.4,1.6,3.9l0,0.2h-3.4l-0.1-0.3c-0.2-0.9-0.6-1.6-1.1-2.3s-1.2-1.1-2-1.4 c-0.8-0.3-1.7-0.5-2.7-0.5c-1.4,0-2.6,0.3-3.6,1c-1,0.7-1.8,1.7-2.4,2.9c-0.6,1.3-0.8,2.7-0.8,4.5v0c0,1.7,0.3,3.2,0.8,4.5 c0.6,1.3,1.3,2.2,2.4,2.9c1,0.7,2.2,1,3.6,1c1,0,1.9-0.2,2.6-0.5c0.8-0.3,1.4-0.8,2-1.5c0.5-0.6,1-1.4,1.2-2.4l0-0.2h3.4L257.6,281 z M284,276.9c0,2.4-0.4,4.4-1.3,6.1c-0.7,1.3-1.5,2.4-2.6,3.3l2.9,4.1h-3.6l-1.9-2.7c-1.2,0.4-2.5,0.7-3.9,0.7 c-2.1,0-4-0.5-5.6-1.4c-1.6-0.9-2.8-2.3-3.6-4c-0.8-1.7-1.3-3.8-1.3-6.1v0c0-2.4,0.4-4.4,1.3-6.1c0.8-1.7,2.1-3,3.6-4 c1.6-0.9,3.4-1.4,5.6-1.4c2.1,0,4,0.5,5.5,1.4c1.6,0.9,2.8,2.3,3.6,4S284,274.5,284,276.9L284,276.9z M308.5,280.2 c0,1.6-0.4,3.1-1.1,4.3c-0.7,1.2-1.8,2.2-3.1,2.9c-1.3,0.7-3,1-4.8,1c-1.9,0-3.5-0.3-4.8-1c-1.3-0.7-2.4-1.6-3.1-2.9 c-0.7-1.2-1.1-2.7-1.1-4.3v-14.4h3.5v14.2c0,1.6,0.5,2.9,1.5,3.9c1,1,2.3,1.5,4.1,1.5c1.8,0,3.1-0.5,4.1-1.5c1-1,1.4-2.3,1.4-3.9 v-14.2h3.5V280.2z M319.2,288h-3.5v-22.3h3.5V288z M339.1,288l-4.5-8.5c0,0-0.1,0-0.1,0s-0.1,0-0.1,0h-4.5v8.5h-3.5v-22.3h8.7 c1.5,0,2.8,0.3,3.9,0.8c1.1,0.6,2,1.3,2.6,2.4c0.6,1,0.9,2.2,0.9,3.6v0c0,1.5-0.4,2.8-1.1,4c-0.8,1.1-1.8,1.9-3.2,2.4l5,9.1H339.1z M363.1,268.7h-10.7v6.5h10.1v2.9h-10.1v6.9h10.7v3H349v-22.3h14.1V268.7z M388.2,276.8c0,2.3-0.4,4.4-1.2,6 c-0.8,1.7-2,2.9-3.6,3.8c-1.6,0.9-3.5,1.3-5.7,1.3h-7.8v-22.3h7.8c2.2,0,4.1,0.4,5.7,1.3c1.6,0.9,2.8,2.1,3.6,3.8 S388.2,274.5,388.2,276.8L388.2,276.8z"></path> <polygon class="st0" points="224,269.4 220.7,279.2 227.4,279.2 224.1,269.4 "></polygon> </g> </svg> 